<?xml version="1.0" encoding="iso-8859-1"?>
<!-- Generator: Adobe Illustrator 23.0.0, SVG Export Plug-In . SVG Version: 6.00 Build 0)  -->
<svg version="1.1" id="&#x56FE;&#x5C42;_1" xmlns="http://www.w3.org/2000/svg" xmlns:xlink="http://www.w3.org/1999/xlink" x="0px"
     y="0px" viewBox="0 0 500 500" style="enable-background:new 0 0 500 500;" xml:space="preserve">
<g>
	<radialGradient id="SVGID_1_" cx="250" cy="251" r="237" gradientUnits="userSpaceOnUse">
		<stop  offset="0" style="stop-color:#70EB8F"/>
        <stop  offset="1" style="stop-color:#70EB8F;stop-opacity:0"/>
	</radialGradient>
    <circle style="fill:url(#SVGID_1_);" cx="250" cy="251" r="237"/>
    <g style="opacity:0.3;">
		<path style="fill:#70EB8F;" d="M250,449.233c-26.761,0-52.722-5.241-77.161-15.578c-23.606-9.984-44.805-24.278-63.011-42.483
			s-32.498-39.405-42.483-63.011c-10.337-24.44-15.578-50.4-15.578-77.161s5.241-52.722,15.578-77.161
			c9.984-23.605,24.278-44.805,42.483-63.011s39.405-32.498,63.011-42.483C197.278,58.008,223.239,52.767,250,52.767
			s52.722,5.241,77.161,15.578c23.606,9.984,44.805,24.278,63.011,42.483s32.498,39.405,42.483,63.011
			c10.337,24.44,15.578,50.4,15.578,77.161s-5.241,52.722-15.578,77.161c-9.984,23.605-24.278,44.805-42.483,63.011
			s-39.405,32.498-63.011,42.483C302.722,443.992,276.761,449.233,250,449.233z M250,53.867C141.3,53.867,52.867,142.3,52.867,251
			S141.3,448.133,250,448.133S447.133,359.7,447.133,251S358.7,53.867,250,53.867z"/>
	</g>
    <g style="opacity:0.7;">
		<path style="fill:#70EB8F;" d="M250,433.836c-48.837,0-94.752-19.018-129.285-53.551C86.182,345.752,67.164,299.838,67.164,251
			s19.018-94.752,53.551-129.285C155.248,87.182,201.163,68.164,250,68.164s94.752,19.018,129.285,53.551
			c34.533,34.533,53.551,80.447,53.551,129.285s-19.018,94.752-53.551,129.285C344.752,414.818,298.837,433.836,250,433.836z
			 M250,72.563c-98.391,0-178.437,80.047-178.437,178.437S151.609,429.437,250,429.437S428.437,349.391,428.437,251
			S348.391,72.563,250,72.563z"/>
	</g>
    <linearGradient id="SVGID_2_" gradientUnits="userSpaceOnUse" x1="251.1673" y1="415.1356" x2="248.7903" y2="80.8923">
		<stop  offset="0" style="stop-color:#70EB8F"/>
        <stop  offset="1" style="stop-color:#70EB8F"/>
	</linearGradient>
    <circle style="fill:url(#SVGID_2_);" cx="250" cy="251" r="167.126"/>
    <path style="fill:#43C85E;" d="M250,83.874c-8.793,0-17.427,0.683-25.854,1.992C304.17,98.294,341.411,167.493,341.411,251
		S304.17,403.706,224.146,416.133c8.426,1.309,17.06,1.992,25.854,1.992c92.301,0,167.126-74.825,167.126-167.126
		S342.301,83.874,250,83.874z"/>
    <ellipse style="fill:#43C85E;" cx="283.24" cy="157.742" rx="37.857" ry="29.547"/>
    <ellipse style="fill:#43C85E;" cx="140.122" cy="318.404" rx="27.7" ry="20.314"/>
    <ellipse style="fill:#43C85E;" cx="176.132" cy="187.289" rx="12.927" ry="9.48"/>
    <ellipse style="fill:#43C85E;" cx="216.76" cy="376.575" rx="12.927" ry="9.48"/>
    <ellipse style="fill:#43C85E;" cx="269.39" cy="389.841" rx="19.39" ry="13.512"/>
    <ellipse style="fill:#43C85E;" cx="339.565" cy="243.49" rx="19.39" ry="19.513"/>
    <ellipse style="fill:#43C85E;" cx="262.927" cy="288.857" rx="7.555" ry="5.54"/>
</g>
</svg>
