<?xml version="1.0" encoding="UTF-8"?>
<svg width="201px" height="200px" viewBox="0 0 201 200" version="1.1" xmlns="http://www.w3.org/2000/svg" xmlns:xlink="http://www.w3.org/1999/xlink">
    <title>奶茶</title>
    <g id="页面-1" stroke="none" stroke-width="1" fill="none" fill-rule="evenodd">
        <g id="美食插画库" transform="translate(-322.000000, -112.000000)">
            <g id="编组-7" transform="translate(82.577278, 100.000000)">
                <g id="奶茶" transform="translate(240.000000, 12.000000)">
                    <g transform="translate(40.000000, 14.000000)">
                        <path d="M12.6231935,95.4085227 L51.0430697,152.333529 C61.0058291,167.094544 80.0185328,172.772438 96.4287339,165.853831 C96.9001144,165.654981 97.3719257,165.450961 97.8441679,165.241554 C117.395684,156.561518 125.5382,133.14675 115.748438,114.126937 L85.5497127,55.4553674 C85.5497127,55.4553674 77.60734,98.0560521 12.6231935,95.4085227" id="Fill-1" fill="#FFE8C8"></path>
                        <path d="M12.6231935,95.4085227 L51.0430697,152.333529 C61.0058291,167.094544 80.0185328,172.772438 96.4287339,165.853831 C96.9001144,165.654981 97.3719257,165.450961 97.8441679,165.241554 C117.395684,156.561518 125.5382,133.14675 115.748438,114.126937 L85.5497127,55.4553674 C85.5497127,55.4553674 77.60734,98.0560521 12.6231935,95.4085227 Z" id="Stroke-3" stroke="#151C23" stroke-width="1.24675325"></path>
                        <path d="M83.3139949,46.7235186 C83.1782683,46.6293717 83.0671018,46.5042017 82.9888975,46.3589958 C75.4750328,32.4127701 60.954016,22.9631864 44.2727927,22.9631864 C19.8810089,22.9631864 0.107805656,43.1674831 0.107805656,68.0911856 C0.107805656,75.7304357 1.96532038,82.9263125 5.24430137,89.2328572 C5.36796333,89.4704863 5.39834022,89.745171 5.32659905,90.0032669 C5.22361922,90.3729601 5.32896888,90.7700142 5.6027918,91.0386665 C6.81722122,92.2304749 10.2763092,95.408415 12.6230858,95.408415 C15.5112605,95.408415 41.1670246,98.7126023 61.5357012,84.6689982 C79.0097399,72.6212206 83.8008869,61.6930793 85.4782947,55.6142536 C85.510826,55.4966239 85.558438,55.385242 85.5681327,55.2637344 C85.6288865,54.5092672 85.7534102,51.6185072 84.5092502,48.2630454 C84.2780842,47.6402113 83.8603481,47.1020448 83.3139949,46.7235186" id="Fill-5" fill="#FFEFD9"></path>
                        <path d="M83.3139949,46.7235186 C83.1782683,46.6293717 83.0671018,46.5042017 82.9888975,46.3589958 C75.4750328,32.4127701 60.954016,22.9631864 44.2727927,22.9631864 C19.8810089,22.9631864 0.107805656,43.1674831 0.107805656,68.0911856 C0.107805656,75.7304357 1.96532038,82.9263125 5.24430137,89.2328572 C5.36796333,89.4704863 5.39834022,89.745171 5.32659905,90.0032669 C5.22361922,90.3729601 5.32896888,90.7700142 5.6027918,91.0386665 C6.81722122,92.2304749 10.2763092,95.408415 12.6230858,95.408415 C15.5112605,95.408415 41.1670246,98.7126023 61.5357012,84.6689982 C79.0097399,72.6212206 83.8008869,61.6930793 85.4782947,55.6142536 C85.510826,55.4966239 85.558438,55.385242 85.5681327,55.2637344 C85.6288865,54.5092672 85.7534102,51.6185072 84.5092502,48.2630454 C84.2780842,47.6402113 83.8603481,47.1020448 83.3139949,46.7235186 Z" id="Stroke-7" stroke="#151C23" stroke-width="1.24675325"></path>
                        <path d="M111.565648,112.118292 C113.694831,110.460489 106.07971,108.213245 107.901246,103.02052 C109.07625,99.6706594 104.392392,95.0402298 103.07606,96.1191481 C101.166624,97.6845276 109.631221,109.643329 107.230585,115.906139 C105.871596,119.452049 104.971707,123.153722 104.780828,126.946309 C104.299753,136.504905 101.364828,151.452922 88.1172711,155.413982 C68.2096339,161.365915 57.8041476,157.969735 63.9805671,162.899625 C66.6638594,165.041303 73.6742432,161.802609 79.3519216,166.467078 C87.1658927,172.886298 86.7722857,159.381937 97.0607887,153.42979 C107.349292,147.477642 82.8715479,167.698097 90.3418939,167.162084 C97.0485087,166.681009 117.850218,146.192333 112.73979,146.992474 C102.639581,148.574011 121.99871,131.547654 117.829966,121.196674 C115.542651,115.517057 95.3792876,124.720609 111.565648,112.118292" id="Fill-9" fill="#5581FF"></path>
                        <path d="M31.6370606,114.662949 L52.1199198,145.832658 C61.2528083,159.730625 79.3988011,164.509923 94.1867468,156.901912 C94.4258841,156.778896 94.6650213,156.654157 94.9039431,156.527479 C110.296195,148.369236 116.525613,129.528453 109.038893,113.798608 L94.214323,82.6523818 C94.214323,82.6523818 84.8278629,98.0560521 71.5902159,101.906808 C57.6857854,105.951675 39.5796488,105.517134 31.6370606,114.662949" id="Fill-11" fill="#72463D"></path>
                        <path d="M31.6370606,114.662949 L52.1199198,145.832658 C61.2528083,159.730625 79.3988011,164.509923 94.1867468,156.901912 C94.4258841,156.778896 94.6650213,156.654157 94.9039431,156.527479 C110.296195,148.369236 116.525613,129.528453 109.038893,113.798608 L94.214323,82.6523818 C94.214323,82.6523818 84.8278629,98.0560521 71.5902159,101.906808 C57.6857854,105.951675 39.5796488,105.517134 31.6370606,114.662949 Z" id="Stroke-13" stroke="#151C23" stroke-width="1.24675325"></path>
                        <path d="M31.6370606,113.324039 C31.6370606,113.324039 32.5998573,100.944054 53.0577256,95.4085658 C73.5158094,89.8726463 79.0515135,80.7268315 81.6990429,78.0793021 C84.3463568,75.4317727 92.4740071,73.2521767 94.214323,81.2083376 C95.8992711,88.910065 79.0099338,100.317558 67.8512728,102.87568 C56.2733676,105.530104 45.9773242,103.65363 31.6370606,113.324039" id="Fill-15" fill="#966259"></path>
                        <path d="M31.5800026,113.358318 C31.5800026,113.358318 32.5436756,100.967066 53.0201626,95.4265395 C73.4968652,89.8855818 79.0376073,80.7314434 81.6875462,78.0815045 C84.3372695,75.4315656 92.4723167,73.249986 94.2142165,81.2133877 C95.9006981,88.9221244 78.9959898,100.339999 67.8271733,102.90045 C56.2387311,105.557289 45.9333173,103.679108 31.5800026,113.358318 Z" id="Stroke-17" stroke="#151C23" stroke-width="1.24675325"></path>
                        <path d="M15.5274184,97.5037959 C17.8841052,100.991753 25.3843972,110.083923 34.2432473,100.269386 C35.7319305,98.6202006 38.3161208,98.6460532 39.8142834,100.286405 C41.7958909,102.455876 44.8706358,104.502761 48.9661304,103.351025 C52.4960978,102.358067 53.3464354,100.101343 53.2320373,97.9478156 C53.1262568,95.9603911 54.7383865,94.2037019 56.723872,94.0671136 C58.9504336,93.9139365 61.4799025,92.8397578 63.3811513,89.4737395 C63.9020827,88.5512298 64.8000323,87.9046975 65.8337085,87.671808 C68.4211304,87.0886147 73.2140009,85.3155521 74.8670641,80.0616421 C75.4233275,78.2933191 77.2108245,77.2400381 79.0444255,77.5149382 C81.5344691,77.8880785 86.0455455,76.8296268 87.2479103,73.8636787 C88.9860718,69.5762279 87.4771374,64.0528038 86.3042877,60.898562 C85.9339481,59.9019414 84.564618,59.8041321 84.051227,60.7352593 C79.3529341,69.2565165 60.1872687,97.423868 16.1832146,95.7468911 C15.5715834,95.7234083 15.184655,96.9966526 15.5274184,97.5037959" id="Fill-19" fill="#F7CB97"></path>
                        <path d="M15.5274184,97.5037959 C17.8841052,100.991753 25.3843972,110.083923 34.2432473,100.269386 C35.7319305,98.6202006 38.3161208,98.6460532 39.8142834,100.286405 C41.7958909,102.455876 44.8706358,104.502761 48.9661304,103.351025 C52.4960978,102.358067 53.3464354,100.101343 53.2320373,97.9478156 C53.1262568,95.9603911 54.7383865,94.2037019 56.723872,94.0671136 C58.9504336,93.9139365 61.4799025,92.8397578 63.3811513,89.4737395 C63.9020827,88.5512298 64.8000323,87.9046975 65.8337085,87.671808 C68.4211304,87.0886147 73.2140009,85.3155521 74.8670641,80.0616421 C75.4233275,78.2933191 77.2108245,77.2400381 79.0444255,77.5149382 C81.5344691,77.8880785 86.0455455,76.8296268 87.2479103,73.8636787 C88.9860718,69.5762279 87.4771374,64.0528038 86.3042877,60.898562 C85.9339481,59.9019414 84.564618,59.8041321 84.051227,60.7352593 C79.3529341,69.2565165 60.1872687,97.423868 16.1832146,95.7468911 C15.5715834,95.7234083 15.184655,96.9966526 15.5274184,97.5037959 Z" id="Stroke-21" stroke="#151C23" stroke-width="1.24675325"></path>
                        <path d="M92.0067846,77.8411989 C92.0067846,77.8411989 93.6609249,83.3228279 87.0073081,88.0523594 C80.3539066,92.7823218 67.2095447,88.2128614 74.4784553,94.4916145 C77.8955327,97.4433437 57.7547905,94.9265857 58.2287562,98.954648 C58.8352169,104.106655 73.0074381,101.722823 80.5249652,96.9506348 C88.0424923,92.1786618 97.8285916,84.6249409 92.0067846,77.8411989" id="Fill-23" fill="#66261D"></path>
                        <path d="M79.8062823,66.0459158 C82.9012785,61.4643909 83.7919031,55.6914885 82.0235801,50.4530901 C79.8276108,43.9479107 68.5868676,64.4501594 62.2064273,68.2832494 C52.4909919,74.1199218 38.7145321,59.408026 32.1673421,60.8734418 C25.6197212,62.3388576 25.0354507,69.3804801 30.2587683,74.1854152 C35.4818705,78.9905658 20.7124525,82.2885054 15.3990814,71.5764494 C9.90387985,60.4977163 -6.39343124,72.599569 8.24715424,87.0505682 C25.2362398,103.819475 64.0070661,89.4320305 79.8062823,66.0459158" id="Fill-25" fill="#FFA300"></path>
                        <path d="M61.5357227,84.6689767 C61.5357227,84.6689767 60.8174492,88.6138795 50.5888382,92.6219059 C46.1109394,94.3766563 49.2794002,95.1369404 51.8801794,94.7862057 C55.0023208,94.3654534 48.8633876,100.026112 42.8554413,97.6720106 C37.0756448,95.4075317 42.2547975,102.894036 46.2845832,103.083191 C49.911929,103.253603 52.6624382,101.404706 52.677519,98.2483098 C52.696693,94.2320967 55.4431089,93.5036976 58.0785737,93.2830881 C60.8549356,93.0508449 63.4029322,90.5741586 63.3810985,89.4736964 C63.3591981,88.3730187 61.5357227,84.6689767 61.5357227,84.6689767" id="Fill-27" fill="#FF9522"></path>
                        <path d="M85.053406,54.824993 C85.053406,54.824993 73.6741355,70.1159887 59.4025969,70.7241729 C50.5153089,71.10313 43.7266118,61.0451467 37.9584491,64.4721342 C32.1905018,67.8993372 33.8230982,74.773779 40.2806656,77.7183987 C46.7382331,80.662803 30.7481379,87.508376 23.1754584,77.7311096 C15.6029944,67.9538433 1.02445535,83.2719843 20.2950395,90.4706617 C40.9399089,98.1827302 79.0099122,79.4149806 85.053406,54.824993" id="Fill-29" fill="#FF620E"></path>
                        <path d="M57.2736507,73.2124067 C64.9932595,72.7722649 68.5831189,69.8873218 74.687151,65.1412015 C78.733741,61.9951463 82.3388966,57.8768151 83.2741171,52.8342508 C85.667644,39.9253637 70.2751765,37.8388374 67.9969095,47.3330169 C65.7186425,56.8271965 68.2647001,70.1893672 55.9204786,70.2462431 L57.2736507,73.2124067 Z" id="Fill-31" fill="#F42247"></path>
                        <path d="M27.3859329,27.2161885 C20.1797151,30.0186185 13.9291845,34.884092 9.58895117,41.28306 C6.71176385,45.5252686 4.55435809,50.5553375 5.22221887,55.6403433 C6.93194247,68.6573807 22.216475,65.8889901 21.4516667,56.155027 C20.6866429,46.4214947 19.4485152,29.6099308 31.1718417,25.7436632 L27.3859329,27.2161885 Z" id="Fill-33" fill="#ED3F32"></path>
                        <path d="M63.2451447,28.3217997 C56.4295177,24.6705402 48.6683292,23.0870638 40.9846986,23.9522667 C35.8910753,24.5259807 30.6671113,26.1587925 27.2390466,29.9731393 C18.4631405,39.7381257 30.5072556,49.5474925 37.4034568,42.6355643 C44.2996579,35.7238515 56.264276,23.8495023 66.8259557,30.2398528 L63.2451447,28.3217997 Z" id="Fill-35" fill="#FFB41D"></path>
                        <path d="M30.5576468,6.47872352 L72.2080303,120.421158 C72.7757119,121.974258 74.1777887,123.075797 75.8233115,123.238669 C77.963913,123.45023 80.9134878,123.07472 83.2023113,120.246007 C84.1478729,119.077466 84.3878719,117.488172 83.8712493,116.076616 L42.2467185,2.3369095 C41.7919269,1.09468845 40.4251821,0.446217176 39.1754207,0.879895805 L32.0396514,3.3565821 C30.7601594,3.80038636 30.0927295,5.2067719 30.5576468,6.47872352" id="Fill-37" fill="#FFEFD9"></path>
                        <path d="M30.5576468,6.47872352 L72.2080303,120.421158 C72.7757119,121.974258 74.1777887,123.075797 75.8233115,123.238669 C77.963913,123.45023 80.9134878,123.07472 83.2023113,120.246007 C84.1478729,119.077466 84.3878719,117.488172 83.8712493,116.076616 L42.2467185,2.3369095 C41.7919269,1.09468845 40.4251821,0.446217176 39.1754207,0.879895805 L32.0396514,3.3565821 C30.7601594,3.80038636 30.0927295,5.2067719 30.5576468,6.47872352 Z" id="Stroke-39" stroke="#151C23" stroke-width="1.24675325"></path>
                        <path d="M55.2871526,73.1387697 L66.1519549,68.0977134 L83.1401787,114.050844 C83.8310915,115.919561 82.8956555,117.997255 81.0383562,118.718544 L75.9156486,120.708554 C73.9911324,121.455912 71.8302796,120.459722 71.1488461,118.510861 L55.2871526,73.1387697 Z" id="Fill-41" fill="#72463D"></path>
                        <path d="M55.2871526,73.1387697 L66.1519549,68.0977134 L83.1401787,114.050844 C83.8310915,115.919561 82.8956555,117.997255 81.0383562,118.718544 L75.9156486,120.708554 C73.9911324,121.455912 71.8302796,120.459722 71.1488461,118.510861 L55.2871526,73.1387697 Z" id="Stroke-43" stroke="#151C23" stroke-width="1.07719481"></path>
                        <path d="M53.7797262,35.4672637 C53.7797262,35.4672637 57.2325665,46.3187088 54.2797601,49.0696489 C51.3269537,51.8205889 59.0896503,55.6898727 58.5394192,60.0906443 C58.2205695,62.6407953 53.1754199,57.7458067 53.579368,62.0166687 C53.9001566,65.4063853 57.392853,69.4120419 62.8887009,71.0819093 C64.8069695,71.6646717 66.5548257,69.7701014 65.8552954,67.8912582 L53.7797262,35.4672637 Z" id="Fill-45" fill="#EFAE67"></path>
                        <path d="M42.0029493,1.88886109 C42.5824801,3.69208519 40.4354154,5.99512769 37.2074935,7.03246629 C33.9793561,8.07002032 30.8927621,7.44934068 30.3132313,5.64611657 C29.733485,3.84289247 31.8805497,1.54006541 35.1086871,0.502511377 C38.3366091,-0.53504266 41.4234185,0.085636987 42.0029493,1.88886109" id="Fill-47" fill="#DDBC94"></path>
                        <path d="M42.0029493,1.88886109 C42.5824801,3.69208519 40.4354154,5.99512769 37.2074935,7.03246629 C33.9793561,8.07002032 30.8927621,7.44934068 30.3132313,5.64611657 C29.733485,3.84289247 31.8805497,1.54006541 35.1086871,0.502511377 C38.3366091,-0.53504266 41.4234185,0.085636987 42.0029493,1.88886109 Z" id="Stroke-49" stroke="#151C23" stroke-width="0.861755844"></path>
                        <path d="M84.3852005,117.418629 C85.03281,119.22056 82.8900541,121.63994 79.599224,122.822269 C76.3083938,124.004598 73.1158039,123.502194 72.4684098,121.700263 C71.8210157,119.898331 73.9637716,117.478736 77.2543863,116.296623 C80.5452164,115.114294 83.7378064,115.616482 84.3852005,117.418629" id="Fill-51" fill="#DDBC94"></path>
                        <path d="M84.3852005,117.418629 C85.03281,119.22056 82.8900541,121.63994 79.599224,122.822269 C76.3083938,124.004598 73.1158039,123.502194 72.4684098,121.700263 C71.8210157,119.898331 73.9637716,117.478736 77.2543863,116.296623 C80.5452164,115.114294 83.7378064,115.616482 84.3852005,117.418629 Z" id="Stroke-53" stroke="#151C23" stroke-width="0.861755844"></path>
                        <path d="M105.436258,146.073066 C105.436258,146.073066 91.0249,151.620835 84.5768119,149.580628 C78.1285083,147.540636 78.0218661,134.818966 73.0635384,134.552683 C68.1049952,134.286832 66.6499205,140.160775 69.7302668,145.47113 C72.8103976,150.781269 60.0320665,148.081604 58.7245674,137.179746 C57.4170684,126.277673 42.4593568,130.525914 52.2299445,145.198599 C62.6972619,160.918103 87.715973,167.91513 105.436258,146.073066" id="Fill-55" fill="#FFB41D"></path>
                        <path d="M104.406395,106.386937 C104.406395,106.386937 105.881295,121.761851 102.771856,127.726806 C99.6622021,133.691975 87.1818031,131.603802 86.066682,136.415279 C84.9515609,141.226542 90.4547391,143.664209 96.1876271,141.561893 C101.920087,139.460005 97.0736813,151.512056 86.1688943,150.91421 C75.2641073,150.316151 76.8478621,165.700493 92.9050484,158.65813 C110.107141,151.113492 118.977539,128.31008 104.406395,106.386937" id="Fill-57" fill="#ED3F32"></path>
                        <path d="M66.7104804,70.6183062 C66.7104804,73.9268023 64.0282653,76.6092328 60.7195538,76.6092328 C57.4106268,76.6092328 54.7284117,73.9268023 54.7284117,70.6183062 C54.7284117,67.3095946 57.4106268,64.6271641 60.7195538,64.6271641 C64.0282653,64.6271641 66.7104804,67.3095946 66.7104804,70.6183062" id="Fill-59" fill="#301410"></path>
                        <path d="M59.7968718,115.866369 C59.7968718,119.056805 57.2107425,121.642719 54.0205224,121.642719 C50.8303022,121.642719 48.2441729,119.056805 48.2441729,115.866369 C48.2441729,112.676149 50.8303022,110.09002 54.0205224,110.09002 C57.2107425,110.09002 59.7968718,112.676149 59.7968718,115.866369" id="Fill-61" fill="#301410"></path>
                        <path d="M73.2415987,138.031764 C73.2415987,141.886613 70.1166565,145.01134 66.2618072,145.01134 C62.4069579,145.01134 59.2820158,141.886613 59.2820158,138.031764 C59.2820158,134.176915 62.4069579,131.051972 66.2618072,131.051972 C70.1166565,131.051972 73.2415987,134.176915 73.2415987,138.031764" id="Fill-63" fill="#47251F"></path>
                        <path d="M87.7159945,128.502166 C87.7159945,131.493105 85.2914445,133.917655 82.3007208,133.917655 C79.3097817,133.917655 76.8852316,131.493105 76.8852316,128.502166 C76.8852316,125.511442 79.3097817,123.086892 82.3007208,123.086892 C85.2914445,123.086892 87.7159945,125.511442 87.7159945,128.502166" id="Fill-65" fill="#301410"></path>
                        <path d="M87.4753061,140.415898 C87.4753061,143.07463 85.3202702,145.229666 82.6617534,145.229666 C80.0030212,145.229666 77.8479853,143.07463 77.8479853,140.415898 C77.8479853,137.757381 80.0030212,135.602345 82.6617534,135.602345 C85.3202702,135.602345 87.4753061,137.757381 87.4753061,140.415898" id="Fill-67" fill="#301410"></path>
                        <path d="M101.916223,140.054865 C101.916223,143.444582 99.1685143,146.19229 95.7787976,146.19229 C92.3892965,146.19229 89.6413725,143.444582 89.6413725,140.054865 C89.6413725,136.665364 92.3892965,133.917655 95.7787976,133.917655 C99.1685143,133.917655 101.916223,136.665364 101.916223,140.054865" id="Fill-69" fill="#47251F"></path>
                        <path d="M97.5838961,117.551167 C97.5838961,120.608461 95.1054863,123.086871 92.048192,123.086871 C88.9908977,123.086871 86.5124879,120.608461 86.5124879,117.551167 C86.5124879,114.494088 88.9908977,112.015678 92.048192,112.015678 C95.1054863,112.015678 97.5838961,114.494088 97.5838961,117.551167" id="Fill-71" fill="#301410"></path>
                        <path d="M109.618079,122.124203 C109.618079,124.915646 107.355109,127.178401 104.563666,127.178401 C101.772439,127.178401 99.509468,124.915646 99.509468,122.124203 C99.509468,119.332761 101.772439,117.06979 104.563666,117.06979 C107.355109,117.06979 109.618079,119.332761 109.618079,122.124203" id="Fill-73" fill="#47251F"></path>
                        <path d="M113.468943,134.639656 C113.468943,137.298173 111.313907,139.453424 108.65539,139.453424 C105.996874,139.453424 103.841622,137.298173 103.841622,134.639656 C103.841622,131.981139 105.996874,129.825888 108.65539,129.825888 C111.313907,129.825888 113.468943,131.981139 113.468943,134.639656" id="Fill-75" fill="#47251F"></path>
                        <path d="M79.6975072,103.106458 C80.3259427,100.732106 82.2702793,99.3261509 84.6943985,99.3261509 C87.6187669,99.3261509 89.9894573,101.85842 89.9894573,104.98207 C89.9894573,108.105935 87.6187669,110.638204 84.6943985,110.638204 C83.7822299,110.638204 82.9239211,110.391742 82.1746244,109.958064" id="Fill-77" fill="#47251F"></path>
                        <path d="M66.9251869,116.029629 C66.8219916,116.767508 66.5132676,119.428179 67.2308947,120.618048 C67.2632106,120.671477 67.3159931,120.708748 67.3761006,120.726198 L72.3223637,122.165977 C72.3876417,122.184936 72.4451639,122.118796 72.414787,122.057611 C72.1090791,121.444257 71.0730332,119.184302 71.5129595,117.541795 L67.1352398,115.904459 C67.0413085,115.869343 66.938975,115.930096 66.9251869,116.029629" id="Fill-79" fill="#72463D"></path>
                        <path d="M66.9251869,116.029629 C66.8219916,116.767508 66.5132676,119.428179 67.2308947,120.618048 C67.2632106,120.671477 67.3159931,120.708748 67.3761006,120.726198 L72.3223637,122.165977 C72.3876417,122.184936 72.4451639,122.118796 72.414787,122.057611 C72.1090791,121.444257 71.0730332,119.184302 71.5129595,117.541795 L67.1352398,115.904459 C67.0413085,115.869343 66.938975,115.930096 66.9251869,116.029629 Z" id="Stroke-81" stroke="#FFECEB" stroke-width="0.646316883"></path>
                        <path d="M71.1917831,111.114109 C70.745609,111.46312 68.0075953,113.655643 67.0391972,115.650823 C66.9928778,115.746262 67.0471684,115.859368 67.1495019,115.887159 C67.6650473,116.026979 69.1772134,116.477893 71.4089456,117.494119 C71.4712075,117.522341 71.5457493,117.511569 71.5961621,117.46525 L75.8648696,113.549647 C75.9389806,113.481568 75.9402733,113.366093 75.8659468,113.29866 C75.408139,112.882863 73.7983791,111.563946 71.3313876,111.081147 C71.2820521,111.071668 71.2314239,111.083301 71.1917831,111.114109" id="Fill-83" fill="#72463D"></path>
                        <path d="M71.1917831,111.114109 C70.745609,111.46312 68.0075953,113.655643 67.0391972,115.650823 C66.9928778,115.746262 67.0471684,115.859368 67.1495019,115.887159 C67.6650473,116.026979 69.1772134,116.477893 71.4089456,117.494119 C71.4712075,117.522341 71.5457493,117.511569 71.5961621,117.46525 L75.8648696,113.549647 C75.9389806,113.481568 75.9402733,113.366093 75.8659468,113.29866 C75.408139,112.882863 73.7983791,111.563946 71.3313876,111.081147 C71.2820521,111.071668 71.2314239,111.083301 71.1917831,111.114109 Z" id="Stroke-85" stroke="#FFECEB" stroke-width="0.646316883"></path>
                        <path d="M75.8637924,119.04431 L75.9956687,113.603183 C75.9973646,113.536613 75.9180831,113.50085 75.8691784,113.545876 L71.5130026,117.541623 C71.5130026,117.541623 70.7955909,119.786497 72.3952252,122.075751 C72.4475768,122.150724 72.5561581,122.162142 72.623375,122.100527 L75.7989453,119.187361 C75.839017,119.150521 75.8624998,119.099031 75.8637924,119.04431" id="Fill-87" fill="#72463D"></path>
                        <path d="M75.8637924,119.04431 L75.9956687,113.603183 C75.9973646,113.536613 75.9180831,113.50085 75.8691784,113.545876 L71.5130026,117.541623 C71.5130026,117.541623 70.7955909,119.786497 72.3952252,122.075751 C72.4475768,122.150724 72.5561581,122.162142 72.623375,122.100527 L75.7989453,119.187361 C75.839017,119.150521 75.8624998,119.099031 75.8637924,119.04431 Z" id="Stroke-89" stroke="#FFECEB" stroke-width="0.646316883"></path>
                        <path d="M60.8280919,122.066143 C61.096098,122.761364 62.1174941,125.23762 63.3222288,125.92961 C63.3765194,125.960633 63.4407202,125.967311 63.5016894,125.953523 L68.5252951,124.811912 C68.5916503,124.796831 68.6095317,124.710871 68.5533022,124.672308 C67.9884212,124.284302 65.9857006,122.811346 65.573135,121.161514 L60.9508921,121.854797 C60.8517902,121.869662 60.7921136,121.972427 60.8280919,122.066143" id="Fill-91" fill="#72463D"></path>
                        <path d="M60.8280919,122.066143 C61.096098,122.761364 62.1174941,125.23762 63.3222288,125.92961 C63.3765194,125.960633 63.4407202,125.967311 63.5016894,125.953523 L68.5252951,124.811912 C68.5916503,124.796831 68.6095317,124.710871 68.5533022,124.672308 C67.9884212,124.284302 65.9857006,122.811346 65.573135,121.161514 L60.9508921,121.854797 C60.8517902,121.869662 60.7921136,121.972427 60.8280919,122.066143 Z" id="Stroke-93" stroke="#FFECEB" stroke-width="0.646316883"></path>
                        <path d="M62.172905,115.697638 C61.9522955,116.219215 60.6221754,119.465019 60.7438984,121.679516 C60.7497152,121.785512 60.8520487,121.858115 60.9550285,121.832693 C61.4738056,121.704722 63.014625,121.36519 65.4592109,121.170218 C65.5275051,121.164832 65.5873971,121.119375 65.608941,121.054312 L67.4408185,115.558895 C67.472488,115.463671 67.4175511,115.361768 67.3197418,115.338932 C66.7178053,115.197819 64.670058,114.825756 62.278901,115.601121 C62.231289,115.616417 62.1925099,115.651534 62.172905,115.697638" id="Fill-95" fill="#72463D"></path>
                        <path d="M62.172905,115.697638 C61.9522955,116.219215 60.6221754,119.465019 60.7438984,121.679516 C60.7497152,121.785512 60.8520487,121.858115 60.9550285,121.832693 C61.4738056,121.704722 63.014625,121.36519 65.4592109,121.170218 C65.5275051,121.164832 65.5873971,121.119375 65.608941,121.054312 L67.4408185,115.558895 C67.472488,115.463671 67.4175511,115.361768 67.3197418,115.338932 C66.7178053,115.197819 64.670058,114.825756 62.278901,115.601121 C62.231289,115.616417 62.1925099,115.651534 62.172905,115.697638 Z" id="Stroke-97" stroke="#FFECEB" stroke-width="0.646316883"></path>
                        <path d="M70.1065955,120.363873 L67.5810046,115.542349 C67.5501968,115.483319 67.4635904,115.490428 67.4424773,115.553552 L65.5733289,121.161428 C65.5733289,121.161428 66.0354455,123.472657 68.545094,124.697643 C68.6271762,124.737715 68.7277862,124.695058 68.7564396,124.608452 L70.1193064,120.520497 C70.1365416,120.468577 70.1320173,120.412132 70.1065955,120.363873" id="Fill-99" fill="#72463D"></path>
                        <path d="M70.1065955,120.363873 L67.5810046,115.542349 C67.5501968,115.483319 67.4635904,115.490428 67.4424773,115.553552 L65.5733289,121.161428 C65.5733289,121.161428 66.0354455,123.472657 68.545094,124.697643 C68.6271762,124.737715 68.7277862,124.695058 68.7564396,124.608452 L70.1193064,120.520497 C70.1365416,120.468577 70.1320173,120.412132 70.1065955,120.363873 Z" id="Stroke-101" stroke="#FFECEB" stroke-width="0.646316883"></path>
                        <path d="M90.4197966,130.283545 C90.6464384,130.871478 91.5101332,132.965113 92.5287286,133.550246 C92.5744016,133.576529 92.6289077,133.582346 92.6803976,133.570497 L96.9279922,132.605115 C96.9842217,132.592404 96.9995179,132.519801 96.9519059,132.48727 C96.4742777,132.159156 94.780712,130.913704 94.4321318,129.518521 L90.5236382,130.104946 C90.4398324,130.117441 90.3892042,130.204479 90.4197966,130.283545" id="Fill-103" fill="#72463D"></path>
                        <path d="M90.4197966,130.283545 C90.6464384,130.871478 91.5101332,132.965113 92.5287286,133.550246 C92.5744016,133.576529 92.6289077,133.582346 92.6803976,133.570497 L96.9279922,132.605115 C96.9842217,132.592404 96.9995179,132.519801 96.9519059,132.48727 C96.4742777,132.159156 94.780712,130.913704 94.4321318,129.518521 L90.5236382,130.104946 C90.4398324,130.117441 90.3892042,130.204479 90.4197966,130.283545 Z" id="Stroke-105" stroke="#FFECEB" stroke-width="0.646316883"></path>
                        <path d="M91.5569696,124.89882 C91.370184,125.339824 90.2458081,128.084301 90.3487879,129.956681 C90.3535276,130.046303 90.440134,130.107703 90.5271714,130.08616 C90.9658051,129.977794 92.2687799,129.690829 94.3354859,129.526234 C94.393439,129.521494 94.4438517,129.48293 94.462164,129.427994 L96.0109547,124.781406 C96.0378845,124.700832 95.9913497,124.615087 95.9088366,124.595482 C95.3997543,124.476129 93.6684868,124.161588 91.6465922,124.816953 C91.6063051,124.830311 91.5735584,124.85961 91.5569696,124.89882" id="Fill-107" fill="#72463D"></path>
                        <path d="M91.5569696,124.89882 C91.370184,125.339824 90.2458081,128.084301 90.3487879,129.956681 C90.3535276,130.046303 90.440134,130.107703 90.5271714,130.08616 C90.9658051,129.977794 92.2687799,129.690829 94.3354859,129.526234 C94.393439,129.521494 94.4438517,129.48293 94.462164,129.427994 L96.0109547,124.781406 C96.0378845,124.700832 95.9913497,124.615087 95.9088366,124.595482 C95.3997543,124.476129 93.6684868,124.161588 91.6465922,124.816953 C91.6063051,124.830311 91.5735584,124.85961 91.5569696,124.89882 Z" id="Stroke-109" stroke="#FFECEB" stroke-width="0.646316883"></path>
                        <path d="M98.2651356,128.844262 L96.1297046,124.76751 C96.1036365,124.717744 96.0303873,124.723561 96.0125058,124.77699 L94.4320456,129.518586 C94.4320456,129.518586 94.8228519,131.472617 96.9449257,132.508663 C97.014297,132.542487 97.09918,132.506293 97.1235246,132.433044 L98.2759076,128.976541 C98.290342,128.932807 98.2866795,128.88498 98.2651356,128.844262" id="Fill-111" fill="#72463D"></path>
                        <path d="M98.2651356,128.844262 L96.1297046,124.76751 C96.1036365,124.717744 96.0303873,124.723561 96.0125058,124.77699 L94.4320456,129.518586 C94.4320456,129.518586 94.8228519,131.472617 96.9449257,132.508663 C97.014297,132.542487 97.09918,132.506293 97.1235246,132.433044 L98.2759076,128.976541 C98.290342,128.932807 98.2866795,128.88498 98.2651356,128.844262 Z" id="Stroke-113" stroke="#FFECEB" stroke-width="0.646316883"></path>
                        <path d="M52.1364656,30.9964744 C52.1364656,34.3941623 49.5059558,37.1489803 46.2610142,37.1489803 C43.0158571,37.1489803 40.3853474,34.3941623 40.3853474,30.9964744 C40.3853474,27.5985711 43.0158571,24.8437531 46.2610142,24.8437531 C49.5059558,24.8437531 52.1364656,27.5985711 52.1364656,30.9964744" id="Fill-115" fill="#301410"></path>
                        <g id="编组" transform="translate(66.355200, 99.302065)">
                            <path d="M0.130469835,3.78103994 C0.130469835,3.78103994 7.82616496,2.07756408 10.7720773,0.0735508613" id="Fill-117" fill="#FFEFD9"></path>
                            <path d="M0.130469835,3.78103994 C0.130469835,3.78103994 7.82616496,2.07756408 10.7720773,0.0735508613" id="Stroke-119" stroke="#151C23" stroke-width="1.07719481" stroke-linecap="round"></path>
                        </g>
                        <path d="M51.5265579,113.88515 C51.5265579,114.32443 51.1529867,114.646726 50.7134912,114.646726 C50.2742112,114.646726 49.6513771,114.286943 49.6513771,113.847448 C49.6513771,113.408168 50.1178025,112.915674 50.5570825,112.915674 C50.996578,112.915674 51.5265579,113.44587 51.5265579,113.88515" id="Fill-120" fill="#F4D3D3"></path>
                        <path d="M52.8467463,118.419666 C53.4822912,119.800845 54.1891464,120.682637 52.9462791,120.693452 C52.0944334,120.700734 51.0838092,119.768529 50.4482643,118.38735 C49.8127194,117.005955 49.4828823,115.912387 50.2569545,115.556267 C51.0308113,115.200146 52.2112013,117.038487 52.8467463,118.419666" id="Fill-122" fill="#F4D3D3"></path>
                        <path d="M65.5334512,134.228965 C65.5334512,135.051726 64.7686429,135.34817 63.9967251,135.34817 C63.2248073,135.34817 62.3968753,135.545943 62.3968753,134.723182 C62.3968753,133.90042 63.2887926,132.528074 64.0607104,132.528074 C64.8326282,132.528074 65.5334512,133.406203 65.5334512,134.228965" id="Fill-124" fill="#F4D3D3"></path>
                        <path d="M65.8399993,143.567533 C65.1723539,143.849758 61.9396923,142.035546 61.2246504,140.343919 C60.5098239,138.652508 61.7152049,136.707094 62.3830657,136.425085 C63.0504956,136.14286 63.7355915,137.398007 64.1115325,139.352038 C64.4581738,141.155478 66.5076446,143.285092 65.8399993,143.567533" id="Fill-126" fill="#F4D3D3"></path>
                        <path d="M81.5813486,137.929086 C81.5813486,138.503661 81.614957,139.116585 81.0401659,139.116585 C80.4655902,139.116585 79.6975503,138.493536 79.6975503,137.91896 C79.6975503,137.344384 80.3035801,136.946899 80.8781558,136.946899 C81.4527315,136.946899 81.5813486,137.35451 81.5813486,137.929086" id="Fill-128" fill="#F4D3D3"></path>
                        <path d="M81.7166227,141.860006 C82.3497978,143.065172 82.4381278,143.926282 81.5462105,143.986389 C80.792605,144.037017 80.0452472,143.407935 79.4118567,142.20277 C78.7786816,140.997604 78.9768854,139.748058 79.7412629,139.616856 C80.8593911,139.424684 81.0834476,140.654841 81.7166227,141.860006" id="Fill-130" fill="#F4D3D3"></path>
                        <path d="M80.5248575,126.249105 C80.5248575,126.688386 80.1512863,127.010467 79.7117908,127.010467 C79.2725108,127.010467 78.6496767,126.650684 78.6496767,126.211404 C78.6496767,125.772124 79.1161021,125.27963 79.5553821,125.27963 C79.9948776,125.27963 80.5248575,125.80961 80.5248575,126.249105" id="Fill-132" fill="#F4D3D3"></path>
                        <path d="M81.6170037,132.770981 C81.176431,132.957121 79.0433699,131.760142 78.5715586,130.643953 C78.0997472,129.527548 78.8951479,128.243963 79.3357206,128.057823 C79.7765087,127.871684 80.2284996,128.700047 80.4764699,129.989234 C80.705266,131.179103 82.0575764,132.584842 81.6170037,132.770981" id="Fill-134" fill="#F4D3D3"></path>
                        <path d="M85.7061429,103.363348 C85.7061429,104.186109 84.9413346,104.482769 84.1694168,104.482769 C83.397499,104.482769 82.5695671,104.680542 82.5695671,103.85778 C82.5695671,103.035019 83.4614844,101.662457 84.2334022,101.662457 C85.00532,101.662457 85.7061429,102.540586 85.7061429,103.363348" id="Fill-136" fill="#F4D3D3"></path>
                        <path d="M91.0729644,115.710262 C91.0729644,116.583867 91.123808,117.51521 90.2504185,117.51521 C89.3770289,117.51521 88.2093498,116.568356 88.2093498,115.695182 C88.2093498,114.821577 89.1305667,114.217486 90.0041717,114.217486 C90.8775613,114.217486 91.0729644,114.836873 91.0729644,115.710262" id="Fill-138" fill="#F4D3D3"></path>
                        <path d="M106.131911,120.387658 C106.131911,121.210419 105.367103,121.507079 104.5954,121.507079 C103.823482,121.507079 102.99555,121.704636 102.99555,120.881875 C102.99555,120.059113 103.887252,118.686767 104.65917,118.686767 C105.431088,118.686767 106.131911,119.564896 106.131911,120.387658" id="Fill-140" fill="#F4D3D3"></path>
                        <path d="M97.5869338,137.11994 C97.5869338,137.942701 96.8221254,138.239361 96.0502077,138.239361 C95.2782899,138.239361 94.4503579,138.436918 94.4503579,137.614157 C94.4503579,136.791396 95.3422752,135.419049 96.114193,135.419049 C96.8861108,135.419049 97.5869338,136.297179 97.5869338,137.11994" id="Fill-142" fill="#F4D3D3"></path>
                        <path d="M100.506196,139.109583 C100.885584,139.727032 99.5787316,143.19603 98.0142139,144.157534 C96.4492652,145.118822 94.3448575,144.219796 93.9654695,143.602348 C93.5860814,142.984469 94.7238146,142.118404 96.5989953,141.452913 C98.3296165,140.838481 100.126808,138.492135 100.506196,139.109583" id="Fill-144" fill="#F4D3D3"></path>
                        <path d="M110.086832,132.365331 C110.086832,133.238936 110.137675,134.170279 109.264286,134.170279 C108.390896,134.170279 107.223217,133.223425 107.223217,132.350251 C107.223217,131.476646 108.144649,130.872555 109.018039,130.872555 C109.891428,130.872555 110.086832,131.491726 110.086832,132.365331" id="Fill-146" fill="#F4D3D3"></path>
                        <path d="M59.2194523,68.1270777 C59.2194523,69.0006827 59.2702959,69.9320254 58.3969063,69.9320254 C57.5235168,69.9320254 56.3558376,68.9851711 56.3558376,68.111997 C56.3558376,67.238392 57.2770546,66.6343012 58.1506596,66.6343012 C59.0240491,66.6343012 59.2194523,67.2536882 59.2194523,68.1270777" id="Fill-148" fill="#F4D3D3"></path>
                        <path d="M55.1994259,127.290947 C55.1994259,128.113708 54.4346176,128.410152 53.6629152,128.410152 C52.8909974,128.410152 52.0630655,128.607925 52.0630655,127.785164 C52.0630655,126.962402 52.9547674,125.589841 53.7266852,125.589841 C54.498603,125.589841 55.1994259,126.468185 55.1994259,127.290947" id="Fill-150" fill="#72463D"></path>
                        <path d="M55.1994259,127.290947 C55.1994259,128.113708 54.4346176,128.410152 53.6629152,128.410152 C52.8909974,128.410152 52.0630655,128.607925 52.0630655,127.785164 C52.0630655,126.962402 52.9547674,125.589841 53.7266852,125.589841 C54.498603,125.589841 55.1994259,126.468185 55.1994259,127.290947 Z" id="Stroke-152" stroke="#FFECEB" stroke-width="0.6"></path>
                        <path d="M95.3241999,100.044661 C95.3241999,100.918266 95.3752589,101.849609 94.5016539,101.849609 C93.6282644,101.849609 92.4605852,100.902755 92.4605852,100.029581 C92.4605852,99.1559757 93.3820177,98.5518849 94.2554072,98.5518849 C95.1287968,98.5518849 95.3241999,99.1712719 95.3241999,100.044661" id="Fill-154" fill="#72463D"></path>
                        <path d="M95.3241999,100.044661 C95.3241999,100.918266 95.3752589,101.849609 94.5016539,101.849609 C93.6282644,101.849609 92.4605852,100.902755 92.4605852,100.029581 C92.4605852,99.1559757 93.3820177,98.5518849 94.2554072,98.5518849 C95.1287968,98.5518849 95.3241999,99.1712719 95.3241999,100.044661 Z" id="Stroke-156" stroke="#FFECEB" stroke-width="0.6"></path>
                        <path d="M68.2617917,153.292383 C67.821219,153.478522 65.6881579,152.281759 65.2163466,151.165354 C64.7445352,150.049165 65.5399359,148.765579 65.9805086,148.57944 C66.4210812,148.393301 66.8732876,149.221448 67.1212579,150.51085 C67.350054,151.70072 68.7023644,153.106243 68.2617917,153.292383" id="Fill-158" fill="#F7A441"></path>
                        <path d="M68.2617917,153.292383 C67.821219,153.478522 65.6881579,152.281759 65.2163466,151.165354 C64.7445352,150.049165 65.5399359,148.765579 65.9805086,148.57944 C66.4210812,148.393301 66.8732876,149.221448 67.1212579,150.51085 C67.350054,151.70072 68.7023644,153.106243 68.2617917,153.292383 Z" id="Stroke-160" stroke="#FFECEB" stroke-width="0.6"></path>
                        <path d="M39.3271112,113.625093 C39.3271112,114.498483 39.3779548,115.430041 38.5045653,115.430041 C37.6311757,115.430041 36.4634966,114.483187 36.4634966,113.609797 C36.4634966,112.736408 37.384929,112.132317 38.2583186,112.132317 C39.1317081,112.132317 39.3271112,112.751488 39.3271112,113.625093" id="Fill-162" fill="#72463D"></path>
                        <path d="M39.3271112,113.625093 C39.3271112,114.498483 39.3779548,115.430041 38.5045653,115.430041 C37.6311757,115.430041 36.4634966,114.483187 36.4634966,113.609797 C36.4634966,112.736408 37.384929,112.132317 38.2583186,112.132317 C39.1317081,112.132317 39.3271112,112.751488 39.3271112,113.625093 Z" id="Stroke-164" stroke="#FFECEB" stroke-width="0.6"></path>
                        <path d="M97.9581782,113.437855 C98.3987509,113.623995 100.531812,112.427016 101.003623,111.310826 C101.475435,110.194422 100.679819,108.910836 100.239246,108.724697 C99.7986732,108.538558 99.3466823,109.366921 99.098712,110.656107 C98.8699159,111.846192 97.5176055,113.251716 97.9581782,113.437855" id="Fill-166" fill="#72463D"></path>
                        <path d="M97.9581782,113.437855 C98.3987509,113.623995 100.531812,112.427016 101.003623,111.310826 C101.475435,110.194422 100.679819,108.910836 100.239246,108.724697 C99.7986732,108.538558 99.3466823,109.366921 99.098712,110.656107 C98.8699159,111.846192 97.5176055,113.251716 97.9581782,113.437855 Z" id="Stroke-168" stroke="#FFECEB" stroke-width="0.6"></path>
                        <path d="M85.8162753,61.1227909 C85.8162753,61.1227909 86.0153409,72.831683 80.8148598,72.741414 C76.5704969,72.6677339 77.1289147,77.4431539 80.4690803,77.0400676 C83.8094614,76.6371968 90.827601,75.8226221 85.8162753,61.1227909" id="Fill-170" fill="#FF9522"></path>
                        <path d="M25.3137979,69.4073022 C25.3137979,71.4225183 23.4407715,72.148763 21.5502946,72.148763 C19.6598178,72.148763 17.6321063,72.6330698 17.6321063,70.6178537 C17.6321063,68.6026377 19.8162264,65.2415745 21.7067033,65.2415745 C23.5971802,65.2415745 25.3137979,67.3920862 25.3137979,69.4073022" id="Fill-172" fill="#E00C07"></path>
                        <path d="M69.8315015,35.2282558 C69.8315015,36.4780172 68.6698547,36.9285 67.4976513,36.9285 C66.3254479,36.9285 65.0679307,37.2286065 65.0679307,35.9788451 C65.0679307,34.7292991 66.4223954,32.6451426 67.5948142,32.6451426 C68.7670176,32.6451426 69.8315015,33.9784943 69.8315015,35.2282558" id="Fill-174" fill="#FF5900"></path>
                        <path d="M34.3256311,48.9347194 C37.0321908,48.6359056 38.2849684,51.0438669 38.5652544,53.582815 C38.8453251,56.1215477 39.7962727,58.772955 37.089713,59.0717689 C34.3833688,59.3703673 29.5459023,56.9352607 29.2658317,54.3963125 C28.9855456,51.8573644 31.6190715,49.2333178 34.3256311,48.9347194" id="Fill-176" fill="#FF9600"></path>
                        <line x1="32.4256965" y1="54.998766" x2="34.873514" y2="51.0879026" id="Stroke-178" stroke="#CE7A0B" stroke-width="1.29263377" stroke-linecap="round"></line>
                        <line x1="34.0670613" y1="56.7193478" x2="36.0687047" y2="52.95606" id="Stroke-180" stroke="#CE7A0B" stroke-width="1.29263377" stroke-linecap="round"></line>
                        <path d="M46.7715399,29.8269209 C46.7715399,30.7444755 45.9910046,31.4172913 45.0736655,31.4172913 C44.1561109,31.4172913 42.8555059,30.6660557 42.8555059,29.7485011 C42.8555059,28.8309466 43.8295055,27.802441 44.74706,27.802441 C45.6643991,27.802441 46.7715399,28.9093664 46.7715399,29.8269209" id="Fill-182" fill="#F4D3D3"></path>
                        <line x1="45.1434461" y1="28.8376683" x2="43.5832372" y2="29.9198182" id="Stroke-184" stroke="#CE7A7A" stroke-width="0.6" stroke-linecap="round"></line>
                        <line x1="46.0477943" y1="29.2906287" x2="44.665107" y2="30.2676444" id="Stroke-186" stroke="#CE7A7A" stroke-width="0.6" stroke-linecap="round"></line>
                        <path d="M65.8736508,42.0839975 C67.1714551,40.7023874 68.9234048,41.4107507 70.2194856,42.6281963 C71.5155663,43.8456418 73.2177496,44.8194259 71.9197298,46.2012514 C70.622141,47.5828615 66.9598941,48.4803802 65.6638133,47.2629346 C64.3677325,46.0454891 64.5758465,43.4656075 65.8736508,42.0839975" id="Fill-188" fill="#DDBC94"></path>
                        <line x1="57.9855041" y1="67.3560001" x2="57.3286307" y2="68.8864785" id="Stroke-190" stroke="#CE7A7A" stroke-width="0.6" stroke-linecap="round"></line>
                        <line x1="58.7250414" y1="67.955416" x2="58.068168" y2="69.4858944" id="Stroke-192" stroke="#CE7A7A" stroke-width="0.6" stroke-linecap="round"></line>
                        <line x1="64.0929186" y1="116.390252" x2="62.9842697" y2="118.102346" id="Stroke-194" stroke="#CE7A7A" stroke-width="0.6" stroke-linecap="round"></line>
                        <line x1="64.4414342" y1="118.102389" x2="63.489194" y2="119.757176" id="Stroke-196" stroke="#CE7A7A" stroke-width="0.6" stroke-linecap="round"></line>
                        <line x1="71.8517588" y1="112.610397" x2="70.74311" y2="114.322491" id="Stroke-198" stroke="#CE7A7A" stroke-width="0.6" stroke-linecap="round"></line>
                        <line x1="72.2003822" y1="114.322534" x2="71.248142" y2="115.977321" id="Stroke-200" stroke="#CE7A7A" stroke-width="0.6" stroke-linecap="round"></line>
                        <line x1="51.1177624" y1="116.68437" x2="51.0197377" y2="118.721776" id="Stroke-202" stroke="#CE7A7A" stroke-width="0.6" stroke-linecap="round"></line>
                        <line x1="52.1119701" y1="118.102389" x2="52.0311805" y2="119.783459" id="Stroke-204" stroke="#CE7A7A" stroke-width="0.6" stroke-linecap="round"></line>
                        <line x1="62.6277613" y1="138.365026" x2="62.3970261" y2="140.416005" id="Stroke-206" stroke="#CE7A7A" stroke-width="0.6" stroke-linecap="round"></line>
                        <line x1="63.4890862" y1="140.415898" x2="63.4890862" y2="141.581422" id="Stroke-208" stroke="#CE7A7A" stroke-width="0.6" stroke-linecap="round"></line>
                        <line x1="80.484161" y1="140.415898" x2="80.0657786" y2="142.062498" id="Stroke-210" stroke="#CE7A7A" stroke-width="0.6" stroke-linecap="round"></line>
                        <line x1="81.265752" y1="142.062411" x2="81.0854296" y2="143.23483" id="Stroke-212" stroke="#CE7A7A" stroke-width="0.6" stroke-linecap="round"></line>
                        <line x1="79.5872671" y1="129.076117" x2="79.3117207" y2="130.609181" id="Stroke-214" stroke="#CE7A7A" stroke-width="0.6" stroke-linecap="round"></line>
                        <line x1="80.2749267" y1="130.789525" x2="80.0657355" y2="131.547654" id="Stroke-216" stroke="#CE7A7A" stroke-width="0.6" stroke-linecap="round"></line>
                        <line x1="96.0186889" y1="142.648556" x2="98.2844605" y2="141.239155" id="Stroke-218" stroke="#CE7A7A" stroke-width="0.6" stroke-linecap="round"></line>
                        <line x1="97.8703437" y1="142.648556" x2="98.7512736" y2="141.943855" id="Stroke-220" stroke="#CE7A7A" stroke-width="0.6" stroke-linecap="round"></line>
                        <line x1="108.891899" y1="131.89617" x2="108.655347" y2="132.521374" id="Stroke-222" stroke="#CE7A7A" stroke-width="0.6" stroke-linecap="round"></line>
                        <line x1="109.212645" y1="132.528182" x2="108.77358" y2="133.384982" id="Stroke-224" stroke="#CE7A7A" stroke-width="0.6" stroke-linecap="round"></line>
                        <line x1="104.803622" y1="119.576595" x2="104.042045" y2="120.258028" id="Stroke-226" stroke="#CE7A7A" stroke-width="0.6" stroke-linecap="round"></line>
                        <line x1="105.585213" y1="120.358186" x2="104.783565" y2="120.919404" id="Stroke-228" stroke="#CE7A7A" stroke-width="0.6" stroke-linecap="round"></line>
                        <line x1="84.1556251" y1="102.412037" x2="83.3940484" y2="103.093471" id="Stroke-226备份" stroke="#CE7A7A" stroke-width="0.6" stroke-linecap="round"></line>
                        <line x1="84.9372161" y1="103.193628" x2="84.1355678" y2="103.754847" id="Stroke-228备份" stroke="#CE7A7A" stroke-width="0.6" stroke-linecap="round"></line>
                        <line x1="89.6414802" y1="115.125173" x2="89.2620922" y2="115.894506" id="Stroke-230" stroke="#CE7A7A" stroke-width="0.6" stroke-linecap="round"></line>
                        <line x1="90.4108559" y1="115.638737" x2="89.983425" y2="116.841101" id="Stroke-232" stroke="#CE7A7A" stroke-width="0.6" stroke-linecap="round"></line>
                        <line x1="92.8392838" y1="126.310333" x2="91.9072949" y2="127.723397" id="Stroke-234" stroke="#CE7A7A" stroke-width="0.6" stroke-linecap="round"></line>
                        <line x1="93.5006384" y1="127.252663" x2="92.9594557" y2="128.502209" id="Stroke-236" stroke="#CE7A7A" stroke-width="0.6" stroke-linecap="round"></line>
                        <path d="M59.7845487,85.4167007 C59.7845487,85.4167007 66.5833714,82.0881687 70.2313993,77.7397487" id="Stroke-238" stroke="#151C23" stroke-width="1.07719481"></path>
                    </g>
                </g>
            </g>
        </g>
    </g>
</svg>