<?xml version="1.0" encoding="UTF-8"?>
<svg width="201px" height="201px" viewBox="0 0 201 201" version="1.1" xmlns="http://www.w3.org/2000/svg" xmlns:xlink="http://www.w3.org/1999/xlink">
    <title>披萨</title>
    <g id="页面-1" stroke="none" stroke-width="1" fill="none" fill-rule="evenodd">
        <g id="美食插画库" transform="translate(-337.000000, -363.000000)">
            <g id="编组-7" transform="translate(82.577278, 100.000000)">
                <g id="披萨" transform="translate(255.000000, 263.500000)">
                    <g transform="translate(25.000000, 25.000000)">
                        <path d="M150,74.741952 C150,116.020758 116.421233,149.483649 74.999745,149.483649 C33.5785122,149.483649 0,116.020758 0,74.741952 C0,33.463146 33.5785122,0 74.999745,0 C116.421233,0 150,33.463146 150,74.741952" id="Fill-1" fill="#AD401E"></path>
                        <path d="M150,74.741952 C150,116.020758 116.421233,149.483649 74.999745,149.483649 C33.5785122,149.483649 0,116.020758 0,74.741952 C0,33.463146 33.5785122,0 74.999745,0 C116.421233,0 150,33.463146 150,74.741952 Z" id="Stroke-3" stroke="#151C23" stroke-width="1.5"></path>
                        <path d="M137.607573,72.9345955 C137.607573,110.078455 107.496502,140.189329 70.3529675,140.189329 C33.2091781,140.189329 3.09810671,110.078455 3.09810671,72.9345955 C3.09810671,35.7909908 33.2091781,5.67986231 70.3529675,5.67986231 C107.496502,5.67986231 137.607573,35.7909908 137.607573,72.9345955" id="Fill-5" fill="#FFBA70"></path>
                        <path d="M137.607573,72.9345955 C137.607573,110.078455 107.496502,140.189329 70.3529675,140.189329 C33.2091781,140.189329 3.09810671,110.078455 3.09810671,72.9345955 C3.09810671,35.7909908 33.2091781,5.67986231 70.3529675,5.67986231 C107.496502,5.67986231 137.607573,35.7909908 137.607573,72.9345955 Z" id="Stroke-7" stroke="#5E300E" stroke-width="1.5"></path>
                        <path d="M98.3481565,18.8882528 L72.8491482,69.6414039 C72.6986143,69.9410729 72.9600679,70.2823839 73.2887378,70.2151947 L121.232373,60.4114448 C122.399842,60.1268486 123.60948,60.0415209 124.803272,60.1787095 C125.850109,60.2987815 126.636259,60.2773218 127.848452,60.136812 C127.95196,60.1248048 128.053935,60.1102429 128.154887,60.0936372 C131.1878,59.5880575 132.804058,56.2181223 131.437241,53.4651527 C127.792993,46.1256887 121.409743,30.6951611 100.321454,18.268988 C99.6053316,17.8469477 98.6819379,18.1272008 98.3481565,18.8882528" id="Fill-9" fill="#FFDD00"></path>
                        <path d="M98.3481565,18.8882528 L72.8491482,69.6414039 C72.6986143,69.9410729 72.9600679,70.2823839 73.2887378,70.2151947 L121.232373,60.4114448 C122.399842,60.1268486 123.60948,60.0415209 124.803272,60.1787095 C125.850109,60.2987815 126.636259,60.2773218 127.848452,60.136812 C127.95196,60.1248048 128.053935,60.1102429 128.154887,60.0936372 C131.1878,59.5880575 132.804058,56.2181223 131.437241,53.4651527 C127.792993,46.1256887 121.409743,30.6951611 100.321454,18.268988 C99.6053316,17.8469477 98.6819379,18.1272008 98.3481565,18.8882528 Z" id="Stroke-11" stroke="#5E200D" stroke-width="0.644406196"></path>
                        <path d="M100.688468,18.6752142 L99.4045704,22.1471484 C99.009192,23.2157102 98.4254169,24.20427 97.6809955,25.0664572 L97.3288974,25.4738559 C96.7682901,26.1230442 96.2978076,26.8448457 95.9306887,27.6201518 L72.8055077,69.4492255 L98.2586604,18.780185 C98.2586604,18.780185 99.3913317,17.2598921 100.688468,18.6752142" id="Fill-13" fill="#AD6B00"></path>
                        <path d="M100.688468,18.6752142 L99.4045704,22.1471484 C99.009192,23.2157102 98.4254169,24.20427 97.6809955,25.0664572 L97.3288974,25.4738559 C96.7682901,26.1230442 96.2978076,26.8448457 95.9306887,27.6201518 L72.8055077,69.4492255 L98.2586604,18.780185 C98.2586604,18.780185 99.3913317,17.2598921 100.688468,18.6752142 Z" id="Stroke-15" stroke="#82351A" stroke-width="0.5" stroke-linecap="round"></path>
                        <path d="M114.602353,39.7590361 C114.602353,39.7590361 114.073991,57.1114281 106.031112,54.9213747 C96.4097986,52.3014454 90.7505635,66.2933828 99.8903381,63.3638209 C107.205279,61.0189512 106.585573,62.1685068 106.046464,62.721168 C105.977125,62.7920937 106.04237,62.9095406 106.140111,62.8904745 L125.215146,59.2015755 L114.602353,39.7590361 Z" id="Fill-17" fill="#47B100"></path>
                        <path d="M97.3321859,25.367791 C97.3321859,25.367791 101.730062,28.2956066 102.049889,38.0864905 C102.219734,43.2844965 108.698523,41.1774321 106.269263,35.2275616 C105.203343,32.6170349 110.650843,34.1148739 108.720931,41.4043231 C106.791019,48.6937723 112.913314,50.9035266 113.624012,45.2340688 C114.33471,39.564355 119.771006,52.3078947 114.586294,57.524851 C111.823202,60.3049058 127.907243,59.997092 129.269563,56.3576172 C130.518569,53.0210905 116.305874,23.7242398 97.3321859,25.367791" id="Fill-19" fill="#FF5900"></path>
                        <path d="M122.825883,58.1650422 C121.445926,53.049079 115.749989,36.3656918 98.2390531,26.5906662 C97.6277868,26.249585 97.4096968,25.4783894 97.7529582,24.8691882 L100.491882,20.0101201 C100.835399,19.4009189 101.608185,19.1825453 102.219195,19.5256674 C106.766576,22.0793122 124.001316,32.9321748 131.528492,54.4327922 C131.717145,54.9715832 131.71433,55.5578245 131.533356,56.0994217 C131.005793,57.6775282 129.425153,60.6191943 125.046203,60.0926486 C123.981094,59.9645837 123.104383,59.1977249 122.825883,58.1650422" id="Fill-21" fill="#BF4E26"></path>
                        <path d="M122.825883,58.1650422 C121.445926,53.049079 115.749989,36.3656918 98.2390531,26.5906662 C97.6277868,26.249585 97.4096968,25.4783894 97.7529582,24.8691882 L100.491882,20.0101201 C100.835399,19.4009189 101.608185,19.1825453 102.219195,19.5256674 C106.766576,22.0793122 124.001316,32.9321748 131.528492,54.4327922 C131.717145,54.9715832 131.71433,55.5578245 131.533356,56.0994217 C131.005793,57.6775282 129.425153,60.6191943 125.046203,60.0926486 C123.981094,59.9645837 123.104383,59.1977249 122.825883,58.1650422 Z" id="Stroke-23" stroke="#5E210E" stroke-width="0.859208262"></path>
                        <path d="M115.662651,30.2065404 C115.662651,30.2065404 122.20808,40.7877617 122.556829,43.4355608 C123.283452,48.9554751 118.584084,42.3648801 116.981918,42.6979012 C115.502333,43.0056004 120.869565,48.0515607 123.343223,57.9493469 C123.343223,57.9493469 124.025777,61.2752097 128.432115,59.2341127 C132.544663,57.3293445 130.90324,53.7300565 130.428618,52.8601604 C130.336428,52.6913478 130.235375,52.5253488 130.17915,52.3409339 C129.468736,50.0026244 123.163403,36.3884045 115.662651,30.2065404" id="Fill-25" fill="#661209"></path>
                        <path d="M113.339071,28.3993115 C113.339071,28.3993115 106.831786,22.0595591 102.804725,22.4814318 C100.579685,22.7146539 99.5216291,26.0129318 101.399316,27.5314664 C103.277003,29.0502602 109.202573,25.0665686 113.339071,28.3993115" id="Fill-27" fill="#F4D3D3"></path>
                        <line x1="101.979346" y1="25.0430293" x2="105.077453" y2="24.2685026" id="Stroke-29" stroke="#A84747" stroke-width="0.644406196" stroke-linecap="round"></line>
                        <line x1="103.528399" y1="26.5920826" x2="106.626506" y2="25.8175559" id="Stroke-31" stroke="#A84747" stroke-width="0.644406196" stroke-linecap="round"></line>
                        <path d="M102.273319,52.4412515 C99.6571839,54.7007774 95.9029216,56.22482 93.6197724,53.635464 C91.3366232,51.0458552 93.6335617,48.0119235 96.2499521,45.7521449 C98.8660871,43.492619 101.612965,43.0839329 103.895859,45.6735417 C106.179008,48.2628977 104.889709,50.1817255 102.273319,52.4412515" id="Fill-33" fill="#FF481D"></path>
                        <path d="M102.273319,52.4412515 C99.6571839,54.7007774 95.9029216,56.22482 93.6197724,53.635464 C91.3366232,51.0458552 93.6335617,48.0119235 96.2499521,45.7521449 C98.8660871,43.492619 101.612965,43.0839329 103.895859,45.6735417 C106.179008,48.2628977 104.889709,50.1817255 102.273319,52.4412515 Z" id="Stroke-35" stroke="#FF9D8A" stroke-width="0.5"></path>
                        <path d="M102.237522,49.827883 C102.237522,50.1158876 101.092923,50.6024096 100.807665,50.6024096 C100.522662,50.6024096 99.9139415,50.0932586 99.9139415,49.8055112 C99.9139415,49.5175066 100.462809,49.0533563 100.748067,49.0533563 C101.03307,49.0533563 102.237522,49.5398784 102.237522,49.827883" id="Fill-37" fill="#FFDBD7"></path>
                        <path d="M97.0740103,49.2940458 C97.0740103,49.5820505 97.0392758,50.0860585 96.7353483,50.0860585 C96.4316921,50.0860585 95.7831325,49.5769075 95.7831325,49.2889029 C95.7831325,49.0011554 96.3679216,48.5370052 96.6721205,48.5370052 C96.9757766,48.5370052 97.0740103,49.0060412 97.0740103,49.2940458" id="Fill-39" fill="#FFDBD7"></path>
                        <path d="M97.7375445,53.8322787 C97.4525684,53.9307761 96.9419411,54.0726226 96.8379194,53.8027808 C96.7338977,53.532939 97.0156231,52.7829225 97.3005992,52.6844252 C97.5853044,52.5859278 98.2449211,52.9463153 98.3489428,53.2161571 C98.4532354,53.4859989 98.0225206,53.7337814 97.7375445,53.8322787" id="Fill-41" fill="#FFDBD7"></path>
                        <path d="M101.042686,46.2967345 C101.15721,46.5788293 101.328238,47.0873714 101.068783,47.2118899 C100.809075,47.3361328 100.052755,47.103074 99.9382303,46.8209791 C99.8234521,46.5386088 100.138649,45.8441155 100.398103,45.719597 C100.657558,45.5950786 100.928161,46.0146396 101.042686,46.2967345" id="Fill-43" fill="#FFDBD7"></path>
                        <path d="M94.5350291,62.3268968 C94.2025244,62.4450892 93.6066653,62.615152 93.4853209,62.2912843 C93.3639766,61.9676746 93.6925072,61.0675545 94.0250119,60.9493621 C94.3575166,60.8311697 95.126914,61.2636815 95.2482584,61.5875493 C95.3696028,61.9114171 94.8675339,62.2087044 94.5350291,62.3268968" id="Fill-45" fill="#53C40A"></path>
                        <path d="M98.3625527,40.7917384 C98.3625527,41.5249276 98.4379992,42.3407917 97.7312505,42.3407917 C97.0245019,42.3407917 95.7831325,41.663583 95.7831325,40.9303938 C95.7831325,40.1972046 96.8953435,39.242685 97.602342,39.242685 C98.3090906,39.242685 98.3625527,40.05829 98.3625527,40.7917384" id="Fill-47" fill="#53C40A"></path>
                        <path d="M91.3918126,50.6024096 C91.3918126,51.3355989 91.4672591,52.151463 90.7605104,52.151463 C90.0537618,52.151463 88.8123924,51.4742543 88.8123924,50.7410651 C88.8123924,50.0078759 89.9246034,49.0533563 90.6316019,49.0533563 C91.3383505,49.0533563 91.3918126,49.8689613 91.3918126,50.6024096" id="Fill-49" fill="#53C40A"></path>
                        <path d="M90.5990182,59.2390799 C90.7885171,62.7323759 89.6967999,66.6687015 86.2433415,66.8603723 C82.7898831,67.052043 81.7902446,63.3274557 81.6007457,59.8344169 C81.4112468,56.3411209 82.7702973,53.9036863 86.2237557,53.7120156 C89.6774685,53.5200875 90.4095193,55.7460411 90.5990182,59.2390799" id="Fill-51" fill="#FF481D"></path>
                        <path d="M90.5990182,59.2390799 C90.7885171,62.7323759 89.6967999,66.6687015 86.2433415,66.8603723 C82.7898831,67.052043 81.7902446,63.3274557 81.6007457,59.8344169 C81.4112468,56.3411209 82.7702973,53.9036863 86.2237557,53.7120156 C89.6774685,53.5200875 90.4095193,55.7460411 90.5990182,59.2390799 Z" id="Stroke-53" stroke="#FF9D8A" stroke-width="0.5"></path>
                        <path d="M88.4733499,57.6009281 C88.7106048,57.7660844 88.3682914,58.8943728 88.1834314,59.1060317 C87.998034,59.3176907 87.1838976,59.4770941 86.9466427,59.3119378 C86.7096565,59.1467815 86.6835934,58.4734519 86.8687221,58.261793 C87.0538508,58.0503738 88.236095,57.4360115 88.4733499,57.6009281" id="Fill-55" fill="#FFDBD7"></path>
                        <path d="M84.5100213,61.4494954 C84.716369,61.6257116 85.0591912,61.9599854 84.8979456,62.1855626 C84.7371673,62.4113955 84.0286213,62.5817293 83.822741,62.4055131 C83.6163933,62.2292969 83.5937254,61.510877 83.7547374,61.285044 C83.9157493,61.059211 84.3036736,61.2732792 84.5100213,61.4494954" id="Fill-57" fill="#FFDBD7"></path>
                        <path d="M88.7373331,63.6072032 C88.6457484,63.8862369 88.4529946,64.3649173 88.1691886,64.2745261 C87.8856489,64.1843969 87.4423684,63.4982098 87.5336868,63.2191761 C87.6255377,62.9401423 88.3193449,62.6637287 88.6028847,62.7541199 C88.8866907,62.8442491 88.8289178,63.3281695 88.7373331,63.6072032" id="Fill-59" fill="#FFDBD7"></path>
                        <path d="M84.7525906,56.3305065 C85.0346314,56.4039726 85.5200221,56.5656516 85.4491223,56.8568346 C85.3779629,57.1480176 84.7273991,57.6392213 84.4456181,57.5657553 C84.1635773,57.4922892 83.8462164,56.8139347 83.9171162,56.5227517 C83.9885354,56.2315687 84.4705498,56.2570405 84.7525906,56.3305065" id="Fill-61" fill="#FFDBD7"></path>
                        <path d="M93.6203038,82.5184057 C90.1573782,82.9313058 86.1677534,82.1060098 85.7475229,78.7032393 C85.3272923,75.3004689 88.966725,74.0715996 92.4299071,73.6586996 C95.8930892,73.2457995 98.409085,74.43232 98.8293156,77.8350905 C99.2495461,81.2378609 97.0834859,82.1055056 93.6203038,82.5184057" id="Fill-63" fill="#FF481D"></path>
                        <path d="M93.6203038,82.5184057 C90.1573782,82.9313058 86.1677534,82.1060098 85.7475229,78.7032393 C85.3272923,75.3004689 88.966725,74.0715996 92.4299071,73.6586996 C95.8930892,73.2457995 98.409085,74.43232 98.8293156,77.8350905 C99.2495461,81.2378609 97.0834859,82.1055056 93.6203038,82.5184057 Z" id="Stroke-65" stroke="#FF9D8A" stroke-width="0.5"></path>
                        <path d="M94.9847622,80.2010631 C94.8182461,80.4217626 93.5525652,80.1929597 93.3074238,80.043046 C93.0620178,79.8931324 92.8335546,79.1826515 93.0000707,78.961952 C93.1668515,78.7412525 93.9070405,78.6740416 94.1521818,78.8241935 C94.3973231,78.9741071 95.151543,79.9803636 94.9847622,80.2010631" id="Fill-67" fill="#FFDBD7"></path>
                        <path d="M90.9119791,76.9011823 C90.7495757,77.1574093 90.4384315,77.586299 90.1997243,77.4122528 C89.961017,77.2379299 89.7382924,76.4133549 89.900438,76.1571279 C90.0625836,75.9009009 90.7836031,75.8231473 91.0225681,75.9969168 C91.2610176,76.1712397 91.0741248,76.6449553 90.9119791,76.9011823" id="Fill-69" fill="#FFDBD7"></path>
                        <path d="M88.9998218,81.0190936 C88.7177792,80.9458961 88.2321257,80.7844862 88.3030259,80.4933049 C88.3741858,80.2021237 89.0242343,79.7103866 89.306277,79.7835841 C89.5883196,79.8570497 89.9059422,80.5354002 89.835042,80.8265815 C89.763882,81.1177628 89.2816047,81.0922911 88.9998218,81.0190936" id="Fill-71" fill="#FFDBD7"></path>
                        <path d="M96.0152313,76.4666707 C95.9607573,76.7511029 95.8315837,77.2427936 95.5346734,77.1906563 C95.2374934,77.1387771 94.7000344,76.5250026 94.7542388,76.2408286 C94.8087128,75.9563964 95.4680641,75.5984043 95.7649744,75.6505416 C96.0621544,75.7026789 96.0694356,76.1824967 96.0152313,76.4666707" id="Fill-73" fill="#FFDBD7"></path>
                        <path d="M87.0028089,76.9363167 C87.0028089,77.6697651 87.0785047,78.4853701 86.3715115,78.4853701 C85.6647681,78.4853701 84.4234079,77.8081613 84.4234079,77.0749721 C84.4234079,76.3417829 85.5358605,75.3872633 86.2426039,75.3872633 C86.9493473,75.3872633 87.0028089,76.2031275 87.0028089,76.9363167" id="Fill-75" fill="#53C40A"></path>
                        <path d="M78.5283635,66.7158813 C78.1958682,66.8340737 77.6000262,67.0041365 77.4784204,66.6802688 C77.3570795,66.3566591 77.6858656,65.456539 78.0183608,65.3383466 C78.3505911,65.2201542 79.1199666,65.6526661 79.2413074,65.9765338 C79.3629133,66.3004016 78.8605938,66.5976889 78.5283635,66.7158813" id="Fill-77" fill="#53C40A"></path>
                        <path d="M74.3743388,136.077346 C82.3451106,134.419233 99.9518225,131.840683 119.033259,113.73909 C119.681023,113.124531 119.709653,112.118193 119.074159,111.583416 L71.5890038,75.1607622 C71.4898197,75.0845476 71.3456449,75.1543897 71.3443667,75.2795447 L70.9228343,123.958977 C70.9228343,123.958977 71.1273376,130.477998 70.4486423,133.040234 C69.7696913,135.602725 70.5036025,136.882569 74.3743388,136.077346" id="Fill-79" fill="#FFEC00"></path>
                        <path d="M74.3743388,136.077346 C82.3451106,134.419233 99.9518225,131.840683 119.033259,113.73909 C119.681023,113.124531 119.709653,112.118193 119.074159,111.583416 L71.5890038,75.1607622 C71.4898197,75.0845476 71.3456449,75.1543897 71.3443667,75.2795447 L70.9228343,123.958977 C70.9228343,123.958977 71.1273376,130.477998 70.4486423,133.040234 C69.7696913,135.602725 70.5036025,136.882569 74.3743388,136.077346 Z" id="Stroke-81" stroke="#5E200D" stroke-width="0.644406196"></path>
                        <path d="M118.238593,113.855422 L115.252871,111.647596 C114.333833,110.968128 113.555693,110.117964 112.954509,109.137162 L112.67041,108.673296 C112.217795,107.934888 111.663918,107.269198 111.023608,106.694342 L72.0309811,75.3872633 L118.936183,111.359275 C118.936183,111.359275 120.055189,112.906003 118.238593,113.855422" id="Fill-83" fill="#B77B0F"></path>
                        <path d="M118.238593,113.855422 L115.252871,111.647596 C114.333833,110.968128 113.555693,110.117964 112.954509,109.137162 L112.67041,108.673296 C112.217795,107.934888 111.663918,107.269198 111.023608,106.694342 L72.0309811,75.3872633 L118.936183,111.359275 C118.936183,111.359275 120.055189,112.906003 118.238593,113.855422 Z" id="Stroke-85" stroke="#82351A" stroke-width="0.5"></path>
                        <path d="M72.0242922,127.156388 C76.9036021,126.565985 96.1190232,123.370934 108.223872,108.775239 C109.322042,107.450648 111.292272,107.278617 112.596667,108.401656 L116.408907,111.68425 C117.769128,112.855386 117.829033,114.934524 116.544776,116.188113 C111.334588,121.274492 97.0578716,132.870325 72.4081928,136.302556 C72.4081928,136.302556 69.8029712,136.689626 70.2827194,133.413395 C70.5743411,131.422055 70.7277994,129.584169 70.8032539,128.448914 C70.8478639,127.780893 71.3587116,127.23706 72.0242922,127.156388" id="Fill-87" fill="#BF4E26"></path>
                        <path d="M72.0242922,127.156388 C76.9036021,126.565985 96.1190232,123.370934 108.223872,108.775239 C109.322042,107.450648 111.292272,107.278617 112.596667,108.401656 L116.408907,111.68425 C117.769128,112.855386 117.829033,114.934524 116.544776,116.188113 C111.334588,121.274492 97.0578716,132.870325 72.4081928,136.302556 C72.4081928,136.302556 69.8029712,136.689626 70.2827194,133.413395 C70.5743411,131.422055 70.7277994,129.584169 70.8032539,128.448914 C70.8478639,127.780893 71.3587116,127.23706 72.0242922,127.156388 Z" id="Stroke-89" stroke="#5E210E" stroke-width="0.859208262"></path>
                        <path d="M100.549692,121.949434 C102.52291,123.017383 102.421373,125.895089 100.444084,126.95543 C97.0653863,128.76747 90.3937507,131.375335 83.3701728,128.692908 C74.5097766,125.308744 67.2090728,136.297133 76.0099212,134.902788 C85.8187549,133.34867 86.8046006,132.644397 88.8905524,129.932805 C95.1458628,121.800819 98.6370391,120.913947 100.549692,121.949434" id="Fill-91" fill="#661209"></path>
                        <path d="M111.398967,108.216566 C110.988515,108.075476 110.54651,108.310796 110.445996,108.733302 C109.854365,111.21562 107.131846,120.294022 98.9345141,120.439696 C89.4371217,120.6088 90.8633973,128.198117 97.5133278,126.522865 C104.163004,124.847612 109.293016,117.096322 108.756349,119.626518 C108.219683,122.156461 115.959995,116.395201 116.649595,115.174289 C117.255222,114.101598 116.929252,112.70827 115.907576,111.834735 C115.062498,111.112476 113.034158,108.778379 111.398967,108.216566" id="Fill-93" fill="#F4D3D3"></path>
                        <path d="M82.2142281,84.1652324 C82.2142281,84.1652324 92.5058474,93.904392 84.6240056,102.155055 C76.7419078,110.405974 77.9467965,114.063028 81.5030749,112.619629 C89.0929776,109.538347 92.4674343,110.583292 86.9287875,113.558236 C83.0027196,115.667088 104.119131,113.535943 107.168869,108.784489 C110.218608,104.033036 82.2142281,84.1652324 82.2142281,84.1652324" id="Fill-95" fill="#47B100"></path>
                        <path d="M94.4946148,93.9759036 C94.4946148,93.9759036 98.2962486,103.453485 93.059738,108.157537 C87.8237369,112.861589 88.8024787,117.953644 93.5466895,115.884638 C98.2909002,113.815631 89.0859394,119.987145 82.8340129,119.026207 C76.5820865,118.065268 76.8036596,124.391063 82.829174,123.596923 C89.6352878,122.699842 101.789208,116.223086 107.270977,108.762147 C107.951232,107.836203 108.988551,107.213713 110.130289,107.101833 C110.3376,107.081654 110.548476,107.078078 110.757315,107.098257 L94.4946148,93.9759036 Z" id="Fill-97" fill="#FF5900"></path>
                        <path d="M75.6325731,94.8044301 C73.4695707,92.0522986 72.1122617,88.191226 74.8595395,86.0246051 C77.6073318,83.8579841 80.5734558,86.3283081 82.7364582,89.0804396 C84.8994605,91.8325711 85.1748827,94.6212809 82.4276048,96.7879019 C79.6798126,98.9545228 77.7955755,97.5565616 75.6325731,94.8044301" id="Fill-99" fill="#FF481D"></path>
                        <path d="M75.6325731,94.8044301 C73.4695707,92.0522986 72.1122617,88.191226 74.8595395,86.0246051 C77.6073318,83.8579841 80.5734558,86.3283081 82.7364582,89.0804396 C84.8994605,91.8325711 85.1748827,94.6212809 82.4276048,96.7879019 C79.6798126,98.9545228 77.7955755,97.5565616 75.6325731,94.8044301 Z" id="Stroke-101" stroke="#FF9D8A" stroke-width="0.5"></path>
                        <path d="M78.4111406,94.7502971 C78.1237145,94.7357565 77.6968134,93.566386 77.7111976,93.2811861 C77.7258386,92.9959862 78.2647305,92.4125765 78.5518998,92.4271171 C78.8393259,92.4416577 79.2739328,93.0138431 79.2595486,93.2992981 C79.2449076,93.584498 78.6983099,94.7648377 78.4111406,94.7502971" id="Fill-103" fill="#FFDBD7"></path>
                        <path d="M79.2596174,89.5849774 C78.9724386,89.5695135 78.4712885,89.5082003 78.4856731,89.2046187 C78.5000577,88.9013083 79.0392244,88.2811228 79.3264032,88.2963154 C79.613582,88.3117794 80.0484601,88.9205704 80.0340755,89.2238808 C80.019434,89.5274624 79.5467962,89.6004414 79.2596174,89.5849774" id="Fill-105" fill="#FFDBD7"></path>
                        <path d="M74.7127475,89.9721379 C74.6269826,89.685667 74.5088291,89.1743031 74.7858161,89.0856845 C75.0633214,88.9970659 75.8061857,89.3148612 75.8916916,89.6013321 C75.9774565,89.887803 75.5817977,90.5196453 75.3045515,90.6079962 C75.0273053,90.6966147 74.7982533,90.2586088 74.7127475,89.9721379" id="Fill-107" fill="#FFDBD7"></path>
                        <path d="M81.9950507,93.8415363 C81.7106419,93.9438558 81.2002832,94.0922192 81.0917946,93.8246535 C80.9827622,93.5570879 81.2538478,92.8055507 81.5382565,92.7032311 C81.8226653,92.6009116 82.4901829,92.9513561 82.5989434,93.2186659 C82.707432,93.4862316 82.2794594,93.7394725 81.9950507,93.8415363" id="Fill-109" fill="#FFDBD7"></path>
                        <path d="M80.1923498,110.991873 C76.7004573,111.194781 72.7604707,110.118453 72.5554587,106.666985 C72.3501895,103.215517 76.0702446,102.201995 79.5618799,101.999087 C83.0535151,101.796179 85.4959106,103.145593 85.7011799,106.597061 C85.9064492,110.048783 83.683985,110.788965 80.1923498,110.991873" id="Fill-111" fill="#FF481D"></path>
                        <path d="M80.1923498,110.991873 C76.7004573,111.194781 72.7604707,110.118453 72.5554587,106.666985 C72.3501895,103.215517 76.0702446,102.201995 79.5618799,101.999087 C83.0535151,101.796179 85.4959106,103.145593 85.7011799,106.597061 C85.9064492,110.048783 83.683985,110.788965 80.1923498,110.991873 Z" id="Stroke-113" stroke="#FF9D8A" stroke-width="0.5"></path>
                        <path d="M81.8142502,108.867975 C81.6501672,109.106257 80.5233526,108.768354 80.311432,108.58392 C80.0995114,108.399217 79.9375812,107.583941 80.1016641,107.345658 C80.2655079,107.107106 80.937387,107.078297 81.1490684,107.262999 C81.3607497,107.447433 81.9783331,108.629423 81.8142502,108.867975" id="Fill-115" fill="#FFDBD7"></path>
                        <path d="M77.9675763,105.162345 C77.792053,105.369003 77.4591727,105.712733 77.2327322,105.552544 C77.0060359,105.392588 76.8328154,104.685512 77.0080828,104.478854 C77.1836062,104.271962 77.9023308,104.246976 78.1287712,104.406932 C78.3554675,104.567122 78.1430996,104.955453 77.9675763,105.162345" id="Fill-117" fill="#FFDBD7"></path>
                        <path d="M75.8091936,109.134955 C75.529821,109.044385 75.0509339,108.853122 75.1399561,108.569157 C75.2289783,108.284926 75.9128783,107.838734 76.1922509,107.929304 C76.4713617,108.019874 76.7504725,108.713004 76.6611884,108.996969 C76.5721662,109.2812 76.0883044,109.225526 75.8091936,109.134955" id="Fill-119" fill="#FFDBD7"></path>
                        <path d="M83.0857565,105.405246 C83.0133419,105.687455 82.8534933,106.173207 82.5622255,106.103369 C82.2706895,106.033271 81.7763926,105.384995 81.8488072,105.103046 C81.9209536,104.820837 82.598701,104.500983 82.890237,104.570821 C83.1815048,104.640919 83.1581712,105.123037 83.0857565,105.405246" id="Fill-121" fill="#FFDBD7"></path>
                        <path d="M75.8883868,83.1771016 C75.8449648,83.9076191 75.8715143,84.7250537 75.170559,84.6797844 C74.4698519,84.6342564 73.2795927,83.8799402 73.3230147,83.1496814 C73.3666848,82.4191639 74.5261765,81.5396457 75.2268836,81.5851737 C75.9273426,81.630443 75.932057,82.4465842 75.8883868,83.1771016" id="Fill-123" fill="#53C40A"></path>
                        <path d="M76.4047399,97.3767574 C76.3610699,98.1072749 76.3876193,98.9247094 75.686667,98.8794401 C74.986211,98.8339121 73.7957087,98.0795959 73.8393786,97.3493371 C73.8830486,96.6188197 75.0422872,95.7393015 75.7429913,95.7848295 C76.4436955,95.8300988 76.4484098,96.6462399 76.4047399,97.3767574" id="Fill-125" fill="#53C40A"></path>
                        <path d="M76.1465643,115.190871 C76.1028944,115.921389 76.1294437,116.738823 75.4284914,116.693554 C74.7280354,116.648026 73.5375331,115.89371 73.5812031,115.163451 C73.624873,114.432675 74.7841116,113.553416 75.4848158,113.598944 C76.1855199,113.644213 76.1902343,114.460354 76.1465643,115.190871" id="Fill-127" fill="#53C40A"></path>
                        <path d="M95.7679068,106.929253 C95.7242369,107.659771 95.7507862,108.477205 95.0500821,108.431936 C94.3493779,108.386408 93.1588756,107.632092 93.2025456,106.901833 C93.2462155,106.171315 94.4057022,105.291797 95.1061583,105.337325 C95.8068624,105.382594 95.8115768,106.198736 95.7679068,106.929253" id="Fill-129" fill="#53C40A"></path>
                        <path d="M22.265435,116.637676 C28.5892484,121.719428 41.7221668,133.63368 67.7608893,136.820702 C68.6449042,136.929009 69.4387864,136.311533 69.4492255,135.482795 L67.5009298,76.2917553 C67.4899814,75.9612286 67.1060256,75.7853894 66.8491215,75.9933384 L29.4271785,106.281767 C29.4271785,106.281767 24.5286865,110.580907 22.1225973,111.686401 C19.7167627,112.791894 19.1942977,114.170066 22.265435,116.637676" id="Fill-131" fill="#FFDD00"></path>
                        <path d="M22.265435,116.637676 C28.5892484,121.719428 41.7221668,133.63368 67.7608893,136.820702 C68.6449042,136.929009 69.4387864,136.311533 69.4492255,135.482795 L67.5009298,76.2917553 C67.4899814,75.9612286 67.1060256,75.7853894 66.8491215,75.9933384 L29.4271785,106.281767 C29.4271785,106.281767 24.5286865,110.580907 22.1225973,111.686401 C19.7167627,112.791894 19.1942977,114.170066 22.265435,116.637676 Z" id="Stroke-133" stroke="#5E200D" stroke-width="0.644406196"></path>
                        <path d="M67.0682266,136.375717 L66.8790183,132.678483 C66.8205637,131.540578 66.9843904,130.402419 67.3620378,129.318009 L67.5409909,128.805225 C67.8255724,127.988543 67.9891427,127.140018 68.0270869,126.282832 L67.4874075,76.16179 L69.4492255,135.328753 C69.4492255,135.328753 68.9626167,137.170748 67.0682266,136.375717" id="Fill-135" fill="#B77B0F"></path>
                        <path d="M67.0682266,136.375717 L66.8790183,132.678483 C66.8205637,131.540578 66.9843904,130.402419 67.3620378,129.318009 L67.5409909,128.805225 C67.8255724,127.988543 67.9891427,127.140018 68.0270869,126.282832 L67.4874075,76.16179 L69.4492255,135.328753 C69.4492255,135.328753 68.9626167,137.170748 67.0682266,136.375717 Z" id="Stroke-137" stroke="#82351A" stroke-width="0.5"></path>
                        <path d="M28.1597356,109.51892 C32.6869943,113.485904 48.1186592,125.641066 66.900613,125.306886 C68.1657213,125.284403 69.2157204,126.278512 69.2530196,127.54344 L69.4482019,134.200216 C69.4885668,135.573216 68.3294803,136.675397 66.9603939,136.56758 C60.0058747,136.019811 39.9991775,132.898497 20.7954357,115.236006 C20.7954357,115.236006 18.8359484,113.466998 21.6811648,111.748065 C23.1044117,110.888088 24.3874033,110.021979 25.3145192,109.371247 C26.1851753,108.760117 27.3598458,108.818113 28.1597356,109.51892" id="Fill-139" fill="#BF4E26"></path>
                        <path d="M28.1597356,109.51892 C32.6869943,113.485904 48.1186592,125.641066 66.900613,125.306886 C68.1657213,125.284403 69.2157204,126.278512 69.2530196,127.54344 L69.4482019,134.200216 C69.4885668,135.573216 68.3294803,136.675397 66.9603939,136.56758 C60.0058747,136.019811 39.9991775,132.898497 20.7954357,115.236006 C20.7954357,115.236006 18.8359484,113.466998 21.6811648,111.748065 C23.1044117,110.888088 24.3874033,110.021979 25.3145192,109.371247 C26.1851753,108.760117 27.3598458,108.818113 28.1597356,109.51892 Z" id="Stroke-141" stroke="#5E210E" stroke-width="0.859208262"></path>
                        <path d="M24.6226015,115.48014 C24.1954771,114.576022 25.2864793,113.711676 26.0884843,114.313577 C30.2371468,117.427451 39.4549808,123.620241 45.8381462,122.506623 C52.3217214,121.375526 47.8244276,132.969717 35.4696756,125.570339 C28.5095356,121.401618 25.7260912,117.816306 24.6226015,115.48014" id="Fill-143" fill="#F4D3D3"></path>
                        <path d="M36.7220295,126.133022 C35.5872182,124.98326 50.6041306,131.222729 53.1719592,128.088809 C55.5484475,125.188692 65.9533442,127.5941 58.7813875,129.80902 C55.3751725,130.861006 59.0007165,132.97815 60.5805469,130.480538 C61.1840833,129.526329 67.5275768,123.163752 68.4267748,127.511522 C69.9178049,134.721918 64.2964179,135.527689 61.8822722,135.542169 C60.6311809,135.549474 56.2982881,134.565121 51.5448026,133.04021 C45.5959487,131.131538 38.9718057,128.41203 36.7220295,126.133022" id="Fill-145" fill="#661209"></path>
                        <path d="M62.2203098,91.1359725 C62.2203098,91.1359725 63.0583414,99.0348334 65.3140559,102.308155 C67.5695177,105.581476 66.0970269,118.718876 63.7670566,115.743894 C61.4373387,112.768657 67.005526,106.862297 66.8648438,99.7465138 C66.7236564,92.6302206 62.2203098,91.1359725 62.2203098,91.1359725" id="Fill-147" fill="#FF5900"></path>
                        <path d="M38.6071988,113.838236 C38.1870057,114.816386 38.7594613,115.937204 39.7830744,116.258017 C45.2959985,117.986504 64.95935,123.407635 61.5143801,111.600908 C58.8972574,102.632082 67.5700752,106.659729 67.6381454,112.756949 C67.7062157,118.854169 66.9600018,127.254096 58.2293499,122.023274 C46.8350008,115.196496 50.6597311,115.979776 44.1050247,113.252106 C40.4635212,111.736734 39.1000685,112.69081 38.6071988,113.838236" id="Fill-149" fill="#47B100"></path>
                        <path d="M29.4320138,107.510436 C29.4320138,107.510436 35.9365827,112.415758 46.9952435,113.607296 C58.0539044,114.798578 64.5406001,123.907986 56.7070309,123.661169 C48.8737171,123.414096 40.6055738,112.05335 36.7551754,109.03747 C32.9047769,106.021334 29.4320138,107.510436 29.4320138,107.510436" id="Fill-151" fill="#FF5900"></path>
                        <path d="M51.5378416,111.434068 C48.074592,111.846968 44.0851461,111.021672 43.6649074,107.618902 C43.2446686,104.216132 46.8841722,102.987262 50.3471652,102.574362 C53.8104147,102.161462 56.3264595,103.347983 56.7466982,106.750753 C57.166937,110.153272 55.0008346,111.021168 51.5378416,111.434068" id="Fill-153" fill="#FF481D"></path>
                        <path d="M51.5378416,111.434068 C48.074592,111.846968 44.0851461,111.021672 43.6649074,107.618902 C43.2446686,104.216132 46.8841722,102.987262 50.3471652,102.574362 C53.8104147,102.161462 56.3264595,103.347983 56.7466982,106.750753 C57.166937,110.153272 55.0008346,111.021168 51.5378416,111.434068 Z" id="Stroke-155" stroke="#FF9D8A" stroke-width="0.5"></path>
                        <path d="M52.9021388,109.116732 C52.7356205,109.337432 51.4701875,109.108628 51.2247783,108.958476 C50.9796337,108.8088 50.7509027,108.098316 50.917421,107.877616 C51.084204,107.656915 51.8246676,107.589704 52.0695474,107.739857 C52.3149567,107.889771 53.0689218,108.896031 52.9021388,109.116732" id="Fill-157" fill="#FFDBD7"></path>
                        <path d="M48.829363,105.816888 C48.6672174,106.073095 48.3558153,106.501951 48.1171081,106.327919 C47.8784009,106.153609 47.6556762,105.3291 47.8178218,105.072893 C47.9799674,104.816686 48.7009869,104.738662 48.9399519,104.912694 C49.1784014,105.087003 48.9915086,105.560682 48.829363,105.816888" id="Fill-159" fill="#FFDBD7"></path>
                        <path d="M46.9172056,109.934756 C46.635163,109.861559 46.1495095,109.699881 46.2204097,109.408968 C46.2915696,109.117786 46.9416182,108.626049 47.2236608,108.699247 C47.5057034,108.772444 47.823326,109.451063 47.7524258,109.742244 C47.6812659,110.033425 47.1992483,110.007954 46.9172056,109.934756" id="Fill-161" fill="#FFDBD7"></path>
                        <path d="M53.9326151,105.640509 C53.8781411,105.924941 53.7489676,106.416632 53.4520572,106.364494 C53.1548772,106.312615 52.6174183,105.698841 52.6716226,105.414409 C52.7260966,105.130235 53.3857176,104.772243 53.6823582,104.82438 C53.9795382,104.876517 53.9868194,105.356335 53.9326151,105.640509" id="Fill-163" fill="#FFDBD7"></path>
                        <path d="M58.3006283,98.0460153 C55.5051339,100.102563 51.6306677,101.333803 49.5551706,98.563831 C47.4796735,95.7941131 50.0178431,92.9376274 52.8130815,90.8810795 C55.6085759,88.8245316 58.3869153,88.6304459 60.4624124,91.4004175 C62.5379096,94.1703891 61.0958666,95.9894674 58.3006283,98.0460153" id="Fill-165" fill="#FF481D"></path>
                        <path d="M58.3006283,98.0460153 C55.5051339,100.102563 51.6306677,101.333803 49.5551706,98.563831 C47.4796735,95.7941131 50.0178431,92.9376274 52.8130815,90.8810795 C55.6085759,88.8245316 58.3869153,88.6304459 60.4624124,91.4004175 C62.5379096,94.1703891 61.0958666,95.9894674 58.3006283,98.0460153 Z" id="Stroke-167" stroke="#FF9D8A" stroke-width="0.5"></path>
                        <path d="M58.6055312,95.3826046 C58.5830411,95.669249 57.3997564,96.062743 57.1145413,96.0403971 C56.8293262,96.0175374 56.2604295,95.4624849 56.2829196,95.1755836 C56.3056652,94.8889391 56.8909184,94.4705307 57.1761334,94.4931335 C57.4613485,94.5157362 58.6280213,95.0959601 58.6055312,95.3826046" id="Fill-169" fill="#FFDBD7"></path>
                        <path d="M53.1794045,94.5024633 C53.15554,94.7891836 53.0790651,95.2888888 52.7764196,95.2660231 C52.473503,95.2434144 51.8701104,94.687958 51.8939749,94.4012377 C51.9178394,94.1145174 52.5391304,93.6959982 52.8417759,93.718607 C53.1444213,93.7412158 53.203269,94.215743 53.1794045,94.5024633" id="Fill-171" fill="#FFDBD7"></path>
                        <path d="M53.558488,99.0536298 C53.271333,99.1318118 52.7595638,99.2368362 52.6797246,98.9556418 C52.5998854,98.6744475 52.9370729,97.9361495 53.2242279,97.8582282 C53.5111168,97.7797857 54.1277415,98.1949317 54.2073146,98.476126 C54.2874199,98.7573203 53.845643,98.9754479 53.558488,99.0536298" id="Fill-173" fill="#FFDBD7"></path>
                        <path d="M57.7120336,91.7687466 C57.8072131,92.0541671 57.9427794,92.5650618 57.6711322,92.6649724 C57.3992277,92.7648831 56.6506543,92.473522 56.5557321,92.1881014 C56.4605527,91.9029509 56.830209,91.2508312 57.1021135,91.1506505 C57.374018,91.0507398 57.6168542,91.4833261 57.7120336,91.7687466" id="Fill-175" fill="#FFDBD7"></path>
                        <path d="M9.10923365,54.3997725 C11.898705,47.1221893 17.0481252,30.8045191 36.9125811,16.5306169 C37.5873626,16.0460754 38.5303724,16.2429604 38.9308006,16.9716903 L65.2756093,70.1587496 C65.4261846,70.4627707 65.1564251,70.8051459 64.8264355,70.7294603 L19.878941,60.4116668 C19.878941,60.4116668 13.8278554,58.7626915 11.3311127,58.8429797 C8.83436991,58.9232678 7.75456632,57.9339849 9.10923365,54.3997725" id="Fill-177" fill="#FFDD00"></path>
                        <path d="M9.10923365,54.3997725 C11.898705,47.1221893 17.0481252,30.8045191 36.9125811,16.5306169 C37.5873626,16.0460754 38.5303724,16.2429604 38.9308006,16.9716903 L65.2756093,70.1587496 C65.4261846,70.4627707 65.1564251,70.8051459 64.8264355,70.7294603 L19.878941,60.4116668 C19.878941,60.4116668 13.8278554,58.7626915 11.3311127,58.8429797 C8.83436991,58.9232678 7.75456632,57.9339849 9.10923365,54.3997725 Z" id="Stroke-179" stroke="#5E200D" stroke-width="0.644406196"></path>
                        <path d="M36.6609294,16.7169386 L38.2511438,20.0663955 C38.7405385,21.0971939 39.4108131,22.0314986 40.2298678,22.8248918 L40.6171036,23.2001453 C41.2338785,23.797743 41.7673467,24.4760073 42.2027323,25.216814 L65.3184165,70.2237522 L39.0921079,16.6035967 C39.0921079,16.6035967 37.8272225,15.1883549 36.6609294,16.7169386" id="Fill-181" fill="#B77B0F"></path>
                        <path d="M36.6609294,16.7169386 L38.2511438,20.0663955 C38.7405385,21.0971939 39.4108131,22.0314986 40.2298678,22.8248918 L40.6171036,23.2001453 C41.2338785,23.797743 41.7673467,24.4760073 42.2027323,25.216814 L65.3184165,70.2237522 L39.0921079,16.6035967 C39.0921079,16.6035967 37.8272225,15.1883549 36.6609294,16.7169386 Z" id="Stroke-183" stroke="#82351A" stroke-width="0.5"></path>
                        <path d="M17.2894549,58.3587517 C18.53971,53.9356058 24.8343088,34.7246363 41.7443535,26.6322926 C42.2912445,26.3705726 42.5032731,25.6984918 42.2058725,25.1683999 L37.6602547,17.060962 C37.3687154,16.5411036 36.7074002,16.3663677 36.2007742,16.6779757 C32.2446061,19.1107188 16.7736546,30.0077908 8.86106354,55.7799264 C8.86106354,55.7799264 8.09322442,58.2014127 11.225743,58.4713195 C13.23135,58.6440087 15.0542352,58.9261956 16.1062232,59.1070715 C16.6332366,59.1973816 17.1434304,58.8752843 17.2894549,58.3587517" id="Fill-185" fill="#BF4E26"></path>
                        <path d="M17.2894549,58.3587517 C18.53971,53.9356058 24.8343088,34.7246363 41.7443535,26.6322926 C42.2912445,26.3705726 42.5032731,25.6984918 42.2058725,25.1683999 L37.6602547,17.060962 C37.3687154,16.5411036 36.7074002,16.3663677 36.2007742,16.6779757 C32.2446061,19.1107188 16.7736546,30.0077908 8.86106354,55.7799264 C8.86106354,55.7799264 8.09322442,58.2014127 11.225743,58.4713195 C13.23135,58.6440087 15.0542352,58.9261956 16.1062232,59.1070715 C16.6332366,59.1973816 17.1434304,58.8752843 17.2894549,58.3587517 Z" id="Stroke-187" stroke="#5E210E" stroke-width="0.859208262"></path>
                        <path d="M16.4586259,38.9882239 C16.5639189,38.7948076 13.6886114,46.2011553 16.2120987,50.4258941 C18.6621847,54.5269275 16.4219253,56.2699554 14.8149422,57.3404626 C13.1294957,58.462936 5.32566805,59.4196242 16.4586259,38.9882239" id="Fill-189" fill="#F4D3D3"></path>
                        <path d="M15.7896623,39.7372632 C15.6013293,40.1208601 16.1072034,40.4661481 16.4000242,40.1543487 C18.9250621,37.4651113 23.8775309,32.342875 25.6658021,31.5723831 C30.7574182,29.3783712 25.7300239,35.6907219 26.4889624,37.1444324 C27.1824049,38.4720531 30.5805534,32.1942058 39.1722573,27.1592429 C39.3236373,27.0707011 39.482153,26.9928146 39.6460205,26.9306577 C40.3022551,26.6815227 42.0191688,25.7732708 39.3264406,21.5194553 C36.4606704,16.9924031 32.6985984,19.433774 31.994962,20.1266332 C31.8583633,20.2610951 31.1921896,20.7837205 31.0313802,20.8877382 C29.1393857,22.1055061 19.9464945,31.2714929 15.7896623,39.7372632" id="Fill-191" fill="#51211C"></path>
                        <path d="M26.9027532,45.1220465 C27.0375302,45.1182319 27.1682153,45.0795779 27.2830442,45.009136 C28.5589499,44.2243576 36.6514504,39.4808474 40.2983567,43.0980505 C44.2634083,47.0308433 47.099351,47.1061169 47.243079,44.0781335 C47.4735042,39.240277 34.5489808,36.5324608 39.5318926,35.9984249 C41.5435731,35.7827761 45.65312,36.813211 44.3626368,33.1667632 C43.5243087,30.7976783 42.7703761,28.537435 42.9043858,27.4907247 C42.9711349,26.968641 42.2430324,26.6927225 41.7783459,26.9447365 C39.4960884,28.1831912 33.7147446,31.5921202 29.7571096,36.2893473 C27.4114276,39.0732 25.2434876,42.2921649 24.1343268,44.0043857 C23.7993025,44.5218919 24.1836854,45.200626 24.8023296,45.1825705 L26.9027532,45.1220465 Z" id="Fill-193" fill="#47B100"></path>
                        <path d="M17.0395869,59.3783132 C17.0395869,59.3783132 22.3620853,44.1625733 26.4170923,41.7365434 C32.536314,38.0749526 36.1040393,46.0248309 31.3064231,49.097938 C27.7277734,51.3902217 26.9173309,54.5007778 34.7626173,54.7382093 C42.6079037,54.975386 47.526197,58.2061863 41.3503205,58.6851254 C35.174444,59.1638096 43.0088059,62.4878502 44.0501864,62.9273023 C48.6158484,64.8542676 34.6180587,64.5885583 17.0395869,59.3783132" id="Fill-195" fill="#FF5900"></path>
                        <path d="M44.840448,44.2676763 C45.8879641,47.5884934 45.8131595,51.6623983 42.5399563,52.7249777 C39.2672585,53.7875572 37.3837514,50.4495603 36.3364881,47.1287432 C35.2892248,43.8081825 35.9920335,41.111477 39.264984,40.0488976 C42.5381873,38.9863182 43.792932,40.9468592 44.840448,44.2676763" id="Fill-197" fill="#FF481D"></path>
                        <path d="M44.840448,44.2676763 C45.8879641,47.5884934 45.8131595,51.6623983 42.5399563,52.7249777 C39.2672585,53.7875572 37.3837514,50.4495603 36.3364881,47.1287432 C35.2892248,43.8081825 35.9920335,41.111477 39.264984,40.0488976 C42.5381873,38.9863182 43.792932,40.9468592 44.840448,44.2676763 Z" id="Stroke-199" stroke="#FF9D8A" stroke-width="0.5"></path>
                        <path d="M42.3845028,43.3827281 C42.6478952,43.4910996 42.6361092,44.6812334 42.5226044,44.9321476 C42.4088435,45.1830618 41.7003998,45.5267264 41.4370074,45.4183549 C41.173615,45.3099834 40.9683841,44.652432 41.0818888,44.4015178 C41.1956497,44.1506036 42.1213665,43.2743566 42.3845028,43.3827281" id="Fill-201" fill="#FFDBD7"></path>
                        <path d="M39.635534,47.8830947 C39.9089386,48.0000374 40.3745516,48.2357666 40.2566176,48.5065259 C40.1384174,48.7772852 39.402062,49.1481306 39.1286575,49.0311879 C38.8547205,48.9142452 38.6414809,48.2046872 38.7596811,47.9339279 C38.8778813,47.6631686 39.3618633,47.766152 39.635534,47.8830947" id="Fill-203" fill="#FFDBD7"></path>
                        <path d="M44.1455474,49.0560784 C44.1281853,49.3432654 44.0625352,49.8441728 43.7595136,49.8274759 C43.4562208,49.8110358 42.8401402,49.2680008 42.8575022,48.9808139 C42.8748643,48.693627 43.4868756,48.2628466 43.7901684,48.2792866 C44.0934613,48.2959835 44.1629094,48.7688915 44.1455474,49.0560784" id="Fill-205" fill="#FFDBD7"></path>
                        <path d="M38.4479678,42.8572679 C38.7357606,42.8548253 39.2403624,42.8854927 39.242685,43.1891815 C39.2449918,43.4931417 38.7403899,44.1458418 38.4525971,44.1480207 C38.16429,44.1504555 37.6959515,43.5694031 37.6936317,43.2654429 C37.6918365,42.9617542 38.1599178,42.8597104 38.4479678,42.8572679" id="Fill-207" fill="#FFDBD7"></path>
                        <path d="M61.3245489,66.8718236 C61.6591731,66.8969259 62.2427556,66.9826015 62.2196434,67.3460404 C62.1965312,67.7097521 61.554917,68.4409955 61.2202929,68.4158932 C60.8854175,68.3907908 60.3905154,67.6502704 60.4138788,67.2868315 C60.4369909,66.9231197 60.9896735,66.8467212 61.3245489,66.8718236" id="Fill-209" fill="#53C40A"></path>
                        <path d="M47.3048408,46.6720578 C47.59914,45.9918117 47.8558854,45.2025787 48.5160149,45.5055831 C49.1763999,45.8088507 50.0641514,46.9695339 49.7698522,47.6500432 C49.475553,48.3302894 48.0536177,48.738595 47.3934882,48.4353274 C46.7333587,48.1320598 47.0107971,47.3523039 47.3048408,46.6720578" id="Fill-211" fill="#53C40A"></path>
                        <path d="M27.6834982,55.1917544 C27.9777974,54.5114729 28.2345427,53.722199 28.8949275,54.0254824 C29.5550569,54.3287658 30.4428082,55.4895092 30.1485091,56.1697906 C29.8542099,56.8500721 28.4325304,57.2583989 27.7721456,56.9551156 C27.1120163,56.6518322 27.3894545,55.8720359 27.6834982,55.1917544" id="Fill-213" fill="#53C40A"></path>
                        <path d="M35.6871291,34.5377097 C35.9811715,33.8574282 36.2381713,33.0681543 36.8982978,33.3714376 C37.5584244,33.674721 38.4464274,34.8354644 38.151874,35.5157459 C37.8578316,36.1960273 36.4359027,36.6043542 35.7757761,36.3010708 C35.1153941,35.9977874 35.3928312,35.2179911 35.6871291,34.5377097" id="Fill-215" fill="#53C40A"></path>
                        <path d="M5.50817172,62.8861732 C5.39143499,71.0135766 4.07572538,88.7298766 17.5866001,111.275459 C18.0453907,112.041039 19.0210855,112.288577 19.6809794,111.786611 L65.1741498,73.8064145 C65.4282688,73.5940935 65.3303935,73.1824663 65.0079656,73.1074394 L18.0851526,62.1718866 C18.0851526,62.1718866 11.6789059,60.9464473 9.32607453,59.7250911 C6.97349806,58.5039901 5.56501079,58.9393502 5.50817172,62.8861732" id="Fill-217" fill="#FFEC00"></path>
                        <path d="M5.50817172,62.8861732 C5.39143499,71.0135766 4.07572538,88.7298766 17.5866001,111.275459 C18.0453907,112.041039 19.0210855,112.288577 19.6809794,111.786611 L65.1741498,73.8064145 C65.4282688,73.5940935 65.3303935,73.1824663 65.0079656,73.1074394 L18.0851526,62.1718866 C18.0851526,62.1718866 11.6789059,60.9464473 9.32607453,59.7250911 C6.97349806,58.5039901 5.56501079,58.9393502 5.50817172,62.8861732 Z" id="Stroke-219" stroke="#5E200D" stroke-width="0.644406196"></path>
                        <path d="M17.2977625,110.683633 L20.1071132,108.258703 C20.9716664,107.512217 21.9726877,106.939979 23.0623877,106.569033 L23.5775929,106.393509 C24.3981901,106.113896 25.1699757,105.719988 25.8712273,105.221991 L65.3184165,73.83821 L19.5852635,111.907707 C19.5852635,111.907707 17.829579,112.659805 17.2977625,110.683633" id="Fill-221" fill="#B77B0F"></path>
                        <path d="M17.2977625,110.683633 L20.1071132,108.258703 C20.9716664,107.512217 21.9726877,106.939979 23.0623877,106.569033 L23.5775929,106.393509 C24.3981901,106.113896 25.1699757,105.719988 25.8712273,105.221991 L65.3184165,73.83821 L19.5852635,111.907707 C19.5852635,111.907707 17.829579,112.659805 17.2977625,110.683633 Z" id="Stroke-223" stroke="#82351A" stroke-width="0.5"></path>
                        <path d="M14.5429669,62.7671656 C14.0530286,67.6755159 12.977161,87.1971135 24.6512078,102.256295 C25.710693,103.622753 25.4480615,105.590187 24.059647,106.621235 L20.0016576,109.634555 C18.5541127,110.709864 16.4999043,110.312539 15.5510009,108.779527 C11.7000962,102.559981 3.44691416,86.0322597 5.48115637,61.1361657 C5.48115637,61.1361657 5.67185857,58.4994465 8.78273634,59.6883495 C10.6736319,60.4108505 12.4442187,60.964495 13.5421003,61.2876248 C14.187928,61.4777163 14.6097767,62.0976242 14.5429669,62.7671656" id="Fill-225" fill="#BF4E26"></path>
                        <path d="M14.5429669,62.7671656 C14.0530286,67.6755159 12.977161,87.1971135 24.6512078,102.256295 C25.710693,103.622753 25.4480615,105.590187 24.059647,106.621235 L20.0016576,109.634555 C18.5541127,110.709864 16.4999043,110.312539 15.5510009,108.779527 C11.7000962,102.559981 3.44691416,86.0322597 5.48115637,61.1361657 C5.48115637,61.1361657 5.67185857,58.4994465 8.78273634,59.6883495 C10.6736319,60.4108505 12.4442187,60.964495 13.5421003,61.2876248 C14.187928,61.4777163 14.6097767,62.0976242 14.5429669,62.7671656 Z" id="Stroke-227" stroke="#5E210E" stroke-width="0.859208262"></path>
                        <path d="M13.4643799,91.7451257 C11.9976926,93.4474285 9.22102093,92.7136994 8.61847357,90.538122 C7.58878482,86.8203049 6.49894244,79.6930163 10.6303347,73.386531 C15.8427233,65.4304998 6.73854601,55.8384958 6.18654792,64.7892231 C5.57136324,74.7651223 6.04273523,75.8886371 8.22747492,78.5346718 C14.7804303,86.4704711 14.8860782,90.0950674 13.4643799,91.7451257" id="Fill-229" fill="#661209"></path>
                        <path d="M24.415412,105.234312 C24.6432735,104.86355 24.5098227,104.379493 24.1186562,104.188626 C21.8211588,103.066644 13.5405744,98.417194 15.1922514,90.3635232 C17.1059819,81.0327274 9.37323472,80.7683714 9.55567703,87.6421368 C9.73811934,94.5161573 16.1940255,101.231207 13.8378405,100.152859 C11.4814003,99.0742564 15.4201129,107.909002 16.4632236,108.850834 C17.3792627,109.678095 18.8132848,109.663805 19.8910978,108.854917 C20.7821307,108.186116 23.5080485,106.711745 24.415412,105.234312" id="Fill-231" fill="#F4D3D3"></path>
                        <path d="M54.2168675,82.138628 C54.2168675,82.138628 42.5105918,90.0055308 36.2051707,80.5758307 C29.8997495,71.1463849 26.0821417,71.522138 26.711816,75.2824682 C28.0556487,83.3086273 26.305731,86.3533219 24.6188573,80.3389815 C23.4233184,76.0759511 20.9007926,97.0094988 24.8559742,100.995993 C28.8111558,104.982233 54.2168675,82.138628 54.2168675,82.138628" id="Fill-233" fill="#47B100"></path>
                        <path d="M42.0826162,92.0658787 C42.0826162,92.0658787 32.0339424,93.7127909 28.6011292,87.5801564 C25.1678069,81.4475218 20.0011469,81.294747 20.9783134,86.3737448 C21.95548,91.4527426 17.9612671,81.1287318 20.2603328,75.2382453 C22.5593985,69.3475041 16.357777,68.1871796 15.8154725,74.2388435 C15.2028975,81.0744967 18.8505956,94.3419684 24.9119308,101.313846 C25.6640283,102.17906 26.0431322,103.326654 25.9028459,104.464571 C25.8773856,104.671581 25.8346123,104.878082 25.7694339,105.077453 L42.0826162,92.0658787 Z" id="Fill-235" fill="#FF5900"></path>
                        <path d="M45.4759772,73.4498993 C48.587402,71.9622899 52.5909224,71.4863359 54.0820619,74.5906699 C55.5729477,77.695257 52.5594606,80.0150263 49.4480358,81.5026357 C46.3368648,82.9904982 43.5971465,82.6568241 42.1062608,79.552237 C40.615375,76.4476499 42.3648062,74.9375087 45.4759772,73.4498993" id="Fill-237" fill="#FF481D"></path>
                        <path d="M45.4759772,73.4498993 C48.587402,71.9622899 52.5909224,71.4863359 54.0820619,74.5906699 C55.5729477,77.695257 52.5594606,80.0150263 49.4480358,81.5026357 C46.3368648,82.9904982 43.5971465,82.6568241 42.1062608,79.552237 C40.615375,76.4476499 42.3648062,74.9375087 45.4759772,73.4498993 Z" id="Stroke-239" stroke="#FF9D8A" stroke-width="0.5"></path>
                        <path d="M44.6685428,76.0272763 C44.7473385,75.7482074 46.0220361,75.5873355 46.3063857,75.6649264 C46.5907352,75.7422588 47.0577115,76.4007475 46.9791794,76.6798164 C46.9001202,76.9588852 46.2257453,77.2596796 45.9413958,77.1820886 C45.6570462,77.1047563 44.5894836,76.3063451 44.6685428,76.0272763" id="Fill-241" fill="#FFDBD7"></path>
                        <path d="M49.62714,77.8890961 C49.7071143,77.6080127 49.8801691,77.1247785 50.168772,77.2029296 C50.4573749,77.2808202 50.9316038,77.9440624 50.8516295,78.2254063 C50.7713877,78.5064897 50.0871929,78.8091949 49.7985899,78.7310438 C49.509987,78.6531532 49.5468982,78.1701795 49.62714,77.8890961" id="Fill-243" fill="#FFDBD7"></path>
                        <path d="M50.298478,73.3323034 C50.5869671,73.3082912 51.0949251,73.300467 51.1179318,73.6018333 C51.1409386,73.9029297 50.6797696,74.5879512 50.3912805,74.6119633 C50.1027914,74.6359755 49.5932824,74.0950271 49.5705341,73.7936609 C49.5475274,73.4925644 50.0099889,73.3563156 50.298478,73.3323034" id="Fill-245" fill="#FFDBD7"></path>
                        <path d="M44.9530039,79.8452479 C44.9097332,79.5567211 44.8680652,79.0468515 45.163748,79.0046662 C45.4596979,78.9624808 46.1677876,79.3827717 46.2107911,79.6712985 C46.2540618,79.9598254 45.7540453,80.505891 45.4583624,80.5480764 C45.1621454,80.5900013 44.9962745,80.1337748 44.9530039,79.8452479" id="Fill-247" fill="#FFDBD7"></path>
                        <path d="M28.6271162,74.1550697 C29.1775681,70.7253132 31.0601892,67.1414592 34.4412486,67.6998392 C37.8223081,68.2579636 38.0069677,72.0868916 37.4567677,75.516648 C36.9063158,78.9466601 35.0796217,81.0186715 31.6985622,80.4602915 C28.3175028,79.9021671 28.0766643,77.5848262 28.6271162,74.1550697" id="Fill-249" fill="#FF481D"></path>
                        <path d="M28.6271162,74.1550697 C29.1775681,70.7253132 31.0601892,67.1414592 34.4412486,67.6998392 C37.8223081,68.2579636 38.0069677,72.0868916 37.4567677,75.516648 C36.9063158,78.9466601 35.0796217,81.0186715 31.6985622,80.4602915 C28.3175028,79.9021671 28.0766643,77.5848262 28.6271162,74.1550697 Z" id="Stroke-251" stroke="#FF9D8A" stroke-width="0.5"></path>
                        <path d="M30.2394663,76.3514528 C30.0687275,76.1179738 30.6074872,74.9465155 30.8136172,74.7531234 C31.0199863,74.5597312 31.7617673,74.5597312 31.9327452,74.7932103 C32.1034839,75.0266893 31.9820059,75.77561 31.775876,75.9690022 C31.5695068,76.1623944 30.4104442,76.5849319 30.2394663,76.3514528" id="Fill-253" fill="#FFDBD7"></path>
                        <path d="M34.6553907,73.199294 C34.4820954,72.9864688 34.2028838,72.5936558 34.4118077,72.4171245 C34.6207317,72.2408401 35.3728094,72.2408401 35.5461048,72.4536653 C35.7191578,72.6664904 35.5960332,73.3491604 35.3871093,73.5254448 C35.177943,73.7019761 34.8284438,73.4121191 34.6553907,73.199294" id="Fill-255" fill="#FFDBD7"></path>
                        <path d="M31.1665397,70.2928574 C31.3130599,70.0290723 31.5988264,69.584975 31.8500411,69.7390997 C32.1012558,69.8932244 32.3776699,70.6881258 32.2311497,70.9519109 C32.0841098,71.2156959 31.3644979,71.3441786 31.1132832,71.190054 C30.8620685,71.0362021 31.0200194,70.5566424 31.1665397,70.2928574" id="Fill-257" fill="#FFDBD7"></path>
                        <path d="M33.4041029,78.3356621 C33.1344434,78.2048128 32.6780136,77.9454695 32.8125743,77.6835092 C32.947135,77.4212872 33.7111703,77.0933789 33.9808299,77.2242282 C34.2504894,77.3553392 34.4256874,78.0708231 34.2908576,78.3330451 C34.156297,78.595267 33.6734934,78.4665113 33.4041029,78.3356621" id="Fill-259" fill="#FFDBD7"></path>
                        <path d="M56.5926322,76.2383809 C55.8853761,76.0323235 55.0768975,75.8790879 55.2819446,75.1686083 C55.4869916,74.4578672 56.4999968,73.4001234 57.2067324,73.6061808 C57.9139886,73.8122382 58.5116954,75.1984187 58.3069086,75.9091597 C58.1018616,76.6196393 57.2996281,76.4444383 56.5926322,76.2383809" id="Fill-261" fill="#53C40A"></path>
                        <path d="M42.651152,73.3984497 C41.9438959,73.1923923 41.1354173,73.0391568 41.3404643,72.3286772 C41.5455114,71.6179361 42.5585165,70.5601923 43.2652522,70.7662497 C43.9725083,70.9720455 44.5702152,72.3584875 44.3654284,73.0692286 C44.1603814,73.7797082 43.3584081,73.6045071 42.651152,73.3984497" id="Fill-263" fill="#53C40A"></path>
                        <path d="M25.3533895,69.2676408 C24.6461334,69.0615834 23.8376548,68.9083478 24.0427019,68.1978682 C24.2474887,67.4871271 25.2604939,66.4293833 25.9674898,66.6354407 C26.6747459,66.8412366 27.2724527,68.2276786 27.0676659,68.9384196 C26.8626189,69.6488992 26.0603854,69.4736982 25.3533895,69.2676408" id="Fill-265" fill="#53C40A"></path>
                        <path d="M28.9678474,90.4380366 C28.2605912,90.2319792 27.4521127,90.0787437 27.6571597,89.3682641 C27.8619465,88.657523 28.8749517,87.5997792 29.5819476,87.8058366 C30.2892037,88.011894 30.8869106,89.3980744 30.6821238,90.1088155 C30.4770767,90.8192951 29.6748433,90.644094 28.9678474,90.4380366" id="Fill-267" fill="#53C40A"></path>
                        <path d="M130.54446,63.4967911 C131.156298,71.2415475 133.52294,88.1309976 121.765353,109.514312 C121.366118,110.240272 120.432446,110.469093 119.759755,109.985969 L73.2175033,73.4930665 C72.9514312,73.2846303 73.0471662,72.8606231 73.3768919,72.7867276 L118.268987,62.7249655 C118.268987,62.7249655 124.424037,61.6037927 126.637401,60.4573934 C128.850764,59.3107394 130.247325,59.7360206 130.54446,63.4967911" id="Fill-269" fill="#FFDD00"></path>
                        <path d="M130.54446,63.4967911 C131.156298,71.2415475 133.52294,88.1309976 121.765353,109.514312 C121.366118,110.240272 120.432446,110.469093 119.759755,109.985969 L73.2175033,73.4930665 C72.9514312,73.2846303 73.0471662,72.8606231 73.3768919,72.7867276 L118.268987,62.7249655 C118.268987,62.7249655 124.424037,61.6037927 126.637401,60.4573934 C128.850764,59.3107394 130.247325,59.7360206 130.54446,63.4967911 Z" id="Stroke-271" stroke="#5E200D" stroke-width="0.644406196"></path>
                        <path d="M121.858864,109.204306 L118.98474,106.862778 C118.100119,106.14215 117.094036,105.586837 116.014107,105.223708 L115.503553,105.051996 C114.690487,104.77869 113.917399,104.395857 113.206443,103.914244 L73.0636833,73.3218589 L119.714793,110.359204 C119.714793,110.359204 121.464172,111.091859 121.858864,109.204306" id="Fill-273" fill="#B77B0F"></path>
                        <path d="M121.858864,109.204306 L118.98474,106.862778 C118.100119,106.14215 117.094036,105.586837 116.014107,105.223708 L115.503553,105.051996 C114.690487,104.77869 113.917399,104.395857 113.206443,103.914244 L73.0636833,73.3218589 L119.714793,110.359204 C119.714793,110.359204 121.464172,111.091859 121.858864,109.204306 Z" id="Stroke-275" stroke="#82351A" stroke-width="0.5"></path>
                        <path d="M121.753595,63.4076516 C122.523265,67.9192043 125.088151,87.8858043 113.313962,102.436809 C112.932819,102.907421 113.030078,103.602133 113.525793,103.950507 L121.101043,109.275188 C121.586574,109.616433 122.257712,109.488593 122.58106,108.990733 C125.104191,105.101569 134.378164,88.6510569 130.458017,62.0943712 C130.458017,62.0943712 130.111755,59.5885189 127.171835,60.6952703 C125.289798,61.4037338 123.525388,61.9354635 122.499586,62.2260303 C121.98554,62.3716957 121.663719,62.8810152 121.753595,63.4076516" id="Fill-277" fill="#BF4E26"></path>
                        <path d="M121.753595,63.4076516 C122.523265,67.9192043 125.088151,87.8858043 113.313962,102.436809 C112.932819,102.907421 113.030078,103.602133 113.525793,103.950507 L121.101043,109.275188 C121.586574,109.616433 122.257712,109.488593 122.58106,108.990733 C125.104191,105.101569 134.378164,88.6510569 130.458017,62.0943712 C130.458017,62.0943712 130.111755,59.5885189 127.171835,60.6952703 C125.289798,61.4037338 123.525388,61.9354635 122.499586,62.2260303 C121.98554,62.3716957 121.663719,62.8810152 121.753595,63.4076516 Z" id="Stroke-279" stroke="#5E210E" stroke-width="0.859208262"></path>
                        <path d="M130.734311,80.5462562 C130.722155,80.7675913 130.116679,72.7962108 125.932401,70.0573157 C121.869943,67.3982339 123.168833,64.8434448 124.180115,63.1739963 C125.240798,61.4234596 132.016131,57.1668378 130.734311,80.5462562" id="Fill-281" fill="#F4D3D3"></path>
                        <path d="M130.636833,79.3789692 C130.640896,78.9491365 130.033918,78.854129 129.904252,79.2640407 C128.78831,82.7971984 126.533197,89.589218 125.250833,91.0613245 C121.600793,95.2534057 123.407435,87.348112 122.091124,86.3553851 C120.888907,85.4487269 120.539474,92.6192443 114.957464,100.903547 C114.859194,101.049378 114.749948,101.188569 114.62845,101.316012 C114.14348,101.825784 112.985677,103.392132 117.263626,106.093463 C121.816222,108.968208 124.158118,105.125509 124.493769,104.19229 C124.558857,104.011214 124.933816,103.248599 125.034639,103.084634 C126.216435,101.161242 130.550539,88.8646576 130.636833,79.3789692" id="Fill-283" fill="#661209"></path>
                        <path d="M118.612077,79.2725034 C118.492149,79.3340639 118.390888,79.4252552 118.318011,79.5386697 C117.507154,80.7990002 112.261006,88.5819374 107.403027,86.8730579 C102.121336,85.0152581 99.5302255,86.1675384 100.712373,88.97429 C102.601303,93.4582468 115.435391,90.3495676 111.17117,92.978279 C109.449474,94.0396235 105.295209,94.8746499 108.039745,97.6241834 C109.822811,99.410716 111.482369,101.134922 111.815304,102.141347 C111.981004,102.643283 112.757595,102.580189 113.067516,102.151565 C114.590014,100.046501 118.329262,94.4682482 119.864289,88.5070941 C120.774361,84.9741326 121.335389,81.1231509 121.594168,79.0936969 C121.672415,78.4806459 121.03135,78.0310752 120.481062,78.3135895 L118.612077,79.2725034 Z" id="Fill-285" fill="#47B100"></path>
                        <path d="M121.550552,62.4784854 C121.550552,62.4784854 123.292245,78.4570333 120.667727,82.3861553 C116.707247,88.3152621 110.050123,82.7012875 113.068141,77.8709535 C115.319295,74.2676289 114.71197,71.1203699 107.507923,74.28642 C100.304131,77.4524701 94.4587279,76.6650205 99.8428398,73.573881 C105.226952,70.4829954 96.7022353,70.8679595 95.569905,70.9212856 C90.6063073,71.154651 103.391726,65.3641922 121.550552,62.4784854" id="Fill-287" fill="#FF5900"></path>
                        <path d="M102.705646,87.9489979 C100.324742,85.3960234 98.6437294,81.6658441 101.172784,79.2621799 C103.701584,76.8585158 106.852366,79.0594892 109.233525,81.6127216 C111.614428,84.1659539 112.13066,86.9221348 109.601861,89.325799 C107.073061,91.7294631 105.086293,90.5019723 102.705646,87.9489979" id="Fill-289" fill="#FF481D"></path>
                        <path d="M102.705646,87.9489979 C100.324742,85.3960234 98.6437294,81.6658441 101.172784,79.2621799 C103.701584,76.8585158 106.852366,79.0594892 109.233525,81.6127216 C111.614428,84.1659539 112.13066,86.9221348 109.601861,89.325799 C107.073061,91.7294631 105.086293,90.5019723 102.705646,87.9489979 Z" id="Stroke-291" stroke="#FF9D8A" stroke-width="0.5"></path>
                        <path d="M105.391399,87.7796144 C105.103098,87.790314 104.5721,86.6645616 104.561279,86.3794933 C104.550458,86.094425 105.036884,85.4672237 105.325185,85.4562693 C105.613485,85.4455697 106.098881,85.9769839 106.10996,86.2617975 C106.12078,86.5471206 105.679699,87.7689148 105.391399,87.7796144" id="Fill-293" fill="#FFDBD7"></path>
                        <path d="M105.882764,82.613623 C105.594462,82.6250034 105.088451,82.6106425 105.07763,82.3074362 C105.066809,82.0042299 105.553239,81.3371218 105.841541,81.3254705 C106.129843,81.3140901 106.6155,81.8793165 106.626321,82.1825228 C106.637142,82.4854581 106.171066,82.6022427 105.882764,82.613623" id="Fill-295" fill="#FFDBD7"></path>
                        <path d="M101.351488,83.2954698 C101.243757,83.0121558 101.08509,82.5026827 101.348941,82.3867318 C101.612792,82.2707809 102.366906,82.5248337 102.474892,82.8084212 C102.582877,83.0917353 102.248224,83.7715796 101.984373,83.8875305 C101.720522,84.003208 101.459473,83.5790573 101.351488,83.2954698" id="Fill-297" fill="#FFDBD7"></path>
                        <path d="M108.980726,86.5638789 C108.747154,86.6871927 108.325474,86.8744284 108.21182,86.6212576 C108.097933,86.3678351 108.268183,85.6090778 108.501754,85.4855123 C108.734861,85.3621985 109.33027,85.6508535 109.443925,85.9042759 C109.557811,86.1574467 109.214297,86.4403134 108.980726,86.5638789" id="Fill-299" fill="#FFDBD7"></path>
                        <path d="M78.0244301,74.7022437 C77.6932077,74.8283023 77.0979673,75.0126404 76.9672918,74.6937714 C76.8363496,74.3749023 77.1425037,73.4714399 77.4739928,73.3451246 C77.8052152,73.2193228 78.5911352,73.6298475 78.7220774,73.9487166 C78.8530196,74.2678424 78.3556525,74.5761852 78.0244301,74.7022437" id="Fill-301" fill="#53C40A"></path>
                        <path d="M99.382933,86.7279961 C99.4013603,87.4621102 99.4972318,88.2764085 98.7930119,88.2956112 C98.0887921,88.3150734 96.8347428,87.6712639 96.8160666,86.9371499 C96.7976393,86.2032953 97.882108,85.2177297 98.5863279,85.1982675 C99.2907968,85.1790648 99.3645058,85.9941416 99.382933,86.7279961" id="Fill-303" fill="#53C40A"></path>
                        <path d="M113.324415,70.7211171 C113.34284,71.4549743 113.438702,72.269535 112.73455,72.2887377 C112.030149,72.3079405 110.77647,71.6641287 110.757547,70.9302715 C110.739121,70.1964144 111.823734,69.2108452 112.527886,69.1913829 C113.232038,69.1721802 113.305989,69.9870004 113.324415,70.7211171" id="Fill-305" fill="#53C40A"></path>
                        <path d="M115.131537,92.6660341 C115.150212,93.4001482 115.245831,94.2144465 114.54164,94.2336492 C113.837449,94.2531114 112.583451,93.6090424 112.564776,92.8751878 C112.546349,92.1413332 113.630773,91.1557676 114.334964,91.1363054 C115.039404,91.1171027 115.11311,91.9321795 115.131537,92.6660341" id="Fill-307" fill="#53C40A"></path>
                        <path d="M87.2371047,79.6896813 C86.5922993,76.2676064 87.1650623,72.2382611 90.5783921,71.5915476 C93.9917219,70.9450902 95.4734458,74.4883118 96.1185066,77.9106429 C96.763312,81.3329739 95.7284045,83.9185473 92.3148192,84.5650047 C88.9014894,85.2114621 87.8816546,83.1120123 87.2371047,79.6896813" id="Fill-309" fill="#FF481D"></path>
                        <path d="M87.2371047,79.6896813 C86.5922993,76.2676064 87.1650623,72.2382611 90.5783921,71.5915476 C93.9917219,70.9450902 95.4734458,74.4883118 96.1185066,77.9106429 C96.763312,81.3329739 95.7284045,83.9185473 92.3148192,84.5650047 C88.9014894,85.2114621 87.8816546,83.1120123 87.2371047,79.6896813 Z" id="Stroke-311" stroke="#FF9D8A" stroke-width="0.5"></path>
                        <path d="M89.7090065,80.7914196 C89.4714996,80.6462068 89.6298375,79.4059971 89.7689979,79.1581604 C89.90865,78.9103237 90.6258422,78.6388835 90.8631032,78.7843529 C91.1003643,78.9298223 91.214938,79.6410058 91.0755318,79.888586 C90.9361256,80.1364226 89.9465134,80.936889 89.7090065,80.7914196" id="Fill-313" fill="#FFDBD7"></path>
                        <path d="M92.7530346,76.4913872 C92.4896565,76.3443804 92.0458712,76.0578989 92.2006229,75.8070004 C92.3551017,75.5561019 93.1512404,75.2813082 93.4148915,75.4285748 C93.6785425,75.5758413 93.8051823,76.295811 93.6507036,76.5464498 C93.4959519,76.7973483 93.0166856,76.6386537 92.7530346,76.4913872" id="Fill-315" fill="#FFDBD7"></path>
                        <path d="M88.5802409,75.0825241 C88.6344477,74.7981233 88.7633572,74.3064867 89.0602808,74.3583602 C89.357474,74.4102336 89.8954963,75.0236825 89.8412895,75.3078252 C89.7870828,75.592226 89.1277021,75.9504368 88.8307786,75.8985633 C88.5335853,75.8464318 88.5260342,75.3666668 88.5802409,75.0825241" id="Fill-317" fill="#FFDBD7"></path>
                        <path d="M93.4363559,81.8312923 C93.1504429,81.7963584 92.6534376,81.7010352 92.6866055,81.3999002 C92.7197735,81.0984945 93.2959706,80.5173474 93.5818836,80.5522812 C93.8680537,80.5872151 94.265298,81.2230647 94.23213,81.5241996 C94.1989621,81.8256054 93.7222689,81.8659553 93.4363559,81.8312923" id="Fill-319" fill="#FFDBD7"></path>
                        <path d="M46.6456581,60.4785324 C46.0869132,57.0388035 46.7695951,53.0237791 50.2210597,52.4671903 C53.6725243,51.9103453 55.0700294,55.4933215 55.6287743,58.9330504 C56.1870049,62.3730356 55.0777433,64.9317551 51.6262787,65.4883439 C48.1745569,66.045189 47.2041459,63.9182613 46.6456581,60.4785324" id="Fill-321" fill="#FF481D"></path>
                        <path d="M46.6456581,60.4785324 C46.0869132,57.0388035 46.7695951,53.0237791 50.2210597,52.4671903 C53.6725243,51.9103453 55.0700294,55.4933215 55.6287743,58.9330504 C56.1870049,62.3730356 55.0777433,64.9317551 51.6262787,65.4883439 C48.1745569,66.045189 47.2041459,63.9182613 46.6456581,60.4785324 Z" id="Stroke-323" stroke="#FF9D8A" stroke-width="0.5"></path>
                        <path d="M49.1620563,61.6841202 C48.9312301,61.5303963 49.1180778,60.2800907 49.261919,60.0331457 C49.4057602,59.7864602 50.1210784,59.5314654 50.3519047,59.6851894 C50.5829738,59.839173 50.67822,60.5618315 50.5343788,60.8085169 C50.3905377,61.0554619 49.3928825,61.8378442 49.1620563,61.6841202" id="Fill-325" fill="#FFDBD7"></path>
                        <path d="M52.4648184,57.6297877 C52.2041085,57.4764871 51.7658414,57.1799852 51.9285793,56.9339793 C52.0910427,56.6877144 52.8986945,56.4336809 53.1594044,56.5869815 C53.4203888,56.740282 53.5279659,57.4612089 53.3655025,57.7072148 C53.203039,57.9532207 52.7258027,57.7830882 52.4648184,57.6297877" id="Fill-327" fill="#FFDBD7"></path>
                        <path d="M48.054612,55.7097723 C48.1165163,55.426269 48.258627,54.9368636 48.5536143,54.9963579 C48.8483324,55.0558522 49.3685974,55.6839052 49.306424,55.9674085 C49.2447889,56.2509119 48.5770302,56.5931335 48.2823121,56.5336392 C47.9873248,56.4741449 47.9929769,55.9932756 48.054612,55.7097723" id="Fill-329" fill="#FFDBD7"></path>
                        <path d="M52.6353118,62.7207609 C52.3500527,62.6780398 51.8549685,62.569074 51.8956463,62.2694854 C51.936324,61.9696265 52.5274386,61.4055997 52.8129551,61.4480505 C53.0984717,61.4907716 53.4800187,62.1364551 53.4393409,62.4363141 C53.3989206,62.736173 52.920571,62.763482 52.6353118,62.7207609" id="Fill-331" fill="#FFDBD7"></path>
                        <path d="M45.6219235,14.3581899 C53.5086585,12.4057611 70.4593863,7.1158515 95.473374,15.1751004 C96.3225813,15.4488482 96.7848112,16.3432441 96.4457916,17.0997466 L69.7803266,70.0031754 C69.6313518,70.2988435 69.2084063,70.2968044 69.0622376,69.9998619 L47.7774661,26.7696217 C47.7774661,26.7696217 45.1321434,20.8073222 43.4097501,18.7921914 C41.6873567,16.7768057 41.7919452,15.3063668 45.6219235,14.3581899" id="Fill-333" fill="#FFEC00"></path>
                        <path d="M45.6219235,14.3581899 C53.5086585,12.4057611 70.4593863,7.1158515 95.473374,15.1751004 C96.3225813,15.4488482 96.7848112,16.3432441 96.4457916,17.0997466 L69.7803266,70.0031754 C69.6313518,70.2988435 69.2084063,70.2968044 69.0622376,69.9998619 L47.7774661,26.7696217 C47.7774661,26.7696217 45.1321434,20.8073222 43.4097501,18.7921914 C41.6873567,16.7768057 41.7919452,15.3063668 45.6219235,14.3581899 Z" id="Stroke-335" stroke="#5E200D" stroke-width="0.644406196"></path>
                        <path d="M94.575679,15.232358 L92.8552785,18.5187218 C92.3257876,19.5301858 91.9958408,20.6349253 91.8811983,21.7805528 L91.8270545,22.3220617 C91.7408819,23.1847961 91.5321868,24.0255532 91.2070697,24.8218448 L69.707401,70.2237522 L96.2790484,17.1827101 C96.2790484,17.1827101 96.6135708,15.3018674 94.575679,15.232358" id="Fill-337" fill="#B77B0F"></path>
                        <path d="M94.575679,15.232358 L92.8552785,18.5187218 C92.3257876,19.5301858 91.9958408,20.6349253 91.8811983,21.7805528 L91.8270545,22.3220617 C91.7408819,23.1847961 91.5321868,24.0255532 91.2070697,24.8218448 L69.707401,70.2237522 L96.2790484,17.1827101 C96.2790484,17.1827101 96.6135708,15.3018674 94.575679,15.232358 Z" id="Stroke-339" stroke="#82351A" stroke-width="0.5"></path>
                        <path d="M47.966653,23.3954743 C53.7406977,21.7135081 72.848637,17.2095341 89.7498001,25.3285332 C90.8885671,25.8752672 92.2590215,25.4188962 92.823807,24.2970791 L95.7974247,18.3938712 C96.4107445,17.1761226 95.8224581,15.7027252 94.5347675,15.2296485 C87.9943924,12.8273096 68.5303648,7.30504361 43.6864419,15.189909 C43.6864419,15.189909 41.1654701,15.9647019 43.0245879,18.6945749 C43.954913,20.0601441 44.7554729,21.3728118 45.3230684,22.344024 C45.8559235,23.2555003 46.9466672,23.6926344 47.966653,23.3954743" id="Fill-341" fill="#BF4E26"></path>
                        <path d="M47.966653,23.3954743 C53.7406977,21.7135081 72.848637,17.2095341 89.7498001,25.3285332 C90.8885671,25.8752672 92.2590215,25.4188962 92.823807,24.2970791 L95.7974247,18.3938712 C96.4107445,17.1761226 95.8224581,15.7027252 94.5347675,15.2296485 C87.9943924,12.8273096 68.5303648,7.30504361 43.6864419,15.189909 C43.6864419,15.189909 41.1654701,15.9647019 43.0245879,18.6945749 C43.954913,20.0601441 44.7554729,21.3728118 45.3230684,22.344024 C45.8559235,23.2555003 46.9466672,23.6926344 47.966653,23.3954743 Z" id="Stroke-343" stroke="#5E210E" stroke-width="0.859208262"></path>
                        <path d="M47.3348468,16.4114091 C46.5602983,17.0578555 47.188962,18.306122 48.1770818,18.0931899 C53.2886916,16.9928284 64.3372247,15.2110842 69.6913777,18.9120221 C75.1293696,22.6711018 75.9536574,10.1894575 61.5282365,11.7544445 C53.401246,12.6362638 49.3356997,14.7413586 47.3348468,16.4114091" id="Fill-345" fill="#F4D3D3"></path>
                        <path d="M62.8362088,12.1056116 C61.3216667,12.6765642 77.5747006,13.2981268 78.5821064,17.2319772 C79.5142302,20.8720859 89.9669873,23.0503526 84.3961172,18.0206293 C81.7498013,15.6312755 85.9320232,15.2251235 86.3109766,18.1640668 C86.4559454,19.2871521 89.5257227,27.7476773 92.1753449,24.1642823 C96.5699334,18.2210349 91.8108883,15.1261923 89.6269465,14.0992406 C88.4954271,13.5671993 84.1501789,12.6445196 79.1947902,12.0374533 C72.9936874,11.2780483 65.8383341,10.9741337 62.8362088,12.1056116" id="Fill-347" fill="#51211C"></path>
                        <path d="M71.2564544,54.4629093 C71.2564544,54.4629093 75.3115306,47.6200511 78.7264781,45.5972904 C82.1414256,43.5742736 86.2799969,30.9715294 82.9214718,32.6907608 C79.5634527,34.4099921 82.1629319,42.1665121 79.0683018,48.5931381 C75.9734186,55.0195079 71.2564544,54.4629093 71.2564544,54.4629093" id="Fill-349" fill="#FF5900"></path>
                        <path d="M59.1235303,23.9333146 C59.157306,22.8656324 60.1524087,22.0828861 61.2171097,22.2183516 C66.9525757,22.9471154 87.0941301,26.2245152 78.9593126,35.5502467 C72.7799013,42.6344313 82.3578608,42.5875786 85.0061799,37.0561548 C87.6547549,31.524731 90.5412948,23.5534 80.4001517,24.6732822 C67.1657206,26.1346292 70.9680416,27.0192293 63.863126,26.7663773 C59.9164908,26.6258191 59.0838695,25.1856067 59.1235303,23.9333146" id="Fill-351" fill="#47B100"></path>
                        <path d="M48.2788296,25.8809831 C48.2788296,25.8809831 56.2521491,24.1763594 66.8095427,27.7515934 C77.3669364,31.3268273 87.0877942,25.8078364 79.8599102,22.7349102 C72.6320262,19.6617283 60.3465426,26.4694811 55.5793891,27.5802358 C50.8122356,28.6907349 48.2788296,25.8809831 48.2788296,25.8809831" id="Fill-353" fill="#FF5900"></path>
                        <path d="M70.063364,31.3853668 C67.0885086,29.5567526 63.1040241,28.6467884 61.2622999,31.6002124 C59.4205758,34.5536363 62.2058041,37.2066341 65.1804021,39.0352482 C68.1552575,40.8638624 70.9538651,40.8252873 72.795332,37.8716079 C74.6370561,34.918184 73.0382193,33.213981 70.063364,31.3853668" id="Fill-355" fill="#FF481D"></path>
                        <path d="M70.063364,31.3853668 C67.0885086,29.5567526 63.1040241,28.6467884 61.2622999,31.6002124 C59.4205758,34.5536363 62.2058041,37.2066341 65.1804021,39.0352482 C68.1552575,40.8638624 70.9538651,40.8252873 72.795332,37.8716079 C74.6370561,34.918184 73.0382193,33.213981 70.063364,31.3853668 Z" id="Stroke-357" stroke="#FF9D8A" stroke-width="0.5"></path>
                        <path d="M70.4804994,34.0981968 C70.4332793,33.8139396 69.2099437,33.5209281 68.9248169,33.5677893 C68.6396902,33.6146506 68.1143345,34.2174097 68.1612965,34.5019244 C68.2080006,34.786439 68.832441,35.1548919 69.1178258,35.1077732 C69.4026945,35.0611695 70.5274615,34.3827114 70.4804994,34.0981968" id="Fill-359" fill="#FFDBD7"></path>
                        <path d="M65.2971888,35.5880608 C65.2480385,35.3032454 65.1281336,34.809909 64.8297214,34.8568198 C64.5313093,34.9037305 63.9814747,35.5073846 64.030625,35.7922 C64.0795052,36.0767577 64.7330413,36.4456001 65.0314534,36.3986894 C65.3298656,36.3517786 65.346339,35.8726185 65.2971888,35.5880608" id="Fill-361" fill="#FFDBD7"></path>
                        <path d="M65.4027164,31.0279939 C65.1144905,30.9728686 64.6035446,30.9095276 64.5490437,31.2010553 C64.4942808,31.4925831 64.8875781,32.2123915 65.1760661,32.2675167 C65.4640299,32.322642 66.0336691,31.8503671 66.0884321,31.5588394 C66.142933,31.2673116 65.6912044,31.0831191 65.4027164,31.0279939" id="Fill-363" fill="#FFDBD7"></path>
                        <path d="M69.888965,37.8024569 C69.9622125,37.515081 70.0579573,37.0034247 69.7743851,36.9291947 C69.490813,36.8549648 68.7562459,37.205171 68.6829985,37.4925469 C68.6097511,37.7799228 69.0377253,38.3859572 69.3212975,38.4599221 C69.6048697,38.534152 69.8159792,38.0898328 69.888965,37.8024569" id="Fill-365" fill="#FFDBD7"></path>
                        <path d="M70.7044578,46.4852066 C69.0628748,43.4207536 66.1105002,40.6593332 63.0944924,42.3276807 C60.0789896,43.9960281 61.1559549,47.6863039 62.7975378,50.7505003 C64.4391208,53.8149533 66.8445536,55.16282 69.8603089,53.4944725 C72.8760642,51.8263817 72.3462932,49.5496596 70.7044578,46.4852066" id="Fill-367" fill="#FF481D"></path>
                        <path d="M70.7044578,46.4852066 C69.0628748,43.4207536 66.1105002,40.6593332 63.0944924,42.3276807 C60.0789896,43.9960281 61.1559549,47.6863039 62.7975378,50.7505003 C64.4391208,53.8149533 66.8445536,55.16282 69.8603089,53.4944725 C72.8760642,51.8263817 72.3462932,49.5496596 70.7044578,46.4852066 Z" id="Stroke-369" stroke="#FF9D8A" stroke-width="0.5"></path>
                        <path d="M69.6994829,49.0485861 C69.8035967,48.7706413 68.8515843,47.8875711 68.5705573,47.7848639 C68.2895303,47.6816272 67.5058664,47.9534837 67.4017526,48.2314285 C67.2973712,48.5093732 67.6707356,49.1555286 67.9517626,49.2582358 C68.2330572,49.3614724 69.5953691,49.3265308 69.6994829,49.0485861" id="Fill-371" fill="#FFDBD7"></path>
                        <path d="M64.4150438,47.6533516 C64.5147538,47.368569 64.6585515,46.8578588 64.3894114,46.7526248 C64.1205275,46.6471196 63.3697547,46.9253929 63.2700447,47.2101756 C63.170591,47.4949582 63.5276502,48.1570101 63.7967904,48.2625152 C64.0661869,48.3680204 64.3153337,47.9381343 64.4150438,47.6533516" id="Fill-373" fill="#FFDBD7"></path>
                        <path d="M66.7514845,43.6986409 C66.5403014,43.523018 66.1501202,43.2395054 65.970627,43.4456084 C65.7908862,43.6519533 65.7809831,44.4025841 65.9921662,44.5779652 C66.2031017,44.7535881 66.8893848,44.639409 67.068878,44.4330641 C67.2486188,44.2267193 66.9626676,43.8742639 66.7514845,43.6986409" id="Fill-375" fill="#FFDBD7"></path>
                        <path d="M67.2814139,51.8120359 C67.4679455,51.6107113 67.7730049,51.235641 67.5807265,51.0400829 C67.3882087,50.8445248 66.6475897,50.7836009 66.4608187,50.9851762 C66.2740477,51.1865007 66.3434882,51.8875012 66.536006,52.0830593 C66.7282844,52.2783667 67.0946429,52.0136111 67.2814139,51.8120359" id="Fill-377" fill="#FFDBD7"></path>
                        <path d="M44.1456855,100.430293 C44.1456855,101.163741 44.2211246,101.979346 43.5144444,101.979346 C42.8077641,101.979346 41.5662651,101.302137 41.5662651,100.568948 C41.5662651,99.8357588 42.6786182,98.8812392 43.3852985,98.8812392 C44.0919788,98.8812392 44.1456855,99.6971034 44.1456855,100.430293" id="Fill-379" fill="#53C40A"></path>
                        <path d="M58.0871657,114.629948 C58.0871657,115.363138 58.1626048,116.179002 57.4559246,116.179002 C56.7489945,116.179002 55.5077453,115.501793 55.5077453,114.768604 C55.5077453,114.035415 56.6200985,113.080895 57.3267787,113.080895 C58.033459,113.080895 58.0871657,113.8965 58.0871657,114.629948" id="Fill-381" fill="#53C40A"></path>
                        <path d="M61.7016041,86.746988 C61.7016041,87.4804363 61.7772999,88.2960413 61.0703067,88.2960413 C60.3635633,88.2960413 59.1222031,87.6188326 59.1222031,86.8856434 C59.1222031,86.1524542 60.2346557,85.1979346 60.9413991,85.1979346 C61.6481425,85.1979346 61.7016041,86.0137987 61.7016041,86.746988" id="Fill-383" fill="#53C40A"></path>
                        <path d="M66.6069398,80.0344234 C66.6069398,80.7676126 66.6826355,81.5834768 65.9756423,81.5834768 C65.2688989,81.5834768 64.0275387,80.9062681 64.0275387,80.1730788 C64.0275387,79.4398896 65.1399913,78.4853701 65.8467347,78.4853701 C66.5534781,78.4853701 66.6069398,79.300975 66.6069398,80.0344234" id="Fill-385" fill="#53C40A"></path>
                        <path d="M59.8943752,103.786575 C59.8943752,104.520023 59.970071,105.335628 59.2630777,105.335628 C58.5563343,105.335628 57.3149742,104.65842 57.3149742,103.92523 C57.3149742,103.192041 58.4274268,102.237522 59.1341701,102.237522 C59.8409135,102.237522 59.8943752,103.053386 59.8943752,103.786575" id="Fill-387" fill="#53C40A"></path>
                        <path d="M70.4795925,61.1876076 C70.4795925,61.9207968 70.5550317,62.7366609 69.8483514,62.7366609 C69.1416712,62.7366609 67.9001721,62.0594522 67.9001721,61.326263 C67.9001721,60.5930738 69.0125253,59.6385542 69.7192056,59.6385542 C70.4261356,59.6385542 70.4795925,60.4544184 70.4795925,61.1876076" id="Fill-389" fill="#53C40A"></path>
                        <path d="M60.6689005,40.2753873 C60.6689005,41.0088356 60.7445962,41.8244406 60.0378532,41.8244406 C59.3308604,41.8244406 58.0895009,41.1472319 58.0895009,40.4140427 C58.0895009,39.6808535 59.2019528,38.7263339 59.9086959,38.7263339 C60.6154389,38.7263339 60.6689005,39.542198 60.6689005,40.2753873" id="Fill-391" fill="#53C40A"></path>
                    </g>
                </g>
            </g>
        </g>
    </g>
</svg>