<?xml version="1.0" encoding="iso-8859-1"?>
<!-- Generator: Adobe Illustrator 23.0.0, SVG Export Plug-In . SVG Version: 6.00 Build 0)  -->
<svg version="1.1" id="&#x56FE;&#x5C42;_1" xmlns="http://www.w3.org/2000/svg" xmlns:xlink="http://www.w3.org/1999/xlink" x="0px"
     y="0px" viewBox="0 0 500 500" style="enable-background:new 0 0 500 500;" xml:space="preserve">
<g>
	<radialGradient id="SVGID_1_" cx="250" cy="250" r="197" gradientUnits="userSpaceOnUse">
		<stop  offset="0" style="stop-color:#0061C1;stop-opacity:0"/>
        <stop  offset="0.8767" style="stop-color:#DB2577;stop-opacity:0"/>
        <stop  offset="1" style="stop-color:#DB2577;stop-opacity:0.4"/>
	</radialGradient>
    <circle style="fill:url(#SVGID_1_);" cx="250" cy="250" r="197"/>
    <circle style="fill:#DB2577;" cx="250" cy="250" r="159.229"/>
    <path style="opacity:0.5;fill:#8F104D;" d="M96.479,292.391C115.037,359.753,176.74,409.229,250,409.229
		c55.629,0,104.594-28.527,133.067-71.75c-17.325-10.435-37.821-13.92-54.359-11.1c-23.072,3.936-50.572,32.422-71.156,31.234
		s-54.544-52.911-94.965-72.263C128.27,268.922,118.911,284.872,96.479,292.391z"/>
    <path style="opacity:0.5;fill:#8F104D;" d="M171.496,196.677c-26.286-4.779-42.501-22.622-51.879-38.097
		c-17.074,24.306-27.526,53.601-28.729,85.266c41.182,17.14,157.055,44.23,163.926-1.252
		C262.59,191.122,220.376,205.564,171.496,196.677z"/>
    <path style="opacity:0.5;fill:#8F104D;" d="M250,90.771c-27.394,0-53.171,6.919-75.682,19.102
		c2.257,19.452,9.497,46.996,32.357,48.663c35.549,2.592,115.904-15.553,118.867,21.477c2.703,33.79,47.34,83.304,82.704,87.771
		c0.649-5.839,0.984-11.772,0.984-17.784C409.229,162.06,337.94,90.771,250,90.771z"/>
    <radialGradient id="SVGID_2_" cx="250" cy="250" r="159.2293" gradientUnits="userSpaceOnUse">
		<stop  offset="0" style="stop-color:#0061C1;stop-opacity:0"/>
        <stop  offset="0.8022" style="stop-color:#F39467;stop-opacity:0"/>
        <stop  offset="1" style="stop-color:#F89A5E;stop-opacity:0.8"/>
	</radialGradient>
    <circle style="fill:url(#SVGID_2_);" cx="250" cy="250" r="159.229"/>
    <path style="fill:#F2619C;" d="M470.842,220.172c-12.484-7.565-30.138-14.302-52.471-20.026
		c-5.947-1.524-12.154-2.957-18.589-4.298c1.911,5.285,3.553,10.699,4.903,16.227c3.413,0.779,6.752,1.585,10.008,2.419
		c20.63,5.287,37.391,11.631,48.473,18.346c9.634,5.838,14.94,11.932,14.94,17.161s-5.306,11.323-14.94,17.161
		c-11.081,6.715-27.843,13.058-48.473,18.346C370.794,296.757,312.305,302.953,250,302.953s-120.794-6.196-164.693-17.447
		c-20.63-5.287-37.391-11.631-48.473-18.346c-9.634-5.838-14.94-11.932-14.94-17.161s5.306-11.323,14.94-17.161
		c11.081-6.715,27.843-13.058,48.473-18.346c3.257-0.835,6.595-1.641,10.008-2.419c1.351-5.528,2.992-10.942,4.903-16.227
		c-6.435,1.341-12.641,2.774-18.589,4.298c-22.334,5.724-39.987,12.461-52.471,20.026C14.51,229.047,7.083,239.083,7.083,250
		c0,10.917,7.427,20.953,22.076,29.828c12.484,7.565,30.138,14.302,52.471,20.026c45.065,11.55,104.861,17.911,168.37,17.911
		s123.305-6.361,168.37-17.911c22.334-5.724,39.987-12.461,52.471-20.026c14.648-8.876,22.076-18.912,22.076-29.828
		C492.917,239.083,485.49,229.047,470.842,220.172z"/>
</g>
</svg>
