<?xml version="1.0" encoding="UTF-8"?>
<svg width="201px" height="201px" viewBox="0 0 201 201" version="1.1" xmlns="http://www.w3.org/2000/svg" xmlns:xlink="http://www.w3.org/1999/xlink">
    <title>小丸子</title>
    <g id="页面-1" stroke="none" stroke-width="1" fill="none" fill-rule="evenodd">
        <g id="美食插画库" transform="translate(-82.000000, -363.000000)">
            <g id="编组-7" transform="translate(82.577278, 100.000000)">
                <g id="小丸子" transform="translate(0.000000, 263.500000)">
                    <g transform="translate(35.000000, 32.000000)">
                        <path d="M129.634044,70.5885585 C129.634044,106.369306 100.613868,135.375374 64.816438,135.375374 C29.0190078,135.375374 2.69695053e-14,106.369306 2.69695053e-14,70.5885585 C2.69695053e-14,34.8078107 29.0190078,5.8017426 64.816438,5.8017426 C100.613868,5.8017426 129.634044,34.8078107 129.634044,70.5885585" id="Fill-87" fill="#6B2605"></path>
                        <path d="M129.634044,70.5885585 C129.634044,106.369306 100.613868,135.375374 64.816438,135.375374 C29.0190078,135.375374 2.69695053e-14,106.369306 2.69695053e-14,70.5885585 C2.69695053e-14,34.8078107 29.0190078,5.8017426 64.816438,5.8017426 C100.613868,5.8017426 129.634044,34.8078107 129.634044,70.5885585 Z" id="Stroke-89" stroke="#151C23" stroke-width="1.89781022"></path>
                        <path d="M16.9972813,29.3595179 C16.9972813,29.3595179 15.2449963,65.5565314 41.3102357,74.9946107 C47.7387852,77.3223122 46.8749087,87.3728217 44.3019702,93.7049638 C43.7710279,95.0109754 43.4474393,96.4139015 43.4474393,97.8927247 C43.4474393,106.100689 52.2462463,107.273589 58.1123124,105.514531 C63.9777944,103.756057 76.8822052,94.9613504 79.8155303,97.3065666 C82.7482713,99.6517828 79.2285148,106.687431 83.9211341,109.032647 C87.4426428,110.792289 98.5626434,105.288592 106.123753,98.7147472 C108.464222,96.6807086 112.047061,96.8494334 114.024222,99.2378524 C115.423714,100.928603 116.961636,100.508835 120.966191,100.002076 C120.966191,100.002076 107.618452,127.959599 77.7431612,132.696153 C47.8678702,137.432707 18.2700243,123.372503 7.06766631,96.4991397 C-4.61423368,68.4756454 4.14719132,44.5389107 16.9972813,29.3595179" id="Fill-91" fill="#FFA766"></path>
                        <path d="M76.5595511,71.6045853 C79.3877391,77.2507356 78.3924412,83.4731189 74.3364856,85.502487 C70.281114,87.531855 64.7006704,84.5998969 61.8724824,78.9537467 C59.0448785,73.3075964 60.0401764,67.085213 64.0955479,65.055845 C68.1509195,63.0264769 73.7313632,65.958435 76.5595511,71.6045853" id="Fill-93" fill="#51AD15"></path>
                        <path d="M128.149994,73.6764556 C128.149994,73.6764556 128.285953,51.0714207 119.910615,40.2339181 C105.628324,21.7535913 86.0582208,6.08437122 60.5776606,13.3080107 C20.1530298,24.7678684 31.2368165,34.8072852 47.2112306,34.6753413 C63.1850607,34.5433973 76.3885281,10.4490305 95.2968514,26.090227 C114.205175,41.7308398 66.4454789,27.6081663 91.2216206,46.833451 C115.998346,66.0587358 127.097904,67.1709182 128.149994,73.6764556" id="Fill-95" fill="#AA6557"></path>
                        <path d="M123.116011,46.2929479 C118.714855,37.0685477 107.535861,30.2991223 97.3165351,30.6167219 C94.3820419,30.7083821 93.2372157,31.4183106 96.4923771,33.3583538 C113.444566,43.4596559 111.677095,76.4736674 106.468136,72.6093443 C88.898558,59.5749165 73.9130167,91.178996 74.9760696,73.338539 C76.0946115,54.5715552 46.9155617,27.9766753 51.0042267,53.6648784 C55.0928917,79.3530815 55.2266495,86.256786 46.9155617,92.197183 C38.653538,98.1037183 46.0020371,110.079675 60.006883,104.824102 C71.9469529,100.343846 81.108483,90.4801602 81.2708614,104.328437 C81.3520506,111.196528 87.5271029,110.45916 96.6874648,105.341953 C102.83156,101.909075 106.920225,97.3097192 110.020601,97.3097192 C114.150737,97.3097192 112.49366,102.095315 120.965958,100.00231 C122.398159,99.6485134 129.405546,82.1799514 128.006055,67.9078193 C127.186569,59.5474769 126.485071,53.353117 123.116011,46.2929479" id="Fill-97" fill="#441407"></path>
                        <path d="M49.3563779,8.74187421 C49.6998258,10.2551429 50.7114783,11.5156163 52.0046646,12.3738358 C54.3749221,13.9472383 61.0038163,20.4597816 68.0427451,46.2571596 C76.8421363,78.504028 88.5736844,81.4354022 96.785476,80.2625022 C104.997852,79.0901861 112.622628,66.7779471 110.863334,46.2571596 C109.317818,28.2333821 96.2177356,-2.77928488 83.1164848,1.46160392 C80.3023151,2.37295131 79.5552576,6.02067615 81.7602162,7.99166192 C84.7922533,10.7023512 88.8546341,16.0519195 91.5058413,26.3225301 C96.1984605,44.4981015 95.6120291,67.9502632 87.4002375,60.9146147 C79.1878618,53.8789662 79.1878618,15.7693492 67.4563138,4.62942642 C57.4133843,-4.90731898 47.8786176,2.22232503 49.3563779,8.74187421" id="Fill-99" fill="#FFECBB"></path>
                        <path d="M93.5581759,126.56146 C93.5581759,126.56146 49.3299184,127.430772 40.8541159,111.789576 C32.3777292,96.1483789 34.0079384,72.1374987 21.2933584,69.9680132 C8.57936258,67.7991115 0.759498728,85.8474095 12.3310048,106.312734 C23.9013426,126.778642 64.8166132,143.723515 93.5581759,126.56146" id="Fill-101" fill="#F99048"></path>
                        <path d="M118.698793,103.993031 C118.698793,103.993031 80.1917459,122.433658 77.8010451,112.658129 C75.4109283,102.8826 46.9398017,118.958161 41.0713992,97.8862443 C35.2035808,76.814328 -0.286615416,90.7472591 18.6672673,114.191247 C36.6159226,136.391693 59.8629035,124.197386 66.7715792,124.986715 C78.181875,126.289807 72.801776,136.712796 90.4063992,129.030271 C108.011023,121.347747 118.698793,103.993031 118.698793,103.993031" id="Fill-103" fill="#F2680A"></path>
                        <path d="M40.4397589,66.5454104 C40.428077,66.5675957 40.4000404,66.7228926 40.385438,66.8250616 C40.3690834,66.9412423 40.3562333,67.0620936 40.3468878,67.1841126 C40.3281967,67.4287343 40.3281967,67.6791943 40.3398786,67.9284867 C40.3632424,68.428239 40.4479362,68.9268236 40.5951281,69.4055583 C40.8836711,70.3665307 41.4309681,71.2504384 42.1862029,71.9907257 C42.9396855,72.7350998 43.8987695,73.3200902 44.934954,73.781894 C45.4583031,74.0043305 45.9991751,74.2045817 46.5564017,74.3692198 L47.4395534,74.6190959 C47.7777444,74.7195134 48.1130149,74.8502897 48.4301785,75.0283557 C49.0656738,75.3821523 49.6059617,75.9251075 49.95233,76.5422082 C50.3051234,77.1593089 50.4780155,77.8254507 50.5679662,78.4729102 C50.7315128,79.7754189 50.5761435,81.0318055 50.3325759,82.2444055 C49.8156518,84.6672701 48.9278274,86.9564393 47.8630222,89.1428557 C48.7169691,86.8706173 49.3769965,84.5125571 49.6515211,82.1375659 C49.7771015,80.9553247 49.798129,79.7532336 49.5498886,78.6544791 C49.3098255,77.5516378 48.7105441,76.6321169 47.8028604,76.256135 C47.578568,76.1568852 47.3355844,76.0891617 47.0855918,76.0395368 L46.1913423,75.8854076 C45.5657766,75.7703945 44.9431313,75.6145138 44.3234065,75.4247714 C43.0915502,75.0271881 41.8649507,74.4637991 40.7820385,73.6079148 C39.6997105,72.760788 38.7826814,71.61416 38.2248706,70.2941366 C37.9415846,69.637336 37.7435764,68.9443383 37.630846,68.2373289 C37.575357,67.8835323 37.5362226,67.5268166 37.5239566,67.1636788 C37.5175316,66.9821099 37.5157793,66.7993734 37.5216203,66.6125501 C37.5303817,66.4122989 37.5327181,66.2651755 37.5736047,65.9878597 L37.6255892,65.6270572 C37.7441605,64.8062023 38.5058203,64.2369751 39.327642,64.356075 C40.1488796,64.474591 40.7183722,65.2364797 40.5992168,66.0573346 C40.5741007,66.23073 40.5174435,66.3982871 40.4397589,66.5454104" id="Fill-105" fill="#FFAF97"></path>
                        <path d="M33.473433,53.0955344 C33.473433,55.0005482 31.7088821,57.8560255 29.4665414,57.8560255 C27.2236166,57.8560255 25.8270454,54.5072179 25.8270454,52.6022041 C25.8270454,50.6966065 28.8409756,48.9644042 31.0839004,48.9644042 C33.3262411,48.9644042 33.473433,51.1899368 33.473433,53.0955344" id="Fill-107" fill="#51AD15"></path>
                        <path d="M72.4286561,84.400755 C72.4286561,86.1814145 70.7061599,89.0713374 68.9240861,89.0713374 C67.1420122,89.0713374 66.0035799,87.3490601 66.0035799,85.5684006 C66.0035799,83.787741 65.9738222,81.481641 67.7558961,81.481641 C69.5379699,81.481641 72.4286561,82.6200955 72.4286561,84.400755" id="Fill-109" fill="#FFC3B3"></path>
                        <path d="M122.302601,76.3589462 C121.764649,77.9627075 119.856995,79.048034 117.896188,78.3912334 C115.935965,77.7350166 114.524207,74.6127323 115.061575,73.0095548 C115.598942,71.4063774 117.9692,71.9761885 119.930007,72.6329891 C121.890814,73.289206 122.839968,74.7557688 122.302601,76.3589462" id="Fill-111" fill="#51AD15"></path>
                        <path d="M30.0846307,24.7870178 C27.2511858,26.9786886 24.6607245,29.4762825 22.3588061,32.1776306 C21.1970412,33.5186715 20.1082881,34.9151757 19.099556,36.3595533 C18.0797262,37.7940059 17.1276513,39.2716614 16.2918114,40.8059477 C15.4530509,42.3384825 14.7346141,43.9305673 14.1429259,45.55593 C13.5512376,47.1795412 12.9192468,48.7722098 12.354427,50.3975725 C11.1360048,53.6331184 10.2808897,56.9795907 9.25872347,60.5496671 L8.90826647,60.5479156 C8.45150419,58.7363135 8.23363675,56.8593232 8.28270073,54.9858358 C8.27043474,54.0435458 8.38608555,53.1140999 8.47837256,52.174729 C8.62147583,51.2482023 8.76049044,50.3105829 8.99529663,49.3992355 C9.41234046,47.5572745 10.1237682,45.7970488 10.9818037,44.1267318 C11.8526894,42.4593339 12.8777761,40.8900182 13.9016946,39.3411363 C14.93087,37.7934221 16.068103,36.3286107 17.2643295,34.9245168 C18.4763267,33.5320995 19.757247,32.2097408 21.0989132,30.96036 C22.4516772,29.7214881 23.8634348,28.5567616 25.3254246,27.4667644 C26.7844939,26.3726805 28.2973,25.3620832 29.9012249,24.4886843 L30.0846307,24.7870178 Z" id="Fill-113" fill="#FFF3EB"></path>
                        <path d="M85.261048,1.29638207 C83.7260463,1.39913488 82.9970958,3.24167963 84.0671578,4.34627237 C88.0816427,8.49199805 98.8015383,19.542596 100.105238,27.5561477 C101.844673,38.2412725 97.3617441,52.8444322 101.707995,50.2032178 C106.055414,47.5614197 97.6298437,44.1454725 96.8687679,37.6504439 C96.1082762,31.1554152 95.8407607,12.7539045 98.4481608,14.4680082 C101.055561,16.1821119 110.184382,59.1911698 97.9049524,64.6218895 C85.6255233,70.053193 97.0136235,85.1975563 105.572367,74.0249395 C108.314109,70.4455219 113.227517,55.4979068 110.090342,40.6495416 C106.634836,24.2960812 96.5153904,0.543250661 85.261048,1.29638207" id="Fill-115" fill="#FFB229"></path>
                        <path d="M50.5667396,3.74429268 C52.1426279,1.30916779 55.5490699,0.892318312 57.8404746,2.6718102 C61.6627923,5.63938148 67.514256,11.8156429 68.2385338,22.1732431 C69.3249505,37.7122707 70.9960463,49.259118 78.3141725,54.0044297 C85.6328829,58.7503252 75.0847113,63.9977245 73.0193513,58.7836031 C70.9551596,53.5700655 70.1946679,38.7316253 71.0638013,30.7274147 C71.9329346,22.7226204 66.9342496,22.2882562 60.5232229,17.0747186 C55.3136796,12.8385004 47.5656595,8.38159716 50.5667396,3.74429268" id="Fill-117" fill="#FFCC83"></path>
                        <path d="M28.7322171,66.9464967 C28.7322171,70.6701185 24.8760219,73.9290174 21.7464409,73.9290174 C18.617444,73.9290174 15.2980321,74.4299373 15.2980321,70.7063155 C15.2980321,66.9826937 18.0800766,64.2609118 21.2090735,64.2609118 C24.3386545,64.2609118 28.7322171,63.2228749 28.7322171,66.9464967" id="Fill-119" fill="#FFD0B0"></path>
                        <line x1="22.2837499" y1="66.9464967" x2="19.5969129" y2="69.0949646" id="Stroke-121" stroke="#EFA470" stroke-width="1.96764964" stroke-linecap="round"></line>
                        <line x1="24.9709374" y1="68.0206723" x2="21.2093656" y2="71.2433741" id="Stroke-123" stroke="#EFA470" stroke-width="1.96764964" stroke-linecap="round"></line>
                        <path d="M23.0897426,56.3887036 C23.0897426,58.9989753 20.387135,61.2828901 18.1932742,61.2828901 C15.9999975,61.2828901 13.6735471,61.6343515 13.6735471,59.0240797 C13.6735471,56.413808 15.6232562,54.5064589 17.817117,54.5064589 C20.0103938,54.5064589 23.0897426,53.7784319 23.0897426,56.3887036" id="Fill-125" fill="#F7B98F"></path>
                        <path d="M33.7215566,34.3984341 C33.1836051,36.0021953 31.2759508,37.0875219 29.3151439,36.4307213 C27.3549211,35.7745045 25.9431635,32.6522201 26.4805309,31.0490427 C27.0178983,29.4452815 29.3881558,30.0156764 31.3489627,30.672477 C33.3097696,31.3286938 34.258924,32.7952567 33.7215566,34.3984341" id="Fill-139" fill="#51AD15"></path>
                        <path d="M89.0565557,51.8418333 C89.0565557,57.5107527 84.9976795,59.6627235 79.3261171,59.6627235 C73.6545547,59.6627235 68.5180232,57.5107527 68.5180232,51.8418333 C68.5180232,46.1729139 73.6545547,38.2568606 79.3261171,38.2568606 C84.9976795,38.2568606 89.0565557,46.1729139 89.0565557,51.8418333" id="Fill-193" fill="#FFAD97"></path>
                    </g>
                    <rect id="矩形" opacity="0.5" x="0" y="0" width="200" height="200"></rect>
                </g>
            </g>
        </g>
    </g>
</svg>