<?xml version="1.0" encoding="utf-8"?>
<!-- Generator: Adobe Illustrator 22.0.0, SVG Export Plug-In . SVG Version: 6.00 Build 0)  -->
<svg version="1.1" id="断桥残雪" xmlns="http://www.w3.org/2000/svg" xmlns:xlink="http://www.w3.org/1999/xlink" x="0px"
     y="0px" viewBox="0 0 1024 1024" style="enable-background:new 0 0 1024 1024;" xml:space="preserve">
<style type="text/css">
	.st0{fill:#EEEBE6;}
	.st1{fill:none;}
	.st2{clip-path:url(#SVGID_2_);}
	.st3{opacity:0.5;}
	.st4{fill:#253A59;}
	.st5{fill:url(#SVGID_3_);}
	.st6{opacity:0.2;fill:#253A59;}
	.st7{fill:#FFCDD6;}
	.st8{fill:#99000F;}
</style>
    <path class="st0" d="M2.5-2.1v1024h1024V-2.1H2.5z M513,976.9c-258.7,0-468.4-209.7-468.4-468.4S254.3,40.1,513,40.1
	s468.4,209.7,468.4,468.4S771.7,976.9,513,976.9z"/>
    <circle class="st1" cx="512" cy="512" r="468.4"/>
    <g>
	<defs>
		<circle id="SVGID_1_" cx="512.3" cy="510" r="468.4"/>
	</defs>
        <clipPath id="SVGID_2_">
		<use xlink:href="#SVGID_1_"  style="overflow:visible;"/>
	</clipPath>
        <g class="st2">
		<g>
			<g>
				<g class="st3">

						<rect x="726.8" y="709.5" transform="matrix(-1 4.350777e-03 -4.350777e-03 -1 1458.1632 1423.5521)" class="st4" width="1.5" height="7.8"/>

                    <rect x="706.6" y="707.3" transform="matrix(-1 4.350777e-03 -4.350777e-03 -1 1417.8093 1419.2565)" class="st4" width="1.5" height="7.8"/>

                    <rect x="686.4" y="705.6" transform="matrix(-1 4.350777e-03 -4.350777e-03 -1 1377.4614 1415.8726)" class="st4" width="1.5" height="7.8"/>

                    <rect x="666.3" y="703.8" transform="matrix(-1 4.350777e-03 -4.350777e-03 -1 1337.1135 1412.4886)" class="st4" width="1.5" height="7.8"/>

                    <rect x="646.1" y="702.1" transform="matrix(-1 4.350777e-03 -4.350777e-03 -1 1296.7657 1409.1047)" class="st4" width="1.5" height="7.8"/>

                    <rect x="625.9" y="700.3" transform="matrix(-1 4.350777e-03 -4.350777e-03 -1 1256.4178 1405.7208)" class="st4" width="1.5" height="7.8"/>

                    <rect x="605.8" y="699.1" transform="matrix(-1 4.350777e-03 -4.350777e-03 -1 1216.0759 1403.2487)" class="st4" width="1.5" height="7.8"/>

                    <rect x="585.6" y="697.8" transform="matrix(-1 4.350777e-03 -4.350777e-03 -1 1175.734 1400.7766)" class="st4" width="1.5" height="7.8"/>

                    <rect x="565.4" y="697.4" transform="matrix(-1 4.350777e-03 -4.350777e-03 -1 1135.4039 1400.1279)" class="st4" width="1.5" height="7.8"/>

                    <rect x="545.3" y="696.6" transform="matrix(-1 4.350777e-03 -4.350777e-03 -1 1095.068 1398.5676)" class="st4" width="1.5" height="7.8"/>

                    <rect x="525.1" y="696.2" transform="matrix(-1 4.350777e-03 -4.350777e-03 -1 1054.7379 1397.9189)" class="st4" width="1.5" height="7.8"/>

                    <rect x="504.9" y="696.3" transform="matrix(-1 4.350777e-03 -4.350777e-03 -1 1014.4139 1398.1821)" class="st4" width="1.5" height="7.8"/>

                    <rect x="484.8" y="696.4" transform="matrix(-1 4.350777e-03 -4.350777e-03 -1 974.0898 1398.4453)" class="st4" width="1.5" height="7.8"/>

                    <rect x="464.6" y="696.9" transform="matrix(-1 4.350777e-03 -4.350777e-03 -1 933.7717 1399.6202)" class="st4" width="1.5" height="7.8"/>

                    <rect x="444.5" y="697.9" transform="matrix(-1 4.350777e-03 -4.350777e-03 -1 893.4595 1401.7069)" class="st4" width="1.5" height="7.8"/>

                    <rect x="424.3" y="698.5" transform="matrix(-1 4.350777e-03 -4.350777e-03 -1 853.1414 1402.8818)" class="st4" width="1.5" height="7.8"/>

                    <rect x="404.1" y="699.9" transform="matrix(-1 4.350777e-03 -4.350777e-03 -1 812.8351 1405.8804)" class="st4" width="1.5" height="7.8"/>

                    <rect x="384" y="701.4" transform="matrix(-1 4.350777e-03 -4.350777e-03 -1 772.5289 1408.8788)" class="st4" width="1.5" height="7.8"/>

                    <rect x="363.8" y="703.3" transform="matrix(-1 4.350777e-03 -4.350777e-03 -1 732.2286 1412.7891)" class="st4" width="1.5" height="7.8"/>

                    <rect x="343.7" y="705.2" transform="matrix(-1 4.350777e-03 -4.350777e-03 -1 691.9283 1416.6993)" class="st4" width="1.5" height="7.8"/>

                    <rect x="323.5" y="707.1" transform="matrix(-1 4.350777e-03 -4.350777e-03 -1 651.6281 1420.6095)" class="st4" width="1.5" height="7.8"/>

                    <rect x="303.4" y="709.5" transform="matrix(-1 4.350777e-03 -4.350777e-03 -1 611.3337 1425.4315)" class="st4" width="1.5" height="7.8"/>
				</g>
                <g>

						<linearGradient id="SVGID_3_" gradientUnits="userSpaceOnUse" x1="1098.3022" y1="702.5673" x2="1098.3022" y2="760.2749" gradientTransform="matrix(-1 4.350777e-03 4.350777e-03 1 1406.6429 -4.7734)">
						<stop  offset="0" style="stop-color:#FFCDD6"/>
                            <stop  offset="0.3975" style="stop-color:#6D8DAF"/>
                            <stop  offset="1" style="stop-color:#253A59"/>
					</linearGradient>
                    <path class="st5" d="M555.5,750.8c-0.1-15.7-12.8-28.3-28.5-28.3c-15.7,0.1-28.3,12.8-28.3,28.5c0,0.1,0,0.1,0,0.2l-1091.5-7.8
						c0,0,568.6-9.9,760.6-18.2c192-8.3,274.7-42.9,587.8-8.7c383.2,41.9,411.7,23.7,411.7,23.7l48.5,16.1l-660.4-4.7
						C555.5,751.3,555.5,751.1,555.5,750.8z"/>
                    <path class="st6" d="M555.6,752.3c-0.2,12.5-13.1,22.4-28.7,22.2c-15.7-0.3-28.2-10.6-28-23.1c0,0,0-0.1,0-0.1l-1091.5-7.8
						c0,0,568.4,15.2,760.3,24.3s274.3,37.7,587.7,14.5c383.5-28.5,458.7-9.2,458.7-9.2l1.8-16.6l-660.4-4.7
						C555.6,751.9,555.6,752.1,555.6,752.3z"/>
				</g>
			</g>
            <g>
				<path class="st7" d="M82.9,728.1c0,0,5.2-5.6,10.3-3.3c5,2.3,13.5,2.8,21.5,1.5c7.9-1.3,13.7-0.1,13.7-0.1s14.6-2.1,34.2-2.7
					c6.7-0.2,2.9-1.7,8.5-1.8c2.5-0.1,5.8,0.8,8.4,0.6c22.6-1.6-2.4-5.3,64.1-4c4.9,0.1,9-0.3,12.1-0.3c3.2,0,1.4-2.6,5.7,0.5
					c0,0,3.7,2-6.2,1.8c-2.4-0.1-22,4.7-40.6,2.3c-1.7-0.2-4.8,1-6.9,1.2c-2.3,0.1-4-0.5-6.1-0.4c-10.1,0.6-18.4,1.1-21.4,1.2
					c-9.4,0.3-93.1,9.5-97.3,5.1C81.4,728.2,82.9,728.1,82.9,728.1z"/>
                <path class="st7" d="M279.1,716.1c0.3,0,3.1-0.3,4.3-0.9c1-0.6,5.9-3.8,10.1-2c5.1,2.1,9.5,0.7,17.6,0.2c0.6,0,4.2-0.6,6.1-1
					c0.3-0.1,0.7-0.1,1,0.1c0.2,0.2,1.4,0.2,5.5-0.5c6.7-1.1,2.8-1.8,8.4-2.1c2.5-0.2,5.8,0.6,8.4,0.3c22.5-2.4,15.1-6.9,81.6-7.8
					c4.9-0.1,9-0.6,12.1-0.7c1.9-0.1,6.6-0.6,10.9-0.5c1.8,0.1,23.5,1.7,0,2.8c-0.4,0-0.8,0-1.3,0c-2.4,0-23.8,5.8-42.4,4.1
					c-1.7-0.2-4.8,1.2-6.8,1.4c-2.3,0.2-4-0.4-6.1-0.2c-10.1,1-18.5-0.2-21.5,0c-9.4,0.6-93.5,10.8-97,9
					C268.8,717.8,276.5,716.6,279.1,716.1z"/>
                <path class="st7" d="M920.2,732.3c0,0-5-5.8-10.1-3.7c-5.1,2.1-13.6,2.3-21.5,0.6c-7.8-1.6-13.7-0.6-13.7-0.6s-14.5-2.6-34.1-4
					c-6.7-0.5-2.8-1.8-8.4-2.2c-2.5-0.2-5.8,0.6-8.4,0.3c-22.5-2.5,2.6-5.2-63.9-6.4c-4.9-0.1-9-0.6-12.1-0.7
					c-3.2-0.1-5.5-9.2-17.5-1.1c0,0,0.8,2.2,18,3.4c2.4,0.2,21.8,5.5,40.4,3.9c1.7-0.2,4.8,1.2,6.8,1.4c2.3,0.2,4-0.3,6.1-0.1
					c10.1,1,18.4,1.8,21.4,2c9.4,0.6,92.7,13.1,97.1,8.8C921.6,732.4,920.2,732.3,920.2,732.3z"/>
                <path class="st7" d="M734.3,713.7c-0.3,0-3.1-0.3-4.3-0.9c-1-0.6-5.9-3.7-10.1-1.9c-5.1,2.2-9.5,0.8-17.6,0.4
					c-0.6,0-4.2-0.6-6.1-0.9c-0.3-0.1-0.7-0.1-1,0.1c-0.2,0.2-1.4,0.2-5.5-0.4c-6.7-1-2.8-1.8-8.4-2.1c-2.5-0.1-5.8,0.6-8.4,0.4
					c-22.6-2.2-15.1-6.7-81.7-7.1c-4.9,0-9-0.5-12.1-0.6c-1.9,0-6.6-0.6-10.9-0.4c-1.8,0.1-23.5,1.9,0.1,2.8c0.4,0,0.8,0,1.3,0
					c2.4,0,23.8,5.6,42.4,3.8c1.7-0.2,4.8,1.2,6.9,1.3c2.3,0.2,4-0.4,6.1-0.2c10.1,0.9,18.5-0.4,21.5-0.2c9.4,0.5,93.6,10,97,8.2
					C744.6,715.3,736.9,714.2,734.3,713.7z"/>
			</g>
		</g>
            <g>
			<g>
				<path class="st4" d="M872,769.6l-18.7-58.2c0,0-0.7-1.7-2.1-0.9c-1.4,0.9-112.3,81.6-112.3,81.6l13.8,0.8l95.4-77.1l15.4,54
					L872,769.6z"/>
                <path class="st6" d="M872,769.9l-18.8,46.5c0,0-0.7,0.9-2.1,0.4c-1.4-0.4-112.2-24.6-112.2-24.6l13.8,0.8l97.9,20.2l12.9-43.3
					L872,769.9z"/>
                <path class="st7" d="M851.7,710.6c0,0-2.3-9.9-10.7-4.7c-8.3,5.3-0.9,0.6-2.4,1.6c-1.6,1-8,4.4-6.6,9.9s-0.5-0.5-4.2,1.4
					c-3.7,1.9-8.8,10-8.3,12.6c0.5,2.6-2.1-1.7-4,0c-1.9,1.8-7.5,2.8-10.1,7.5c-2.6,4.7-5.4,7.7-8.3,10.7c0,0,6.1-3.2,9.7-6
					C810.6,740.9,851.7,710.6,851.7,710.6z"/>
                <path class="st4" d="M630,753.7c12.1-28.9,34.1-47.2,37.5-57c1.1-3.1,2.4-5,3.6-6.1c2.1-2,6-1.2,6.5,1.6
					c13.8,75.2,8.1,92.8,6.5,97c-0.1,0.4-0.2,0.7-0.2,1.1c-0.3,4.5,6,20,5.7,28.7c-0.3,8.3-2.4,14.9-2.9,19.1
					c-0.1,0.6,0,1.2,0.2,1.7l0.1,0.3c0.4,1.3,1.5,2.2,2.8,2.6c14.7,4,24.9,32.2,28.5,43.8c0.8,2.5-1,5.1-3.7,5.2
					c-27.5,1.3-56.5,0.6-67.5,0.2c-2.5-0.1-4.3-2.4-3.8-4.9c3.9-18.2,17.5-37.1,33.9-43c0.1,0,0.3-0.1,0.4-0.2l1.4-0.7
					c1.2-0.6,2-1.7,2.2-3l4.9-20.3c0-0.1,0-0.1,0-0.2c0.2-2.2-4.5-27.2-5.8-52.9c-1.8-38-1.6-49.3-5.7-60.6c-1-2.8-4.7-3.6-6.7-1.4
					l-29.2,46c-0.4,0.5-0.7,1-0.9,1.6c-2.2,7.4-23.9,46.5-27.7,60.7c-3.6,13.5-35.8,65.9-38.3,81.3c-0.3,1.9-2,3.4-4,3.4l-3.5,0
					c-2.6,0-4.5-2.3-3.9-4.9C564.3,875.9,595.9,835.4,630,753.7z"/>
                <path class="st6" d="M630.8,938c12.3,10.2,34.4,16.5,37.9,20c1.1,1.1,2.4,1.7,3.7,2.1c2.1,0.7,6,0.4,6.5-0.6
					c13.4-26.7,7.6-32.9,6-34.4c-0.1-0.1-0.2-0.3-0.2-0.4c-0.3-1.6,5.8-7.1,5.5-10.2c-0.3-2.9-2.5-5.3-3.1-6.7
					c-0.1-0.2,0-0.4,0.2-0.6l0.1-0.1c0.4-0.5,1.5-0.8,2.8-0.9c14.7-1.5,24.7-11.5,28.2-15.7c0.8-0.9-1.1-1.8-3.7-1.8
					c-27.5-0.3-56.5,0.1-67.5,0.3c-2.5,0-4.3,0.9-3.8,1.8c4,6.4,17.7,13,34.2,15c0.1,0,0.3,0,0.4,0.1l1.4,0.2c1.2,0.2,2,0.6,2.2,1
					l5,7.2c0,0,0,0,0,0.1c0.2,0.8-4.4,9.7-5.4,18.8c-1.6,13.5-1.3,17.5-5.3,21.5c-1,1-4.6,1.3-6.7,0.5L639.8,939
					c-0.4-0.2-0.7-0.4-0.9-0.6c-2.2-2.6-24.2-16.3-28.1-21.3c-3.7-4.8-36.2-23.1-38.8-28.6c-0.3-0.7-2-1.2-4-1.2l-3.5,0
					c-2.6,0-4.5,0.9-3.9,1.7C564.4,895.1,596.2,909.3,630.8,938z"/>
                <path class="st7" d="M659.7,699.3c0,0,12.3-12.2,9.5-6.1c-2.8,6.1-36.3,61.9-36.3,61.9L596,832.9l-25.8,39
					c0,0,18.5-42.3,20.3-49.2c1.8-7,9.8-27.9,17.7-33.5c7.9-5.6,20.5-36.4,24.2-46.2C636,733.2,656.4,699.7,659.7,699.3z"/>
                <path class="st7" d="M718.5,880.3c0,0,10.8-0.1,4.1-13.5c-2.5-5-4.6-0.9-4.2-3.7c0.4-2.8-7.5-2.4-4.3-11.1
					c1.4-4-0.2-8.7-14-10.6c-3.3-0.5,1.4-6.1-2.8-4.2c-4.2,1.9-6.2-1.9-8.4-0.5s-4-1.9-6.8-0.3c-2.8,1.6-13.9-3.4-16,5.2
					c-0.8,3.4-4-5.6-14.9,12.6c-1.7,2.8-10.1,4.1-9.3,17.5c0.3,5-3.2,18.8,1.5,15.3c4.7-3.5,5.2-11.1,10.1-10.1s9.6-5.4,13.4-9
					c3.8-3.5,12.5-3.4,14.6-1.3c2.2,2.1,3.9,5,7.3,3.6c3.5-1.4,6.4-0.9,8.9,1.2c2.5,2.1,3.7,4.4,5.8,3.7c2.1-0.7,7.1-0.7,8.2,0.3
					C712.8,876.4,718.5,880.3,718.5,880.3z"/>
			</g>
                <path class="st4" d="M471.3,882.8l-20.5-126.9c-0.2-1.5-1.5-2.6-3.1-2.6l-0.8,0c-1.3,0-2.5,0.8-2.9,2l-30.3,83.4
				c-0.4,1.1-0.1,2.4,0.7,3.3l0,0c1.6,1.6,4.4,1,5.1-1.2l22.5-64c1.1-3,5.5-2.6,6,0.6l16.4,106.4c0.2,1.5,1.5,2.6,3.1,2.6l0.7,0
				C470.1,886.3,471.6,884.6,471.3,882.8z"/>
                <path class="st6" d="M471.3,887.1l-19.8,28.6c-0.2,0.3-1.5,0.6-3.1,0.6l-0.8,0c-1.3,0-2.4-2.3-2.8-2.6l-31.2-73.4
				c0.9-0.8,1.4,1,2.2,0.8l0.9,0.2c1.1-0.7,3.5,2.9,4.2,4.4l25.3,61.7c1.1,0.7,1.9,4.2,2.4,3.5l15.8-23.9c0.2-0.3,1.5-0.6,3.1-0.6
				l0.7,0C470.1,886.3,471.6,886.7,471.3,887.1z"/>
                <path class="st7" d="M438,755.9c1-4.9,5.8-8.3,10.6-7.1c1.4,0.4,2.3,1,2.3,2.2c-0.2,4-1.2,8.1-4.2,8.2c-3,0.1-6.5,5.5-6.7,7.7
				c-0.2,2.2,1.1,6.9-1.5,9.3c-2.6,2.4-5.2,10.9-6.9,16.7s-8.4,26.2-10.1,28.7c-1.7,2.5-6.5,11.1-8,6.6s-1.5-8.1,1.2-9.1
				c2.7-0.9,5.2-2.7,5.2-4.8c0-2,1.2-7.7,3.2-9.5c2-1.8,4.2-6.3,4.2-11.9s-3.4-5.9,1.8-10.5s5.6-1.5,4.6-6.2c-1-4.7-4.5-7.9-2.2-12
				c2.4-4.1,5.9-3.2,6.1-6.4C437.8,757.3,437.9,756.6,438,755.9z"/>
		</g>
            <g>
			<g>
				<path class="st7" d="M-10,503l-0.5-9.5c0,0,3.4-3,7.7-2.7c4.3,0.4,5.4-0.3,5.4-0.3l1.2-1.2c0.8-0.8,1.9-1.3,3.1-1.3l0.3,0
					c0,0-0.6-3.9,1.8-4.2c0.6-0.1,1.2-0.1,1.8-0.1c2,0.1,3.8-1.1,4.4-3l0-0.1c0,0-0.2-1.2,1.9-0.2c2.1,1,1.6-2.7,5.7-1.5
					c4,1.2-0.3-4.2,5.7-3.3c3.3,0.5,4.2,0.1,4.3-0.4c0.2-0.7,0.8-1.1,1.5-1.3h0c2.5-0.7,5.3,0.2,7,2.1l0.8,0.9l0,0
					c1.2,1.2,3.3,1.2,4.5,0l0.3-0.3c0,0-0.3-3.5,1.7-4.1c1.9-0.6,3.1-3.7,3.1-3.7l2-0.5c1.5-0.4,3-0.3,4.4,0.2h0
					c1,0.4,2.1,0.1,2.9-0.7l0.9-0.9c1.1-1.1,2.7-1.4,4-0.8l3.5,1.6c0.8,0.3,1.6,0.4,2.4,0.3l4.1-0.6c0.9-0.1,1.7-0.5,2.4-1
					c1-0.7,2.9-1.6,5.6-1.3c4.4,0.5,10.4-3.2,14.8-2.8c4.4,0.5,1.2-2.4,7.5-4.6c4.6-1.6,8.3-2.8,9.9-3.4c0.7-0.2,1.3-0.6,1.7-1.1
					l4.3-4.9c1.8-2.1,12.6-10.5,12.5-7.7l-3.9,5.6c0,0.6-3.7,5.4-4.1,5.9c-2.5,3-11.8,13.8-14.9,16.2c-3.6,2.9-10.8,5.3-15.9,4.8
					c-5.1-0.4-34.8,8.9-40.1,11.8C50.6,487.9-8.3,506.2-10,503z"/>
                <path class="st7" d="M152.2,456l8.2-4.3c0,0,6-8.6,10.5-4.2c4.5,4.4-7.5-3.1,2.7-4c6.5-0.6,6-5.6,9.5-2.4
					c3.5,3.2,2.1,6.3,7.6,4.5c1.7-0.6,0.9-9.1,7.5-5.3c6.6,3.8,16.2-5.2,20.5-4c4.3,1.2,16.1-18.3,20.8-19.5
					c4.7-1.1,3.9-18.6,11.2-20.4c7.3-1.8,4.8,3,4.8,3L239,426.5l-12.1,18.3l-11.8,8.8l-22.6,0.9L152.2,456z"/>
                <path class="st7" d="M136.4,431.3c-0.8-0.5-4.1-2.8,0.1-6.4c4.8-4.1,9-12.9,13.8-13.7c3.8-0.6,9.9,6.2,12.2,5.6
					c0.6-0.2,9.2-6.1,9.3-5.5l-7.9,6.4c0.1,0.4-0.1,0.9-0.5,1.1l-7.7,5.3c0,0-0.1,0.1-0.1,0.1l-6.8,6.5c-0.2,0.2-0.4,0.3-0.7,0.3
					l-9.7,0.8c-0.1,0-0.3,0-0.4,0C138,431.8,136.5,431.4,136.4,431.3z"/>
                <path class="st7" d="M120.1,247.5c0,0-3.5-13.9,12.2-14.5c11.1-0.4,15.3,0.7,16.5,2c3.3,3.6,7.2,6.6,12,7.9
					c2.2,0.6,4.6,1.2,7.1,1.7c16.2,3,12.4,5.8,15.5,8c3.1,2.2,16.5-1.7,22,8.2c5.5,9.9,5.6,20.2,11.2,24.1
					c5.5,3.9,19.5-14.7,29.8,6.3c6.3,12.8,18.2,8,25.4,10.5c2.8,1,3.7-7.9,14.8-6.4c4,0.5,5.6,7.5,18.8,9.4
					c22.2,3.3,23.4,11.5,36.4,5.5s18.4-13.1,22.6-7.4c4.2,5.7-0.9,14.1-0.9,14.1s-12.7,0.8-16.4,0.3s-8.7-1.2-18-1.8
					c-9.3-0.6-37.5-2.7-42.7-3.7s-32-1.2-35.2-2c-3.2-0.7-11.4-3.1-13.7-5.1c-2.3-2-22.4-16.8-28-22.2c-5.6-5.4-14.9-13.2-18.5-15.1
					s-23.6-9.2-27.5-10.9C159.5,254.7,122.9,249,120.1,247.5z"/>
                <path class="st7" d="M383.9,306.3c11.9-9.5,19.5,7.9,18.7,12c-0.8,4.1-21.3-2.5-21.3-2.5S380.2,309.3,383.9,306.3z"/>
                <path class="st7" d="M284.5,388.3c0,0,15.5,2.8,29.5,10.8c3,1.7,13.8,0,16.4,2.2c15.2,12.6-1.2,14-1.2,14L284.5,388.3z"/>
                <path class="st7" d="M253,442.1c0,0,1.7-6.7,6.2-6.4c10,0.5,7.2,5.4,11.6,4.4c7.2-1.7,15.2,19.1,27.9,4.8
					c3.5-4,9.5-2.5,12.4-4.5c6-4.1,24.5-4.7,28-2.4c6.9,4.6,12.6,2.7,19.5-5.5c3.5-4.2,7.9-8.1,15.4-8.1c12,0.1,3.5,7,16.4,4.8
					c21.7-3.7,21.6-10.2,29.6-10.5c8-0.3,12.7-12.5,19-14.4c17.2-5.4,21.8,13.4,4.9,18c-18,4.9-85.3,23.2-85.3,23.2
					s-59.2,13-75.5,12.9s-30.9-5.5-30.9-5.5L253,442.1z"/>
                <path class="st7" d="M458.7,425c0,0,14.2-6.9,35,29.5c4.9,8.6,10.7,15,11.7,19.2c1,4.2,7.1-3.8,11,5.5S515.7,497,514,497
					c-1.7,0-9.7-15.8-9.7-15.8l-11.4-20.1l-21.2-24L458.7,425z"/>
                <path class="st7" d="M269.8,479.1c0,0,5.4-0.3,11.2,1.9s7.4,11.4,8.9,11.9s-1.2-7,2.3-5.5c3.5,1.6,5.2,5.3,7.1,5.3
					c1.8,0,10.9-1.9,14.8,1.8c3.9,3.7,3.1,7.4,4.8,9.3s6.3-1.1,10.4,3.7c4.1,4.7,3.2,7.9,7.6,10.3s8.5-2.9,16,0.5
					c7.5,3.4,9,4.6,16.3,7c7.3,2.4,11.7-3.8,17.3-0.4c5.6,3.4,10.4,5.8,8.2,8c-2.2,2.2-9.2,5.2-9.2,5.2l-8.8,1.5l-31.3-16l-44.4-25
					l-16.7-8.7l-13.8-6.4L269.8,479.1z"/>
                <path class="st7" d="M450.7,597.1c3.3,2,3.2,4.6,6.4,2.5c1.1-0.7,5-2.7,6.9-3.5c3.9-1.7,17.2-0.6,8.9,7.9
					c-8.3,8.5-13,15.9-13,15.9l-3.6-2.3l-19-30.8c0,0,8.7,4,10.8,8C449.9,598.5,450.3,596.9,450.7,597.1z"/>
                <path class="st7" d="M227.8,105.2c2.6-8,15.6-33.4,40.1-21.6s27.1-1.8,36-0.4s17-9,24.8,4.9c7.8,13.9,2.5,14.4,2.5,14.4
					l-13.6-5.3l-30.1-4.6l-22.4,0.2l-7.5,4.5l-8.5,9.4l-5.2,3.4L227.8,105.2z"/>
                <path class="st7" d="M287.7,166.2c0,0,5.5,1.8,9.9,6.1c4.3,4.3,8.8,18.9,7.1,19.6c-1.7,0.7-5.9-2.6-8.7-8.6
					S287.7,166.2,287.7,166.2z"/>
                <path class="st7" d="M61.6,513c6.4-4.7,16.7-7.9,26-4.4c9.3,3.5,12.2,3.7,20.2,3.8s13.7-7.4,16.7-2.8c3.1,4.5-3.2,12.1-3.2,12.1
					s-6.5,6.3-15.5,2.6s-17-6-26.1-6.9s-17.7-2.8-17.7-2.8L61.6,513z"/>
                <path class="st7" d="M129.1,534.3c0,0,16.5,0.3,20.8,4.6c4.3,4.3,6.5,10.9,10.6,12.9c4.1,2,3.1-5.8,7.2-4.7
					c4.1,1.1,4.7,6.1,8.2,6.8c3.5,0.6,7-1,12.1,3.5c5.1,4.6,21.9,1.2,25.4,2.7s25.5,7,26.8,14.4s-2.7,5.9-2.7,5.9l-9.2-2.2
					l-11.5-4.7l-24.9-6.4l-29.9-9l-32.3-20.4C129.7,537.7,127.6,537.3,129.1,534.3z"/>
			</g>
                <g>
				<path class="st4" d="M304.7,193.6c0,0-6.7-9.2-20.5-34.5c-0.1-0.4-0.3-1.5-0.3-1.5c-0.9-9.4-9.5-25.3-15.7-32.2
					c-6.1-6.8-20.2-19.2-22.2-15.8c4.6-0.6,2.7-4.6,15.2-13.2c2-1.4,4.5-2.1,6.9-2c8.6,0.1,17.1-0.1,25.5,0.9
					c12,1.4,27.9,2.4,36.2,10c3.2,2.9,3.7,7.4,6.3,3.3c-1.2-5.8-3.9-8.8-10.8-13c-11-1.6-38.6-5.9-42.6-5.8
					c-5.6,0.1-19.1-2.9-24.9,3.5c-3.3,3.6-13,11.9-13,11.9c-5.7,4.9-13.9-4.1-20.4-0.1c-3.7,2.2-12.9-0.5-18.2,0.5
					c-5.7,1.1-7.5,6.5-12.7,9.2c-8.8,4.7-46.8,50.2-56.2,55.6c-3.4,1.9-18.7,16.1-18.7,16.1c-4.8,6.3-9.6,7.8-14,12.8
					c-4.5,5-9.2,10-14.5,14.1c-11,8.4-18.7,20.2-31.7,27.2c-13.8,7.4-29.4,4.3-42.7,12.5c0.1-1.3-23.6,7.6-35.6,12.7
					c0.3,0.7,0.6,1.4,0.9,2c1.9-0.2,3.8,0,5.6-0.5c16.7-4.9,33.3-10.1,50-14.9c2.3-0.7,6.6-0.5,7.4,0.8c1.9,3.1,4.6,6.5,1.1,11.1
					c-9.4,12.5-18,25.6-27.3,38.2c-1.5,2-4.8,2.7-7.8,4.2c2.3,10.3-7.1,17.7-11.5,26.8c-2.9,5.9-8.1,10.8-12.2,16.1
					c-1.6,2.1-3.2,4.3-4.8,6.4c-1.7-3.2-1.9-5.8-1.9-8.4c0.1-13.3,0.3-26.6,0.5-39.9c0.1-3.7-1.3-8,4.6-9c0.7-0.1,0.9-2.9,1.4-4.5
					c-0.5-0.1-1-0.3-1.5-0.4c-1.2,1.1-2.5,2.2-4.6,4.2c-1.1-12.8-2-24.4-2.9-35.5c-6.6,0.6-1.9,4.7-2.6,8.7
					c0.7,10.9,2.1,21.2,1.8,31.5c-0.5,20.8-1.7,41.7-2.9,62.5c-0.2,2.5-2.5,4.9-3.8,7.4c-0.7-0.2-1.5-0.5-2.2-0.7
					c-1.8-13.7-3.9-27.3-5.2-41c-0.6-6.1,0.7-12.3,1.1-18.3c-7.5-7.3-4.7-19-9.3-28.4c-1.3,2.1-2,4.4-2.4,6.7
					c-0.2,1.4,0.3,2.9,0.5,4.3c1.6,11.8,3.3,23.5,4.6,35.4c0.7,6.3,0.4,12.8,0.6,20c0.3,0.6,1.7,2.3,2.1,4.2
					c0.8,5,0.5,10.2,1.8,15.1c2.2,8.5-1,15.4-7.5,19.4c-4.7,2.9-6.5,12.1-13.7,8.1c-1.1,4.1-0.9,9-3.3,11.8
					c-14.9,17.4-30.6,34.1-45.5,51.5c-8.4,9.8-15.7,20.6-23.5,30.9l-39.9,59l14.4,6.9l30.7-52.8l0,0c2-3.8,3.9-5.9,6-6.9l4.6-5.2
					c2.5-9.2,8.8-12,16.1-13.7c-0.4-0.7-0.8-1.3-1.2-2c-2.1,0.7-4.1,1.4-6.2,2.1c-0.3-0.5-0.3-0.5-0.7-1
					c14.8-17.3,29.6-34.6,44.4-52c1,0.5,0.9,0.4,1.8,0.9c-0.6,3.2-1.3,6.3-1.9,9.5c0.5,0.1,0.9,0.2,1.4,0.4
					c0.9-3.7,1.8-7.4,2.8-11.8c8.7,0.1,18.1-0.1,27.3,0.6c2,0.1,4.8,3.1,5.3,5.3c3.1,13.5,5.4,27.2,8.6,40.7
					c1.2,4.8-0.1,8.7-2.5,11.5l1.3,4.2c0.9-0.5,1.9-1,2.9-1.4c0.1,1.9,0.7,5,0.4,8c-0.1,0.6-0.3,1.3-0.6,1.9l0.8,2.5l0.5,3.1
					l-7,20.7L-43.2,542l-47.5,54l-11.6,30.4l-22.2,35.2l-23.3,35.4l-17.4,44.2l-8.5,16.8c0.4,2.1-0.2,5.6-1,7.7
					c-0.8,2-3.8,3.2-4.9,4c1.2,2.9,2.3,5.5,3.1,7.4c-1.4-0.2-2.7-0.4-3.9-0.5l-0.9,7.3c8.3,8.1,16.1,15.8,23.6,23.1l3.8-2.3
					c0,0,23.6-64.5,23.8-69.4l0,0c0.1-1.6,0.1-3.2,0.2-4.7c0.4-0.1,0.8-0.1,1.1-0.2l9.4-34.9c-0.2-0.1-0.4-0.2-0.6-0.3
					c1.4-3.2,2.8-6.4,4.3-9.5c1.9-3.8,3.9-7.3,6.8-9.3l14.3-23l6.5-11.4c0,0,0,0,0,0c0,0,0.1,0,0.1-0.1l6.1-10.8l16.8-13
					c-0.2-0.4-0.5-0.8-0.8-1.3c0.3-0.2,0.6-0.5,0.9-0.7c0.4,0.3,0.9,0.6,1.3,0.8l4.2-3.3c-1.3-0.2-2.7-0.5-4-0.8
					c3.1-2,6-3.8,9.1-5.7l4.5-7.1c-1.4,0.4-2.9,0.7-4.4,1c4.8-11,24.1-18.8,40.7-19l-0.6-2.2c-1.2-0.1-2.3-0.1-3.5-0.2
					c-2-0.1-3.9-1.3-5.8-1.9c-6.8,2.5-13.9,5.2-21,7.9c-0.3-0.5-0.2-0.4-0.5-0.9c8.4-6.7,16.9-13.4,26.1-20.8l-0.9-3.1
					c-7.9,5.1-15.8,10.2-23.8,15.3c1.4-5.3,3.5-9.4,9.6-11.2c2.3-0.7,9-3.6,2.6-9.8c5.7-2.7,11-5.2,16.3-7.7l7.6-1.3
					c2.5-1.9,5.1-2.9,8.5-1.4l2-0.3l21.2-4.9l7.7-7.7c-0.1,0-0.2,0-0.3,0c7.6-10.8,16.9-13.9,27.4-14.3c1.3,0,2.6,1,3.9,1.6l0,0
					c0,0,0,0,0,0c0,0,0,0,0,0c0.4,0.2,1.1,0.2,1.3,0.5c0.2,0.3,0.4,0.5,0.6,0.8l4.8,3.2c4.2,1,8.6-1.6,13.2-2.6
					c4.7-1,10,0.8,15.8,1.5l32.2,18.6l5.9,3.2c0-0.1,11.9,7.6,16.8,12c0.1,0.1,0.3,0.3,0.4,0.5l11.9,4.9c0,0,33.1,10.2,33.3,9.8
					c6.4,1.3,13,2.1,19.2,4.1c11,3.5,21.5,8,30.7,15.7c5.8,4.9,11.1,9.5,15,16.2c4.2,7.2,9.8,13.6,13.8,20.9
					c4.5,8.2,11.8,15.5,10.1,27.1c2.3-1.3,4.1-2.2,3.9-2.2c-1.5-6.6-1.1-13.6-4.5-17.7c-3.6-4.5-8.3-7.8-10.8-15.8
					c-5.8-5-7.8-8-9.3-12.5c-1.5-4.5-4.4-8.5-8.3-11.2c-8.6-6-18.3-13.5-18.6-17.9c-8.4,4.4-12.9-3.4-20.9-5.3
					c-45.5-10.7-69.2-22.5-103-47.4c4.6-2,8.1-3.6,12.5-5.5c0.8-1.7,2.5-5,4.1-8.4c-2.1,1.1-4.4,2.3-6.7,3.4
					c0.7-3.5,1.3-6.7,1.9-9.9c-1.3-0.4-0.9-0.3-2.2-0.7c-3.6,7.2-0.6,20-13.2,19.5c-5.7-0.2-11.1-4.5-16.1-7.1
					c-33.4-10.8-63.7-2.3-92.2,19.3c0.8-4.4,1.2-6.6,1.7-9c-8.7,5.6-16.8,10.8-25,16.1c-0.8-0.7-0.9-0.7-1.7-1.3
					c2.3-7.5,6.9-11.8,12.2-11c4.4-4.5,6.9-8.2,10.4-10.4c22.8-14.7,48.6-22.4,74-31.1c6.3-2.2,13-3.3,19.7-5c0.3-0.4,1-2.4,2.2-2.8
					c13.3-4.3,26.6-8.3,39.9-12.4c4.3-1.3,8.6-2.5,14.8-4.2c1.3,0.2,1.3,0.2,3.4,0.6c14.2-3.6,16.4-2.2,25.5,9.1
					c6.4,8,14.3,15,21.6,22.3c7.3,7.3,14.7,14.5,22.8,21.2c-6.6-6.5-13.8-12.5-16.8-21.1c-1,0.3-1.9,0.6-2.9,0.8
					c-10.2-11.3-20.4-22.7-31.7-35.3c7.4-0.5,13.5-1.8,19.5-1.1c7.7,0.9,10.6,7.4,12.6,14c2.1,1.9,4.3,3.8,6.6,5.9
					c1.6-1.3,3.5-2.9,5-4.2c-3.1-1.6-6.3-3.2-9.2-5.1c-0.2-0.1,1-2.4,1.3-3.2c-2.9-2.3-6-4.8-10.8-8.7c11.8-0.7,21.6-1.5,31.4-1.9
					c1.7-0.1,3.6,1.2,5.1,2.3c5.5,4.2,10.4,9.4,16.3,12.7c26.3,14.8,53.1,28.8,79.3,43.7c21,11.9,41.6,24.4,62.2,37.1
					c7.7,4.8,14.8,10.6,22.1,15.9c12.5,9.1,14.5,16.2,9.2,30.8c-2.2,6-3.9,12.3-5.7,18.4c1.8-3.9,3.7-7.8,5.3-11.9
					c3.2-8.1,9.3-15.7,2.7-25.5c1-0.3,1.9-0.6,2.9-0.8c3.9,4.9,8.2,9.5,11.6,14.7c3.7,5.5,7.1,11.4,9.8,17.5
					c1.9,4.2,2.5,8.9,3.7,13.5c1,0,4.2-0.8,6.4,0.3c2.4,1.3,4.1,4.2,5.7,6.7c1.2,1.9,1.9,4.3,2.8,6.4c-0.3-3.5-0.6-7-0.9-10.9
					c3.1,0.3,6.2,0.6,9.4,0.9c0.1-1,0.1-0.6,0.2-1.6c-3.4-0.7-6.8-1.1-10.1-2.1c-7.5-2.4-8.6-6.1-3.6-11.9
					c4.3-5.1,8.6-10.4,12.1-16.1c-6.3,6.4-12.6,12.8-18.8,19.1c-8.6-13.3-17.3-26.6-26.2-40.4c0.7-0.4,3-1.7,5.3-3.1
					c-9.7,5.3-15.1-2.3-21.5-6.9c-9.4-6.8-18.8-13.6-28.2-20.4c-1.9-1.4-3.7-2.9-6.7-5.3c5.1-2.5,9.2-4.6,13.3-6.6
					c-0.1-0.2-0.2-0.5-0.2-0.7c-1,0.1-2.3-0.1-3.1,0.5c-9,6.4-16.4,2.7-25-2.2c-24-13.9-48.7-26.6-73.1-39.9
					c-8.6-4.7-17.2-9.4-25.5-14.6c-2.4-1.5-3.6-4.8-5.4-7.4c-0.1,1-0.2,2.1-0.4,4c-6.9-4.8-16.5-5.9-18.1-17.8
					c19.7,6.8,38.8,3,57.8,3.4c7.1,0.1,12.3-3.3,18.8-4c13.3-1.3,26.6-3.7,39.7-6.5c7.2-1.5,14-4.6,21.1-6.8
					c6-1.9,12.1-3.5,18.9-5.5c-1.3,5.9-2.6,11.3-3.8,16.8c2.4-2.4,6.2-3,5.1-8.5c-0.6-3.1,3.6-9.2,7.1-10.7
					c12.6-5.5,25.7-10.8,40-8.2c2,0.3,3.6,2.4,5.4,3.8c0.6,0.4,1,1.4,1.5,1.4c12.3-0.6,17.5,9.3,24.2,16.6c1,1.1,0.6,4.7-0.5,6.3
					c-2.5,3.5-5.9,6.4-8.8,9.6c-7.9,8.6-15.5,17.2-18.5,29c-0.9,3.8-3.2,7.3-5.1,11.3c1.4,0.4,3,0.9,4.5,1.3
					c1-11.7,5.3-22,12.9-30.9c4.7-5.5,9.7-10.9,14.3-16.6c3.7-4.5,6.5-5.4,10.5,0c18.5,24.6,30.6,51.2,29.4,82.9
					c-0.2,5.3,2.7,10.8,4.2,16.1c1.6-4.4-3.7-8.6,0.6-13.7c1.6-1.9-2.4-7.9-3.1-12.2c-2-13.1-0.6-26.6-8.2-38.7
					c-8.1-12.9-15-26.6-23-39.5c-3.6-5.8-8-11.4-13.2-15.7c-8.2-6.7-15.8-14.7-29.1-16.3c3.5-1.1,5-1.5,7-2.2
					c-10.2-2.4-19.2,6.6-27.6,2.4c-2.9,1.6-5.3,3.5-8,4.4c-7.8,2.5-15.7,4.5-23.5,6.9c-8,2.4-16,4.9-25.3,7.8
					c2.8-4.7,4.6-7.7,5.9-9.8c-6.3,4.2-12.5,11.1-19.8,12.6c-21.9,4.6-44.3,7.2-66.5,10.1c-4.5,0.6-9.7-2.5-14-1.5
					c-15.7,3.5-16.8,3.3-21.8-11.3c-0.4-1.3-1.3-2.4-2.9-5c0.3,3.5,0.5,5.2,0.7,7.1c-5.3-0.7-10.2-1.4-15.2-2.1
					c8.7-21,19.1-40.7,35.9-56.7c2.8,1.4,5.7,2.6,8.4,4.1c14.9,8.5,29.7,17.2,44.7,25.4c3.5,1.9,7.8,2.4,11.8,3.4
					c-9.8-5.5-19.6-11.1-29.4-16.6c-15.1-8.4-30.4-16.5-45.4-25.2c-6.1-3.5-8.8-8.4-6.4-16.4c4.1-13.2,3.3-26.5-3.1-39.2
					c-1.2-2.5-1.8-5.3-2.7-7.9c7.6-0.3,14.6-1.4,21.4-0.8c23.3,2,46.5,4.6,69.7,7.2c1.1,0.1,2,1.7,3,2.5l0-0.1c1.2,0,2.5,0.4,3.6,0
					c10.4-3.7,21.4-5.8,31.5-1.7c8.4,3.4,16.6-0.3,24.9,3.3c-1.9-6.9-5.7-8.3-11.4-8c-8.5,0.4-17.1-0.1-25.9-0.2
					c-0.1-2-0.1-3.4-0.1-3.7c-3,1.3-6.6,4.4-10.1,4.3c-20.6-1-41.1-2.7-61.6-4.3c-9.6-0.7-19.2-1.9-28.8-2.3
					c-9.5-0.4-18.8-0.3-26.5-7.3c-4.5-4.1-9.6-7.5-14.4-11.3c-7.2-5.7-14.5-11.3-21.4-17.3c-1.5-1.3-1.8-3.9-2.5-5.5
					c-2.1-0.4-5.7-0.1-8.2-1.6c-17-10.2-35.6-15-54.9-17.7c-16.8-2.3-33.1-4.6-48.7,2.1l-18,5.5l-6.2,1.1l13.2-16.1
					c0,0,2.9-6.3,5.3-7.5c8-8.2,14.3-15.2,21.2-21.4c6.8-6,11.9-14.8,23.5-15c-1.6-1-2.6-1.7-3.9-2.5c5.2-6.7,11.3-9.7,19.8-6.5
					c9.6,3.6,13.6-4.9,16.1-7.1c-4,0.5-6.8,2.8-9.9,3.4c-2.2,0.4-4.8-1.4-7.2-2.2c1-2,1.6-4.5,3.2-5.9c2.2-2,5.6-2.7,7.7-4.8
					c11.7-12.2,23-24.9,34.7-37.1c2.4-2.5,6.3-3.8,10.1-5.9c-0.1-4.8,6-11.1,15.2-13.1c7-1.5,19.6-1.1,20.3-1.9
					c9.6,3.7,19.7,6.4,28.8,11.2c10.3,5.5,17.3,30,19.4,34.8c1.2,2.9,1.7,6,2.8,9c0.5,1.3,1.1,3,2.2,3.6c4.5,2.4,7.5,9,5.7,13.7
					c-1.3,3.2-2.8,6.3-4.2,9.5c0.5,0.3,0.4,0.2,0.9,0.5c2.2-2.9,4.5-5.8,7.2-9.4c4.4,6.9,2.9,2.7,6.7,8.8L304.7,193.6z M-40.3,422.1
					c1.8-4.1,3.7-8.3,5.6-12.6c-8.9,13-12.9,15-26.8,12c6.6-4.5,12.1-8.4,17.4-12c-0.6-0.6-2.2-2.3-2.2-2.4c3.4-3.7,6.9-7.3,11.6-12
					c2,10.6,3.6,18.7,5.1,26.7C-33.5,422-36.7,422.1-40.3,422.1z M-66.9,603.4c-0.7-0.7-1.4-1.3-2.1-2c5.5-5.6,11-11.2,16.6-16.9
					C-57.4,590.9-59.2,600-66.9,603.4z M220.5,440.4c-1.4,0.5-2.3,2.8-3.4,4.4c-4.3,6.2-17.2,7.1-21.8,1.5c-3.6,1.8-7,4.5-10.7,5.2
					c-3.1,0.5-6.6-1.5-9.8-3.8c-12.3,8.3-25.4,5.5-40.6,2.8c-1.2,1.6-3.7,4.9-6.2,8.2c-0.6-0.5-1.1-1-1.7-1.4
					c6-6.1,12-12.2,18.3-18.7c2.7-0.8,6.8-2,11-3.2c-0.2-0.6-0.3-1.2-0.5-1.9c-2.5,0.3-5,0.6-9.2,1.1c7.2-8.5,13.6-15.3,23.9-16.8
					c0.5-1.5,1.1-3.5,2-6.4c-12.6,6.2-20.1,19.9-33.7,20.5c-1.3,3.3-1.8,6.6-3.7,8.8c-6.4,7.5-12.7,15.3-20.3,21.5
					c-4.8,4-11.6,6.2-17.8,7.9c-7.3,2-15.1,2-22.3,4c-5.2,1.5-10,4.6-14.5,7.6c-6.3,4.3-13.5,2.6-19.2,1.1
					c-7.9-2.2-14.4,0.1-18.7,4.5c-7.2,7.4-15.7,7.2-24.5,8.1c-1.5,0.2-2.9,1-4.9,1.7c0.1-9.7-7.8-20.3,0.2-29.5
					c-1.4,1.3-3,2.8-4.8,4.5c-2.2-9.8-4.2-18.9-6.2-27.9c-0.8-3.7-2.3-7.4-2.2-11.1c0.1-3.2,0.7-7.6,5.9-7c9.7,1.2,19.4,2.6,29.1,4
					c1.8-2.5,3.6-4.7,5.4-7.1c-12.6,6.8-25.1,0-39,1.2c3.6-3,5.7-4.8,7.9-6.6c-0.2-0.4-0.4-0.8-0.7-1.3c-3.3,1.6-6.5,3.1-11,5.2
					c-2.2-11.1-4.4-21.9-6.5-32.8c0.7-0.2,1.4-0.4,2-0.6c0.8,0.8,1.7,1.6,3,2.9c1-2.9,1.9-5.4,2.6-7.6c-0.7,0.1-1.9,0.4-4.4,0.9
					c5.4-9,10.4-15.9,21.4-15.5c-2.2-0.6-4.5-1.1-7.5-1.9c1.1-2.2,1.8-3.9,2.9-5.4c3.1-4.2,6.6-8.1,9.7-12.4
					c4.6-6.3,9-12.6,13.3-19.1c8.2-12.7,15.5-26.1,24.7-38c4.6-5.9,7.8-13,13.6-18c1.4-1.2,2.9-2.6,4.6-3.2
					c17-5.4,34.1-10.6,51.2-15.9c0.9-0.3,1.9-0.5,2.8-0.7c12.1-2.5,13-1.9,15.6,9.4c0.4-0.2,1-0.4,1.1-0.6
					c0.3-11.1,0.9-11.8,11.7-10.2c28.8,4.3,55.2,14,75.7,36.1c3.7,4,6.6,7.2,0.1,12.2c0.8,0.2,1.5,0.5,2.3,0.7
					c2.1-1.7,4.2-3.4,6.4-5.1c33.3,14.8,24,68.2,25.2,73.4c7.4,4.7,13.2,8.3,19.6,12.3c-15,12.1-23.3,28.2-33,43.4
					C231.3,431.8,228,438.1,220.5,440.4z"/>
			</g>
		</g>
	</g>
</g>
    <circle class="st1" cx="512.3" cy="510" r="468.4"/>
    <g>
	<circle class="st1" cx="512.3" cy="510" r="468.4"/>
        <g>
		<g>
			<path class="st8" d="M752.3,368.6c-1.6-0.3-3.3,1.5-3.4,3.7c0.4,0.2,1,1,1.7,1.1c1.4,0.2,3.3-1.6,3.2-3.3
				C753.8,369.6,752.9,368.7,752.3,368.6z"/>
            <path class="st8" d="M702.9,173.7c2.5,0.9,4.6,0.2,6.5-1.3c5-4.2,19.7-3.3,24.6-0.9l0,0c0,0,0,0,0,0c0.1,0,0.2,0.1,0.3,0.1
				c0.1,0.1,0.3,0.2,0.4,0.3c1.1,0.6,3.3,1.8,4.6,2.4c0,0,0,0,0,0c0.2,0.1,0.4,0.2,0.6,0.3c1,0.5,2.2,0.8,3.2,1.1
				c1.2,0.4,2.5,0.6,3.6,1.2c0.5,0.2,1,0.9,1.1,1.5c0.4,1.4,0.7,2.8,1,4.2c0.3,1.4,0.8,2.9,0.9,4.3c0.5,4.9,0.9,9.5,1.6,14.4
				c0.1,0.9,1.5,1.6,2.3,2.4c0.4-0.9,1.2-1.7,1.3-2.6c0.1-5,0.1-9.9,0-14.9c0-3.2-1.1-6-4.4-7.8c-0.4-0.2-0.8-1-0.7-1.5
				c0.7-3.4,0.3-3.8-3-5.7c-4.4-2.6-9.4-3.5-14.3-4.1c-4.9-0.6-17.1-1.8-22.1,0.1c-0.8,0.3-1.8,0.2-2.7,0c-2.4-0.4-5,0.4-6.3,2.2
				C700.1,171.2,700.7,172.9,702.9,173.7z"/>
            <path class="st8" d="M746.6,376.5c-3,2.4-6.4,1.8-9.9,1.4c-2.3-0.3-4.7-0.2-7-0.2c-3,0-13,0.4-16,0.2c-2.6-0.2-5.2-0.7-7.6-1.6
				c-2.8-1.1-5.3-2.8-8.1-4.1c-3-1.4-4.8-3.5-5.1-6.5c-0.2-1.9-0.4-3.8-0.6-5.6c-0.7-8.8-1.6-17.6-2.1-26.4
				c-0.3-5.2,0.4-6.3,0.2-11.5c-0.2-7.8-0.7-6.4-1-14.2c-0.2-5.7-0.4-1.5-0.6-7.2c-0.1-3.8-0.5-7.7-0.5-11.5
				c0.1-6.7,0.5-13.5,0.7-20.2c0.1-2.7-0.1-5.4-0.1-8.1c0.1-7.4,0.2-11.9,0.3-19.3c0-5.8,0-9.1-0.1-14.9c0,0-0.4-3,0-4.3
				c0,0,0,0,0-0.1c0,0.5,0,0.7,0,0.7c0-0.3,0-0.5,0-0.8c0.3-1.1,0.5-2.9,0.2-4.8c0,0,0-0.1,0-0.1c0.1-2,0.2-3.9,0.3-6.7
				c0.1-2.4,0-4.9,0.2-7.3c0-0.3,0.1-0.7,0.2-1c0.2-1.3,0.7-3.6,1-4.2c0.5-0.8,0.6-4.4,0.7-5.5c0-0.1,0-0.2,0-0.3
				c0.1-0.5,1.1-1.2,1.8-1.3c1.9-0.2,2.7-1.1,2.7-2.7c0-2,0.3-4-0.2-5.8c-0.8-2.8-0.1-4.9,1.8-7.1c0.6-0.7,0.2-2,0.3-3
				c-1.1,0.3-2.4,0.3-3.2,0.9c-1.7,1.3-2.9,3.1-4.5,4.5c-2,1.7-3.1,3.6-3.1,6c0,0.8-0.3,1.6-0.4,2.4c-0.8,7-2.3,13.7-2.4,20.7
				c-0.2,13.1,0.5,13.3,0.7,26.4c0.2,8.9,0.2,14.9,0.2,23.8c0,2.6-0.1,5.3-0.1,7.9c0.1,4,0.4,8.1,0.3,12.1
				c-0.2,9.9-0.9,15.9-0.9,25.8c0,11.1,0.5,6.8,0.7,17.9c0.2,14.4,0.3,24.6,0.6,39c0.1,6.2,1.1,12.3,5.5,17.6c2.5,3.1,5.6,5,8.8,4.3
				c7.8-1.6,22.6-0.7,30,1.1c5.9,1.5,10.8,0.2,15.7-2.1c1.9-0.9,2.9-2.4,2.5-4.7C747.8,376.2,747,376.2,746.6,376.5z"/>
            <path class="st8" d="M754.3,209c-0.1-0.9-0.9-1.7-1.4-2.5c-0.3,0.1-0.7,0.1-1,0.2c-0.2,1.3-0.7,2.6-0.7,3.9c0,5.7,0.1,1,0,6.7
				c0,4.4-0.2,6.4-0.3,10.8c0,1.1-0.4,1.7-1.2,1.9l0.9,4c0.2,0.1,0.5,0.1,0.7,0.2c0.8,0.2,1.8,0.8,2.4,0.6c0.6-0.3,1.1-1.2,1.1-2
				c0.2-1.3-0.1-2.7,0-4C755.5,217.8,755.7,219.9,754.3,209z"/>
            <path class="st8" d="M757.4,346c-0.5-11.8-0.5-14.8-0.7-26.7c-0.1-5.2,0-5.7-0.1-10.9c-0.2-5.8-0.6-1.5-0.9-7.3
				c-0.1-1.3-0.1-2.6,0.2-3.8c0.4-1.9,0.4-3.7-1-5.4c-0.3-0.4-0.2-1.7,0.3-2c1.8-1.1,1.9-2.6,1.6-4.3c-0.7-4.7-1.8-9.5-1.9-14.2
				c-0.2-6.8,0.1-13.6,0.7-20.4c0.4-4.4-0.4-5.8-0.8-10.2c-0.1-0.5-0.6-0.9-1-1.4c-0.5,0.3-1.2,0.6-1.6,1c-0.4,0.5-0.6,1.1-0.8,1.7
				c0,0.1,0,0.2-0.1,0.3c-0.5,2-0.2,6.9-0.2,6.9l0,0c0.3,3.6,0.6,4.4,0.8,8c0,0.2-0.2,0.4-0.2,0.6c-0.2,1-0.4,2-0.5,2.9
				c-0.1,1.9-0.2,3.9-0.2,5.8c0,2.5,0.1,5,0.2,7.4c0.1,1.9,0.1,3.7,0.2,5.6c0,0.7-0.1,1.4,0,2c0.6,2.9-0.4,5.1-1,8.5
				c-0.2,1.1-0.2,2.2-0.2,2.5c0.1,4.5-0.1,3.1,0.1,7.6c0.1,1.9,0.9,1.8,0.9,3.7c0.2,6.8,0.3,5.1,0.5,11.9
				c0.2,10.4,0.4,11.9,0.6,22.3c0.1,4.2,0.1,8.5,0.1,12.7c0,1.9-0.2,3.9-0.3,5.8c-0.1,2.5-0.1,5.1-0.1,7.6c0,0.6,0.1,1.6,0.5,1.7
				c0.5,0.2,1.8,0,2-0.3c0.9-1.4,2-2.9,2.3-4.4C757.6,356.2,757.7,351.1,757.4,346z"/>
		</g>
            <g>
			<path class="st8" d="M724.7,183l3.9,2.3c3.6-1.9,6.3-3.6,8.1-5.3c0.2-0.2,0.4-0.2,0.6,0l3.4,3.9c0.1,0.4,0,0.6-0.4,0.8
				c-1.4,0-5.1,0.5-11.3,1.5c0.4,0,0.1,0.1-0.9,0.2v8.6l9.4-0.2l2.6-2.6l3.4,2.8c0.2,0.4,0.2,0.6-0.2,0.8l-8.8,0.2l3,2.1
				c0.5,0.1,0.6,0.4,0.2,0.9l-1.1,1.5l0.2,18.8c-0.1,1.7-1.1,3.2-2.8,4.5c-0.6,0.5-1.1,0.5-1.3,0V196l-4.5,0.2
				c0,8.9-1.1,15-3.4,18.4c-1.9,3.3-6.7,6.6-14.4,10.1c-0.3,0.1-0.4,0.1-0.4,0c-0.1-0.1-0.1-0.3,0-0.6c5.6-2.9,9.3-5.6,11.1-8.3
				l-15.9,0.9c-0.8,1.8-1.8,3-3.2,3.8c-0.4,0.1-0.6,0.1-0.8-0.2l0.2-9v-21c0-1-0.1-2.8-0.2-5.4c0-1.6,0-2.6,0-3
				c0-0.2,0.1-0.3,0.2-0.2l4.3,1.9c0.2,0.1,0.2,0.3,0,0.4l-0.8,1.5v22.3c2.4-3.6,4.5-8,6.4-13.1c-1.6,0.1-3.1,0.3-4.5,0.6l-1.3-1.3
				l7.1-0.2v-8.6l-0.4-5.1c0-0.4,0.1-0.5,0.4-0.4l3.9,1.3c0.2,0,0.3,0.2,0.2,0.6l-0.6,1.3v9.8c1.9-3.1,3.3-6,4.3-8.6l2.6,2.4
				c0,0.1-0.1,0.3-0.2,0.6l-6.8,6.6l2.6-0.2l1.9-2.1l2.6,2.4c0.2,0.3,0.2,0.4-0.2,0.4l-6.9,0.4l-0.2,8.3l0.2,6
				c-0.1,1.8-1.1,3.5-3,5.3c-0.5,0.3-0.8,0.1-0.9-0.4l0.2-9.9v-3.8c-1.5,2.8-4,5.9-7.5,9.6v6.2l12-0.6l2.6-2.8l2.3,2.1
				c1.9-3.2,2.7-9.9,2.6-19.9v-5.6c0-1.1-0.1-2.6-0.2-4.3c0-0.6,0-1,0-1.1C724.1,183,724.3,182.9,724.7,183z M706.3,186.2
				c-0.3-0.4-0.2-0.5,0.2-0.4c2.3,0.6,3.8,1.5,4.7,2.6c0.1,0.8-0.2,1.6-0.9,2.4c-0.8,0.6-1.3,0.6-1.5,0
				C708.4,189,707.5,187.5,706.3,186.2z M716.8,196.7c3.8,1.4,5.7,2.6,5.8,3.8c0.2,0.8-0.2,1.8-1.3,3c-0.8,0.4-1.3,0.3-1.5-0.4
				c-0.6-2.4-1.8-4.4-3.4-6C716.3,196.7,716.4,196.6,716.8,196.7z"/>
                <path class="st8" d="M708,227.1l4.1,2.1c0.2,0.3,0.2,0.4,0,0.4l-0.6,1.5l-0.2,6.9h2.4l2.1-2.1l2.6,2.4c0.1,0.3,0,0.4-0.4,0.4
				l-6.8,0.2v4.9c2.6,1,4.2,2,4.9,3c0.2,1-0.2,1.9-1.3,2.6c-0.8,0.5-1.2,0.4-1.3-0.4c-0.6-2-1.4-3.5-2.3-4.5v13.5l0.2,8.4
				c-0.4,1.7-1.3,3.4-2.8,4.9c-0.8,0.5-1.2,0.4-1.3-0.4l0.4-13.1v-8.3c-2.8,4.1-6.2,8.3-10.3,12.6c-0.1,0.1-0.3,0.2-0.6,0.2
				c-0.1-0.1-0.1-0.3,0-0.6c4.6-6.6,8.3-14,10.9-22.1v-0.6h-1.3c-1.9,0-3.6,0.1-5.3,0.4l-1.3-1.3l7.9-0.2v-4.3c0-2.9-0.1-5-0.2-6.4
				C707.6,227.1,707.7,227,708,227.1z M721.1,249.1l5.1,1.3c0.4,0.1,0.4,0.3,0.2,0.6l-0.8,1.5c0.8,9.8-4.1,16.7-14.6,20.8
				c-0.3,0.1-0.4,0.1-0.4-0.2c-0.1-0.1-0.1-0.3,0.2-0.4c4.6-2.8,7.6-5.6,8.8-8.6C721,261.1,721.5,256.1,721.1,249.1z M732.9,227.9
				l3.4,4.1c0.1,0.1,0.2,0.3,0.2,0.4c-0.1,0.1-0.3,0.2-0.6,0.2c-0.8,0.1-2.3,0.3-4.5,0.4c-1.6,0.1-3,0.3-4.1,0.4l3.4,1.5
				c0.2,0.1,0.3,0.3,0.2,0.6l-0.8,0.6c-0.4,0.6-0.9,1.6-1.7,2.8c-0.4,0.8-0.7,1.3-0.9,1.7l9.4-0.2l2.4-2.4l3.2,2.6
				c0.1,0.3,0,0.4-0.4,0.6l-15.4,0.4c-2.6,4.3-6.8,8.4-12.4,12.6c-0.6,0.1-0.8,0-0.4-0.4c3.6-3.2,6.6-7.2,8.8-12h-0.2
				c-2,0-3.9,0.1-5.6,0.4l-1.5-1.3l7.7-0.2c1-2.1,1.9-4.4,2.6-6.9c-1,0.1-2.7,0.3-5.1,0.6c-1,0.1-1.8,0.3-2.3,0.4
				c-0.3,0-0.4-0.1-0.4-0.2c-0.1-0.2-0.1-0.4,0.2-0.4C725.8,231.5,730.7,229.5,732.9,227.9z M729.9,249.1l5.3,1.9
				c0.2,0.1,0.2,0.3,0,0.6l-0.9,1.1v15c-0.5,1.7-1.5,3.2-3,4.5c-0.8,0.6-1.3,0.6-1.5,0l0.2-8.6v-9.2V249.1z M730.5,241.6
				c1.7,3,6.1,5.6,12.9,7.7c0.2,0,0.4,0.1,0.4,0.2c0,0.3-0.1,0.4-0.2,0.4c-1.6,0.3-3.3,1.3-5.1,3c-4.1-2.6-6.9-6.3-8.4-11.1
				L730.5,241.6z"/>
                <path class="st8" d="M707.8,297.9c0.4,0.1,0.9,0.4,1.5,0.8c0.8,0.4,1.2,0.7,1.5,0.9c1.1-2.6,2.1-5.3,3-7.9l-4.7,0.2
				c-2.3,4.1-5.5,8.4-9.8,12.8c-0.1,0.1-0.3,0.1-0.4,0c-0.1-0.1-0.1-0.3,0-0.6c4.5-5.9,7.9-13.1,10.1-21.8h-0.8c-0.4,0-0.8,0-1.3,0
				c-1.6,0.1-2.8,0.3-3.6,0.6l-1.7-1.5l13.5-0.2l2.6-2.4l2.8,2.8c0.2,0.3,0.2,0.4-0.2,0.6l-10.3,0.2l2.6,1.7c0.2,0.1,0.2,0.3,0,0.6
				c-0.4,0.8-0.9,1.9-1.7,3.4c-0.6,1.3-1.1,2.2-1.3,2.8l3.8-0.2l1.9-2.1l3.8,2.4c0.2,0.3,0.2,0.6-0.2,0.9l-1.3,1.3
				c-1,2.9-2.3,5.6-3.8,8.3c2,1.3,3.1,2.3,3.2,3.2c-0.1,1.3-0.8,2.4-1.9,3.6c-0.8,0.5-1.3,0.3-1.7-0.6c-0.4-1.1-0.9-2.2-1.5-3.2
				c-3.8,5.4-8.8,10.4-15.2,15.2c-0.1,0.1-0.3,0.1-0.4,0c0-0.1,0.1-0.3,0.2-0.6c5.6-5.3,10.1-11.1,13.3-17.6
				c-0.1-0.2-0.4-0.6-0.8-0.9c-0.4-0.6-1-1.3-1.9-2.1C707.3,298.2,707.4,298.1,707.8,297.9z M723.7,275.2l5.3,2.4
				c0.2,0.1,0.2,0.3,0,0.6l-1.1,0.9c0,3,0.1,5.9,0.4,8.6l5.4-0.6l2.3-2.6l3.4,2.6c0.2,0.4,0.2,0.6-0.2,0.6l-10.9,0.9
				c0.4,3,0.8,5.7,1.3,8.1l7.1-0.9l2.1-3l3.8,2.8c0.1,0.1,0.1,0.3-0.2,0.6l-12.4,1.7c0.5,2.1,1.1,4.1,1.9,5.8
				c1.7-1.9,3.2-3.8,4.5-5.6l0.4-0.2l2.8,2.8c0.2,0.1,0.2,0.4,0,0.8c0.4-0.4,0.3-0.3-0.2,0.2c-1.8,2-3.8,3.9-6,5.6
				c1.7,3,3.6,5.3,5.6,6.8c0.5,0.4,1,0.4,1.5,0c-0.1,0-0.1,0,0,0l1.5-2.3c0.2-0.2,0.4-0.3,0.6-0.2c0.2,0,0.3,0.1,0.2,0.4
				c-1.1,2.1-1,4.1,0.4,6c0.5,1.2,0.2,2.1-0.8,2.6c-1,0.5-2.2,0.3-3.6-0.6c-3.9-2.4-6.9-5.7-9-9.9c-5.3,3.6-12.1,6.8-20.6,9.6
				c-0.1,0.1-0.3,0.1-0.4-0.2c-0.1-0.1-0.1-0.3,0-0.4c8.1-3.3,14.7-7.2,19.7-12c-1-2.7-1.9-5.7-2.6-8.8l-1.9,0.4
				c-2.1,0.3-3.8,0.6-4.9,0.9l-1.7-1.3l8.3-1.1c-0.5-2.6-0.9-5.3-1.1-8.1c-1.9,0.1-3.5,0.4-4.9,0.8l-1.7-1.3l6.6-0.6
				c-0.3-2.1-0.4-5.3-0.6-9.6C723.8,277.1,723.7,276,723.7,275.2z M731.8,278.1c3,0.6,4.6,1.6,4.9,2.8c0,1-0.6,1.8-1.9,2.4
				c-0.8,0.4-1.2,0.2-1.3-0.6c-0.1-2-0.8-3.5-1.9-4.5C731.6,278,731.7,277.9,731.8,278.1z"/>
                <path class="st8" d="M707.8,327.4c-0.3,0-0.4-0.2-0.6-0.6c0-0.2,0.1-0.4,0.4-0.4l20.8-0.6l2.4-2.6l3,2.8c0.2,0.4,0.2,0.6-0.2,0.6
				l-11.4,0.4v4.3l13.1-0.4l2.3-1.7l4.7,5.1c0.2,0.3,0.3,0.5,0.2,0.8c-0.1,0.3-0.4,0.3-0.8,0.2c-2.1,0-4.4,0.6-6.8,1.9
				c-0.4,0-0.5-0.1-0.4-0.4l0.9-4.7l-13.3,0.4l0.2,7.5c0,1.6-0.9,3.3-2.8,4.9c-0.8,0.4-1.1,0.3-1.1-0.4v-11.8l-12,0.2
				c-0.9,3.5-2.6,5.9-5.1,7.3c-0.4,0.3-0.7,0.1-0.9-0.4c-0.6-1.5-0.6-2.6,0.2-3.2c1.7-1.5,2.7-3.5,2.8-6c0-0.4,0.1-0.6,0.2-0.6
				c0.1,0,0.4,0.1,0.8,0.2c0.8,0.5,1.4,1.1,1.9,1.7l12.2-0.4V327L707.8,327.4z M714.2,355.7c-1.8,0-3.4,0.1-5.1,0.4l-1.3-1.5
				l22.9-0.2v-6l-0.4-1.1l2.3-3l4.5,2.8c0.2,0.1,0.2,0.4,0,0.8l-1.3,1.9l-0.2,2.8l0.2,7.5c0.2,3-0.8,5.6-3,7.9
				c-0.5,0.5-0.9,0.5-1.1,0c-0.5-1.4-1.3-2.8-2.3-4.3l-20.3,0.2c-2.1,0-3.8,0.2-4.9,0.6l-1.5-1.3l27.9-0.2v-7.5L714.2,355.7z
				 M710.2,348.6c-1.9,0.1-3.5,0.3-4.9,0.6l-1.5-1.5l24.8-0.4v0.9L710.2,348.6z M716,341.1c0.4,0.1,0.6,0.3,0.6,0.6
				c0,0.3-0.2,0.4-0.6,0.6l-9,0.4c-0.4,0.1-0.6,0-0.8-0.4c0-0.4,0.2-0.6,0.6-0.8L716,341.1z M715.1,336.2c0.4,0.1,0.6,0.3,0.6,0.6
				c0,0.3-0.2,0.4-0.6,0.6l-6.8,0.4c-0.4,0-0.6-0.2-0.6-0.6s0.2-0.6,0.6-0.6L715.1,336.2z M733.3,340.7c0.4,0,0.6,0.2,0.6,0.6
				c0,0.3-0.2,0.4-0.6,0.6l-8.4,0.4c-0.4,0-0.6-0.1-0.8-0.4c0-0.4,0.2-0.6,0.6-0.8L733.3,340.7z M731.8,335.8c0.6,0.3,0.6,0.6,0,1.1
				l-6.8,0.2c-0.3,0-0.4-0.2-0.4-0.6c0-0.2,0.1-0.4,0.4-0.4L731.8,335.8z"/>
		</g>
	</g>
</g>
</svg>
