<?xml version="1.0" encoding="iso-8859-1"?>
<!-- Generator: Adobe Illustrator 23.0.0, SVG Export Plug-In . SVG Version: 6.00 Build 0)  -->
<svg version="1.1" id="&#x56FE;&#x5C42;_1" xmlns="http://www.w3.org/2000/svg" xmlns:xlink="http://www.w3.org/1999/xlink" x="0px"
     y="0px" viewBox="0 0 500 500" style="enable-background:new 0 0 500 500;" xml:space="preserve">
<g>

		<radialGradient id="SVGID_1_" cx="806.6332" cy="1254.0562" r="206.0973" gradientTransform="matrix(0.9786 -0.2059 0.2059 0.9786 -797.5989 -811.061)" gradientUnits="userSpaceOnUse">
		<stop  offset="0" style="stop-color:#FF799B"/>
            <stop  offset="1" style="stop-color:#B2005E;stop-opacity:0"/>
	</radialGradient>
    <circle style="fill:url(#SVGID_1_);" cx="250" cy="250" r="206.097"/>

    <linearGradient id="SVGID_2_" gradientUnits="userSpaceOnUse" x1="697.8109" y1="1145.2339" x2="915.4555" y2="1362.8784" gradientTransform="matrix(0.9786 -0.2059 0.2059 0.9786 -797.5989 -811.061)">
		<stop  offset="0" style="stop-color:#FF799B"/>
        <stop  offset="1" style="stop-color:#B2005E"/>
	</linearGradient>
    <circle style="fill:url(#SVGID_2_);" cx="250" cy="250" r="153.898"/>
    <g>
		<defs>
			<circle id="SVGID_3_" cx="250" cy="250" r="153.898"/>
		</defs>
        <clipPath id="SVGID_4_">
			<use xlink:href="#SVGID_3_"  style="overflow:visible;"/>
		</clipPath>
        <path style="clip-path:url(#SVGID_4_);fill:#C4207C;" d="M240.681,409.23c0,0,95.735-69.811,115.413-79.01
			c19.677-9.199,47.558-10.008,47.558-10.008l-73.659,82.64l-76.621,16.125L240.681,409.23z"/>
        <path style="clip-path:url(#SVGID_4_);fill:#FF84AB;" d="M57.828,219.625c0,0,102.93-76.843,183.931-96.189
			s82.672-46.369,82.672-46.369l26.325,37.686c0,0-65.172,13.715-107.724,38.765s-88.815,67.435-128.146,88.128
			s-56.226,16.891-56.226,16.891L57.828,219.625z"/>
        <path style="clip-path:url(#SVGID_4_);fill:#EB67A1;" d="M104.727,337.594c0,0,62.067-24.098,85.917-48.431
			s60.844-93.278,113.78-121.433s80.144-25.603,80.144-25.603l19.348,46.052c0,0-54.023-1.047-70.015,14.735
			s-112.457,103.68-127.453,113.274c-14.996,9.594-91.571,39.044-91.571,39.044L104.727,337.594z"/>
        <path style="clip-path:url(#SVGID_4_);fill:#DF4C90;" d="M182.385,398.506c0,0,49.621-15.501,67.352-33.948
			s51.92-76.685,89.188-91.886s79.263-16.681,79.263-16.681l-8.185,46.328c0,0-39.863,2.871-52.842,11.12
			c-12.979,8.25-82.905,58.374-91.99,67.643c-9.086,9.27-49.691,26.092-49.691,26.092L182.385,398.506z"/>
	</g>
</g>
</svg>
