<?xml version="1.0" encoding="UTF-8"?>
<svg width="249px" height="246px" viewBox="0 0 249 246" version="1.1" xmlns="http://www.w3.org/2000/svg" xmlns:xlink="http://www.w3.org/1999/xlink">
    <title>章鱼</title>
    <g id="页面-1" stroke="none" stroke-width="1" fill="none" fill-rule="evenodd">
        <g id="美食插画库" transform="translate(-801.000000, -100.000000)">
            <g id="编组-7" transform="translate(82.577278, 100.000000)">
                <g id="章鱼" transform="translate(720.000000, 0.000000)">
                    <g transform="translate(0.422722, 0.000000)" id="编组-4">
                        <g transform="translate(123.124252, 123.000047) rotate(-30.000000) translate(-123.124252, -123.000047) translate(33.124252, 34.000047)">
                            <g id="编组-3" transform="translate(0.000000, 12.828605)">
                                <path d="M33.9308398,51.5319229 C33.9308398,51.5319229 18.9243409,33.4398493 28.2781227,23.2404791 C28.3945944,23.1133872 28.6021744,23.2498191 28.5300888,23.4069327 C27.6363601,25.3616785 25.9370074,30.162481 29.627059,32.2700039 C29.627059,32.2700039 31.6377817,34.6150318 36.3296904,33.6099722 C41.0219328,32.6049126 44.3735823,27.9151904 45.7141753,22.5549837 C46.1747226,20.7126524 46.0812782,18.8699876 45.7598963,17.2454803 C45.1962265,14.3947537 43.6934407,11.0696843 41.7534688,8.90512013 C37.9696391,4.68306922 31.1361856,-1.753582 18.2318514,0.445673881 C-4.57925507,4.33314969 -11.5965938,47.6798059 30.6322534,66.1044532 L33.9308398,51.5319229 Z" id="Fill-33" fill="#FF729B"></path>
                                <path d="M33.9308398,51.5319229 C33.9308398,51.5319229 18.9243409,33.4398493 28.2781227,23.2404791 C28.3945944,23.1133872 28.6021744,23.2498191 28.5300888,23.4069327 C27.6363601,25.3616785 25.9370074,30.162481 29.627059,32.2700039 C29.627059,32.2700039 31.6377817,34.6150318 36.3296904,33.6099722 C41.0219328,32.6049126 44.3735823,27.9151904 45.7141753,22.5549837 C46.1747226,20.7126524 46.0812782,18.8699876 45.7598963,17.2454803 C45.1962265,14.3947537 43.6934407,11.0696843 41.7534688,8.90512013 C37.9696391,4.68306922 31.1361856,-1.753582 18.2318514,0.445673881 C-4.57925507,4.33314969 -11.5965938,47.6798059 30.6322534,66.1044532 L33.9308398,51.5319229 Z" id="Stroke-35" stroke="#151C23" stroke-width="1.08433735"></path>
                                <path d="M9.35540349,49.5801792 C9.83730948,50.045849 10.6315866,49.5925214 10.4864141,48.9383821 C9.1635088,42.984413 6.56074927,19.2429237 14.0152742,23.0546781 C16.6851134,24.4203316 10.5998823,35.8549278 18.3304018,38.4381278 C21.3336372,39.4415195 18.4235125,27.9422099 25.8740326,22.7291095 C27.5593686,21.5502577 30.6056552,20.9404837 29.9595541,22.8922274 C27.6344578,29.9149688 33.8488424,34.9109123 38.5714543,31.828685 C52.3708521,22.8221768 42.9796926,-1.12145855 20.9381673,0.915013033 C-3.98144469,3.21700982 -2.76833648,37.8683827 9.35540349,49.5801792" id="Fill-169" fill="#C21744"></path>
                                <path d="M17.0848617,8.11403 C17.0848617,9.49135861 16.0986898,10.0140697 14.720719,10.0140697 C13.3427482,10.0140697 12.0945984,9.49135861 12.0945984,8.11403 C12.0945984,6.73670139 13.3427482,4.81297795 14.720719,4.81297795 C16.0986898,4.81297795 17.0848617,6.73670139 17.0848617,8.11403" id="Fill-233" fill="#FFD4DA"></path>
                                <path d="M34.4500234,15.8531742 C34.4500234,17.3279066 33.394102,17.8879779 31.9183484,17.8879779 C30.4425947,17.8879779 29.1063402,17.3279066 29.1063402,15.8531742 C29.1063402,14.3781083 30.4425947,12.3182865 31.9183484,12.3182865 C33.394102,12.3182865 34.4500234,14.3781083 34.4500234,15.8531742" id="Fill-235" fill="#ED779B"></path>
                                <path d="M25.6873107,44.8741452 C25.6873107,46.3488775 24.6310556,46.9089489 23.1556356,46.9089489 C21.679882,46.9089489 20.3432937,46.3488775 20.3432937,44.8741452 C20.3432937,43.3990793 21.679882,41.3392575 23.1556356,41.3392575 C24.6310556,41.3392575 25.6873107,43.3990793 25.6873107,44.8741452" id="Fill-237" fill="#F65089"></path>
                            </g>
                            <g id="编组-3备份" transform="translate(141.330072, 153.737250) scale(1, -1) rotate(-270.000000) translate(-141.330072, -153.737250) translate(117.830072, 120.237250)">
                                <path d="M33.9308398,51.5319229 C33.9308398,51.5319229 18.9243409,33.4398493 28.2781227,23.2404791 C28.3945944,23.1133872 28.6021744,23.2498191 28.5300888,23.4069327 C27.6363601,25.3616785 25.9370074,30.162481 29.627059,32.2700039 C29.627059,32.2700039 31.6377817,34.6150318 36.3296904,33.6099722 C41.0219328,32.6049126 44.3735823,27.9151904 45.7141753,22.5549837 C46.1747226,20.7126524 46.0812782,18.8699876 45.7598963,17.2454803 C45.1962265,14.3947537 43.6934407,11.0696843 41.7534688,8.90512013 C37.9696391,4.68306922 31.1361856,-1.753582 18.2318514,0.445673881 C-4.57925507,4.33314969 -11.5965938,47.6798059 30.6322534,66.1044532 L33.9308398,51.5319229 Z" id="Fill-33" fill="#FF729B"></path>
                                <path d="M33.9308398,51.5319229 C33.9308398,51.5319229 18.9243409,33.4398493 28.2781227,23.2404791 C28.3945944,23.1133872 28.6021744,23.2498191 28.5300888,23.4069327 C27.6363601,25.3616785 25.9370074,30.162481 29.627059,32.2700039 C29.627059,32.2700039 31.6377817,34.6150318 36.3296904,33.6099722 C41.0219328,32.6049126 44.3735823,27.9151904 45.7141753,22.5549837 C46.1747226,20.7126524 46.0812782,18.8699876 45.7598963,17.2454803 C45.1962265,14.3947537 43.6934407,11.0696843 41.7534688,8.90512013 C37.9696391,4.68306922 31.1361856,-1.753582 18.2318514,0.445673881 C-4.57925507,4.33314969 -11.5965938,47.6798059 30.6322534,66.1044532 L33.9308398,51.5319229 Z" id="Stroke-35" stroke="#151C23" stroke-width="1.08433735"></path>
                                <path d="M9.35540349,49.5801792 C9.83730948,50.045849 10.6315866,49.5925214 10.4864141,48.9383821 C9.1635088,42.984413 6.56074927,19.2429237 14.0152742,23.0546781 C16.6851134,24.4203316 10.5998823,35.8549278 18.3304018,38.4381278 C21.3336372,39.4415195 18.4235125,27.9422099 25.8740326,22.7291095 C27.5593686,21.5502577 30.6056552,20.9404837 29.9595541,22.8922274 C27.6344578,29.9149688 33.8488424,34.9109123 38.5714543,31.828685 C52.3708521,22.8221768 42.9796926,-1.12145855 20.9381673,0.915013033 C-3.98144469,3.21700982 -2.76833648,37.8683827 9.35540349,49.5801792" id="Fill-169" fill="#C21744"></path>
                                <path d="M13.3869958,23.3958855 C13.3869958,24.7732141 12.400824,25.2959252 11.0228532,25.2959252 C9.64488241,25.2959252 8.39673257,24.7732141 8.39673257,23.3958855 C8.39673257,22.0185569 9.64488241,20.0948335 11.0228532,20.0948335 C12.400824,20.0948335 13.3869958,22.0185569 13.3869958,23.3958855" id="Fill-233" fill="#FFD4DA"></path>
                                <path d="M20.1718144,8.03249533 C19.8647828,8.94849057 18.7744872,9.56893892 17.6544897,9.19366774 C16.5341584,8.81839656 15.7275332,7.03477436 16.0348985,6.11844554 C16.3415962,5.2024503 17.6958722,5.52835247 18.8162035,5.90329007 C19.9365348,6.27856124 20.4788459,7.11616651 20.1718144,8.03249533" id="Fill-77" fill="#51AD15"></path>
                                <path d="M34.4500234,15.8531742 C34.4500234,17.3279066 33.394102,17.8879779 31.9183484,17.8879779 C30.4425947,17.8879779 29.1063402,17.3279066 29.1063402,15.8531742 C29.1063402,14.3781083 30.4425947,12.3182865 31.9183484,12.3182865 C33.394102,12.3182865 34.4500234,14.3781083 34.4500234,15.8531742" id="Fill-235" fill="#ED779B"></path>
                                <path d="M25.6873107,44.8741452 C25.6873107,46.3488775 24.6310556,46.9089489 23.1556356,46.9089489 C21.679882,46.9089489 20.3432937,46.3488775 20.3432937,44.8741452 C20.3432937,43.3990793 21.679882,41.3392575 23.1556356,41.3392575 C24.6310556,41.3392575 25.6873107,43.3990793 25.6873107,44.8741452" id="Fill-237" fill="#F65089"></path>
                            </g>
                            <path d="M164.785234,85.0092487 C164.785234,121.64172 134.774906,151.337845 97.7552491,151.337845 C60.7359257,151.337845 30.7255977,121.64172 30.7255977,85.0092487 C30.7255977,48.3771111 60.7359257,18.680652 97.7552491,18.680652 C134.774906,18.680652 164.785234,48.3771111 164.785234,85.0092487" id="Fill-1" fill="#FF729B"></path>
                            <path d="M164.785234,85.0092487 C164.785234,121.64172 134.774906,151.337845 97.7552491,151.337845 C60.7359257,151.337845 30.7255977,121.64172 30.7255977,85.0092487 C30.7255977,48.3771111 60.7359257,18.680652 97.7552491,18.680652 C134.774906,18.680652 164.785234,48.3771111 164.785234,85.0092487 Z" id="Stroke-3" stroke="#151C23" stroke-width="1.08433735"></path>
                            <path d="M129.438865,139.58612 C129.438865,139.58612 115.990551,139.997084 100.194114,138.09671 C86.2672312,136.421166 102.150439,120.232135 89.2454368,119.292456 C67.6090597,117.716984 51.2065686,47.0542552 45.1403601,67.4576656 C38.7270725,89.0299207 51.7652324,102.953982 56.2355445,117.244309 C58.7952529,125.426221 42.4521657,86.7949724 35.0009781,89.4812469 C29.087618,91.6137879 40.5892854,133.907683 72.5419214,145.893344 C107.819175,159.125906 129.438865,139.58612 129.438865,139.58612" id="Fill-5" fill="#F23072"></path>
                            <path d="M148.033862,115.50672 C148.033862,115.50672 126.935457,135.513177 109.985315,126.017982 C93.0348398,116.522787 101.544619,136.03889 105.862416,138.678131 C112.587741,142.789768 85.8646528,146.497781 72.4063269,118.198332 C58.9480011,89.898882 45.4389482,89.3668309 46.5496014,110.16953 C47.8111004,133.791266 73.8346909,153.020161 104.762442,150.131407 C135.690194,147.242653 162.106251,118.340101 148.033862,115.50672" id="Fill-7" fill="#C21744"></path>
                            <path d="M82.9154816,49.4036195 C82.9154816,49.4036195 70.1800147,48.7835048 62.4715214,63.5231558 C54.7633618,78.2628069 71.2115739,96.0976947 90.6373242,81.1502268 C110.063074,66.2030924 88.9479834,42.3188333 82.9154816,49.4036195" id="Fill-9" fill="#FFEAEE"></path>
                            <path d="M82.9154816,49.4036195 C82.9154816,49.4036195 70.1800147,48.7835048 62.4715214,63.5231558 C54.7633618,78.2628069 71.2115739,96.0976947 90.6373242,81.1502268 C110.063074,66.2030924 88.9479834,42.3188333 82.9154816,49.4036195 Z" id="Stroke-11" stroke="#151C23" stroke-width="1.08433735"></path>
                            <path d="M117.246644,88.304263 C117.246644,88.304263 104.365003,90.6576303 103.359809,102.382436 C102.354281,114.107242 113.749488,121.141992 124.474233,120.136932 C135.198977,119.131873 140.162875,110.724464 140.865043,106.051087 C141.566877,101.377377 141.523492,77.9110861 117.246644,88.304263" id="Fill-13" fill="#FFEAEE"></path>
                            <path d="M117.246644,88.304263 C117.246644,88.304263 104.365003,90.6576303 103.359809,102.382436 C102.354281,114.107242 113.749488,121.141992 124.474233,120.136932 C135.198977,119.131873 140.162875,110.724464 140.865043,106.051087 C141.566877,101.377377 141.523492,77.9110861 117.246644,88.304263 Z" id="Stroke-15" stroke="#151C23" stroke-width="1.08433735"></path>
                            <path d="M120.452587,99.8699205 C120.452587,102.737659 118.12649,105.062339 115.257747,105.062339 C112.388671,105.062339 110.062908,102.737659 110.062908,99.8699205 C110.062908,97.0021816 112.388671,94.6775018 115.257747,94.6775018 C118.12649,94.6775018 120.452587,97.0021816 120.452587,99.8699205" id="Fill-17" fill="#441407"></path>
                            <path d="M83.5858783,74.4104565 C83.5858783,76.9082614 81.5604715,78.9330579 79.0615019,78.9330579 C76.5625324,78.9330579 74.5371256,76.9082614 74.5371256,74.4104565 C74.5371256,71.9129851 76.5625324,69.8881886 79.0615019,69.8881886 C81.5604715,69.8881886 83.5858783,71.9129851 83.5858783,74.4104565" id="Fill-19" fill="#441407"></path>
                            <path d="M97.997537,102.104135 C97.997537,108.301947 92.7456295,113.326578 86.2672646,113.326578 C79.7885659,113.326578 74.5369921,108.301947 74.5369921,102.104135 C74.5369921,95.906323 79.7885659,90.8816922 86.2672646,90.8816922 C92.7456295,90.8816922 97.997537,95.906323 97.997537,102.104135" id="Fill-21" fill="#E5223F"></path>
                            <path d="M97.997537,102.104135 C97.997537,108.301947 92.7456295,113.326578 86.2672646,113.326578 C79.7885659,113.326578 74.5369921,108.301947 74.5369921,102.104135 C74.5369921,95.906323 79.7885659,90.8816922 86.2672646,90.8816922 C92.7456295,90.8816922 97.997537,95.906323 97.997537,102.104135 Z" id="Stroke-23" stroke="#151C23" stroke-width="1.08433735"></path>
                            <path d="M91.5240111,102.5167 C90.9760266,104.858726 88.7787489,106.347468 86.6161792,105.842103 C84.4532757,105.337071 83.1440532,103.028736 83.6913703,100.686711 C84.2393548,98.344685 86.4366325,96.855609 88.599536,97.3609742 C90.7624395,97.8663394 92.0719956,100.174674 91.5240111,102.5167" id="Fill-25" fill="#9F0A20"></path>
                            <path d="M91.5240111,102.5167 C90.9760266,104.858726 88.7787489,106.347468 86.6161792,105.842103 C84.4532757,105.337071 83.1440532,103.028736 83.6913703,100.686711 C84.2393548,98.344685 86.4366325,96.855609 88.599536,97.3609742 C90.7624395,97.8663394 92.0719956,100.174674 91.5240111,102.5167 Z" id="Stroke-27" stroke="#151C23" stroke-width="1.08433735"></path>
                            <path d="M49.7357541,38.3987339 C49.7357541,38.3987339 45.0435117,33.7086781 47.3899666,29.018956 C48.973515,25.8533351 53.1528146,22.6873807 56.4240352,21.9945467 C59.469988,21.3490803 62.226597,19.7479232 64.1231841,17.2798064 C67.4267764,12.9817005 72.0312479,8.01978166 74.9430413,9.22031585 C74.9430413,9.22031585 66.066827,14.6762584 69.6313961,24.6948313 C69.6313961,24.6948313 64.2733625,27.2570161 59.1199053,30.6938329 C55.1288294,33.3557565 51.3449997,36.7902383 49.7357541,38.3987339" id="Fill-29" fill="#FFE6A5"></path>
                            <path d="M49.7357541,38.3987339 C49.7357541,38.3987339 45.0435117,33.7086781 47.3899666,29.018956 C48.973515,25.8533351 53.1528146,22.6873807 56.4240352,21.9945467 C59.469988,21.3490803 62.226597,19.7479232 64.1231841,17.2798064 C67.4267764,12.9817005 72.0312479,8.01978166 74.9430413,9.22031585 C74.9430413,9.22031585 66.066827,14.6762584 69.6313961,24.6948313 C69.6313961,24.6948313 64.2733625,27.2570161 59.1199053,30.6938329 C55.1288294,33.3557565 51.3449997,36.7902383 49.7357541,38.3987339 Z" id="Stroke-31" stroke="#151C23" stroke-width="1.08433735"></path>
                            <path d="M85.9245907,93.2634132 C84.930743,93.78012 83.9976342,94.3048325 83.1272666,94.8895883 C82.2575665,95.4706749 81.4646242,96.1211449 80.8051739,96.8663501 C80.1397165,97.607886 79.6311121,98.4585006 79.2900402,99.408854 C78.9446297,100.360542 78.7981223,101.407632 78.6980033,102.527774 C78.2494703,101.500699 78.0839403,100.32118 78.2718302,99.1543368 C78.4597202,97.989495 79.0100408,96.8606793 79.8056529,95.982378 C80.5939229,95.0937359 81.5807622,94.4249192 82.6283404,93.9709245 C83.677921,93.5226005 84.7942475,93.2443995 85.9245907,93.2634132" id="Fill-167" fill="#FFD4D8"></path>
                            <path d="M49.1576005,57.2109946 C49.1576005,58.6857269 48.101679,59.2457983 46.6259254,59.2457983 C45.1501718,59.2457983 43.8135835,58.6857269 43.8135835,57.2109946 C43.8135835,55.7359287 45.1501718,53.6761069 46.6259254,53.6761069 C48.101679,53.6761069 49.1576005,55.7359287 49.1576005,57.2109946" id="Fill-171" fill="#FFEEF1"></path>
                            <path d="M65.5875909,81.6440169 C62.8710295,78.7986275 62.0370384,74.5952567 63.5468325,70.9632989 C63.8455208,70.2437789 64.2343161,69.5722937 64.8974374,69.3027656 C67.7221274,68.1549362 66.1939781,79.1802365 70.547151,80.473838 C71.6961831,80.8150846 68.1900167,76.5800243 70.6712985,75.7260738 C72.1647398,75.2123693 74.4154143,82.265466 82.2170183,82.4432611 C83.534584,82.4732828 83.8603044,84.2832574 82.6238351,84.7379193 C77.6105444,86.5815849 70.8958988,87.2047018 65.5875909,81.6440169" id="Fill-173" fill="#FFD1DF"></path>
                            <path d="M79.0681432,54.3187713 C77.6487899,54.6323312 76.2885068,55.187399 75.068724,55.9326041 C74.4516574,56.2928645 73.8736372,56.710166 73.3243178,57.1534864 L72.5240335,57.8436518 L71.7948336,58.6042013 C71.5432013,58.8470435 71.3563125,59.1515969 71.1410567,59.4251279 L70.8306879,59.845098 C70.7319039,59.9882014 70.6511412,60.145315 70.5610342,60.2940891 C70.3814875,60.5926382 70.1935975,60.8828479 69.9980318,61.168054 C69.8315006,61.472941 69.6486166,61.7681543 69.4617279,62.0627005 L69.1683793,62.4996829 L68.9107398,62.9603492 C68.7345304,63.266904 68.5553174,63.5744596 68.3550795,63.8776787 C67.9976548,64.5024635 67.6709332,65.1519328 67.2133895,65.7863913 L67.0515305,65.7443609 C67.0391825,65.3607504 67.0685507,64.9814763 67.096584,64.5981994 C67.1433062,64.2202596 67.1576566,63.827309 67.258443,63.4600436 C67.3472152,63.0881081 67.4560111,62.719842 67.5684781,62.3509088 C67.6255459,62.1667757 67.6842824,61.9829762 67.7476911,61.800511 L67.9909802,61.2751314 C68.1608487,60.9278805 68.3360569,60.5816303 68.5269504,60.2450537 C68.7482133,59.925823 68.9881651,59.618601 69.2301193,59.3157155 C69.3559355,59.167942 69.4717398,59.01283 69.6055654,58.8723951 L70.0203917,58.4624322 L70.4305458,58.0531365 L70.6327861,57.8469875 C70.7038706,57.7819405 70.7796273,57.7215635 70.8527141,57.6588516 C71.9773839,56.6034222 73.3059626,55.7928365 74.6922767,55.1883997 C76.08927,54.6056453 77.5566804,54.2073575 79.054794,54.1526513 L79.0681432,54.3187713 Z" id="Fill-175" fill="#FFFFFF"></path>
                            <path d="M74.6198239,73.5455648 C74.6198239,73.5455648 75.4367947,70.5287182 76.337198,71.9093825 C77.0620593,73.0215195 75.3470214,75.3575409 77.0200094,75.4159164 C78.354929,75.4622832 80.6406451,76.0617164 80.7918248,77.0757825 C81.0037432,78.4961422 77.7498767,79.2687005 76.1199398,77.8466729 C74.490003,76.4243117 74.4239244,74.4989204 74.6198239,73.5455648" id="Fill-177" fill="#190502"></path>
                            <path d="M82.084394,76.3778448 C82.084394,77.7081394 81.0054453,78.7865854 79.6741967,78.7865854 C78.3432818,78.7865854 77.2646668,77.7081394 77.2646668,76.3778448 C77.2646668,75.0475502 78.3432818,73.9687707 79.6741967,73.9687707 C81.0054453,73.9687707 82.084394,75.0475502 82.084394,76.3778448" id="Fill-179" fill="#FFEDEA"></path>
                            <path d="M107.13663,112.503717 C106.893675,112.200831 107.218728,111.773856 107.575485,111.926966 C115.812273,115.450513 112.757977,112.1111 114.909867,110.216063 C116.865524,108.494153 119.049119,111.68279 123.50141,113.660553 C125.387651,114.498158 122.617693,111.293509 124.549322,109.517892 C126.423215,107.795648 133.761268,115.755733 139.335225,106.254534 C139.562829,105.866921 140.128835,106.122772 140.011696,106.556753 C139.124975,109.828116 136.302622,114.574546 131.4879,117.244476 C124.996186,120.843743 113.565269,120.524179 107.13663,112.503717" id="Fill-181" fill="#FFD1DF"></path>
                            <path d="M110.606253,102.164212 C110.156385,101.319268 110.123012,100.314875 110.483774,99.4282347 C110.793476,98.6666844 111.068135,98.0792599 111.894784,98.4038278 C113.016451,98.8438124 111.619791,102.171217 113.274758,101.919368 C114.595327,101.718556 116.952461,101.884676 117.288527,102.853376 C117.759754,104.210023 114.704456,105.570673 112.839574,104.474548 C111.775643,103.849096 111.039435,102.9778 110.606253,102.164212" id="Fill-183" fill="#190502"></path>
                            <path d="M118.281707,102.465863 C118.281707,103.796158 117.203092,104.874604 115.871844,104.874604 C114.540929,104.874604 113.46198,103.796158 113.46198,102.465863 C113.46198,101.135568 114.540929,100.056789 115.871844,100.056789 C117.203092,100.056789 118.281707,101.135568 118.281707,102.465863" id="Fill-185" fill="#FFEDEA"></path>
                            <path d="M63.796062,49.7673157 C63.796062,53.0063229 61.4769729,54.2358781 58.2364555,54.2358781 C54.9959382,54.2358781 52.0614511,53.0063229 52.0614511,49.7673157 C52.0614511,46.5283085 54.9959382,42.0053735 58.2364555,42.0053735 C61.4769729,42.0053735 63.796062,46.5283085 63.796062,49.7673157" id="Fill-187" fill="#FFD4DA"></path>
                            <line x1="58.2318501" y1="43.9577843" x2="55.3447527" y2="49.822689" id="Stroke-189" stroke="#C21744" stroke-width="1.49898795" stroke-linecap="round"></line>
                            <line x1="60.2224822" y1="46.3450761" x2="57.9287566" y2="52.4601616" id="Stroke-191" stroke="#C21744" stroke-width="1.49898795" stroke-linecap="round"></line>
                            <path d="M157.987089,116.722432 C158.29312,115.688018 158.854787,114.750674 159.626371,113.996795 C172.858428,101.069788 180.653691,83.2475757 179.729593,63.9369549 C177.953148,26.7921135 144.588167,-1.7938765 105.207371,0.0878165726 C93.6973604,0.637880723 82.9475864,3.72978164 73.5414091,8.75774825 C70.6810101,10.2868532 68.3726003,12.6989295 67.0924124,15.6777487 C65.060331,20.4064991 64.1696059,27.3611914 73.9525643,30.7222868 C75.6739432,31.3137142 76.7295309,33.0356251 76.4778985,34.8375939 C75.8685077,39.2047497 76.0594012,47.0450819 83.6147125,52.2314963 C85.1348522,53.2745834 85.6828367,55.2610188 84.9055798,56.9322265 C83.2092307,60.5798623 81.4070892,67.3033875 85.3267469,75.4913042 C90.2976539,85.8744739 103.90182,86.7614482 110.843402,83.1528405 C112.626521,82.2261709 114.805777,82.8889832 115.832664,84.6155642 C118.194137,88.5861 123.476414,93.8402301 134.681061,92.750109 C136.792904,92.5446272 138.666464,94.0827386 138.844008,96.1959323 C139.067273,98.853853 140.130871,102.321692 143.61668,105.159743 C145.221253,106.465687 145.43484,108.812716 144.159992,110.441893 C142.322809,112.790257 140.600429,116.358502 142.00443,120.628921 C142.433273,121.933531 143.191508,123.122056 144.285808,123.952323 C145.761228,125.071798 148.214476,125.935422 151.718974,124.032714 C155.926307,121.748397 157.444778,118.555089 157.987089,116.722432" id="Fill-197" fill="#FFE6A5"></path>
                            <path d="M157.987089,116.722432 C158.29312,115.688018 158.854787,114.750674 159.626371,113.996795 C172.858428,101.069788 180.653691,83.2475757 179.729593,63.9369549 C177.953148,26.7921135 144.588167,-1.7938765 105.207371,0.0878165726 C93.6973604,0.637880723 82.9475864,3.72978164 73.5414091,8.75774825 C70.6810101,10.2868532 68.3726003,12.6989295 67.0924124,15.6777487 C65.060331,20.4064991 64.1696059,27.3611914 73.9525643,30.7222868 C75.6739432,31.3137142 76.7295309,33.0356251 76.4778985,34.8375939 C75.8685077,39.2047497 76.0594012,47.0450819 83.6147125,52.2314963 C85.1348522,53.2745834 85.6828367,55.2610188 84.9055798,56.9322265 C83.2092307,60.5798623 81.4070892,67.3033875 85.3267469,75.4913042 C90.2976539,85.8744739 103.90182,86.7614482 110.843402,83.1528405 C112.626521,82.2261709 114.805777,82.8889832 115.832664,84.6155642 C118.194137,88.5861 123.476414,93.8402301 134.681061,92.750109 C136.792904,92.5446272 138.666464,94.0827386 138.844008,96.1959323 C139.067273,98.853853 140.130871,102.321692 143.61668,105.159743 C145.221253,106.465687 145.43484,108.812716 144.159992,110.441893 C142.322809,112.790257 140.600429,116.358502 142.00443,120.628921 C142.433273,121.933531 143.191508,123.122056 144.285808,123.952323 C145.761228,125.071798 148.214476,125.935422 151.718974,124.032714 C155.926307,121.748397 157.444778,118.555089 157.987089,116.722432 Z" id="Stroke-199" stroke="#151C23" stroke-width="1.08433735"></path>
                            <path d="M154.191913,118.786757 C154.191913,118.786757 170.379482,91.4826931 151.792395,68.2298903 C134.430764,46.5101954 118.168773,43.6030947 117.354806,52.3687622 C116.541506,61.1344297 138.721196,65.3134495 135.035816,75.0748366 C134.313291,76.9882192 126.316455,74.0774492 123.894243,80.7309238 C121.6696,86.8416728 162.913944,104.486757 154.191913,118.786757" id="Fill-201" fill="#FFB229"></path>
                            <path d="M173.314236,93.4665267 C178.342544,81.8641426 186.199214,47.1810802 163.71049,34.1750151 C155.512749,29.4342561 156.437848,37.6148341 159.08466,47.5476784 C161.169805,55.3723326 164.323886,64.2844393 164.928271,68.8243866 C166.492463,80.5695405 139.324179,65.6117317 154.422787,82.594337 C164.35559,93.7667436 148.49808,106.738117 144.245694,112.427895 C139.598838,118.647056 145.466478,127.835362 151.17693,122.706656 C155.354227,118.955279 169.712956,101.776865 173.314236,93.4665267" id="Fill-203" fill="#FFB229"></path>
                            <path d="M101.047695,69.8671401 C99.9123457,71.1160426 97.5775713,71.7645112 96.3280865,70.6296911 C95.0786017,69.4948711 93.9389141,65.4999843 95.074597,64.2510819 C96.2099461,63.0018458 100.93723,63.5969425 102.186715,64.7317625 C103.4362,65.8669161 102.183044,68.6182376 101.047695,69.8671401" id="Fill-205" fill="#EAC896"></path>
                            <path d="M112.186264,40.2461022 C109.309512,43.4103887 103.393816,45.0535761 100.228054,42.178165 C97.0622923,39.3024203 94.1745274,29.1807729 97.0516129,26.0164863 C99.9286984,22.8518662 111.906265,24.3596224 115.072027,27.2350335 C118.238122,30.1107783 115.06335,37.0818156 112.186264,40.2461022" id="Fill-207" fill="#FFC552"></path>
                            <line x1="98.596215" y1="29.6696261" x2="109.677049" y2="31.6003546" id="Stroke-209" stroke="#C2863E" stroke-width="2.24848193" stroke-linecap="round"></line>
                            <line x1="101.486383" y1="34.9802637" x2="110.408652" y2="36.3322406" id="Stroke-211" stroke="#C2863E" stroke-width="2.24848193" stroke-linecap="round"></line>
                            <path d="M103.169049,74.6391217 C101.883188,76.0534771 99.2393793,76.7880079 97.8243645,75.5027458 C96.4093497,74.2174837 95.1188162,69.693548 96.4046775,68.2795262 C97.6905388,66.8651708 103.0439,67.5386575 104.458581,68.8239196 C105.873596,70.1091817 104.45491,73.2247664 103.169049,74.6391217" id="Fill-213" fill="#51AD15"></path>
                            <path d="M98.5607062,40.0776805 C96.8313178,41.5527464 95.7163262,43.622909 95.3041698,45.8575237 C94.1027421,52.3769014 91.264703,70.5336884 96.7592322,71.3576171 C103.462197,72.3626767 110.164829,44.2230093 105.137855,39.8681958 C102.624202,37.6909558 100.27808,38.6119547 98.5607062,40.0776805" id="Fill-215" fill="#3E1F0B"></path>
                            <path d="M98.5607062,40.0776805 C96.8313178,41.5527464 95.7163262,43.622909 95.3041698,45.8575237 C94.1027421,52.3769014 91.264703,70.5336884 96.7592322,71.3576171 C103.462197,72.3626767 110.164829,44.2230093 105.137855,39.8681958 C102.624202,37.6909558 100.27808,38.6119547 98.5607062,40.0776805 Z" id="Stroke-217" stroke="#151C23" stroke-width="1.08433735"></path>
                            <path d="M150.899567,88.9336512 C149.653753,87.2300868 147.820575,86.0599079 145.790496,85.5335275 C139.868125,83.9984182 123.340819,80.196671 122.227162,85.2576615 C120.868548,91.4324568 146.333141,99.4692643 150.666957,95.0687511 C152.833532,92.868161 152.137371,90.625874 150.899567,88.9336512" id="Fill-219" fill="#3E1F0B"></path>
                            <path d="M150.899567,88.9336512 C149.653753,87.2300868 147.820575,86.0599079 145.790496,85.5335275 C139.868125,83.9984182 123.340819,80.196671 122.227162,85.2576615 C120.868548,91.4324568 146.333141,99.4692643 150.666957,95.0687511 C152.833532,92.868161 152.137371,90.625874 150.899567,88.9336512 Z" id="Stroke-221" stroke="#151C23" stroke-width="1.08433735"></path>
                            <path d="M95.3635403,50.6673661 C95.456651,50.4345312 98.8980737,46.004997 103.392748,46.4646625 C105.061398,46.6354526 102.135254,44.7580959 101.622978,43.5789105 C100.955185,42.0421334 105.274317,43.6369525 105.353411,42.0701536 C105.40881,40.9650217 102.556421,37.8294225 98.9404574,40.8329262 C95.7089508,43.5168657 95.3635403,50.6673661 95.3635403,50.6673661" id="Fill-223" fill="#8E644D"></path>
                            <path d="M138.182322,84.7403544 C138.313144,84.7623703 139.983796,87.5937496 142.233803,88.6038128 C144.282571,89.5234774 143.537686,91.3964975 143.910128,93.0099968 C144.377684,95.035794 145.797705,91.954901 147.019156,91.5516096 C148.28733,91.1326402 147.736008,95.1308627 149.285182,94.8753447 C150.377146,94.6955481 152.99192,91.9125371 149.113979,88.138143 C146.890336,85.9739124 138.182322,84.7403544 138.182322,84.7403544" id="Fill-225" fill="#8E644D"></path>
                            <path d="M133.453069,14.3686695 C132.414835,14.075124 131.352239,13.8266111 130.294983,13.5941097 C129.237059,13.3569384 128.17513,13.1441179 127.111199,12.9489769 C124.984005,12.5573606 122.849469,12.2384635 120.711261,12.0109657 C118.576725,11.7651214 116.436848,11.6190158 114.305649,11.5669782 C112.176786,11.496594 110.051928,11.5066013 107.947761,11.6553755 C105.843594,11.8008139 103.766793,12.1463969 101.739383,12.586048 L95.7292416,13.9523686 C93.736874,14.4307143 91.7715386,15.007798 89.7808397,15.6642723 C87.796148,16.3410948 85.8471653,17.1670249 83.7353225,18.0032959 L83.727313,18.0066316 C83.602498,18.0560006 83.4613303,17.9949565 83.4119382,17.8701997 C83.3812351,17.793144 83.3935831,17.7087497 83.4366342,17.6443699 C84.7181571,15.7533367 86.3734574,14.1138186 88.2373389,12.7468308 C90.1175732,11.4125333 92.1820264,10.3080685 94.3489347,9.49081131 C96.5198477,8.69123352 98.7925483,8.20421493 101.07426,8.01074179 C103.360643,7.85362826 105.631008,7.86897268 107.87968,7.92000956 C110.129687,7.97871865 112.360671,8.18453404 114.56963,8.47240873 C116.776585,8.78897082 118.959513,9.20093517 121.113072,9.71063683 C123.263627,10.2366836 125.389487,10.8301124 127.477301,11.5319529 C128.520541,11.8852082 129.556772,12.2528072 130.582324,12.6470921 C131.606207,13.0517178 132.61841,13.4666843 133.620601,13.9326877 C133.738074,13.9873939 133.788467,14.1264945 133.734069,14.2435791 C133.684677,14.3493221 133.566871,14.4010262 133.458075,14.3703373 L133.453069,14.3686695 Z" id="Fill-227" fill="#FFF6E7"></path>
                            <path d="M146.372721,77.8738926 C145.687907,78.6267699 144.280235,79.0180527 143.52734,78.3335581 C142.774112,77.649397 142.086962,75.24099 142.771442,74.4881126 C143.455922,73.7352352 146.305975,74.0938277 147.059537,74.7779887 C147.812432,75.4624834 147.057201,77.1210152 146.372721,77.8738926" id="Fill-229" fill="#51AD15"></path>
                            <path d="M85.7723765,30.456328 C84.4865152,31.8706833 81.8430406,32.6048805 80.4276921,31.319952 C79.0126773,30.0346899 77.7224774,25.5107542 79.008005,24.0963988 C80.2938664,22.6820435 85.6472278,23.3558637 87.0622426,24.6411258 C88.4769236,25.9263879 87.0585715,29.0419726 85.7723765,30.456328" id="Fill-231" fill="#FFA086"></path>
                            <path d="M132.44991,30.0352904 C130.679807,31.9820304 127.040482,32.9930944 125.092501,31.2238159 C123.144853,29.4545374 121.368409,23.2273709 123.138512,21.2802972 C124.908282,19.3335572 132.277372,20.2608939 134.225353,22.0301724 C136.173001,23.7994509 134.220013,28.0885503 132.44991,30.0352904" id="Fill-239" fill="#51AD15"></path>
                            <path d="M167.492551,59.27125 C166.20669,60.6856054 163.562882,61.4198026 162.147867,60.1348741 C160.732852,58.849612 159.442318,54.3256763 160.72818,52.9116545 C162.014041,51.4972991 167.367403,52.1707858 168.782084,53.4560479 C170.197098,54.74131 168.778413,57.8568947 167.492551,59.27125" id="Fill-241" fill="#FFC3B3"></path>
                        </g>
                    </g>
                </g>
            </g>
        </g>
    </g>
</svg>