<?xml version="1.0" encoding="iso-8859-1"?>
<!-- Generator: Adobe Illustrator 23.0.0, SVG Export Plug-In . SVG Version: 6.00 Build 0)  -->
<svg version="1.1" id="&#x56FE;&#x5C42;_1" xmlns="http://www.w3.org/2000/svg" xmlns:xlink="http://www.w3.org/1999/xlink" x="0px"
     y="0px" viewBox="0 0 500 500" style="enable-background:new 0 0 500 500;" xml:space="preserve">
<g>
	<radialGradient id="SVGID_1_" cx="249.5" cy="249.5" r="243.5" gradientUnits="userSpaceOnUse">
		<stop  offset="0" style="stop-color:#FFCF00"/>
        <stop  offset="1" style="stop-color:#FFCF00;stop-opacity:0"/>
	</radialGradient>
    <circle style="fill:url(#SVGID_1_);" cx="249.5" cy="249.5" r="243.5"/>
    <g>
		<path style="fill:#FFCF00;" d="M249.5,453.45c-27.533,0-54.242-5.393-79.387-16.028c-24.286-10.272-46.098-24.978-64.828-43.707
			c-18.73-18.73-33.435-40.541-43.708-64.828C50.943,303.742,45.55,277.033,45.55,249.5s5.393-54.242,16.028-79.387
			c10.272-24.286,24.978-46.098,43.708-64.828c18.73-18.73,40.541-33.435,64.828-43.708C195.258,50.943,221.967,45.55,249.5,45.55
			s54.242,5.393,79.387,16.028c24.286,10.272,46.098,24.978,64.828,43.708c18.73,18.73,33.435,40.541,43.708,64.828
			c10.635,25.145,16.028,51.854,16.028,79.387s-5.393,54.242-16.028,79.387c-10.272,24.286-24.978,46.098-43.708,64.828
			c-18.73,18.73-40.541,33.435-64.828,43.707C303.742,448.057,277.033,453.45,249.5,453.45z M249.5,47.912
			c-27.215,0-53.615,5.33-78.467,15.841c-24.005,10.153-45.564,24.689-64.078,43.203c-18.514,18.514-33.049,40.073-43.203,64.078
			c-10.512,24.852-15.841,51.252-15.841,78.467s5.33,53.615,15.841,78.467c10.153,24.005,24.689,45.564,43.203,64.078
			c18.514,18.514,40.073,33.049,64.078,43.203c24.852,10.512,51.252,15.841,78.467,15.841s53.615-5.33,78.467-15.841
			c24.005-10.153,45.564-24.689,64.078-43.203c18.514-18.514,33.049-40.073,43.203-64.078
			c10.512-24.852,15.841-51.252,15.841-78.467s-5.33-53.615-15.841-78.467c-10.153-24.005-24.689-45.564-43.203-64.078
			c-18.514-18.514-40.073-33.049-64.078-43.203C303.115,53.241,276.715,47.912,249.5,47.912z"/>
	</g>
    <g style="opacity:0.99;">
		<path style="fill:#FFCF00;" d="M249.5,434.265c-24.941,0-49.139-4.886-71.92-14.522c-22.002-9.306-41.761-22.628-58.728-39.595
			c-16.967-16.967-30.289-36.726-39.595-58.729c-9.636-22.781-14.522-46.979-14.522-71.92s4.886-49.139,14.522-71.92
			c9.306-22.002,22.628-41.761,39.595-58.729c16.967-16.967,36.726-30.288,58.728-39.595c22.782-9.636,46.979-14.522,71.92-14.522
			s49.139,4.886,71.92,14.522c22.002,9.306,41.761,22.628,58.728,39.595c16.967,16.967,30.289,36.726,39.595,58.729
			c9.636,22.781,14.522,46.979,14.522,71.92s-4.886,49.139-14.522,71.92c-9.306,22.002-22.628,41.761-39.595,58.729
			c-16.967,16.967-36.726,30.288-58.728,39.595C298.639,429.379,274.441,434.265,249.5,434.265z M249.5,73.59
			c-23.75,0-46.787,4.65-68.471,13.822c-20.947,8.86-39.76,21.544-55.917,37.701s-28.841,34.97-37.701,55.917
			C78.24,202.713,73.59,225.75,73.59,249.5s4.65,46.787,13.822,68.471c8.86,20.947,21.544,39.76,37.701,55.917
			c16.157,16.157,34.97,28.841,55.917,37.701c21.684,9.172,44.721,13.822,68.471,13.822s46.787-4.65,68.471-13.822
			c20.947-8.86,39.76-21.544,55.917-37.701c16.157-16.157,28.841-34.97,37.701-55.917c9.172-21.684,13.822-44.721,13.822-68.471
			s-4.65-46.787-13.822-68.471c-8.86-20.947-21.544-39.76-37.701-55.917c-16.157-16.157-34.97-28.841-55.917-37.701
			C296.287,78.24,273.25,73.59,249.5,73.59z"/>
	</g>
    <radialGradient id="SVGID_2_" cx="249.5" cy="249.5" r="161.8723" gradientUnits="userSpaceOnUse">
		<stop  offset="0" style="stop-color:#FFD200"/>
        <stop  offset="0.7186" style="stop-color:#FDC305"/>
        <stop  offset="1" style="stop-color:#F69813"/>
	</radialGradient>
    <circle style="fill:url(#SVGID_2_);" cx="249.5" cy="249.5" r="161.872"/>
    <path style="fill:#FDF879;" d="M249.5,87.628c-24.181,0-47.12,5.311-67.725,14.817c6.073,32.771,17.898,78.867,37.625,90.199
		c31.438,18.06,113.712,31.438,117.056,65.552c2.843,28.993,21.147,74.407,41.771,89.442c20.789-27.227,33.145-61.236,33.145-98.137
		C411.372,160.1,338.9,87.628,249.5,87.628z"/>
    <path style="fill:#FFB109;" d="M249.5,283.614c-20.094-11.405-114.269-26.779-161.154-49.343
		c-0.468,5.015-0.719,10.093-0.719,15.23c0,89.4,72.472,161.872,161.872,161.872C248.162,379.934,274.249,297.66,249.5,283.614z"/>
    <path style="fill:#FFEA73;" d="M103.748,319.998c18.113,37.378,50.18,66.731,89.433,81.301c0.796-20.209,1.054-64.903-11.239-78.22
		C170.511,310.695,127.548,315.946,103.748,319.998z"/>
    <path style="opacity:0.3;fill:#E5690A;" d="M130.337,359.046c29.584,32.165,72.016,52.327,119.163,52.327
		c89.4,0,161.872-72.472,161.872-161.872c0-8.969-0.741-17.763-2.144-26.334c-24.177,39.747-33.976,80.515-101.535,114.628
		S179.918,359.506,130.337,359.046z"/>
</g>
</svg>
