<?xml version="1.0" encoding="utf-8"?>
<!-- Generator: Adobe Illustrator 23.0.0, SVG Export Plug-In . SVG Version: 6.00 Build 0)  -->
<svg version="1.1" id="图层_1" xmlns="http://www.w3.org/2000/svg" xmlns:xlink="http://www.w3.org/1999/xlink" x="0px" y="0px"
     viewBox="0 0 1024 1024" enable-background="new 0 0 1024 1024" xml:space="preserve">
<path fill="#773203" d="M602.8,345.4c-56.2-11.7-117.7-12.9-167.8,15.1c-15.1,8.4-28.7,19.2-42.2,29.9c-5.4,4.3-10.8,8.6-14.9,14.1
	c-3.9,5.3-6.5,11.5-8.5,17.8c-8.8,27.6-8.1,57.7-2.1,86.1s16.8,55.5,28.1,82.3c6.7,16,13.5,32,22.9,46.6c4.5,7.1,9.8,14,17,18.3
	c15.7,9.2,35.5,3.8,53.1-1.1c51.4-14.2,106.5-21.7,150.5-52.1c12.1-8.3,23.4-18.7,29.1-32.2c4-9.4,5.1-19.8,6.1-30
	c3.1-33.7,5.2-67.6,3.2-101.4c-0.6-11-1.8-22.2-6.8-32c-4.1-8-10.8-15.2-13.3-23.9c-1.7-6.1,0.8-12.7-3.1-17.9
	C644.8,352.4,616.8,348.3,602.8,345.4z"/>
    <path opacity="0.49" fill="#5E2803" d="M581,393.2c-0.1,0.4-0.1,0.7-0.2,1.1c-11.1,8.5-26.8,12-40.7,10.7c-8-0.8-15.6-3.2-23.4-5
	c-22.7-5.5-46.6-6.2-69.6-2c-4.7,0.8-9.8,2.1-12.8,5.8c-3.9,4.9-2.9,11.9-2.2,18c3.3,26.5-1.8,53.9-14.3,77.4
	c-0.9-16.4,2.3-33,9.3-47.8c-7.7,16.6-15.3,33.5-18.7,51.5c-3.4,18-2.2,37.4,7,53.3c2.9,5,6.6,9.7,11.7,12.5c5,2.7,10.7,3.4,16.3,4
	c9.9,1.1,19.7,2.1,29.6,3.2c7,0.8,14.9,2,19.2,7.6c-10.9,1.5-22,1.7-33,0.7c15,10.2,34.8,9.2,52.9,7.8c-1.2-0.8-2.5-1.7-3.7-2.5
	c15.9,4.3,32.1,7.3,48.5,9c4.6,0.5,9.4,0.8,13.6-1.1c5.2-2.4,8.3-7.9,10.9-13.1c12.5-24.4,23.8-49.4,34-74.9
	c8.2-20.6,15.8-42.5,12.4-64.4c-3.4-21.9-21.3-43.1-43.4-42.4c3.4-8.7,13.4-13.5,22.7-13.5c9.4,0.1,18.2,4.1,26.3,8.8
	c9.4,5.4,19,12.8,20.6,23.4c1.2,7.6-2,15.2-4.7,22.4c-20.1,54.4-13.9,117.1-40.8,168.5c-2.9,5.5-6.8,11.3-12.9,12.5
	c-2.7,0.5-5.4,0.1-8.1-0.4c-54-9.4-108-19.1-161.9-29.1c-7.5-1.4-15.1-2.8-21.6-6.8c-16.6-10.3-19.7-33-18.8-52.6
	c1.7-37.1,11.3-73.4,20.9-109.3c2.2-8.1,4.4-16.4,9.2-23.4c4.5-6.6,11-11.6,17.5-16.3c7.5-5.5,15.3-11,24.2-13.9
	c15.6-5.1,32.6-1.6,48.7,2c24.6,5.4,49.2,10.9,73.8,16.3c0.8,0.2,1.7,0.5,1.8,1.2C581.5,393.2,580.9,393.9,581,393.2z"/>
    <path opacity="0.49" fill="#5E2803" d="M602.4,417.3c8.7,3.2,18.7,7.9,20.5,17c1.1,5.8-1.6,11.6-4.2,16.9
	c-13.1,27-24.3,55-33.5,83.6c-3.9,12.2-9,26.2-21.2,30.4c-5.4,1.8-11.2,1.4-16.8,0.9c-14.4-1.3-28.8-2.6-43.2-3.9
	c-19.1-1.7-38.4-3.5-56.8-8.9c-3.1-0.9-6.3-2-8.7-4.2c-2.7-2.5-3.9-6.2-4.9-9.8c-6.5-24.5-4.4-51.2,5.9-74.3
	c2.9-6.5,6.4-12.8,8.7-19.5c4.8-14.2,3.8-29.6,2.7-44.5c16,4,32.2,7.2,48.5,9.6c11.8,1.8,24.6,2.9,34.8-3.1c5-2.9,9.4-9.3,6.4-14.4
	c-1.8-3-5.5-4.2-8.8-5.2c-13.8-4-27.7-7.9-41.5-11.9c-19.5-5.6-42.1-10.8-58.8,0.7c-13.8,9.5-18.8,27.1-22.9,43.4
	c-5.1,20.6-10.3,41.1-14.6,61.9c-6.8,32.7-11.4,66.9-2.5,99.1c0.8,2.8,1.7,5.6,3.6,7.8c2.2,2.5,5.4,3.8,8.5,4.9
	c14.9,5.3,30.7,7.5,46.3,9.7c45.1,6.3,90.3,12.2,135.5,18c4.9,0.6,10,1.3,14.8,0c7.9-2.1,13.6-9.1,17.1-16.5c4.4-9.3,6-19.9,4.6-30
	c-1-7.5-3.5-15.4-0.6-22.4c1.8-4.3,5.3-7.5,7.6-11.5c5.1-9,3-20.1,4-30.4c0.9-9.8,4.6-19.1,7.6-28.4c6.9-21.4,10.2-44,9.7-66.5
	c-0.1-4.8-0.4-9.9-3.2-13.9c-2.4-3.6-6.4-5.8-10.4-7.6c-14.7-6.8-30.9-10.6-47.1-11.2c-11.9-0.4-24.1,0.9-35.4-2.7
	c-3.6-1.2-8.6-2.3-10.4,1c-2,3.9,3.3,7.6,4,12c0.8,5.6-9.5,10.6-8.1,14.9c1.3,4.1,12.5-0.2,16-0.5
	C571.7,406.3,587.6,411.9,602.4,417.3z"/>
    <g>
	<g>
		<path fill="#FFCE00" d="M496.1,840.2c-53.3,0-101.8-21-148.1-64.2c-12.2-11.3-21.3-26.5-26.8-44.3c0.1,1.6,0.2,3.3,0.3,5
			c0.2,4-2.1,7.8-5.9,9.3c-1.2,0.5-2.5,0.8-3.8,0.8c-2.6,0-5.1-1-7-3c-2.4-2.5-4.8-4.8-7.1-7c-5-4.8-9.7-9.4-13.6-15
			c-19.8-29.3-40.3-59.6-54.1-95.4c-10.1-26.1-18.2-52.4-24.6-80.4c-13.1-57.8-4.7-117.5,25.7-182.6c5.8-12.3,12.3-24.2,18.5-35.8
			c2.9-5.3,5.8-10.7,8.6-16.1c1.7-3.3,5.1-5.2,8.6-5.2c1.2,0,2.5,0.2,3.7,0.7c1.3,0.5,2.5,1.1,3.8,1.7c1.9,0.8,3.4,2.2,4.4,3.9
			c8-21,19.5-39.6,34.5-55.6c13.3-14.2,30.4-24.3,46.9-34.1c6.1-3.6,12.5-7.4,18.4-11.3c29.9-19.5,63.7-22.2,93.5-24.5
			c0.9-0.1,1.8-0.1,2.8-0.1c1.8,0,3.6,0.1,5.7,0.2c1.5,0.1,3.3,0.2,5.4,0.3c4.6,0.2,8.4,3.6,9.2,8.1c0.3,2.2-0.1,4.3-1,6.1
			c20.7-7.5,40.8-11.2,60.9-11.2c26.9,0,53.6,6.5,81.7,19.9c3.7,1.8,5.9,5.7,5.5,9.7c-0.4,4.1-3.4,7.4-7.3,8.4
			c-1.3,0.3-2.6,0.6-3.8,0.9c5.2,0.7,10.4,1.5,15.6,2.8c29,6.9,52.6,17.1,70.3,30.4c18.9,14.3,36.6,35.5,49.9,59.9
			c8.6,15.9,15.3,34.3,19.4,53.3c1.1,5.2,2,10.1,2.6,15c0.2,1.1,0.3,2.2,0.4,3.3c0.1,0.5,0.1,0.9,0.2,1.4
			c1.3,11.4,0.9,22.6-0.2,34.1c2.3-3.8,4.7-7.6,7.1-11.4c1.8-2.9,4.9-4.6,8.2-4.6c0.7,0,1.4,0.1,2.1,0.2c4,0.9,7,4.3,7.5,8.4
			c2.3,21.1,2.9,40,1.7,58c-0.4,6.6-1.1,12.6-1.9,18.4c-2.8,20.2-8,38.8-15.9,56.9c-8.3,19.1-20.4,37.3-36.8,55.6
			c-7.3,8.1-15.1,15.9-23,23.4c21.4-13.4,45.4-41.6,68.5-80.9c1.8-3,5-4.8,8.3-4.8c0.9,0,1.8,0.1,2.7,0.4c4.3,1.3,7.1,5.2,6.9,9.7
			c-1.3,31.7-2.7,64.6-18.2,95.2c-22.4,44.2-54,81-96.6,112.4c-31.7,23.4-65.1,41.4-99.2,53.6c-35.4,12.6-72.8,19.3-111.3,19.9
			C498.4,840.2,497.2,840.2,496.1,840.2z M411.7,747.3c1.9,1.4,3.9,2.8,5.9,4.1c0,0,0.1,0,0.1,0.1c1.1,0.7,2.2,1.4,3.3,2
			c0.1,0.1,0.2,0.1,0.3,0.2c9.4,5.7,19.2,10.8,29.1,15.1c30.6,13.3,64.2,20,99.7,20c10.5,0,21.4-0.6,32.3-1.7
			c29-3.1,56.8-13.1,83-29.8c-38.4,17.9-77.2,26.9-115.9,26.9c-9.6,0-19.3-0.5-28.9-1.6c-34.3-3.8-69.3-14.8-104-32.5
			C415,749.1,413.3,748.2,411.7,747.3z M433.5,707.2c14.6,7.2,31.3,10.5,49.6,13.6c10.9,1.8,21.7,2.7,32.2,2.7
			c16.8,0,33.3-2.3,49.3-7c-14.8,2.6-29.8,3.9-45.1,3.9C491.8,720.5,463.3,716.1,433.5,707.2z M687.7,657.6
			c-0.1,0.1-0.3,0.2-0.4,0.3c-0.3,0.3-0.7,0.5-1,0.8c-4.2,2.7-6,5.8-6.3,7.7c-0.1,0.9,0.1,1.2,0.2,1.3c0.8,1,1.4,1.4,1.8,1.6
			c0.1,0,0.1,0.1,0.2,0.1c0.5,0.2,0.9,0.3,1.5,0.3c0.9,0,3-0.3,6.5-2.5c2.3-1.4,3-2.6,3-2.9c0-0.2-0.2-1-1-2.1
			c-0.4-0.6-0.8-1-1.2-1.5l-0.2-0.2C689.2,658.7,688.2,657.9,687.7,657.6z M453.2,636.8c27.6,6.9,53.9,13.4,81.4,14.6
			C514.7,644.2,484.8,638.2,453.2,636.8z M385.5,584.1c4.3,0.4,8.7,0.8,13.3,2c5.9,1.5,11.8,3.3,17.4,5c8.5,2.6,16.4,5.1,24.5,6.4
			c45.2,7.4,93.8,14.9,152.9,23.4c3.2,0.5,5.9,0.7,8.1,0.7c6.3,0,9.2,0,12.7-17.8c1.1-5.8,2.9-11.4,4.6-16.7c1.5-4.8,3-9.3,3.9-13.8
			l0.7-3.5c8.8-41.9,17.9-85.2,25.7-128c1.1-5.9,1-12.3,1-19.1c0-7.6-0.1-15.6,1.5-23.5c0.3-1.4,0.4-2.4,0.5-3.1
			c-0.1,0-0.3-0.1-0.4-0.1c-4.9-0.9-9.9-1.8-14.9-2.8c-17-3.2-34.5-6.5-51.8-8.5c-25.6-2.9-51.6-5.4-76.8-7.9c-22.6-2.2-46-4.5-69-7
			c-1.5-0.2-2.9-0.2-4.1-0.2c-6.5,0-9.1,1.8-11,7.7c-1.9,5.7-3.8,11.4-5.7,17c-5.4,15.9-11,32.3-14.8,48.6
			C393.3,487.4,384,535.3,385.5,584.1z M755.6,549.9c-12.2,16-27.6,34.8-47.4,51.7c2.7-1.2,5.3-2.6,7.9-4.1c3.2-1.9,6.2-3.9,8.9-5.8
			c0,0,0.1,0,0.1-0.1c13.3-9.3,24.2-20.8,32.5-33.9c6.4-10.2,11.5-21.5,15.1-33.9c-4.2,7.2-8.5,14.7-13.7,21.7c0,0-0.8,1-1.1,1.5
			C757.2,547.9,756.4,548.9,755.6,549.9z M680.5,479.2c-3.4,10.6-6.4,20.8-7.9,31.2c-1.7,11-3,22-4.2,33.2c5-15.6,8.7-32,11.1-49.1
			C680.1,489.9,680.4,484.9,680.5,479.2z M365.5,434.8c-4.7,12.8-7.9,26-10.2,39.4C359.2,461.4,362.4,448.3,365.5,434.8z M351.8,319
			c-22.9,31-35.4,59.9-39.8,91.5c-2,14.1-1.4,27.7,2,41.7c-0.4-14.6,0.6-29.6,3.2-45.2C322.5,374.3,336.8,345.2,351.8,319z
			 M544.3,241.5c0.5,0,1,0,1.6,0c1.1,0,3.7,0,5.5-0.4c0.3-0.8,0.6-2,0.8-3.2c0.1-0.7,0.1-1.2,0.1-1.5c-0.4-0.5-1-0.9-2.2-0.9
			c-1.2,0-2.5,0.5-3.5,1.3c0,0-0.6,0.6-1.7,3.2C544.7,240.4,544.5,241,544.3,241.5z"/>
        <path fill="#2F0E0F" d="M474.9,196.7c2.7,0,5.8,0.3,10.7,0.5c-21.8,8.1-35.1,21.6-45.4,41.9c-0.5,0.9-0.9,1.8-1.4,2.8
			c1.6-1.1,3.2-2.2,4.9-3.2c39.1-25.8,75.3-38.4,111.3-38.4c25.7,0,51.2,6.4,77.6,19c-20.3,5-40.3,9.8-60.4,14.7
			c0.1,0.8,0.1,1.6,0.2,2.4c24.1,1.5,48.9-0.1,72,5.4c23.4,5.6,47.8,14.5,66.7,28.7c19.3,14.5,35.6,35.4,47.2,56.8
			c8.4,15.5,14.6,33,18.4,50.7c1,4.8,1.9,9.6,2.5,14.4c0.2,1.5,0.4,3,0.6,4.5c2.7,23.6-2.8,48.1-4.8,74
			c9.9-15.9,19.5-31.2,29.5-47.4c2.1,19,2.9,37.7,1.7,56.3c-0.4,5.9-1,11.8-1.8,17.7c-2.5,18.4-7.3,36.5-15.2,54.4
			c-8.8,20.2-21.1,37.4-35.1,53c-15.1,16.9-32.3,32-49.2,47.4c2.6,0.6,5.3,0.9,8.1,0.9c5.9,0,12.1-1.3,18.4-3.9
			c26.3-10.7,55.8-42.8,83.8-90.5c-1.4,32.9-2.8,63-17.1,91.2c-22.3,44.1-54,79.7-93.7,109c-61.1,45.1-128.6,70.4-204.9,71.6
			c-1.1,0-2.2,0-3.2,0c-56,0-101.9-24.7-141.5-61.6c-14.8-13.7-23.9-33.4-27.7-54.5c-0.8-4.3-2.3-8.5-4.1-13.3c-0.9-2.6-2-5.4-3-8.5
			c-0.1-0.3-0.2-0.6-0.3-1c-0.1,0.1-0.2,0.2-0.2,0.3c-0.7,0.9-1.4,1.8-2,2.7c-10,14.3-6.2,27.4-5.5,42.5c-7.7-8-14.8-13.6-19.7-20.8
			c-20.1-29.7-39.8-59-53.1-93.5c-10.1-26.1-18-52.1-24.1-79c-14.1-61.9-1.3-120.2,25-176.3c8.2-17.5,18-34.3,27-51.5
			c1.2,0.5,2.4,1,3.5,1.6c-1.1,15.4-3.8,31.1,6.1,46.7c4.3-39.5,18.7-73.7,43.8-100.6c17.2-18.3,41.9-29.8,63.5-43.9
			c27-17.6,58-20.6,89-23C473.5,196.7,474.2,196.7,474.9,196.7 M535.5,251.2c1-0.1,2-0.1,3.1-0.1c2.4,0,4.9,0.1,7.3,0.1
			c4.2,0,8.2-0.3,11.4-2c1.1-0.6,2.1-2,2.8-3.8c0.8-1.8,1.4-4,1.7-6.2c0.4-2.7,0.2-5.3-0.6-6.9c-2.4-4.5-6.6-6.6-11-6.6
			c-3.3,0-6.8,1.2-9.6,3.5c-2.1,1.7-3.4,4.3-4.6,7.2c-1.1,2.7-1.9,5.6-2.9,8.3c-0.2,0.6-0.4,1.2-0.7,1.8
			C533.4,248,534.5,249.6,535.5,251.2 M550.5,282.8c6.5-0.6,13-0.8,19.4-0.8c36.7,0,71.8,8.7,106.1,22.4c4.1,1.6,8.9,5.7,13,5.7
			c2.1,0,4-1,5.5-3.9c1.5-2.7,1.6-5,1-7c-1.1-3.3-4.6-5.8-8.3-8c-1.4-0.9-2.9-1.7-4.2-2.5c-1.8-1-3.7-1.9-5.6-2.8
			c-1.2-0.5-2.4-1.1-3.7-1.6c-20.2-8.6-41.3-12.4-62.8-12.4c-5.7,0-11.4,0.3-17.2,0.8c-14.7,1.3-29.3,4-44,6c0,0.2,0.1,0.4,0.1,0.6
			C550,280.5,550.3,281.6,550.5,282.8 M332.8,514.3c1-2.2,1.4-4.4,0.8-6.2c-10.9-32.6-12.3-65.8-6.9-99.4
			c6.3-38.7,25.6-71.8,45.2-104.8c5-8.4,9.1-17.4,13.5-26.2c0.3-0.7,0.7-1.4,1-2.1c-1.5-0.8-3.1-1.6-4.7-2.4c-1.8,1-3.7,2-5.5,3.1
			c-1.5,0.9-3,1.8-4.1,3c-4.7,5.1-9.2,10.2-13.6,15.5c-27.9,33.2-50,69.5-56.3,114.5C296.8,449.1,311.7,482.5,332.8,514.3
			 M586.5,370.7c4.9,0,9.9-0.2,14.8-0.3c2.3,0,5.6-2.3,6.5-4.4c0.5-1.4-2-4.9-4-6.3c-2.6-1.8-6-3.1-9.2-3.5
			c-16.7-2.3-33.4-4.7-50.1-6.4c-24.9-2.6-49.9-4.7-74.8-7c-0.3,1.5-0.7,3-1,4.4c33.8,7.4,67.5,15.3,101.4,22.1
			C575.3,370.5,580.9,370.7,586.5,370.7 M601.8,631.3c14,0,18.5-6.9,22.2-25.6c2-10.3,6.4-20.2,8.5-30.5
			c9.2-43.8,18.4-87.7,26.5-131.7c2.5-13.8-0.3-28.7,2.5-42.5c1.8-9,0.7-13.1-7.7-14.6c-22.4-4.1-44.7-8.8-67.3-11.3
			c-48.6-5.5-97.3-9.5-145.9-14.9c-1.8-0.2-3.6-0.3-5.2-0.3c-9.9,0-16.8,3.8-20.2,14.4c-7.2,22-15.4,43.8-20.8,66.3
			c-11.8,50.2-21.1,100.9-18.1,152.4c6.6,0.7,13.6,0.8,20.2,2.4c14.3,3.5,28.3,9.2,42.7,11.6c50.9,8.4,102,16.1,153.1,23.4
			C595.9,631,599,631.3,601.8,631.3 M330.9,668.1c-36.2-50.6-61.4-103.2-70.7-159.5c-2.5-14.7-3.8-29.6-4-44.9
			c-0.3-19.4,1.4-39.3,5.2-59.7c0.7-3.8,1.4-7.5,2.2-11.3c1.5-6.9,3.3-13.8,5.2-20.9c-22.1,18.6-30.5,57.4-28.6,101.1
			c0.1,3.1,0.3,6.2,0.5,9.4c0.2,3.1,0.5,6.2,0.8,9.4c2.1,20.3,6.3,41.1,12.1,61c3.4,11.9,7.5,23.5,12.1,34.4
			c4.2,10.1,8.8,19.6,13.9,28.4C294,640.7,311.5,660,330.9,668.1 M339.9,529.6c3.7-5.4,7.3-9.7,9.8-14.6
			c18.5-37.1,24.4-77.9,34.3-117.5c0.9-3.7-1.5-8.2-2.4-12.4C348.5,428.3,343,477.8,339.9,529.6 M653.4,595.3
			c2.4-1.4,3.9-1.7,4.4-2.6c16.6-30.2,26.5-62.7,31.2-96.7c1.4-10.3,1.3-20.9,0.8-31.2c-0.2-3.3-4.2-6.4-6.4-9.5
			c-2.7,2.5-6.9,4.5-7.8,7.6c-4.8,15.2-10.2,30.5-12.6,46.2C658.7,537.1,656.6,565.6,653.4,595.3 M678.5,617.6
			c15.3,0,29.7-4.1,42.6-11.8c3.3-2,6.6-4.1,9.6-6.3c14.6-10.3,26.2-22.6,35.1-36.7c10.6-16.7,17.4-35.8,20.9-57
			c0.6-3.6-1.1-7.6-1.8-11.5c-3.6,2.7-8.2,4.5-10.5,8c-1.5,2.2-2.9,4.5-4.3,6.8c-6.2,10.3-11.7,21-18.9,30.5
			c-1.1,1.4-2.2,2.9-3.3,4.3c-21.8,28.7-46.1,54.9-78.4,73.2C672.6,617.4,675.6,617.6,678.5,617.6 M543.5,661.2
			c7.4,0,14.9-0.4,22.6-1.3c-11.9-19.3-75.1-33.2-126.5-33.2c-18.9,0-36.2,1.9-48.7,6.1C442.6,641,490.8,661.2,543.5,661.2
			 M683.5,679.5c3.8,0,7.7-1.5,11.6-3.9c7.7-4.7,10.2-11.7,4.7-19c-0.5-0.7-1.1-1.4-1.7-2.1c-3-3.6-6.5-6.7-10.5-6.7
			c-2.1,0-4.3,0.8-6.7,2.8c-10.1,6.4-13.7,16.9-8.3,23.4c1.6,1.8,3.2,3.2,4.9,4C679.5,679,681.5,679.5,683.5,679.5 M515.4,733.3
			c23.8,0,47.1-4.4,69.8-13.5c12.8-5.1,26.3-10.4,32.9-29c-33.5,13.9-66.2,20-98.4,20c-40.9,0-81.1-9.9-121.3-26.5
			c4.1,8,8.1,16,14.6,21.2c19.9,15.9,44.1,20.7,68.7,24.9C492.9,732.3,504.2,733.3,515.4,733.3 M550.2,798.4c11,0,22.1-0.6,33.3-1.8
			c46.9-4.9,87-26.3,121.4-57.8c7.3-6.6,18.3-11.8,18.1-27.2c-58.3,42.5-116,62.7-173.5,62.7c-9.3,0-18.5-0.5-27.8-1.6
			c-33.7-3.8-67.2-14.4-100.7-31.5c-17.5-8.9-35-19.6-52.5-32c11.2,19.8,24.4,38.1,43.9,50.3c1.2,0.8,2.5,1.6,3.8,2.3
			c9.9,6,20,11.3,30.4,15.7C479.5,791.9,514.2,798.4,550.2,798.4 M474.9,177.4c-1.2,0-2.4,0-3.5,0.1c0,0,0,0-0.1,0
			c-29.4,2.3-66,5.2-98,26.1c-5.7,3.7-11.7,7.3-18,11c-17.1,10.1-34.8,20.6-49,35.8c-13.2,14.1-23.8,30.1-31.9,47.7c0,0,0,0,0,0
			c-2.4-1-5-1.5-7.4-1.5c-7,0-13.7,3.8-17.1,10.3c-2.8,5.3-5.7,10.7-8.6,16c-6.3,11.7-12.9,23.8-18.8,36.3
			c-14.9,31.9-24.5,61.7-29.2,91.2c-5.3,33-4.4,65.9,2.9,97.7c6.5,28.5,14.7,55.2,25,81.8c14.2,36.8,35,67.6,55.1,97.3
			c0,0,0,0,0,0.1c4.4,6.4,9.7,11.6,14.9,16.5c2.2,2.2,4.6,4.4,6.8,6.8c3.7,3.9,8.8,6,14,6c2.6,0,5.2-0.5,7.6-1.6
			c0.2-0.1,0.4-0.2,0.6-0.3c5.6,10.9,12.8,20.5,21.3,28.4c22.8,21.2,45.5,37,69.6,48.1c27,12.4,55.6,18.7,85,18.7c1.2,0,2.4,0,3.6,0
			c39.5-0.6,77.9-7.5,114.3-20.5c35-12.5,69.2-30.9,101.7-54.9c43.9-32.4,76.4-70.3,99.5-115.9c16.5-32.5,17.9-66.4,19.2-99.2
			c0.4-8.9-5.4-16.9-13.9-19.4c-1.8-0.5-3.7-0.8-5.5-0.8c-0.2,0-0.3,0-0.5,0c4.1-12.6,7-25.5,8.9-39.2c0.9-6,1.5-12.3,2-19.1
			c0,0,0,0,0-0.1c1.2-18.5,0.6-38-1.7-59.6c-0.9-8.2-6.9-14.9-15-16.8c-1.4-0.3-2.9-0.5-4.3-0.5c-1.6,0-3.2,0.2-4.8,0.6
			c-0.1-3.3-0.4-6.7-0.7-10c0-0.1,0-0.1,0-0.2c-0.1-0.4-0.1-0.9-0.2-1.3c-0.1-1.1-0.3-2.2-0.4-3.5c-0.7-5.2-1.6-10.3-2.7-15.7
			c-4.3-19.9-11.3-39.2-20.3-55.9c-13.9-25.6-32.6-47.9-52.6-63c-18.2-13.7-42.1-24.3-71.2-31.5c0.2-0.8,0.3-1.5,0.4-2.3
			c0.8-8.1-3.5-15.9-10.9-19.5c-29.5-14-57.6-20.8-85.9-20.8c-17.2,0-34.5,2.6-52,7.8c-3.1-6.2-9.4-10.5-16.6-10.8
			c-2-0.1-3.6-0.2-5.2-0.3C479,177.5,477,177.4,474.9,177.4L474.9,177.4z M433.9,379.3c0.3,0,0.8-0.1,1.5-0.1c0.9,0,1.9,0.1,3.1,0.2
			c23,2.6,46.5,4.8,69.1,7c25.2,2.4,51.2,5,76.7,7.9c16.9,1.9,33.5,5,51.1,8.4c2,0.4,4,0.8,6.1,1.1c-0.7,6.7-0.7,13.1-0.7,18.9
			c0,6.3,0.1,12.3-0.8,17.3c-7.8,42.7-16.9,85.9-25.7,127.8l-0.7,3.4c0,0,0,0,0,0.1c-0.8,4-2.2,8.3-3.7,12.8
			c-1.8,5.6-3.7,11.4-4.9,17.9c-1.1,5.5-2,8.4-2.6,9.9c-0.2,0-0.4,0-0.6,0c-1.7,0-4-0.2-6.8-0.6c-59.1-8.5-107.6-15.9-152.7-23.4
			c-7.4-1.2-15.1-3.6-23.2-6.1c-5.8-1.8-11.8-3.6-18-5.2c-2-0.5-4.1-0.9-6-1.2c-0.3-44.9,8.5-89,18.2-130.4
			c3.7-15.8,9-31.3,14.6-47.7c1.9-5.6,3.9-11.3,5.7-17c0,0,0,0,0-0.1C433.7,379.8,433.8,379.5,433.9,379.3L433.9,379.3z
			 M338.1,696.9L338.1,696.9L338.1,696.9L338.1,696.9z"/>
	</g>
</g>
    <path opacity="0.35" fill="#CE5300" d="M311.9,737.2c-7.7-8-14.8-13.6-19.7-20.8c-20.1-29.7-39.8-59-53.1-93.5
	c-10.1-26.1-18-52.1-24.1-79.1c-14.1-61.9-1.3-120.2,25-176.3c8.2-17.5,18-34.3,27-51.5c1.2,0.5,2.4,1,3.5,1.6
	c-1.1,15.4-3.8,31.1,6.1,46.7c4.3-39.5,18.7-73.7,43.8-100.6c17.2-18.3,41.9-29.8,63.5-43.9c27-17.6,58-20.6,89-23
	c3.3-0.3,6.6,0.2,12.7,0.5c-22.8,8.5-36.3,22.8-46.8,44.6c69.1-47.1,128.9-53.5,193.8-22.6c-20.3,5-40.3,9.8-60.4,14.7
	c0.1,0.8,0.1,1.6,0.2,2.4c24.1,1.5,48.9-0.1,72,5.4c23.4,5.6,47.8,14.5,66.7,28.7c19.3,14.5,35.6,35.4,47.2,56.8
	c8.4,15.5,14.6,33,18.4,50.7c-3.7-0.1-7.4-1-11-2.8c-19.3-9.9-20.5-36.8-32.5-54.8c-10.3-15.5-28.1-23.7-46.1-29.1
	c-2.1-0.7-4.3-1.3-6.4-1.8c-42.5-11.5-87.1-14.9-130.9-10c-6.3,0.7-12.6,1.6-18.9,2.6c19.6-17.4,44.3-29.1,70.1-33.3
	c-13.6-1.5-27.3-2.6-41-3.3c-9-0.5-18.1-0.7-27.1-0.7c-31.9,0.1-63.7,3.3-94.4,11.7c-18.4,5-36.3,12.2-53.1,21.3
	c-9.4,5.1-18.3,10.8-26.8,17.1c-20,14.9-37.2,33.1-49.7,54.7c13.3-24.6,26.7-49.3,40-73.9c-37.8,31.2-66.6,72-85.3,117.1
	c-11.8,28.6-19.5,58.9-22.8,89.6c-5.6,51.5,1.3,104.2,21.9,151.8c-0.6-15.7,0.5-31.5,3.1-47c1.2-7.3,2.8-14.5,4.7-21.6
	c1.1,17,4.2,33.8,9.2,50c8.4,27.6,22,53.6,39.7,76.5C306.8,707.3,311.1,721.1,311.9,737.2z"/>
    <path opacity="0.35" fill="#CE5300" d="M768.1,385.4c3.3,2.9,7.1,5.1,11.1,7c0.2,1.5,0.4,3,0.6,4.5c2.7,23.6-2.8,48.1-4.8,74
	c9.9-15.9,19.5-31.2,29.5-47.4c4.8,43.9,2.8,86.8-15.3,128.4c-8.8,20.2-21.1,37.4-35.1,53c5.2-13.6,9.2-27.7,11.8-42
	c0.4-2.2,0.8-4.4,1.2-6.7c2.5-15.6,3.5-31.4,3.1-47.1c-0.4-23.2-3.6-46.3-9.1-68.8c-4.1-17-16.3-37-17.5-54
	C742,364.5,757.1,375.9,768.1,385.4z"/>
    <path opacity="0.35" fill="#CE5300" d="M499.3,830.5c-57.5,1-104.4-24-144.7-61.6c-14.8-13.7-23.9-33.4-27.7-54.5
	c-1.2-6.6-4.1-12.9-7.1-21.8c31.8,41,76.5,72.2,126.7,85c1.5,0.4,2.9,0.7,4.4,1.1c-13.4-13.6-26.9-27.3-40.3-40.9
	c3.4,1.2,6.9,2.4,10.4,3.5c56.9,17.5,119.3,13,177-2.7c27.2-7.5,54-17.5,77.6-33c22.3-14.7,41-34.1,55.8-56.4
	c26.3-10.7,55.8-42.8,83.8-90.5c-1.4,32.9-2.8,63-17.1,91.2c-22.3,44.1-54,79.7-93.7,109C643.2,804,575.7,829.3,499.3,830.5z"/>
    <path opacity="0.35" fill="#CE5300" d="M311.9,737.2c-7.7-8-14.8-13.6-19.7-20.8c-20.1-29.7-39.8-59-53.1-93.5
	c-10.1-26.1-18-52.1-24.1-79.1c-14.1-61.9-1.3-120.2,25-176.3c8.2-17.5,18-34.3,27-51.5c1.2,0.5,2.4,1,3.5,1.6
	c-1.1,15.4-3.8,31.1,6.1,46.7c4.3-39.5,18.7-73.7,43.8-100.6c17.2-18.3,41.9-29.8,63.5-43.9c27-17.6,58-20.6,89-23
	c3.3-0.3,6.6,0.2,12.7,0.5c-21.8,8.1-35.1,21.6-45.4,41.9c-49.3,6.7-96,32.7-127,71.7c-16,20-27.8,43-39,66c-4.4,9-8.7,18-12.7,27.2
	c-9.7,22.3-17.9,45.3-21.1,68.9c-1.3,8.9-1.9,17.9-1.6,27c0.9-2.8,1.9-5.5,3-8.2c3.8-9.8,8.7-19.2,14.6-27.9c8-12,17.8-22.8,29-31.8
	c-9.5,24.7-19,50.6-25.1,76.7c-3.5,14.7-5.8,29.4-6.5,44.1c-0.9,19.2,1.1,38.2,7.4,56.6c10.8,31.8,33.1,58.2,54.8,83.8
	c0.5,0.5,0.9,1.1,1.4,1.6C307.3,708.9,311.2,722,311.9,737.2z"/>
    <path opacity="0.35" fill="#CE5300" d="M499.3,830.5c-57.5,1-104.4-24-144.7-61.6c-14.8-13.7-23.9-33.4-27.7-54.5
	c-0.8-4.3-2.3-8.5-4.1-13.3c40,46.3,85.9,93.3,146.1,100.6c-19.1-11-36.8-24.5-52.7-39.8c-4.9-4.7-9.5-9.6-14-14.6
	c34.8,22.7,77.9,29.3,119.5,25.5c5.3-0.5,10.4-1.1,15.6-1.9c46.2-7.2,89.8-25.6,132.6-44.4c27.2-11.9,54.8-24.3,76-45.1
	c-31.1,12.6-64.2,20-97.7,21.8c10.4-7.6,20.2-16,29.3-25.2c7.4-7.4,14.3-15.3,20.6-23.5c3.8-4.9,7.5-10,10.9-15.2
	c8.4-12.7,15.7-26,21.7-39.8c7.8-17.8,13.6-36.5,17.3-55.6c3.5-17.6,5.2-35.6,5.1-53.8c-0.1-17.7,1.1-21.3,18.4-12.8
	c0.5,0.2,1.1,0.5,1.6,0.8C765.1,402,715.3,331,645.7,298.7c31.5,12.6,63,25.2,94.5,37.7c-14.2-13.2-29.1-25.7-44.7-37.2
	c-7.1-5.2-14.4-10.2-21.8-14.9c-31.9-20.4-66.5-36-103.5-43.6c-2.8-0.6-5.6-1.1-8.4-1.6c-8.5-1.4-17.2-2.4-25.8-2.8
	c-54.7-2.9-110.7,13.4-149.4,51.5c21.7-23.8,50.1-41.4,81-50.5c-8-0.1-15.9,0.3-23.8,1.3c67-44.2,125.5-49.6,188.9-19.4
	c-20.3,5-40.3,9.8-60.4,14.7c0.1,0.8,0.1,1.6,0.2,2.4c24.1,1.5,48.9-0.1,72,5.4c23.4,5.6,47.8,14.5,66.7,28.7
	c19.3,14.5,35.6,35.4,47.2,56.8c8.4,15.5,14.6,33,18.4,50.7c1,4.8,1.9,9.6,2.5,14.4c0.2,1.5,0.4,3,0.6,4.5c2.7,23.6-2.8,48.1-4.8,74
	c9.9-15.9,19.5-31.2,29.5-47.4c2.1,19,2.9,37.7,1.7,56.3c-4.7,3.5-9.7,6.5-15,8.9c4.5,2.8,8.9,5.8,13.2,8.8
	c-2.5,18.4-7.3,36.5-15.2,54.4c-8.8,20.2-21.1,37.4-35.1,53c-15.1,16.9-32.3,32-49.2,47.4c8.3,1.8,17.2,0.7,26.5-3
	c26.3-10.7,55.8-42.8,83.8-90.5c-1.4,32.9-2.8,63-17.1,91.2c-22.3,44.1-54,79.7-93.7,109C643.2,804,575.7,829.3,499.3,830.5z"/>
    <path fill="#1B1B1B" d="M732.4,768.6c-37.9,20.8-73.9,47.5-114.3,60.6c-33.6,10.9-68.9,26.2-107.2,19.6c-13-2.3-26.8-0.5-40.2-1
	c-27.2-1-51.2-13.1-75-24.2c-46.4-21.8-83.3-55-115.9-94.7c-31.3-38.2-52.1-81.3-66.7-127.3c-10.7-33.7-19-68.7-23.6-103.7
	c-5.8-44,6-86.2,25.3-125.6c16.7-34.3,34.1-68.6,60.7-96.8c10.9-11.5,23.3-21.6,35.3-32c8-6.9,16.4-13.2,24.6-19.9
	c48.6-39.5,105.1-53.5,166.3-50.1c25.7,1.4,51.3,6.2,77,9c64.3,6.9,117.5,38.7,162.3,81.3c29.9,28.5,56.1,62.7,69.8,104.6
	c8.3,25.3,15.8,50.1,18.1,76.6c1.6,17.8,7.5,35.6,6.9,53.3c-1.3,41.1,6.9,82.2-1.9,123.3c-10.5,49.4-37.7,88.3-74.1,121.6
	c-9,8.2-18.8,15.7-28.2,23.5C731.8,767.3,732.1,768,732.4,768.6z M270.5,317.6c-1.2-0.5-2.4-1-3.5-1.5c-9,17.1-18.7,34-26.9,51.5
	c-26.3,56.1-39.1,114.4-25,176.3c6.1,26.9,14,52.9,24.1,79c13.3,34.4,33,63.8,53.1,93.5c4.8,7.2,12,12.8,19.6,20.7
	c-0.8-16.1-5.1-30.1,7.7-45.5c3.1,9.4,6.2,15.9,7.4,22.8c3.8,21,12.9,40.7,27.7,54.5c40.4,37.6,87.2,62.6,144.7,61.6
	c76.3-1.3,143.8-26.6,204.9-71.6c39.7-29.3,71.4-64.9,93.7-109c14.3-28.2,15.8-58.3,17.1-91.2c-37.9,64.5-78.3,100.5-110.3,93.5
	c32.5-29.5,66-58.3,84.3-100.4c18.2-41.6,20.1-84.5,15.4-128.4c-10.1,16.1-19.6,31.5-29.5,47.4c2-25.9,7.5-50.4,4.8-74
	c-2.7-23.8-10.1-48.6-21.5-69.6c-11.6-21.4-27.9-42.3-47.2-56.7c-18.9-14.2-43.3-23.2-66.7-28.7c-23.1-5.5-47.9-3.9-72-5.4
	c-0.1-0.8-0.1-1.6-0.2-2.4c20.1-4.9,40.1-9.8,60.4-14.7c-64.9-30.9-124.7-24.5-193.7,22.6c10.5-21.8,24-36.1,46.8-44.6
	c-6.1-0.3-9.4-0.7-12.7-0.5c-31,2.5-62,5.4-89,23c-21.6,14.1-46.3,25.6-63.5,43.9c-25.1,26.8-39.5,61.1-43.8,100.6
	C266.6,348.7,269.4,333,270.5,317.6z"/>
    <path fill="#1B1B1B" d="M376.2,593c-3-51.5,6.3-102.2,18.1-152.4c5.3-22.5,13.5-44.3,20.7-66.3c4-12.4,12.8-15.5,25.5-14.1
	c48.6,5.4,97.3,9.4,145.9,14.9c22.6,2.6,44.9,7.3,67.3,11.3c8.3,1.5,9.5,5.6,7.7,14.6c-2.7,13.8,0.1,28.6-2.5,42.5
	c-8,44-17.3,87.9-26.5,131.7c-2.2,10.3-6.5,20.1-8.5,30.5c-4.4,22.4-10.1,27.9-31.6,24.8c-51.1-7.3-102.2-15-153.2-23.4
	c-14.5-2.4-28.4-8.1-42.7-11.6C389.8,593.8,382.8,593.7,376.2,593z M429.7,379c-2.4,16.6-3.8,31.9-7,46.7
	c-10.1,46.9-20.9,93.6-31.6,140.3c-2,8.6-1.2,14,9.6,15.3c23.8,2.8,47.6,6.2,71.2,10.5c37.1,6.8,73.9,14.7,110.9,22
	c16.4,3.3,21.9-0.4,25.3-17.2c7.4-37,15-73.9,22.3-110.9c5.4-27.3,10.4-54.7,15.4-81.2C572.8,395.9,501.8,387.5,429.7,379z"/>
    <path fill="#1B1B1B" d="M368.6,709.3c117.1,83,234.6,89.7,354.4,2.3c0.2,15.5-10.8,20.6-18.1,27.2c-34.5,31.5-74.6,52.8-121.4,57.8
	c-60.8,6.4-118.6-4-171.1-37C393,747.4,379.8,729.1,368.6,709.3z"/>
    <path fill="#1B1B1B" d="M386.5,275.6c-4.8,9.4-9.2,19.2-14.6,28.3c-19.6,33-38.9,66.1-45.2,104.8c-5.4,33.7-4,66.9,6.8,99.5
	c0.6,1.8,0.2,4-0.8,6.2c-21.1-31.8-36-65.2-30.4-105.1c7.3-52,35.6-92.5,69.9-130c1.1-1.2,2.7-2.1,4.1-3c1.8-1.1,3.6-2.1,5.5-3.1
	C383.4,273.9,385,274.7,386.5,275.6z"/>
    <path fill="#1B1B1B" d="M268.9,371.8c-31.5,111.3-2,206.9,62,296.3C252.9,635.5,206.8,424.1,268.9,371.8z"/>
    <path fill="#1B1B1B" d="M618,690.8c-6.5,18.6-20,23.9-32.8,29c-33.5,13.4-68,16.6-103.7,10.6c-24.6-4.1-48.8-9-68.7-24.9
	c-6.4-5.1-10.5-13.2-14.5-21.2C470.4,714.1,542.2,722.2,618,690.8z"/>
    <path fill="#1B1B1B" d="M669.6,617.1c33.9-19.3,59-47.2,81.7-77.5c8.7-11.7,15-25.1,23.1-37.3c2.3-3.5,7-5.3,10.5-8
	c0.6,3.8,2.4,7.8,1.8,11.5c-7,43-27.8,77.4-65.6,100C705.7,615,688.2,619,669.6,617.1z"/>
    <path fill="#1B1B1B" d="M566.1,659.9c-61.8,7.2-116.2-17.7-175.2-27C437.3,617.3,549.8,633.6,566.1,659.9z"/>
    <path fill="#1B1B1B" d="M653.4,595.3c3.2-29.7,5.4-58.1,9.6-86.3c2.3-15.7,7.8-30.9,12.6-46.2c1-3.1,5.1-5.1,7.8-7.6
	c2.2,3.2,6.2,6.2,6.4,9.5c0.6,10.4,0.6,21-0.8,31.3c-4.7,34-14.6,66.5-31.1,96.7C657.3,593.6,655.8,593.9,653.4,595.3z"/>
    <path fill="#1B1B1B" d="M340,529.6c3.1-51.8,8.6-101.3,41.7-144.6c0.9,4.2,3.3,8.7,2.4,12.4c-9.9,39.6-15.8,80.4-34.3,117.5
	C347.3,519.8,343.6,524.2,340,529.6z"/>
    <path fill="#1B1B1B" d="M549.7,278.8c14.7-2.1,29.3-4.8,44-6.1c28.9-2.5,57,1,83.7,13.2c1.9,0.9,3.8,1.7,5.6,2.8
	c6.8,4,16.5,8.4,11.6,17.5c-4.7,8.6-12.5,0.6-18.6-1.8c-40.2-16.1-81.7-25.4-125.4-21.6C550.3,281.4,550,280.1,549.7,278.8z"/>
    <path fill="#1B1B1B" d="M469.6,342.8c24.9,2.3,49.9,4.4,74.8,7c16.8,1.7,33.5,4.1,50.1,6.4c3.2,0.4,6.6,1.7,9.2,3.5
	c2,1.4,4.5,4.9,4,6.2c-0.8,2.1-4.2,4.4-6.5,4.4c-10.4,0.2-21.2,1-31.3-1.1c-33.9-6.8-67.6-14.7-101.4-22.1
	C468.9,345.8,469.3,344.3,469.6,342.8z"/>
    <path fill="#FFCE00" d="M680.6,649.4c8.4-7.2,15.3-0.4,20.4,6.5c5.9,7.9,3.3,15.5-5.1,20.6c-8.5,5.2-17.3,6.7-24.4-1.8
	C665.7,667.7,669.6,656.3,680.6,649.4z"/>
    <path fill="#1B1B1B" d="M532.3,246.5c2.6-5.9,3.8-13.6,8.2-17.3c6.5-5.3,16.4-4.8,20.6,3.1c2.2,4.1-0.3,14.9-3.9,16.8
	c-5.9,3.2-14.3,1.6-21.7,2C534.5,249.6,533.4,248,532.3,246.5z"/>
    <path fill="#1B1B1B" d="M586.8,566.6c2.2-17.8,3.5-35.9,7-53.5c3.7-18.6,9.2-36.8,14.6-54.9c1.2-4.1,5.3-7.3,8.1-10.9
	c2.6,4.3,7.3,8.6,7.3,13c0.4,34.7-7.8,67.6-23,98.7c-1.9,3.8-5.8,6.7-8.8,10C590.3,568.2,588.6,567.4,586.8,566.6z"/>
    <path fill="#1B1B1B" d="M472.1,420.4c14-1,27.9-2.7,41.9-2.7c18.8,0,37.7,0.7,56.5,2.2c8.9,0.7,22.1,1.4,21.6,12.8
	c-0.6,13.4-15,9.3-22.6,8.3c-32.7-4.4-65.1-10.7-97.7-16.3C471.9,423.2,472,421.8,472.1,420.4z"/>
    <path fill="#1B1B1B" d="M457.8,566.1c28.8,1.9,58.3-3.6,86.2,8.7c2.3,1,5.3,1.5,6.6,3.2c2.8,3.7,4.8,8.1,7.1,12.2
	c-3.6,1.3-7.2,3.6-10.9,3.8c-23.6,1.3-45.8-5.1-67.1-14.5c-7.7-3.4-15.3-6.9-22.9-10.4C457.1,568.1,457.5,567.1,457.8,566.1z"/>
    <path fill="#1B1B1B" d="M428.4,518.1c8.2-37.5,7.3-74.4,25.1-108.2c12.9,9.3,7.2,20.3,6.3,29.4c-2.7,26.7-11.9,51.5-25.3,74.7
	C433.7,515.2,431.8,515.8,428.4,518.1z"/>
    <path opacity="0.35" fill="#CE5300" d="M332.7,617.1c14.5,20.7,33.6,37.7,53.7,53.1c-10.3,6.8-24.6,1.9-33.8-6.3
	c-9.2-8.2-15.6-19.2-24.7-27.5c-6.6-5.9-15-10.8-18.3-19c-2.3-5.8-10.5-45.7,0.1-44.6C314.2,573.2,328.2,610.8,332.7,617.1z"/>
    <path opacity="0.35" fill="#CE5300" d="M718.8,431.2c2.9,10.4,5.1,21.4,3,32.1c-2,10.6-9.2,20.9-19.6,23.9
	c-1.3-10.6-4.1-21.1-8.2-31c-3.2-7.8-7.3-15.5-8.7-23.8c-1.4-8.8,0.2-17.8,0.1-26.7c-0.3-32.8-24.1-56-53-66.4
	C670,302.9,712.1,407.1,718.8,431.2z"/>
    <path opacity="0.35" fill="#CE5300" d="M440.7,327.7c-18.5,10.7-34.7,26.3-55.4,31.7c6.4-21.4,23.1-38.7,42.8-49.1
	c19.8-10.4,42.4-14.3,64.7-14.7c12-0.2,24.1,0.5,35.6,3.7c16.1,4.5,30.8,13.9,41.7,26.6c-21.9,2.3-39.6-14.8-62.4-15.3
	C484.5,310.1,461,316,440.7,327.7z"/>
    <path opacity="0.35" fill="#CE5300" d="M587.2,693.7c-10.6,4.2-21.9,6.3-33.1,7.9c-22.6,3.3-45.4,5.2-68.2,5.7
	c19.2,20.7,50.3,28,78,22.6c16-3.1,31-10.1,44.5-19.2c7.2-4.9,31.2-19.8,32.1-29.4C643.5,650.4,595,690.5,587.2,693.7z"/>
    <path fill="#F7E180" d="M700.5,596.1c-5.3,1.3-11.4,0-14.9-4.1c-10.9-13.1,24.2-74.9,36.2-71.4C753.9,529.9,720.7,591.2,700.5,596.1
	z"/>
    <path fill="#F7E180" d="M356.6,596.7c6.2,8.6,14.1,15.8,22,22.9c-20.7-6.7-41-16.1-56.9-30.9c-18-16.8-49.9-91.8-3.4-94.7
	C349.5,492.1,339.5,572.9,356.6,596.7z"/>
    <path fill="#FFB115" d="M531.1,457.4c-9,3-18.8,8-21.2,17.2c-1.5,6,0.7,12.6,4.8,17.2c4.1,4.6,9.9,7.5,15.8,9.3
	c22.5,6.8,49-2.6,62.2-22.1c7.7-11.4,12-37.6-7-39.9c-6.2-0.7-14.3,6.8-19.9,8.9C554.7,452.5,542.5,453.6,531.1,457.4z"/>
    <path fill="#FFB115" d="M481.7,508.7c-14.1-2.7-29.3,1.1-40.4,10.2c-2.9,2.4-5.7,5.4-5.8,9.1c-0.1,3,1.5,5.7,3.3,8
	c12.1,15.6,33.6,20.6,53.3,20.4c9.9-0.1,22.1-3,24.6-12.6c1.4-5.3-0.9-11-4.5-15.1c-3.7-4.1-8.5-6.8-13.3-9.5
	c-6.7-3.7-13.4-7.5-20.1-11.2"/>
    <g>
	<path d="M697.8,346.6c-0.1-0.8,0.1-2.1,0.7-3.9c0.5-1.8,1-3.1,1.4-3.6c0.4-0.6,0.9-0.9,1.5-1c0.5-0.1,1.3,0.3,2.4,1.1l3,2.3l3.2,3
		c1.1-0.7,2-1.2,2.6-1.5l4.8-3.2c2.1-1.2,3.7-2.2,4.8-3c1.1-0.8,2.1-1.1,2.9-1c0.8,0.1,1.6,0.9,2.4,2.3c0.6,1.3,0.7,2.8,0.2,4.7
		c-0.4,1.9-1,3.3-1.7,4.1c-0.7,0.9-2.4,2.1-5,3.7l-3.4,2c0.7,1.8,1,3.1,0.9,3.9c-0.1,0.8-0.4,1.7-1,2.9c-0.6,1.2-1.2,1.9-1.9,2.3
		c-0.7,0.3-1.4,0.5-2.1,0.4c-0.7-0.1-2.4-1.4-5.1-3.8l-6,3.8c1.9,1.1,3.5,1.9,4.6,2.5c1.1,0.6,1.9,1.1,2.4,1.6
		c0.5,0.5,0.7,0.9,0.6,1.1c-0.1,0.3-0.4,0.5-1.2,0.8c-0.7,0.3-2.1,0.1-4.1-0.5l-4.5-1l-3.6-0.8c-3.4,2.3-5.8,3.9-7.3,4.9
		c-1.5,1-4,2.6-7.5,4.9c-3.5,2.3-5.9,3.8-7.2,4.6c-1.3,0.8-2.4,1.3-3.4,1.4c-1,0.1-2.1,0-3.3-0.4c-1.2-0.4-2.5-1.3-4-2.7
		c-1.5-1.4-2.2-2.4-2.2-3.2c0-0.8,0.4-1.4,1.1-2l2.7-1.4c0.7-0.5,1.3-1.1,1.6-1.9c0.2-0.5,0.1-1.5-0.2-3.2c-0.3-1.6-0.2-2.6,0.1-2.8
		c0.3-0.2,0.7-0.2,1-0.1c0.3,0.1,0.6,0.6,0.9,1.4c0.2,0.8,0.6,1.7,1,2.6c0.5,1,0.9,1.6,1.3,1.8c0.4,0.3,1.6-0.3,3.7-1.6l10.4-7.2
		c-3.7-0.9-6.2-1.5-7.4-1.7c-1.2-0.2-2.2-0.5-2.7-0.9c-0.6-0.4-1-1.1-1.3-2.2c-0.3-1-0.2-2.4,0.4-4.1c0.5-1.7,1.1-2.7,1.7-3
		c0.6-0.3,2.1,0.1,4.5,1.3s6.4,3.1,12.1,5.7c1.7-1,2.7-1.6,3-1.8l5.3-3.3C698.8,348.7,697.9,347.3,697.8,346.6z M704.9,390.2
		l5.3,6.1c1,1.2,1.9,2,2.7,2.4l1.5,0.7c1,0.5,1.7,1.2,2.3,2c0.4,0.6,0.7,1.3,0.8,2c0.1,0.7-0.1,2-0.5,4c-0.4,1.9-0.8,3.2-1.1,3.9
		c-0.3,0.7-0.7,1.2-1.1,1.5c-0.4,0.3-1.5,0.6-3.2,0.8c-0.3,0-1.8,0.4-4.6,1.2c-2.7,0.8-5.4,1.2-8,1.3c-2.6,0.1-4.4,0-5.5-0.3
		c-1.1-0.3-2.5-1-4.4-2c-1.9-1-2.7-2.1-2.4-3.3c0.2-1,0.5-1.5,1.1-1.6l2.7-1c-1.8-2.2-3.3-4-4.6-5.7c-1.3-1.6-2.4-2.5-3.3-2.6
		l-2.4,0.2c-1.6,0.1-2.8-0.4-3.5-1.3c-0.7-1-0.4-2.2,1-3.6c1.3-1.4,3.8-3.5,7.3-6.3l5.7-5.2c0.4-0.4,1.8-1.5,4-3.2l2.1-1.6
		c-0.7-0.3-1.7-0.7-3.1-1.1c-1.3-0.4-2-0.8-2-1.3c0-0.4,0.1-0.8,0.3-1c0.2-0.3,0.9-0.4,2-0.5c1.1,0,2.5-0.2,4.3-0.5l7.2-1.3
		l11.3-1.6c2.9-0.5,6.9-1.3,11.9-2.5c-0.5-1-0.8-1.7-0.9-2.1c-0.1-0.5,0.1-1.5,0.5-3c0.4-1.5,0.9-2.5,1.4-3c0.5-0.4,1.3-0.5,2.6-0.1
		c0.8,0.3,1.9,1.5,3.3,3.7l5.2,6.2c2,2.7,3.3,4.2,3.8,4.6l2.3,1.5c0.9,0.8,1.4,2.2,1.5,4.2c0.1,1.6-0.2,3.5-0.7,5.7
		c-0.5,2.1-1.1,3.5-1.7,4c-0.6,0.5-1.4,0.9-2.3,1.2l-5.1,1.2c-0.7,0.2-3.2,1-7.5,2.6c-4.3,1.5-7.4,2.2-9.4,2.1
		c-2-0.2-4.2-0.6-6.5-1.3c-2.3-0.7-3.8-2-4.7-4c-0.9-2-1.2-3.3-1-3.8c0.2-0.6,0.8-1,1.6-1.3l1.5-0.6c0.8-0.5,1.3-1.5,1.4-3.1
		l0.4-3.3c-2.2,0.1-3.8,0.2-4.8,0.2l-4.5,0l-3.3,0c-0.3,0.5-0.5,0.9-0.6,1.1l-0.8,1.7l-1.8,2.1C701.4,387.1,703.5,388.8,704.9,390.2
		z M702.6,404l3.5-1.4c-2.1-3-4.4-5.6-6.9-7.7c-2.5-2.1-3.8-3.4-3.8-3.9l-0.6-2.4c-2.2,2.1-4.2,4-5.9,5.7c1.2,1.5,2.1,2.6,2.7,3.3
		l3.8,4.1l2.8,3.5C700.6,404.7,702,404.3,702.6,404z M716.9,382.4c0.1,0.8,0.2,1.5,0.4,2c0.2,0.5,0.6,1,1.4,1.4
		c0.9,0.5,2.6,0.3,5.2-0.5l7-2.1c1.6-0.5,4.4-1.7,8.5-3.4c-1.6-1.8-3.2-3.5-4.7-5c-1,0.9-1.8,1.5-2.5,1.9c-0.7,0.4-1.5,0.7-2.5,0.9
		c-1,0.2-3.7,0.6-8,1.3l-5.2,0.8C716.7,380.7,716.8,381.6,716.9,382.4z"/>
</g>
    <g>
	<path d="M371.5,614.4c1.9-1.3,3.6-2.6,5.1-4c1.5-1.3,2.5-2.1,2.9-2.3c1.2-0.8,2.5-1.3,4-1.5s2.7,0.6,3.5,2.3c0.6,1.3,0.7,3,0.2,5
		c-0.4,2-1.4,3.7-2.9,5.2l-8.2,4.9l-5.1,3.7c1,0.9,1.9,1.7,2.8,2.5c0.8,0.7,1.3,1.4,1.5,1.9c0.2,0.6,0.2,1.7-0.2,3.1
		c-0.3,1.4-1,2.5-2.1,3.2c-1.1,0.7-2.2,0.7-3.4,0l-2.6-4.2l-1.3-1.1c-0.3,1.5-0.7,2.5-1.4,2.9c-0.7,0.4-1.9,0.2-3.9-0.6
		c-1.7,1.2-3,2.1-3.8,2.7l-4.1,2.9c-3.4,2.5-5.9,4.2-7.4,5.1l-7.7,4.9c-2.3,1.6-3.9,2.5-4.9,2.6c-1.3,0.1-4.1-0.9-8.4-3.1
		c-4.3-2.2-5.2-4.2-2.5-6l2.2-0.8c0.2-0.1,0.4-0.3,0.6-0.6c0.1-0.2,0.4-0.9,0.9-2.2l1.4-3.4c0.3-1.8,0.7-3,1.1-3.5
		c0.4-0.5,0.8-0.1,1,1.2l-0.2,5.1c0.1,1,0.5,1.9,1.3,2.6s2.7-0.2,5.9-2.5c4.7-3.5,7.1-5.2,7.2-5.3l2.9-2.4c-2.6-0.6-4.6-1-6-1.4
		c-1.5-0.3-2.5-0.6-3.2-0.9l-6-2.6c-3.6-0.8-5.4-1.5-5.4-2.2c0-0.7,0.1-1.1,0.4-1.4c0.3-0.3,0.8-0.3,1.7-0.1
		c0.9,0.2,1.9,0.3,3.3,0.4l4.6,0.4c1,0.1,3.6,0.2,7.7,0.4s6.7,0.2,7.6,0.2l4.9-0.2c0.8-0.6,1.4-0.9,1.6-1l1.4-1
		c-1.3-1.4-2.9-3-5-4.9c-2.1-1.9-3.4-3.2-4-4c-0.6-0.8-0.8-1.4-0.5-2l0.7-3.2c-1.9,1.1-3.7,2.2-5.3,3.2c-1.6,1-3.3,2.2-5,3.5
		c-1.9,1.5-3.1,2.3-3.4,2.6l-3.8,2.3c-1.1,0.7-1.8,1.1-2.2,1.3c-0.6,0.2-1.1,0.3-1.7,0.2l-2.1-0.4l-3-0.6c-1.5,4.5-3,7-4.4,7.7
		c-1.5,0.6-2.8,0.8-4,0.5c-1.2-0.3-1.8-1.3-1.8-3c0-1.7,0.3-3.3,1-4.7c0.6-1.4,2.3-4.6,5.1-9.7c-1.9,0-3.3,0-4.1,0
		c-0.9-0.1-2.3-0.2-4.5-0.5c-2.1-0.3-3.9-0.6-5.2-1s-2.8-1-4.2-1.8c-1.5-0.9-2.4-1.4-2.9-1.5c-0.5-0.1-0.8-0.3-0.9-0.5
		c-0.1-0.2-0.1-0.5,0.1-0.8c0.2-0.3,0.7-0.4,1.5-0.3c0.8,0.1,1.6,0.2,2.4,0.2c0.8,0,2.4,0.1,4.8,0.3c2.4,0.2,4.6,0.2,6.6-0.1
		l3.6-0.5c-0.6-0.6-1.5-1.5-2.9-2.7c-1.4-1.2-2.1-1.9-2.2-2c-0.4-1-0.4-1.9,0-2.8c0.4-0.9,0.9-1.7,1.6-2.6c0.7-0.8,1.2-1.4,1.6-1.6
		c0.5-0.3,1-0.4,1.5-0.3l2.2,2.4l2,1.7c1.3-0.8,2.1-1.3,2.5-1.5c0.3-0.2,2.5-1.7,6.6-4.4l14-8.7c1.3-0.8,2.5-1.9,3.8-3.2
		c1.3-1.3,2-2,2.3-2.1c0,0,0.9-0.1,2.6-0.3c1.7-0.2,2.7-0.2,3.2,0c0.4,0.2,0.9,0.7,1.4,1.6l1.2,3c0.3,0.8,1.1,2.1,2.5,4
		c0.6,0.9,1.1,1.4,1.6,1.5l2.1,0c0.7,0.1,1.3,0.5,1.8,1.3c0.5,0.8,0.8,1.6,0.8,2.6c0,0.9-0.1,2.4-0.5,4.3c-0.3,1.9-0.6,3.1-0.9,3.7
		s-0.6,1-0.9,1.2c-0.3,0.3-1.3,0.8-2.9,1.5c-1.6,0.7-2.7,1.3-3.2,1.7l-3.9,2.5c1.2,1.4,2.1,2.5,2.7,3.2l1.9,2.9l2.3,2.9l3.5,4.4
		C367.2,617.4,369.6,615.7,371.5,614.4z M321.4,611.7l0.9,3.3c1.1-0.6,1.9-1,2.2-1.2l1.1-0.8l-1.7-1.7L321.4,611.7z M334.3,607.3
		l5.9-3.9l3.3-2.5l4.8-3.5c1.4-1,2.9-2.2,4.6-3.5l5.1-4.1c-2-1.4-3.5-2.1-4.5-2.4c-1.1-0.2-2.8,0.4-5.2,1.9l-2.9,1.7
		c0.7,0.9,1.3,1.7,1.7,2.3c0.4,0.6,0.6,1.3,0.6,2.1c0,0.8-0.4,1.3-1.3,1.7c-0.9,0.3-1.6,0.1-2.2-0.9l-2.8-3.2
		c-1.9,0.5-3,0.9-3.3,1.2l-1.6,1.3c1,0.9,1.5,1.5,1.7,1.9c0.2,0.4,0.5,1.2,1,2.6c0.5,1.4,0.3,2.3-0.6,2.7c-0.8,0.5-1.8,0.2-3-0.8
		l-2.4-2.5l-1.9-1.1c-2.3,0.8-3.5,1.2-3.8,1.4l-3.3,2c1.5,1.5,3,2.7,4.3,3.5c1.3,0.8,2,1.3,2.1,1.5l1.2,2.2
		C332.9,608.3,333.7,607.7,334.3,607.3z"/>
</g>
    <g>
	<path d="M400.5,288.3c-0.7-0.5-1-0.9-1-1.1c0.1-0.3,0.5-0.5,1.4-0.7c0.6-0.1,1.8-0.2,3.6-0.3c1.8,0,4-0.2,6.5-0.6l7.2-1
		c1.7-0.3,4.2-0.8,7.5-1.5c3.3-0.7,6-1.2,8-1.4c2.1-0.3,3.4-0.1,4,0.6c0.3,0.4,0.6,1.1,0.7,2.1c0.2,1,0,2.1-0.6,3.2
		c-0.7,1.2-1.6,2.1-2.7,2.6l-2,1c2.3,2.4,3.7,3.7,4.3,4c0.5,0.3,1.2,0.6,2,0.9c0.8,0.3,1.3,0.5,1.6,0.8c0.2,0.3,0.4,0.7,0.4,1.4
		c0,1.1-0.5,2.3-1.3,3.5c-0.9,1.2-1.6,1.9-2.1,2.2c-0.4,0.2-1,0.4-1.7,0.4c-0.7,0.1-2.9-0.2-6.7-0.7c1.1,1.3,1.9,2.3,2.3,3
		c0.4,0.8,0.7,1.6,0.8,2.6c0.1,0.9-0.4,1.9-1.5,2.8c-1.1,0.9-2,0.8-2.8-0.2l-3.7-3.1l-4.1,2c1.9,2.4,2.5,4.1,1.6,4.9
		c-0.9,0.8-1.6,0.9-2.4,0.2l-3.8-2.3l-2.6,1.5c0.4,0.7,0.7,1.4,1.1,2.1c0.4,0.6,0.7,1.2,0.8,1.6c0.1,0.4,0.1,0.9-0.2,1.4
		c-0.3,0.5-1.1,0.8-2.5,1c-1.4,0.1-2.3-0.1-2.7-0.7l-1.9-2.1l-3.5,1.7c2,3.1,3.2,5,3.5,5.7c0.3,0.7,0.5,1.4,0.4,2
		c0,0.6-0.4,1.4-1.1,2.4c-0.7,1-1.4,1.6-2.2,1.7c-1,0.1-2-0.7-3.2-2.3c-1.1-1.7-1.8-2.7-2.1-3.2l-8.4-11.7l-1.7-2.2l-1.6-2.1
		l-2.8,1.4c2.2,4.9,4.5,9.3,7.1,13.2c3.2,4.9,6.5,9.4,9.7,13.4c3.3,4,5.7,6.9,7.4,8.7c1.7,1.8,1.6,2.6-0.4,2.5
		c-0.6-0.1-1.5-0.5-2.5-1.3c-1-0.8-2.1-1.4-3.1-1.6c-1-0.2-2-0.1-3,0.3l-2.3,1.1c-1.3,0.4-2.7,0.2-4.3-0.6
		c-1.6-0.8-4.9-4.9-9.8-12.4c-2.4-3.7-4.6-7.7-6.6-12.1s-3.3-8.3-4.1-11.6c-0.8-3.3-1.1-6.1-1-8.3l0.1-4.5c-1-1.2-1.9-1.9-2.6-2.2
		l-2.9-1.1c-0.4-0.4-0.5-1.4-0.4-2.8c0.1-1.6,0.4-2.9,0.9-4c0.5-1,1.1-1.7,1.7-1.9c0.4-0.2,1.4-0.1,2.8,0.1c1.4,0.2,2.7,0.6,3.8,1.2
		c1.1,0.5,2.3,1.7,3.8,3.5c1.1-1.5,2-2.6,2.7-3.4c0.7-0.8,1.8-1.9,3.4-3.2c1.6-1.3,2.8-2.2,3.6-2.5l2.1-0.9
		c-2.7-1.4-4.2-2.4-4.5-2.9c-0.8-1.2-0.5-2.9,0.7-5.2c1.2-2.3,2.1-3.5,2.6-3.6c0.5-0.1,1,0,1.5,0.3c0.6,0.3,1.2,0.9,1.9,1.7
		s1.6,1.7,2.8,2.8c1.1,1.1,2.1,2.1,2.8,2.9c0.7,0.8,1.4,1.3,1.9,1.5l2.1,0.7c0.5,0.5,0.7,1.3,0.5,2.6c-0.2,1.2-0.8,2.2-1.9,3
		c-1.1,0.8-2.7,1.2-4.7,1.2l-2.7,0c-1.4,0.1-2.7,0.4-4,1c-1.3,0.6-2.8,1.7-4.5,3.4c-2.3,2.1-3.5,3.8-3.8,5.1c-0.3,1.3-0.3,3,0.1,5.1
		c0.4,2.1,0.7,3.8,1.2,5.2c1.2-0.7,2.2-1.2,2.8-1.6l7.2-4.1l7.2-3.9l6.2-3.6l3.1-1.6C404.3,289.7,401.2,288.8,400.5,288.3z
		 M393.4,307.1l5.8,6.6l3.4-1.8c-1.5-2-3.2-4.2-5.2-6.9L393.4,307.1z M402.3,302.1l5.6,6.2l2.6-1.3c-1.9-2.4-3.6-4.4-5.2-6.2
		L402.3,302.1z M409.5,298.3c1.8,1.9,3.8,3.9,5.9,5.8l3.6-2.1c-1.6-2-3.1-4-4.5-6.2L409.5,298.3z M413.5,266.8
		c1.9-1.1,3.6-0.8,4.9,0.9c1.3,1.7,1.6,3.6,0.8,5.7c-0.7,2.1-1.9,3.6-3.4,4.7c-1.7,1.1-3.2,0.9-4.3-0.7c-1.2-1.5-1.4-3.4-0.8-5.9
		C411.3,269,412.3,267.4,413.5,266.8z M425.8,299.2c1.5-0.2,2.7-0.4,3.6-0.6c0.9-0.2,1.7-0.5,2.5-0.9c0.8-0.4,1.3-0.8,1.3-1.2
		c0-0.4-0.3-0.9-1-1.6l-3.2-3c-1,0.1-2.2,0.2-3.8,0.3c-1.6,0.2-2.4,0.2-2.5,0.2l-3.5,0.1C422.8,296.1,425,298.3,425.8,299.2z"/>
</g>
    <g>
	<path d="M640.1,709c-0.4,2.2-1.3,3.6-2.8,4.3c-0.5,0.3-1.7,0.3-3.5,0.2c-1.8-0.1-2.8-1-3.1-2.8c-0.1-0.6,0-1.4,0.3-2.5
		s0.7-2.4,1.4-3.8c0.6-1.5,1-2.4,1.1-2.9l0.7-4.8c0.1-1,0.3-2,0.7-3c0.3-1,0.6-1.6,1-1.7l1.3-0.9c-1.7-0.4-3.4-0.7-5.2-1
		c-1.8-0.3-4-0.8-6.6-1.4c-2.6-0.6-4.1-1-4.5-1.1c-0.4-0.2-0.9-0.4-1.5-0.8c-0.6-0.4-1.4-0.9-2.2-1.5c-0.9-0.6-1.4-1.1-1.7-1.2
		s-0.6-0.6-1-1.2c-0.4-0.6,0.2-0.6,1.7,0c1.5,0.6,5.6,1.1,12.4,1.5c-1-1-2.1-1.9-3.5-2.9c-1.4-0.9-1.9-1.8-1.6-2.6
		c0.3-0.8,1-1.7,2-2.5l0.9-0.8c1.3,0.7,2.6,1.7,3.9,2.9c1.3,1.2,2.2,1.7,2.6,1.6c0.4-0.1,1.8-1,4.3-2.6c2.4-1.6,5-3.1,7.7-4.5l5.8-3
		c1.2-0.7,2.1-1,2.9-1c0.8,0,1.4,0.5,2,1.3c0.6,0.9,0.5,1.7-0.1,2.4c-0.6,0.7-1.3,1.2-2,1.4l-2.7,0.9c2.5,2.4,4.3,4.5,5.6,6.1
		c1.2,1.6,1.5,2.6,0.9,3.1c-0.6,0.5-1.3,0.6-2.1,0.4c-0.8-0.2-2.3-1.4-4.5-3.6l-2.7-2.4c-1-1.1-1.5-1.5-1.6-1.4l-2.2,1.4
		c1.3,1.4,2.8,2.7,4.4,3.8c1.6,1.2,2.5,2.1,2.9,3c0.4,0.8,0.4,1.6,0,2.3c-0.4,0.7-1,1-1.8,0.9c-0.8-0.1-1.4-0.3-1.9-0.5
		c-0.5-0.3-1.8-1.5-4-3.7c-2.2-2.2-3.5-3.1-3.7-2.8l-2.4,1.6c0.2,0.2,1.2,1,3,2.4c1.8,1.5,3.4,2.7,4.7,3.6c1.3,0.9,1.9,1.5,2,1.6
		l0.4,1.9l14.4-9.8c-4.8-3.6-7.3-5.7-7.7-6.3c-0.2-0.3-0.3-0.7-0.3-1.1c0-0.4,0.2-0.8,0.5-1.3c0.4-0.5,1-0.6,1.8-0.5s3,1.8,6.5,4.8
		c3.5,3.1,4.8,5.9,4.2,8.5c-0.3,1.1-0.9,2.2-1.9,3.2c-1,1-3.2,2.7-6.8,5.2s-5.9,3.9-6.9,4.5l-2.4,1.1c-0.8,0.4-1.4,0.6-1.7,0.7
		l-2.6,0.8c-1.3,0.4-2,0.6-2.2,0.5l-1.3-0.1C640.8,704.9,640.5,706.8,640.1,709z M640.4,696.4c0.9-0.3,1.6-0.5,2-0.7l1.1-0.6l2-1
		c-0.8-0.6-1.9-1-3.3-1.5l-4.5-1.4C638.7,692.8,639.6,694.5,640.4,696.4z M656.5,659.8c-0.2-0.5-0.2-1.3,0.1-2.3
		c0.2-1,0.6-1.6,1-1.8l5.5,4.4c0.2,0,0.6-0.2,1.3-0.5c0.7-0.4,1.1-0.6,1.2-0.8l-0.6-1.5c-0.1-0.2-0.1-0.7,0-1.5l0.1-1.3l0.3-1.4
		c0-0.4,0.1-0.6,0.2-0.7c0.1-0.1,0.5,0.1,1.2,0.5l3,1.9c1.8,1.4,3.4,3.2,4.9,5.6c0.4,0.7,0.8,1.7,1.3,2.8c0.4,1.2,0.4,2,0,2.4
		c-0.4,0.4-0.9,0.6-1.5,0.7c-1,0.1-1.7,0-2.2-0.4s-1-0.8-1.6-1.3c-0.5-0.5-1-0.8-1.3-0.8c-0.3,0-0.7,0-1,0.3s-0.5,0.4-0.5,0.7
		c0,0.2,0.5,0.7,1.4,1.3l1.6,1.5c1.1,0.9,3.5,0.9,7.1-0.1l3.9-1.1c-1.1-0.3-2-0.9-2.7-1.7c-0.6-0.8-0.9-1.5-0.9-2.1l0.4-2.8
		c-0.1-0.1-0.4-0.4-0.8-0.8c-0.4-0.4-1-1-1.8-1.8c-0.8-0.8-1.7-1.7-2.8-2.7c-1.1-1-1.7-2.4-1.8-4.4l-0.2-2.4
		c0.1-0.3,0.3-0.6,0.8-0.9c0.4-0.3,1-0.3,1.6-0.1c0.4,0.1,0.9,0.7,1.7,1.6l4.5,5c0.9,1.5,1.7,2,2.5,1.7c0.1-0.1,0.5-0.6,1-1.4
		c0.5-0.9,1.1-1.5,1.7-1.8c0.6-0.3,1.4,0.3,2.6,1.9c1.1,1.6,1.5,3.2,0.9,5c-0.7,2.3-1.1,3.7-1,4.1c0.1,0.4,0.5,1.1,1.3,2.2
		c0.8,1.1,1.9,2.8,3.3,5.1c1.4,2.3,2.5,3.7,3.1,4.3l2.8,2c0.3,0.3,0.5,0.6,0.8,1c0.6,1.1,1,2,0.9,2.7c0,0.8-0.3,2.1-0.9,4.1
		c-0.6,2-0.9,3.2-1.1,3.6c-0.2,0.4-0.5,0.8-1,1.1c-0.5,0.3-1,0.5-1.5,0.5c-0.6,0-1.3-0.4-2.2-1c-0.9-0.6-1.4-1.5-1.5-2.6
		c-0.1-0.2-0.1-0.9,0-2c0-1.1-0.3-2.1-0.9-3.1c-0.7-1-1.6-1.8-3-2.6c-0.4,0.6-0.8,1-1.2,1.2c-0.4,0.2-1.2-0.1-2.3-1
		c-1.1-0.9-1.6-1.4-1.6-1.4l-1.5,0.8c1.3,1.4,2.5,2.6,3.5,3.7c1.1,1.1,1.6,2,1.7,2.9c0.1,0.9-0.1,1.5-0.5,1.8
		c-0.4,0.3-0.8,0.5-1.2,0.5l-1.8-0.6l-2.7,3.2c0,0-0.3,0.2-0.6,0.6l-1.2,1.2c-0.3,0.2-0.6,0.4-0.8,0.5c-0.6,0.3-1.7,0.3-3.3,0
		c-1.6-0.2-2.6-0.8-2.8-1.6c-0.3-0.8,0.4-1.6,2.1-2.3c-4.6-5.6-7.2-8.5-7.8-8.8c-0.6-0.3-1.3-0.5-2.1-0.7c-0.7-0.2-1.4-0.5-2-0.9
		c-0.6-0.4-0.8-0.9-0.7-1.5c0.1-0.6,0.6-1.2,1.6-1.6l5.2-2.6l1.2-0.9c-1.4-0.7-2.7-1.6-3.8-2.5c-1.1-1-1.9-1-2.5-0.1
		c-0.4,0.5,0,1.1,1.2,1.6c1.2,0.6,1.7,1,1.8,1.2s0,0.5-0.2,0.7c-0.2,0.2-0.6,0.4-1.2,0.5c-1.2,0.2-1.9,0.3-2.1,0.3
		c-0.2,0-0.5-0.1-0.8-0.2l-9.5-5.5l-5.5-2.1c-1.2-0.7-1.3-1.7-0.3-3.1c1-1.3,1.6-2.1,1.9-2.2c0.2-0.2,0.7-0.3,1.5-0.5
		c0.8-0.2,2.1,0.5,3.9,2c1.8,1.5,2.9,2.2,3.3,2l2-0.7C657.4,661.2,656.7,660.3,656.5,659.8z M650,649.4c0.2-0.5,0.4-0.8,0.5-1
		c0.1-0.1,0.7-0.7,1.6-1.8c1-1.1,1.5-1.6,1.5-1.6l9.4-2.5l4.3-2.1c2.2-0.7,3.6-0.5,4.2,0.5c0.2,0.4,0.3,1.3,0.1,2.7
		c-0.2,1.4-1.1,2.8-2.9,4.3c-1.8,1.4-4.1,2.6-7,3.4c-2.1,0.5-3.6,1-4.6,1.4c-1,0.4-1.7,0.5-2.1,0.3l-1.7-0.5
		C650.9,650.9,649.8,649.9,650,649.4z M671.9,674.7c-0.4-0.4-0.6-0.6-0.7-0.6c-0.1,0-0.6,0.2-1.5,0.9c-0.9,0.6-1.3,1.1-1.3,1.3
		c0,0.3,0.8,1.1,2.5,2.5c1.1-0.6,1.8-1,2.1-1.2l1.5-1C673.1,675.8,672.3,675.1,671.9,674.7z M678.2,674.5c1.3-0.3,1.8-0.7,1.8-1
		l-0.7-1.3l0.6-1l-2.8-0.3l-3.6-0.7C675.1,671.6,676.6,673,678.2,674.5z M676.6,684.9l3.2-2c-1-2-1.8-3-2.2-2.9
		c-0.4,0.1-0.9,0.4-1.4,0.8l-0.7,0.5l-1.4,0.9C675.6,684.2,676.4,685.1,676.6,684.9z M683.7,669.4l-1.1,1.3c1.2,1.8,2.3,3,3.1,3.9
		c0.9,0.8,1.4,1.3,1.7,1.4c0.2,0.1,0.7,0.3,1.5,0.6c0.8,0.3,1.8,0.4,3.1,0.5c-4.6-7.5-7.2-11-7.7-10.7l-1,0.5
		C683.8,668.3,684,669.2,683.7,669.4z"/>
</g>
</svg>
