<?xml version="1.0" encoding="utf-8"?>
<!-- Generator: Adobe Illustrator 22.0.0, SVG Export Plug-In . SVG Version: 6.00 Build 0)  -->
<svg version="1.1" id="柳浪闻莺" xmlns="http://www.w3.org/2000/svg" xmlns:xlink="http://www.w3.org/1999/xlink" x="0px"
     y="0px" viewBox="0 0 1024 1024" style="enable-background:new 0 0 1024 1024;" xml:space="preserve">
<style type="text/css">
	.st0{fill:#EEEBE6;}
	.st1{fill:none;}
	.st2{fill:#99000F;}
	.st3{clip-path:url(#SVGID_2_);}
	.st4{opacity:0.1;}
	.st5{fill:none;stroke:#253A59;stroke-width:40;stroke-miterlimit:10;}
	.st6{fill:none;stroke:#253A59;stroke-width:20;stroke-miterlimit:10;}
	.st7{opacity:0.2;}
	.st8{fill:none;stroke:#253A59;stroke-width:10;stroke-miterlimit:10;}
	.st9{opacity:0.5;}
	.st10{fill:none;stroke:#253A59;stroke-width:5;stroke-miterlimit:10;}
	.st11{opacity:0.3;}
	.st12{fill:url(#SVGID_3_);}
	.st13{fill:none;stroke:#253A59;stroke-width:1.5;stroke-miterlimit:10;}
	.st14{fill:none;stroke:#253A59;stroke-width:3;stroke-miterlimit:10;}
	.st15{fill:none;stroke:#253A59;stroke-width:2;stroke-miterlimit:10;}
	.st16{fill:url(#SVGID_4_);}
	.st17{fill:url(#SVGID_5_);}
	.st18{fill:url(#SVGID_6_);}
	.st19{fill:url(#SVGID_7_);}
	.st20{fill:url(#SVGID_8_);}
	.st21{fill:url(#SVGID_9_);}
	.st22{fill:url(#SVGID_10_);}
	.st23{fill:url(#SVGID_11_);}
	.st24{fill:url(#SVGID_12_);}
	.st25{fill:url(#SVGID_13_);}
	.st26{fill:url(#SVGID_14_);}
	.st27{fill:url(#SVGID_15_);}
	.st28{fill:url(#SVGID_16_);}
	.st29{fill:url(#SVGID_17_);}
	.st30{fill:url(#SVGID_18_);}
	.st31{fill:url(#SVGID_19_);}
	.st32{fill:url(#SVGID_20_);}
	.st33{fill:url(#SVGID_21_);}
	.st34{fill:url(#SVGID_22_);}
	.st35{fill:url(#SVGID_23_);}
	.st36{fill:url(#SVGID_24_);}
	.st37{fill:url(#SVGID_25_);}
	.st38{fill:url(#SVGID_26_);}
	.st39{fill:url(#SVGID_27_);}
	.st40{fill:url(#SVGID_28_);}
	.st41{fill:url(#SVGID_29_);}
	.st42{fill:url(#SVGID_30_);}
	.st43{fill:url(#SVGID_31_);}
	.st44{fill:url(#SVGID_32_);}
	.st45{fill:url(#SVGID_33_);}
	.st46{fill:url(#SVGID_34_);}
	.st47{fill:url(#SVGID_35_);}
	.st48{fill:url(#SVGID_36_);}
	.st49{fill:url(#SVGID_37_);}
	.st50{fill:url(#SVGID_38_);}
	.st51{fill:url(#SVGID_39_);}
	.st52{fill:url(#SVGID_40_);}
	.st53{fill:url(#SVGID_41_);}
	.st54{fill:url(#SVGID_42_);}
	.st55{fill:url(#SVGID_43_);}
	.st56{fill:url(#SVGID_44_);}
	.st57{fill:url(#SVGID_45_);}
	.st58{fill:url(#SVGID_46_);}
	.st59{fill:url(#SVGID_47_);}
	.st60{fill:url(#SVGID_48_);}
	.st61{fill:url(#SVGID_49_);}
	.st62{fill:url(#SVGID_50_);}
	.st63{fill:url(#SVGID_51_);}
	.st64{fill:url(#SVGID_52_);}
	.st65{fill:url(#SVGID_53_);}
	.st66{fill:url(#SVGID_54_);}
	.st67{fill:url(#SVGID_55_);}
	.st68{fill:url(#SVGID_56_);}
	.st69{fill:url(#SVGID_57_);}
	.st70{fill:url(#SVGID_58_);}
	.st71{fill:url(#SVGID_59_);}
</style>
    <path class="st0" d="M0,0v1024h1024V0H0z M512,980.4C253.3,980.4,43.6,770.7,43.6,512S253.3,43.6,512,43.6S980.4,253.3,980.4,512
	S770.7,980.4,512,980.4z"/>
    <circle class="st1" cx="512" cy="512" r="468.4"/>
    <g>
	<circle class="st1" cx="512" cy="512" r="468.4"/>
        <g>
		<g>
			<path class="st2" d="M752,370.6c-1.6-0.3-3.3,1.5-3.4,3.7c0.4,0.2,1,1,1.7,1.1c1.4,0.2,3.3-1.6,3.2-3.3
				C753.5,371.6,752.6,370.7,752,370.6z"/>
            <path class="st2" d="M702.6,175.7c2.5,0.9,4.6,0.2,6.5-1.3c5-4.2,19.7-3.3,24.6-0.9l0,0c0,0,0,0,0,0c0.1,0,0.2,0.1,0.3,0.1
				c0.1,0.1,0.3,0.2,0.4,0.3c1.1,0.6,3.3,1.8,4.6,2.4c0,0,0,0,0,0c0.2,0.1,0.4,0.2,0.6,0.3c1,0.5,2.2,0.8,3.2,1.1
				c1.2,0.4,2.5,0.6,3.6,1.2c0.5,0.2,1,0.9,1.1,1.5c0.4,1.4,0.7,2.8,1,4.2c0.3,1.4,0.8,2.9,0.9,4.3c0.5,4.9,0.9,9.5,1.6,14.4
				c0.1,0.9,1.5,1.6,2.3,2.4c0.4-0.9,1.2-1.7,1.3-2.6c0.1-5,0.1-9.9,0-14.9c0-3.2-1.1-6-4.4-7.8c-0.4-0.2-0.8-1-0.7-1.5
				c0.7-3.4,0.3-3.8-3-5.7c-4.4-2.6-9.4-3.5-14.3-4.1c-4.9-0.6-17.1-1.8-22.1,0.1c-0.8,0.3-1.8,0.2-2.7,0c-2.4-0.4-5,0.4-6.3,2.2
				C699.9,173.2,700.4,174.9,702.6,175.7z"/>
            <path class="st2" d="M746.3,378.5c-3,2.4-6.4,1.8-9.9,1.4c-2.3-0.3-4.7-0.2-7-0.2c-3,0-13,0.4-16,0.2c-2.6-0.2-5.2-0.7-7.6-1.6
				c-2.8-1.1-5.3-2.8-8.1-4.1c-3-1.4-4.8-3.5-5.1-6.5c-0.2-1.9-0.4-3.8-0.6-5.6c-0.7-8.8-1.6-17.6-2.1-26.4
				c-0.3-5.2,0.4-6.3,0.2-11.5c-0.2-7.8-0.7-6.4-1-14.2c-0.2-5.7-0.4-1.5-0.6-7.2c-0.1-3.8-0.5-7.7-0.5-11.5
				c0.1-6.7,0.5-13.5,0.7-20.2c0.1-2.7-0.1-5.4-0.1-8.1c0.1-7.4,0.2-11.9,0.3-19.3c0-5.8,0-9.1-0.1-14.9c0,0-0.4-3,0-4.3
				c0,0,0,0,0-0.1c0,0.5,0,0.7,0,0.7c0-0.3,0-0.5,0-0.8c0.3-1.1,0.5-2.9,0.2-4.8c0,0,0-0.1,0-0.1c0.1-2,0.2-3.9,0.3-6.7
				c0.1-2.4,0-4.9,0.2-7.3c0-0.3,0.1-0.7,0.2-1c0.2-1.3,0.7-3.6,1-4.2c0.5-0.8,0.6-4.4,0.7-5.5c0-0.1,0-0.2,0-0.3
				c0.1-0.5,1.1-1.2,1.8-1.3c1.9-0.2,2.7-1.1,2.7-2.7c0-2,0.3-4-0.2-5.8c-0.8-2.8-0.1-4.9,1.8-7.1c0.6-0.7,0.2-2,0.3-3
				c-1.1,0.3-2.4,0.3-3.2,0.9c-1.7,1.3-2.9,3.1-4.5,4.5c-2,1.7-3.1,3.6-3.1,6c0,0.8-0.3,1.6-0.4,2.4c-0.8,7-2.3,13.7-2.4,20.7
				c-0.2,13.1,0.5,13.3,0.7,26.4c0.2,8.9,0.2,14.9,0.2,23.8c0,2.6-0.1,5.3-0.1,7.9c0.1,4,0.4,8.1,0.3,12.1
				c-0.2,9.9-0.9,15.9-0.9,25.8c0,11.1,0.5,6.8,0.7,17.9c0.2,14.4,0.3,24.6,0.6,39c0.1,6.2,1.1,12.3,5.5,17.6c2.5,3.1,5.6,5,8.8,4.3
				c7.8-1.6,22.6-0.7,30,1.1c5.9,1.5,10.8,0.2,15.7-2.1c1.9-0.9,2.9-2.4,2.5-4.7C747.5,378.2,746.7,378.2,746.3,378.5z"/>
            <path class="st2" d="M754,211c-0.1-0.9-0.9-1.7-1.4-2.5c-0.3,0.1-0.7,0.1-1,0.2c-0.2,1.3-0.7,2.6-0.7,3.9c0,5.7,0.1,1,0,6.7
				c0,4.4-0.2,6.4-0.3,10.8c0,1.1-0.4,1.7-1.2,1.9l0.9,4c0.2,0.1,0.5,0.1,0.7,0.2c0.8,0.2,1.8,0.8,2.4,0.6c0.6-0.3,1.1-1.2,1.1-2
				c0.2-1.3-0.1-2.7,0-4C755.2,219.8,755.5,221.9,754,211z"/>
            <path class="st2" d="M757.1,348c-0.5-11.8-0.5-14.8-0.7-26.7c-0.1-5.2,0-5.7-0.1-10.9c-0.2-5.8-0.6-1.5-0.9-7.3
				c-0.1-1.3-0.1-2.6,0.2-3.8c0.4-1.9,0.4-3.7-1-5.4c-0.3-0.4-0.2-1.7,0.3-2c1.8-1.1,1.9-2.6,1.6-4.3c-0.7-4.7-1.8-9.5-1.9-14.2
				c-0.2-6.8,0.1-13.6,0.7-20.4c0.4-4.4-0.4-5.8-0.8-10.2c-0.1-0.5-0.6-0.9-1-1.4c-0.5,0.3-1.2,0.6-1.6,1c-0.4,0.5-0.6,1.1-0.8,1.7
				c0,0.1,0,0.2-0.1,0.3c-0.5,2-0.2,6.9-0.2,6.9l0,0c0.3,3.6,0.6,4.4,0.8,8c0,0.2-0.2,0.4-0.2,0.6c-0.2,1-0.4,2-0.5,2.9
				c-0.1,1.9-0.2,3.9-0.2,5.8c0,2.5,0.1,5,0.2,7.4c0.1,1.9,0.1,3.7,0.2,5.6c0,0.7-0.1,1.4,0,2c0.6,2.9-0.4,5.1-1,8.5
				c-0.2,1.1-0.2,2.2-0.2,2.5c0.1,4.5-0.1,3.1,0.1,7.6c0.1,1.9,0.9,1.8,0.9,3.7c0.2,6.8,0.3,5.1,0.5,11.9
				c0.2,10.4,0.4,11.9,0.6,22.3c0.1,4.2,0.1,8.5,0.1,12.7c0,1.9-0.2,3.9-0.3,5.8c-0.1,2.5-0.1,5.1-0.1,7.6c0,0.6,0.1,1.6,0.5,1.7
				c0.5,0.2,1.8,0,2-0.3c0.9-1.4,2-2.9,2.3-4.4C757.4,358.2,757.4,353.1,757.1,348z"/>
		</g>
            <g>
			<path class="st2" d="M706.9,181l4.3,2.1c0.2,0.1,0.2,0.3,0,0.4l-0.8,1.5v7.5h0.8l1.9-1.9l2.6,2.3c0.2,0.4,0.2,0.6-0.2,0.6
				l-5.1,0.2v3.6c2.7,1.3,4.4,2.3,4.9,3.2c0.1,1.1-0.4,2-1.5,2.6c-0.8,0.5-1.2,0.4-1.3-0.4c-0.6-1.7-1.3-3.2-2.1-4.3l-0.2,13.5
				l0.2,8.4c-0.1,1.6-1.1,3.2-2.8,4.9c-0.6,0.5-1,0.4-1.1-0.4l0.2-13.1v-7.7c-2,3.6-5.3,8-9.8,13.1c-0.1,0.1-0.3,0.1-0.4,0
				c-0.3-0.1-0.3-0.3-0.2-0.6c4.1-5.6,7.6-13.2,10.3-22.9h-1.3c-2,0-3.8,0.2-5.3,0.6l-1.3-1.5h7.9v-5.1c0-2.9,0-5,0-6.4
				C706.8,180.8,706.8,180.7,706.9,181z M722.7,190.9c0-0.4,0.1-0.5,0.4-0.4l3.9,1.9c0.4,0.1,0.4,0.4,0,0.8l-0.6,0.9v7.7
				c0.1,7.1-0.9,12.3-3,15.4c-1.9,3.1-6.3,6.5-13.3,10.1c-0.3,0-0.4-0.1-0.6-0.2c0-0.3,0.1-0.4,0.4-0.6c8.6-4.4,12.9-10.9,12.8-19.7
				l-5.4,6.2c-0.1,0.4-0.4,0.4-0.8,0.2l-2.3-2.8l2.4-1.3l-0.4-16.5l-0.2-6c0-0.2,0.1-0.4,0.2-0.4c0-0.1,0.1-0.1,0.4,0l3,2.6
				l-0.6,18.8l3.8-2.3c0-1.4,0-2.8,0-4.3v-3.4C722.9,194.2,722.8,191.9,722.7,190.9z M725.7,182.3l2.6,3c0.1,0.1,0,0.3-0.4,0.6
				c-1.1,0.4-3.6,1.2-7.3,2.4l-0.2-0.2C722.9,185.9,724.7,183.9,725.7,182.3z M729.4,186.1l3.4,2.4l3.9-0.4l1.5-1.9l3,1.7
				c0.4,0.1,0.4,0.4,0,0.8l-0.8,1.1v10.1l0.2,5.4c-0.3,2.5-1.6,4.4-4.1,5.6c0.1-1.6-0.4-2.8-1.5-3.6c-0.1-0.1-0.1-0.2,0-0.4
				c0.1,0,0.2,0,0.4,0c0.6,0.1,1,0.1,1.1-0.2c0.2-0.1,0.4-0.4,0.4-0.9v-16.9l-4.3,0.4l0.2,30.8c0,2.1-0.9,4.2-2.8,6.4
				c-0.3,0.2-0.5,0.4-0.8,0.4c-0.3,0-0.4-0.2-0.4-0.6l0.4-9.9v-24.4c0-0.9-0.1-2.1-0.2-3.8c0-0.9,0-1.5,0-1.9
				S729.2,185.9,729.4,186.1z"/>
                <path class="st2" d="M699.1,243.3c3.8,1.6,5.6,3.3,5.6,5.1c-0.3,1.3-1,2.1-2.3,2.6c-1.1,0.1-1.8-0.3-1.9-1.3c0-2.4-0.6-4.4-1.9-6
				C698.7,243.3,698.8,243.2,699.1,243.3z M709.9,243.5l-4.9,21.4c-0.3,1.4-0.3,2.4-0.2,3c0,0.6,0.2,1.3,0.6,2.1
				c0-0.1,0.1-0.1,0.2,0.2c0.2,0.9,0.2,1.6-0.2,2.1c-0.6,0.8-1.8,1.2-3.4,1.5c-0.8,0.1-1.1-0.3-1.1-1.3c0.4-2.1,0.5-3.7,0.4-4.7
				c0-1.2-0.6-2.1-1.9-2.6c-0.1-0.2-0.1-0.4,0.2-0.6c1,0.3,1.7-0.1,2.3-1.1l7.5-19.9c0.1-0.1,0.2-0.2,0.4-0.4
				C709.9,243.2,709.9,243.4,709.9,243.5z M704.9,230.9c3.8,1.6,5.7,3.4,6,5.3c-0.3,1.6-1.1,2.6-2.4,3c-1,0.3-1.7-0.1-2.1-1.1
				c-0.1-3.2-0.8-5.4-1.9-6.6c-0.1-0.1-0.1-0.2,0-0.4C704.5,231,704.6,230.9,704.9,230.9z M724.2,263.7c0.4-0.1,0.5,0,0.4,0.4
				l-7.9,5.8c-0.6,0.5-1.5,1.2-2.6,2.1c-1.1,0.9-1.9,1.4-2.3,1.7c-0.3,0.5-0.6,0.6-0.9,0.2l-2.8-2.4c-0.1-0.3-0.2-0.4-0.2-0.6
				c0-0.1,0.1-0.2,0.4-0.2c1.1-0.5,2.5-1,4.1-1.5c0.5-0.1,0.9-0.2,1.1-0.4l-0.2-25.7l-0.2-9.4c0-0.2,0.1-0.4,0.2-0.4
				c0.1,0,0.2,0.1,0.4,0.2l3.8,2.3h3.9v-6.6l5.3,1.5c0.4,0,0.4,0.3,0.2,0.8l-0.6,1.5l-0.4,2.6l3.9-0.2l1.5-2.4l4.5,2.4
				c0.1,0,0.2,0.1,0.4,0.2L736,236l-1.1,1.7v12l0.2,0.6c0.1,0.4,0,0.6-0.4,0.6c-1.4-0.1-2.6-0.2-3.6-0.2c-0.9,0-2.9,0-6,0
				c0.2,7.5,6.2,14.3,17.8,20.3c0.1,0.1,0.2,0.2,0.2,0.4c0,0.1-0.1,0.2-0.4,0.2c-2.4-0.4-4.7,0.5-6.9,2.6
				c-7-5.9-10.8-13.7-11.4-23.4c-1.9,0.1-4.3,0.2-7.3,0.2l-0.2,16.3L724.2,263.7z M717.4,236.9l-0.2,5.4l11.4-0.2
				c0.2,0,0.4,0.1,0.4,0.4c0,0.3-0.1,0.4-0.4,0.6l-11.4,0.4l-0.2,6.2l12.9-0.2v-12.9L717.4,236.9z M736.8,251.7l2.8,3.6
				c0.2,0.1,0.2,0.3-0.2,0.6l-1.5,0.4c-2.8,1-5.8,1.9-9,2.6l-0.2-0.2C731.9,256.5,734.6,254.2,736.8,251.7z"/>
                <path class="st2" d="M706.9,287.4l-0.4,29.3c-0.1,2-1.1,3.8-2.8,5.4c-0.5,0.4-0.8,0.4-0.9,0l0.2-13.7l0.2-19.5l-0.2-5.4l4.3,1.5
				c0.4,0.1,0.4,0.4,0.2,0.8L706.9,287.4z M707.9,309.7c-0.4,0-0.6-0.1-0.6-0.4c0-0.4,0.1-0.6,0.4-0.8l5.6-0.4v-17.8
				c-1.6,0.1-3,0.3-4.1,0.6l-1.3-1.3l18.8-0.4l2.3-2.4l2.8,2.8c0.2,0.1,0.2,0.3,0,0.6h-6.9l2.1,1.1c0.2,0,0.2,0.1,0,0.4l-0.4,1.1
				v14.3h0.6l2.3-2.8l3.4,2.8l0.2,0.4c-0.1,0.1-0.3,0.2-0.4,0.2l-6,0.6l0.2,6.8c-0.3,1.6-1.3,3.4-3,5.3c-0.5,0.4-0.9,0.3-1.1-0.2
				v-11.6L707.9,309.7z M708.1,277.3c4.4,1.5,6.5,2.7,6.4,3.6c0,1.5-0.6,2.7-1.9,3.6c-0.9,0.4-1.4,0.2-1.7-0.6
				c-1-2.7-2.1-4.8-3.2-6.2C707.6,277.3,707.7,277.1,708.1,277.3z M721.4,296.2l-4.5,0.2l-0.2,4.9l4.5-0.2c0.2,0,0.4,0.1,0.4,0.4
				c0,0.3-0.1,0.4-0.4,0.6l-4.5,0.2v5.8l5.8-0.6l0.2-17.3l-5.8,0.2v5.1h4.5C721.8,295.7,721.8,296,721.4,296.2z M723.8,282.7
				c-1.9,0.1-3.8,0.3-5.6,0.6l-1.3-1.3l15.9-0.6l2.3-2.1l3.6,2.4c0.2,0,0.2,0.2,0,0.6l-1.5,1.9l0.2,18.8l0.4,10.3
				c0.2,3.6-1.7,6.6-5.8,8.8c-0.3,0.1-0.4,0.2-0.6,0.2c-0.1-0.1-0.2-0.3-0.2-0.6c0-1.8-0.6-3.1-1.9-3.9c-0.3-0.4-0.2-0.6,0.2-0.6
				c2.6,0.1,3.8-0.5,3.6-1.9l-0.2-32.8L723.8,282.7z"/>
                <path class="st2" d="M699.8,362.9c-0.4,0-0.6-0.1-0.6-0.4c0-0.4,0.1-0.6,0.4-0.6l22.1-0.4l2.6-2.4l3,2.8c0.1,0.3,0,0.4-0.4,0.6
				L699.8,362.9z M723.3,335.7v-3.9l-6.9,0.2l-0.6,3.6c-1.1,0.9-1.9,1-2.3,0.4l-0.4-3.9h-6.6c-1.1,0-2.6,0.1-4.3,0.4
				c-0.5,0.1-0.8,0.2-0.9,0.2l-1.5-1.5l13.1-0.2l-0.6-5.4l5.3,1.3c0.2,0,0.2,0.2,0,0.6l-0.6,0.9l-0.6,2.6l6.8-0.2l0.2-5.6l4.9,1.9
				c0.2,0.1,0.2,0.3,0,0.6l-0.6,0.9l-0.8,2.3l8.6-0.2l2.4-2.4l3.4,3c0.2,0.4,0.2,0.6-0.2,0.6l-14.6,0.2l-1.3,3.9
				C724.4,336.2,723.8,336.2,723.3,335.7z M733.9,336.3l2.3-1.7l4.9,4.3c0.2,0.3,0.3,0.5,0.2,0.8c-0.1,0.1-0.4,0.2-0.8,0.2
				c-2.1,0.1-4.6,0.9-7.3,2.4c-0.3,0-0.4-0.1-0.4-0.4l1.3-4.5l-26.6,0.6c-0.8,3.5-2.6,6.3-5.6,8.3c-0.5,0.3-0.9,0.1-1.1-0.4
				c-0.6-1.4-0.6-2.4,0.2-3c2.7-2.1,3.9-4.5,3.6-7.1c0-0.4,0.1-0.6,0.2-0.6c0.1,0,0.4,0.1,0.8,0.2c0.5,0.3,1.1,0.8,1.9,1.5
				L733.9,336.3z M728.5,341.5l3.8,2.4c0.2,0.1,0.2,0.3,0,0.6c0.1,0,0.1,0.1,0,0.2l-0.9,1.1l-0.6,3.8c-0.4,2.4-1.8,3.9-4.3,4.5
				c-0.6,0.1-0.9-0.1-0.9-0.6c0.1-1.1-0.3-1.9-1.3-2.3c-0.3-0.2-0.2-0.4,0.2-0.4c1.4,0.3,2.1-0.1,2.3-0.9l0.6-4.3
				c0.2-0.6,0.1-1-0.6-1.1l-14.1,0.4l-0.6,0.9l-1.5,9.6l21.8-0.4l1.9-2.3l3.8,2.4c0.2,0.1,0.2,0.4,0,0.8l-1.1,1.1
				c-1,5.3-2.1,8.7-3.4,10.5c-0.9,1.4-2.6,2.4-5.3,3c-0.4,0.2-0.6,0.3-0.8,0.2c-0.3-0.1-0.3-0.4-0.2-0.8c0.1-1.8-0.4-2.9-1.7-3.4
				c-0.1-0.1-0.2-0.3-0.2-0.6c0.1-0.1,0.3-0.2,0.6-0.2c1.1,0.1,1.9,0.2,2.4,0.2c1.7-0.4,3.1-3.7,3.9-9.9l-21.9,0.4
				c-0.1,0.1-0.3,0.3-0.4,0.4c-0.6,0.8-1.5,1.3-2.6,1.7c-0.4,0.1-0.6,0.2-0.8,0.2c-0.3-0.1-0.3-0.3-0.2-0.6l0.8-4.5l1.3-8.1l0.4-3.8
				l3.6,2.1h0.6c1.7-2.3,3.2-4.2,4.3-6l3.2,2.4c0.2,0.1,0.2,0.3-0.2,0.4l-1.1,0.4l-5.3,2.6l12.8-0.2L728.5,341.5z M715.4,346.8
				c3.4,1,5.2,2,5.4,3c0,1.1-0.6,2-1.7,2.6c-0.8,0.5-1.3,0.4-1.5-0.4c-0.5-2.1-1.3-3.8-2.4-4.9C715.1,346.8,715.1,346.7,715.4,346.8
				z"/>
		</g>
	</g>
</g>
    <g>
	<defs>
		<circle id="SVGID_1_" cx="512" cy="512" r="468.4"/>
	</defs>
        <clipPath id="SVGID_2_">
		<use xlink:href="#SVGID_1_"  style="overflow:visible;"/>
	</clipPath>
        <g class="st3">
		<g>
			<g class="st4">
				<path class="st5" d="M-592.7,933.3c63.3,0,63.3,24,126.7,24c63.3,0,63.3-24,126.7-24c63.4,0,63.4,24,126.7,24
					c63.3,0,63.3-24,126.7-24c63.4,0,63.4,24,126.7,24c63.4,0,63.4-24,126.7-24c63.4,0,63.4,24,126.7,24c63.4,0,63.4-24,126.7-24
					c63.4,0,63.4,24,126.7,24c63.4,0,63.4-24,126.7-24c63.4,0,63.4,24,126.7,24c63.4,0,63.4-24,126.7-24c63.4,0,63.4,24,126.7,24
					c63.4,0,63.4-24,126.7-24s63.4,24,126.7,24c63.4,0,63.4-24,126.7-24c63.4,0,63.4,24,126.7,24c63.4,0,63.4-24,126.7-24
					c63.4,0,63.4,24,126.7,24c63.4,0,63.4-24,126.7-24c63.4,0,63.4,24,126.7,24c63.4,0,63.4-24,126.7-24c63.4,0,63.4,24,126.7,24
					c63.4,0,63.4-24,126.7-24c63.4,0,63.4,24,126.7,24s63.4-24,126.7-24"/>
			</g>
            <g class="st4">
				<path class="st6" d="M-421.8,1037.2c55.9,0,55.9,24,111.8,24c55.9,0,55.9-24,111.8-24c55.9,0,55.9,24,111.8,24
					c55.9,0,55.9-24,111.8-24c55.9,0,55.9,24,111.8,24c55.9,0,55.9-24,111.8-24c55.9,0,55.9,24,111.8,24c55.9,0,55.9-24,111.8-24
					c55.9,0,55.9,24,111.8,24c55.9,0,55.9-24,111.8-24c55.9,0,55.9,24,111.8,24c55.9,0,55.9-24,111.8-24c55.9,0,55.9,24,111.8,24
					c55.9,0,55.9-24,111.8-24c55.9,0,55.9,24,111.8,24c55.9,0,55.9-24,111.8-24c55.9,0,55.9,24,111.8,24c55.9,0,55.9-24,111.8-24
					c55.9,0,55.9,24,111.8,24c55.9,0,55.9-24,111.8-24c55.9,0,55.9,24,111.8,24c55.9,0,55.9-24,111.8-24c55.9,0,55.9,24,111.8,24
					c55.9,0,55.9-24,111.8-24c55.9,0,55.9,24,111.8,24c55.9,0,55.9-24,111.8-24"/>
			</g>
            <g class="st7">
				<path class="st8" d="M-510.9,985.3c44.2,0,44.2,24,88.4,24c44.2,0,44.2-24,88.4-24c44.2,0,44.2,24,88.4,24
					c44.2,0,44.2-24,88.4-24c44.2,0,44.2,24,88.4,24c44.2,0,44.2-24,88.4-24c44.2,0,44.2,24,88.4,24c44.2,0,44.2-24,88.4-24
					c44.2,0,44.2,24,88.4,24c44.2,0,44.2-24,88.4-24c44.2,0,44.2,24,88.4,24c44.2,0,44.2-24,88.4-24c44.2,0,44.2,24,88.4,24
					c44.2,0,44.2-24,88.4-24c44.2,0,44.2,24,88.4,24c44.2,0,44.2-24,88.4-24c44.2,0,44.2,24,88.4,24c44.2,0,44.2-24,88.4-24
					c44.2,0,44.2,24,88.4,24c44.2,0,44.2-24,88.4-24c44.2,0,44.2,24,88.4,24c44.2,0,44.2-24,88.4-24c44.2,0,44.2,24,88.4,24
					c44.2,0,44.2-24,88.4-24c44.2,0,44.2,24,88.4,24c44.2,0,44.2-24,88.4-24"/>
			</g>
            <g class="st7">
				<path class="st8" d="M-510.9,881.3c34.4,0,34.4,24,68.7,24c34.4,0,34.4-24,68.7-24c34.4,0,34.4,24,68.7,24
					c34.4,0,34.4-24,68.7-24c34.4,0,34.4,24,68.7,24c34.4,0,34.4-24,68.7-24c34.4,0,34.4,24,68.7,24c34.4,0,34.4-24,68.7-24
					c34.4,0,34.4,24,68.7,24c34.4,0,34.4-24,68.7-24c34.4,0,34.4,24,68.7,24c34.4,0,34.4-24,68.7-24c34.4,0,34.4,24,68.7,24
					c34.4,0,34.4-24,68.7-24c34.4,0,34.4,24,68.7,24c34.4,0,34.4-24,68.7-24c34.4,0,34.4,24,68.7,24c34.4,0,34.4-24,68.7-24
					c34.4,0,34.4,24,68.7,24c34.4,0,34.4-24,68.7-24c34.4,0,34.4,24,68.7,24c34.4,0,34.4-24,68.7-24c34.4,0,34.4,24,68.7,24
					c34.4,0,34.4-24,68.7-24c34.4,0,34.4,24,68.7,24c34.4,0,34.4-24,68.7-24"/>
			</g>
            <g class="st9">
				<path class="st10" d="M-510.9,1089.2c34.7,0,34.7,24,69.4,24c34.7,0,34.7-24,69.4-24c34.7,0,34.7,24,69.4,24
					c34.7,0,34.7-24,69.4-24c34.7,0,34.7,24,69.4,24c34.7,0,34.7-24,69.4-24c34.7,0,34.7,24,69.4,24c34.7,0,34.7-24,69.4-24
					c34.7,0,34.7,24,69.4,24c34.7,0,34.7-24,69.4-24c34.7,0,34.7,24,69.4,24c34.7,0,34.7-24,69.4-24c34.7,0,34.7,24,69.4,24
					c34.7,0,34.7-24,69.4-24c34.7,0,34.7,24,69.4,24c34.7,0,34.7-24,69.4-24c34.7,0,34.7,24,69.4,24c34.7,0,34.7-24,69.4-24
					c34.7,0,34.7,24,69.4,24c34.7,0,34.7-24,69.4-24c34.7,0,34.7,24,69.4,24c34.7,0,34.7-24,69.4-24c34.7,0,34.7,24,69.4,24
					c34.7,0,34.7-24,69.4-24c34.7,0,34.7,24,69.4,24c34.7,0,34.7-24,69.4-24"/>
			</g>
            <g class="st11">
				<path class="st10" d="M-510.9,829.4c55.8,0,55.8,24,111.7,24c55.8,0,55.8-24,111.7-24c55.8,0,55.8,24,111.7,24
					c55.8,0,55.8-24,111.7-24c55.8,0,55.8,24,111.7,24c55.8,0,55.8-24,111.7-24c55.8,0,55.8,24,111.7,24c55.8,0,55.8-24,111.7-24
					c55.8,0,55.8,24,111.7,24c55.8,0,55.8-24,111.7-24c55.8,0,55.8,24,111.7,24c55.8,0,55.8-24,111.7-24c55.8,0,55.8,24,111.7,24
					c55.8,0,55.8-24,111.7-24c55.8,0,55.8,24,111.7,24c55.8,0,55.8-24,111.7-24s55.8,24,111.7,24c55.8,0,55.8-24,111.7-24
					c55.8,0,55.8,24,111.7,24c55.8,0,55.8-24,111.7-24c55.8,0,55.8,24,111.7,24c55.8,0,55.8-24,111.7-24c55.8,0,55.8,24,111.7,24
					c55.8,0,55.8-24,111.7-24c55.8,0,55.8,24,111.7,24c55.8,0,55.8-24,111.7-24"/>
			</g>
		</g>
            <g>
			<g>

					<linearGradient id="SVGID_3_" gradientUnits="userSpaceOnUse" x1="1353.9691" y1="1182.7537" x2="1353.9691" y2="448.4654" gradientTransform="matrix(-0.9878 0.156 0.156 0.9878 1441.5571 -199.9507)">
					<stop  offset="0" style="stop-color:#FFCDD6"/>
                        <stop  offset="0.3975" style="stop-color:#6D8DAF"/>
                        <stop  offset="1" style="stop-color:#253A59"/>
				</linearGradient>
                <path class="st12" d="M-19.5,1228.2c0,0,93.9-183.5,113.8-198.8c20-15.3,45.4-39.7,66-54.3c15.7-11.1,59.7-57.5,73.7-76.5
					c6.6-8.9,81.2-91.4,140.7-112.9c60.8-22,205.5-59.6,257.4,118.2c0,0-26.2-189.3-239-131.5C313,794.2,240.7,875.8,219.5,901
					c-29.3,34.7-50.5,58-68.2,70.1c-17.7,12.1-57.2,45.4-65.3,53.2c0,0-3.2-44.3,18.8-93.4c12.7-28.3,15.9-70.6,15.9-70.6
					s16.4-61.3,141.9-123.1c0,0-89.4,30.5-140.1,105.1c0,0-23-69.1,50.1-155.2c0,0,43.9-70.3,60.5-100.9
					c16.6-30.6,32.2-79.7,71.2-92.4c0,0-37.3,0.3-75.7,93.1c0,0-50.5,81.6-71.2,110.1c-20.7,28.4-37.5,63.7-40.9,77.3
					c0,0-1.9-47.3,6.8-74.7s23.6-175.3-98.2-208.3s-216.5,99.5-216.5,99.5S-79,455,34.2,498.7s86.7,190.9,86.7,190.9
					s-13.9,47.9-12,89.5c1.9,41.7,4.5,76.6,3.4,90.3c-1,13.7-9.8,50.7-22.7,73.7c-20.7,36.9-18.7,97.5-18.7,97.5
					s-48.5,61-114.3,191.4L-19.5,1228.2z"/>
                <g>
					<g>
						<path class="st13" d="M242.9,747.7c0,0,233.8-126.8,351,403"/>
                        <path class="st14" d="M257.7,739.9c0,0,306.7-207.4,419.9,67.1c0,0,47.2,104.1,89.7,302.5"/>
                        <path class="st13" d="M486.2,664.8c0,0,86.9,16,120.7,161.7c33.8,145.7,58,299.1,58,299.1"/>
                        <path class="st13" d="M627.8,890.4c0,0,13.5,44.6,52,249.4"/>
                        <path class="st15" d="M286,502.6c0,0,177.7-70.3,284.7,117.1S731.3,1129,731.3,1129"/>
                        <path class="st13" d="M278.4,507.7c0,0,199.6-80.2,346.5,624.2"/>
                        <path class="st13" d="M252,540.3c0,0,49.4-152.3,185.6-89.8s246.5,672.1,246.5,672.1"/>
                        <path class="st14" d="M202.1,637.2c0,0,146.4-80.5,191.4,266.3l41.2,258.4"/>
                        <path class="st14" d="M219.8,601c0,0-44.1-214.3-195.9-155.4c-185.1,71.8-33.9,666-33.9,666"/>
                        <path class="st13" d="M275.3,851.9c0,0,165.1-116.3,244.1,296.6"/>
					</g>
                    <path class="st13" d="M79.7,552.6c0,0-106.4-79.8-134.5,114c-21.4,147.7-32,422-69.4,583.5"/>
                    <path class="st13" d="M70.5,517.1c0,0-76.2-100.8-133.9-28.2c-86.3,108.7,88.1,692.9,88.1,692.9"/>
                    <path class="st13" d="M-180,576.5c0,0-83.9,93.9-48.4,247.4c44.5,192.7,77.6,447,77.6,447"/>
                    <path class="st13" d="M186.1,654c0,0-57.6-28.9-117.7,15.5c-125.8,93-73.1,387.1-40.5,594"/>
                    <path class="st13" d="M277.2,638.5c0,0,104.7-72,167.7,38.3s126.3,457.5,126.3,457.5"/>
                    <path class="st13" d="M181,503.6c0,0-90-59-110.3,91.4c-13.6,100.6,38.5,624.7,38.5,624.7"/>
				</g>

                <linearGradient id="SVGID_4_" gradientUnits="userSpaceOnUse" x1="1210.1354" y1="1012.8888" x2="1210.1354" y2="929.9699" gradientTransform="matrix(-0.9878 0.156 0.156 0.9878 1441.5571 -199.9507)">
					<stop  offset="0" style="stop-color:#FFCDD6"/>
                    <stop  offset="0.3975" style="stop-color:#6D8DAF"/>
                    <stop  offset="1" style="stop-color:#253A59"/>
				</linearGradient>
                <path class="st16" d="M396.3,906.6c0,0,21.6,5.6-2.7,84.4C393.6,991,386,926.3,396.3,906.6z"/>

                <linearGradient id="SVGID_5_" gradientUnits="userSpaceOnUse" x1="4436.689" y1="1227.2609" x2="4436.689" y2="1177.1008" gradientTransform="matrix(0.9608 -0.2773 0.2773 0.9608 -3909.5781 989.9255)">
					<stop  offset="0" style="stop-color:#FFCDD6"/>
                    <stop  offset="0.3975" style="stop-color:#6D8DAF"/>
                    <stop  offset="1" style="stop-color:#253A59"/>
				</linearGradient>
                <path class="st17" d="M677.5,891.3c0,0-6.9,7.6,20.4,46.3C697.9,937.6,685.9,900.1,677.5,891.3z"/>

                <linearGradient id="SVGID_6_" gradientUnits="userSpaceOnUse" x1="4283.4717" y1="1051.1827" x2="4283.4717" y2="1001.0227" gradientTransform="matrix(0.9608 -0.2773 0.2773 0.9608 -3909.5781 989.9255)">
					<stop  offset="0" style="stop-color:#FFCDD6"/>
                    <stop  offset="0.3975" style="stop-color:#6D8DAF"/>
                    <stop  offset="1" style="stop-color:#253A59"/>
				</linearGradient>
                <path class="st18" d="M481.4,764.6c0,0-6.9,7.6,20.4,46.3C501.9,810.9,489.9,773.4,481.4,764.6z"/>

                <linearGradient id="SVGID_7_" gradientUnits="userSpaceOnUse" x1="931.6846" y1="936.0536" x2="931.6846" y2="880.0206" gradientTransform="matrix(-0.9878 0.156 0.156 0.9878 1441.5571 -199.9507)">
					<stop  offset="0" style="stop-color:#FFCDD6"/>
                    <stop  offset="0.3975" style="stop-color:#6D8DAF"/>
                    <stop  offset="1" style="stop-color:#253A59"/>
				</linearGradient>
                <path class="st19" d="M655,815.2c0,0,18.6,30.9,19.4,53.7c0,0-10.1-20.2-15-26S649.6,821.2,655,815.2z"/>

                <linearGradient id="SVGID_8_" gradientUnits="userSpaceOnUse" x1="1199.3181" y1="956.0803" x2="1199.3181" y2="889.5092" gradientTransform="matrix(-0.9878 0.156 0.156 0.9878 1441.5571 -199.9507)">
					<stop  offset="0" style="stop-color:#FFCDD6"/>
                    <stop  offset="0.3975" style="stop-color:#6D8DAF"/>
                    <stop  offset="1" style="stop-color:#253A59"/>
				</linearGradient>
                <path class="st20" d="M390.3,866.6c0,0,26.3,36,26.3,63.2c0,0-14-23.7-21.1-30.4C388.4,892.8,382,874,390.3,866.6z"/>

                <linearGradient id="SVGID_9_" gradientUnits="userSpaceOnUse" x1="1202.3468" y1="1033.3132" x2="1202.3468" y2="986.3517" gradientTransform="matrix(-0.9878 0.156 0.156 0.9878 1441.5571 -199.9507)">
					<stop  offset="0" style="stop-color:#FFCDD6"/>
                    <stop  offset="0.3975" style="stop-color:#6D8DAF"/>
                    <stop  offset="1" style="stop-color:#253A59"/>
				</linearGradient>
                <path class="st21" d="M404,962.5c0,0,18.5,25.4,18.5,44.6c0,0-9.9-16.7-14.9-21.4C402.7,980.9,398.2,967.7,404,962.5z"/>

                <linearGradient id="SVGID_10_" gradientUnits="userSpaceOnUse" x1="-376.6374" y1="1138.6528" x2="-376.6374" y2="1082.6198" gradientTransform="matrix(-0.4984 0.1706 0.3015 0.8807 -47.3529 -173.6091)">
					<stop  offset="0" style="stop-color:#FFCDD6"/>
                    <stop  offset="0.3975" style="stop-color:#6D8DAF"/>
                    <stop  offset="1" style="stop-color:#253A59"/>
				</linearGradient>
                <path class="st22" d="M465,716.2c0,0,16.8,27.1,22.3,47.5c0,0-9.9-17.8-13.8-22.8C469.5,735.8,463.4,721.7,465,716.2z"/>

                <linearGradient id="SVGID_11_" gradientUnits="userSpaceOnUse" x1="-374.9946" y1="1254.5636" x2="-374.9946" y2="1209.4369" gradientTransform="matrix(-0.4984 0.1706 0.3015 0.8807 -47.3529 -173.6091)">
					<stop  offset="0" style="stop-color:#FFCDD6"/>
                    <stop  offset="0.3975" style="stop-color:#6D8DAF"/>
                    <stop  offset="1" style="stop-color:#253A59"/>
				</linearGradient>
                <path class="st23" d="M502.8,828c0,0,13.6,21.8,17.9,38.3c0,0-7.9-14.3-11.1-18.4C506.4,843.8,501.5,832.5,502.8,828z"/>

                <linearGradient id="SVGID_12_" gradientUnits="userSpaceOnUse" x1="1471.8313" y1="1568.6166" x2="1471.8313" y2="1512.5835" gradientTransform="matrix(-0.6986 0.7155 0.7155 0.6986 392.5781 -1658.087)">
					<stop  offset="0" style="stop-color:#FFCDD6"/>
                    <stop  offset="0.3975" style="stop-color:#6D8DAF"/>
                    <stop  offset="1" style="stop-color:#253A59"/>
				</linearGradient>
                <path class="st24" d="M444,454.3c0,0,33.4,13.6,47.6,31.5c0,0-20.1-10.2-27.6-11.9C456.6,472.2,443.2,462.3,444,454.3z"/>

                <linearGradient id="SVGID_13_" gradientUnits="userSpaceOnUse" x1="1181.5889" y1="971.4428" x2="1181.5889" y2="909.1839" gradientTransform="matrix(-0.9878 0.156 0.156 0.9878 1441.5571 -199.9507)">
					<stop  offset="0" style="stop-color:#FFCDD6"/>
                    <stop  offset="0.3975" style="stop-color:#6D8DAF"/>
                    <stop  offset="1" style="stop-color:#253A59"/>
				</linearGradient>
                <path class="st25" d="M416.3,882.4c0,0-4.8,16.8,9.7,61.5C426,943.9,427.6,907,416.3,882.4z"/>

                <linearGradient id="SVGID_14_" gradientUnits="userSpaceOnUse" x1="1197.3499" y1="1028.1449" x2="1197.3499" y2="965.8859" gradientTransform="matrix(-0.9968 8.002978e-02 8.002978e-02 0.9968 1522.2512 -71.247)">
					<stop  offset="0" style="stop-color:#FFCDD6"/>
                    <stop  offset="0.3975" style="stop-color:#6D8DAF"/>
                    <stop  offset="1" style="stop-color:#253A59"/>
				</linearGradient>
                <path class="st26" d="M406,987.4c0,0-6.1,16.4,5,62.1C411,1049.4,415.5,1012.7,406,987.4z"/>

                <linearGradient id="SVGID_15_" gradientUnits="userSpaceOnUse" x1="1192.8575" y1="1079.5941" x2="1192.8575" y2="1031.6279" gradientTransform="matrix(-0.9968 8.002978e-02 8.002978e-02 0.9968 1522.2512 -71.247)">
					<stop  offset="0" style="stop-color:#FFCDD6"/>
                    <stop  offset="0.3975" style="stop-color:#6D8DAF"/>
                    <stop  offset="1" style="stop-color:#253A59"/>
				</linearGradient>
                <path class="st27" d="M415.8,1052.5c0,0-4.7,12.6,3.8,47.8C419.6,1100.3,423,1072.1,415.8,1052.5z"/>

                <linearGradient id="SVGID_16_" gradientUnits="userSpaceOnUse" x1="1217.939" y1="578.4929" x2="1217.939" y2="503.7971" gradientTransform="matrix(-0.9992 -3.896803e-02 -3.896803e-02 0.9992 1618.9055 366.6035)">
					<stop  offset="0" style="stop-color:#FFCDD6"/>
                    <stop  offset="0.3975" style="stop-color:#6D8DAF"/>
                    <stop  offset="1" style="stop-color:#253A59"/>
				</linearGradient>
                <path class="st28" d="M383.8,822.6c0,0-12.6,19-6.6,74.5C377.3,897.1,392,853.8,383.8,822.6z"/>

                <linearGradient id="SVGID_17_" gradientUnits="userSpaceOnUse" x1="1465.6196" y1="571.1263" x2="1465.6196" y2="496.4306" gradientTransform="matrix(-1.5102 0.1341 8.625692e-02 0.9717 2519.4221 54.2145)">
					<stop  offset="0" style="stop-color:#FFCDD6"/>
                    <stop  offset="0.3975" style="stop-color:#6D8DAF"/>
                    <stop  offset="1" style="stop-color:#253A59"/>
				</linearGradient>
                <path class="st29" d="M351.2,732.9c0,0-16.2,20.5,0.9,73.1C352.1,805.9,368.1,761.5,351.2,732.9z"/>

                <linearGradient id="SVGID_18_" gradientUnits="userSpaceOnUse" x1="1332.5494" y1="454.5799" x2="1332.5494" y2="392.321" gradientTransform="matrix(-1.1576 -4.514193e-02 -2.325369e-02 0.5963 2056.7437 672.0914)">
					<stop  offset="0" style="stop-color:#FFCDD6"/>
                    <stop  offset="0.3975" style="stop-color:#6D8DAF"/>
                    <stop  offset="1" style="stop-color:#253A59"/>
				</linearGradient>
                <path class="st30" d="M505.1,845.9c0,0-8.9,9.1-1.4,37.1C503.7,883,513,861.7,505.1,845.9z"/>

                <linearGradient id="SVGID_19_" gradientUnits="userSpaceOnUse" x1="-631.6264" y1="1067.1492" x2="-631.6264" y2="1004.8902" gradientTransform="matrix(-0.5471 5.842011e-02 7.664157e-02 0.7178 263.5027 248.3578)">
					<stop  offset="0" style="stop-color:#FFCDD6"/>
                    <stop  offset="0.3975" style="stop-color:#6D8DAF"/>
                    <stop  offset="1" style="stop-color:#253A59"/>
				</linearGradient>
                <path class="st31" d="M686.1,932.7c0,0-2.8,11.8,4.8,44.7C690.9,977.4,692.1,951,686.1,932.7z"/>

                <linearGradient id="SVGID_20_" gradientUnits="userSpaceOnUse" x1="1621.7754" y1="2540.1084" x2="1621.7754" y2="2477.8494" gradientTransform="matrix(-0.663 0.7486 0.4697 0.416 344.2622 -1586.7623)">
					<stop  offset="0" style="stop-color:#FFCDD6"/>
                    <stop  offset="0.3975" style="stop-color:#6D8DAF"/>
                    <stop  offset="1" style="stop-color:#253A59"/>
				</linearGradient>
                <path class="st32" d="M432.8,658c0,0,2.6,12.1,29.2,25.9C462,683.9,449.9,663.3,432.8,658z"/>

                <linearGradient id="SVGID_21_" gradientUnits="userSpaceOnUse" x1="1467.7328" y1="3787.8352" x2="1467.7328" y2="3725.5762" gradientTransform="matrix(-0.663 0.7486 0.2772 0.2455 435.3859 -1506.0608)">
					<stop  offset="0" style="stop-color:#FFCDD6"/>
                    <stop  offset="0.3975" style="stop-color:#6D8DAF"/>
                    <stop  offset="1" style="stop-color:#253A59"/>
				</linearGradient>
                <path class="st33" d="M494.9,507.3c0,0-0.5,9.4,17.3,15.3C512.2,522.6,507,508.2,494.9,507.3z"/>

                <linearGradient id="SVGID_22_" gradientUnits="userSpaceOnUse" x1="1405.757" y1="3604.5618" x2="1405.757" y2="3542.3027" gradientTransform="matrix(-0.7745 0.6325 0.2527 0.3095 704.0175 -1451.2799)">
					<stop  offset="0" style="stop-color:#FFCDD6"/>
                    <stop  offset="0.3975" style="stop-color:#6D8DAF"/>
                    <stop  offset="1" style="stop-color:#253A59"/>
				</linearGradient>
                <path class="st34" d="M510.4,534.1c0,0-1.7,9.6,15.7,19.3C526.1,553.4,522.7,537.5,510.4,534.1z"/>

                <linearGradient id="SVGID_23_" gradientUnits="userSpaceOnUse" x1="1047.8557" y1="3968.8015" x2="1047.8557" y2="3906.5425" gradientTransform="matrix(-0.4363 0.3462 0.2077 0.2617 174.6384 -816.1171)">
					<stop  offset="0" style="stop-color:#FFCDD6"/>
                    <stop  offset="0.3975" style="stop-color:#6D8DAF"/>
                    <stop  offset="1" style="stop-color:#253A59"/>
				</linearGradient>
                <path class="st35" d="M528.7,569.1c0,0,0.1,6.7,12.9,16.3C541.6,585.4,537.3,573.4,528.7,569.1z"/>

                <linearGradient id="SVGID_24_" gradientUnits="userSpaceOnUse" x1="1005.4971" y1="4295.2026" x2="1005.4971" y2="4230.189" gradientTransform="matrix(-0.4099 0.3252 0.1725 0.2174 220.0891 -656.2553)">
					<stop  offset="0" style="stop-color:#FFCDD6"/>
                    <stop  offset="0.3975" style="stop-color:#6D8DAF"/>
                    <stop  offset="1" style="stop-color:#253A59"/>
				</linearGradient>
                <path class="st36" d="M537.3,590.6c0,0-0.4,6,11.9,13.6C549.1,604.3,545.7,593.8,537.3,590.6z"/>

                <linearGradient id="SVGID_25_" gradientUnits="userSpaceOnUse" x1="1017.9" y1="4376.2441" x2="1017.9" y2="4329.1851" gradientTransform="matrix(-0.4099 0.3252 0.1725 0.2174 220.0891 -656.2553)">
					<stop  offset="0" style="stop-color:#FFCDD6"/>
                    <stop  offset="0.3975" style="stop-color:#6D8DAF"/>
                    <stop  offset="1" style="stop-color:#253A59"/>
				</linearGradient>
                <path class="st37" d="M549.3,616.1c0,0-0.3,4.3,8.6,9.9C557.9,626,555.4,618.5,549.3,616.1z"/>

                <linearGradient id="SVGID_26_" gradientUnits="userSpaceOnUse" x1="1178.1385" y1="1198.6626" x2="1178.1385" y2="1136.4037" gradientTransform="matrix(-0.9366 0.3504 0.2133 0.5703 1334.7756 -582.9675)">
					<stop  offset="0" style="stop-color:#FFCDD6"/>
                    <stop  offset="0.3975" style="stop-color:#6D8DAF"/>
                    <stop  offset="1" style="stop-color:#253A59"/>
				</linearGradient>
                <path class="st38" d="M473.8,477.9c0,0-3.5,11.6,13.3,35.5C487,513.4,486.2,490.1,473.8,477.9z"/>

                <linearGradient id="SVGID_27_" gradientUnits="userSpaceOnUse" x1="412.2613" y1="1376.6943" x2="412.2613" y2="1314.4354" gradientTransform="matrix(-0.4218 0.1258 0.1172 0.3928 523.3163 -44.2854)">
					<stop  offset="0" style="stop-color:#FFCDD6"/>
                    <stop  offset="0.3975" style="stop-color:#6D8DAF"/>
                    <stop  offset="1" style="stop-color:#253A59"/>
				</linearGradient>
                <path class="st39" d="M503.4,523.9c0,0-1.2,7.2,7.3,24.5C510.7,548.4,509.6,533.3,503.4,523.9z"/>

                <linearGradient id="SVGID_28_" gradientUnits="userSpaceOnUse" x1="386.2726" y1="1525.616" x2="386.2726" y2="1463.3571" gradientTransform="matrix(-0.4218 0.1258 0.1172 0.3928 523.3163 -44.2854)">
					<stop  offset="0" style="stop-color:#FFCDD6"/>
                    <stop  offset="0.3975" style="stop-color:#6D8DAF"/>
                    <stop  offset="1" style="stop-color:#253A59"/>
				</linearGradient>
                <path class="st40" d="M531.8,579.2c0,0-1.2,7.2,7.3,24.5C539.1,603.6,538,588.5,531.8,579.2z"/>

                <linearGradient id="SVGID_29_" gradientUnits="userSpaceOnUse" x1="65.893" y1="1695.7535" x2="65.893" y2="1632.3004" gradientTransform="matrix(-0.3415 0.1018 9.899385e-02 0.3319 404.1564 56.4686)">
					<stop  offset="0" style="stop-color:#FFCDD6"/>
                    <stop  offset="0.3975" style="stop-color:#6D8DAF"/>
                    <stop  offset="1" style="stop-color:#253A59"/>
				</linearGradient>
                <path class="st41" d="M543.1,605c0,0-1.2,6.1,6.6,21C549.7,626,548.7,613,543.1,605z"/>

                <linearGradient id="SVGID_30_" gradientUnits="userSpaceOnUse" x1="-123.7423" y1="1779.0583" x2="-123.7423" y2="1715.7074" gradientTransform="matrix(-0.3219 6.898668e-02 5.610669e-02 0.2618 416.4595 187.3169)">
					<stop  offset="0" style="stop-color:#FFCDD6"/>
                    <stop  offset="0.3975" style="stop-color:#6D8DAF"/>
                    <stop  offset="1" style="stop-color:#253A59"/>
				</linearGradient>
                <path class="st42" d="M552.5,628c0,0-1.7,4.8,3.7,16.6C556.2,644.6,556.7,634.4,552.5,628z"/>

                <linearGradient id="SVGID_31_" gradientUnits="userSpaceOnUse" x1="1036.917" y1="4475.0742" x2="1036.917" y2="4430.0093" gradientTransform="matrix(-0.4099 0.3252 0.1725 0.2174 220.0891 -656.2553)">
					<stop  offset="0" style="stop-color:#FFCDD6"/>
                    <stop  offset="0.3975" style="stop-color:#6D8DAF"/>
                    <stop  offset="1" style="stop-color:#253A59"/>
				</linearGradient>
                <path class="st43" d="M559.1,644.1c0,0-0.2,4.2,7.8,9.8C566.9,653.9,564.6,646.5,559.1,644.1z"/>

                <linearGradient id="SVGID_32_" gradientUnits="userSpaceOnUse" x1="-134.5071" y1="1886.8821" x2="-134.5071" y2="1824.6232" gradientTransform="matrix(-0.3219 6.898668e-02 5.610669e-02 0.2618 416.4595 187.3169)">
					<stop  offset="0" style="stop-color:#FFCDD6"/>
                    <stop  offset="0.3975" style="stop-color:#6D8DAF"/>
                    <stop  offset="1" style="stop-color:#253A59"/>
				</linearGradient>
                <path class="st44" d="M562.1,655.8c0,0-1.5,4.7,3.5,16.3C565.6,672.1,566,662.1,562.1,655.8z"/>

                <linearGradient id="SVGID_33_" gradientUnits="userSpaceOnUse" x1="395.273" y1="1458.328" x2="395.273" y2="1396.0691" gradientTransform="matrix(-0.4218 0.1258 0.1172 0.3928 523.3163 -44.2854)">
					<stop  offset="0" style="stop-color:#FFCDD6"/>
                    <stop  offset="0.3975" style="stop-color:#6D8DAF"/>
                    <stop  offset="1" style="stop-color:#253A59"/>
				</linearGradient>
                <path class="st45" d="M520.1,553.9c0,0-1.2,7.2,7.3,24.5C527.4,578.3,526.3,563.2,520.1,553.9z"/>

                <linearGradient id="SVGID_34_" gradientUnits="userSpaceOnUse" x1="938.2351" y1="708.017" x2="938.2351" y2="660.8069" gradientTransform="matrix(-0.9988 4.827541e-02 4.827541e-02 0.9988 1550.1887 84.0789)">
					<stop  offset="0" style="stop-color:#FFCDD6"/>
                    <stop  offset="0.3975" style="stop-color:#6D8DAF"/>
                    <stop  offset="1" style="stop-color:#253A59"/>
				</linearGradient>
                <path class="st46" d="M644.9,789.4c0,0-4.5,12.2,2.3,47.2C647.2,836.6,650.9,808.9,644.9,789.4z"/>

                <linearGradient id="SVGID_35_" gradientUnits="userSpaceOnUse" x1="931.0428" y1="989.8279" x2="931.0428" y2="927.569" gradientTransform="matrix(-0.9878 0.156 0.156 0.9878 1441.5571 -199.9507)">
					<stop  offset="0" style="stop-color:#FFCDD6"/>
                    <stop  offset="0.3975" style="stop-color:#6D8DAF"/>
                    <stop  offset="1" style="stop-color:#253A59"/>
				</linearGradient>
                <path class="st47" d="M666.6,861.5c0,0-4.8,16.8,9.7,61.5C676.3,923,677.9,886.1,666.6,861.5z"/>

                <linearGradient id="SVGID_36_" gradientUnits="userSpaceOnUse" x1="1206.5796" y1="872.8439" x2="1206.5796" y2="799.6232" gradientTransform="matrix(-0.9878 0.156 0.156 0.9878 1441.5571 -199.9507)">
					<stop  offset="0" style="stop-color:#FFCDD6"/>
                    <stop  offset="0.3975" style="stop-color:#6D8DAF"/>
                    <stop  offset="1" style="stop-color:#253A59"/>
				</linearGradient>
                <path class="st48" d="M368.2,779.7c0,0,16.5-14.9,32.3,68.4c0,0-17.4-21.1-26.1-29.2C358.3,803.7,359.8,778.5,368.2,779.7z"/>

                <linearGradient id="SVGID_37_" gradientUnits="userSpaceOnUse" x1="1251.2634" y1="873.9184" x2="1251.2634" y2="816.7714" gradientTransform="matrix(-0.9449 0.3274 0.3274 0.9449 1258.6617 -481.464)">
					<stop  offset="0" style="stop-color:#FFCDD6"/>
                    <stop  offset="0.3975" style="stop-color:#6D8DAF"/>
                    <stop  offset="1" style="stop-color:#253A59"/>
				</linearGradient>
                <path class="st49" d="M339.8,701.9c0,0,8.9-13.1,32.2,48.8c0,0-15-14.3-22.1-19.6C336.7,721.3,333.9,701.8,339.8,701.9z"/>

                <linearGradient id="SVGID_38_" gradientUnits="userSpaceOnUse" x1="4282.9702" y1="-602.0406" x2="4282.9702" y2="-645.0559" gradientTransform="matrix(0.6756 -0.7373 -0.7373 -0.6756 -3228.5183 3176.5881)">
					<stop  offset="0" style="stop-color:#FFCDD6"/>
                    <stop  offset="0.3975" style="stop-color:#6D8DAF"/>
                    <stop  offset="1" style="stop-color:#253A59"/>
				</linearGradient>
                <path class="st50" d="M138.9,456.6c0,0-9.9,3.2-15.4-14.1c-5.6-17.4-12.1-19.5-12.1-19.5S145.9,441.5,138.9,456.6z"/>

                <linearGradient id="SVGID_39_" gradientUnits="userSpaceOnUse" x1="1217.7119" y1="1359.0944" x2="1217.7119" y2="1316.0791" gradientTransform="matrix(-0.886 0.4636 0.4636 0.886 914.4877 -1044.1149)">
					<stop  offset="0" style="stop-color:#FFCDD6"/>
                    <stop  offset="0.3975" style="stop-color:#6D8DAF"/>
                    <stop  offset="1" style="stop-color:#253A59"/>
				</linearGradient>
                <path class="st51" d="M448,685.3c0,0,10.4,0.3,9.7,18.6s4.7,22.4,4.7,22.4S436.3,697.2,448,685.3z"/>

                <linearGradient id="SVGID_40_" gradientUnits="userSpaceOnUse" x1="-750.0404" y1="1009.0703" x2="-750.0404" y2="966.055" gradientTransform="matrix(-0.473 0.1023 0.1759 0.8137 -52.9721 38.6556)">
					<stop  offset="0" style="stop-color:#FFCDD6"/>
                    <stop  offset="0.3975" style="stop-color:#6D8DAF"/>
                    <stop  offset="1" style="stop-color:#253A59"/>
				</linearGradient>
                <path class="st52" d="M473,747.8c0,0,5.2,3.2,3.7,17c-1.5,13.8,0.9,18.6,0.9,18.6S466.4,753.5,473,747.8z"/>

                <linearGradient id="SVGID_41_" gradientUnits="userSpaceOnUse" x1="-767.665" y1="1084.6705" x2="-767.665" y2="1041.6553" gradientTransform="matrix(-0.473 0.1023 0.1759 0.8137 -52.9721 38.6556)">
					<stop  offset="0" style="stop-color:#FFCDD6"/>
                    <stop  offset="0.3975" style="stop-color:#6D8DAF"/>
                    <stop  offset="1" style="stop-color:#253A59"/>
				</linearGradient>
                <path class="st53" d="M494.6,807.5c0,0,5.2,3.2,3.7,17c-1.5,13.8,0.9,18.6,0.9,18.6S488,813.2,494.6,807.5z"/>

                <linearGradient id="SVGID_42_" gradientUnits="userSpaceOnUse" x1="1865.2581" y1="1341.0867" x2="1865.2581" y2="1298.0714" gradientTransform="matrix(0.4698 -0.116 0.1995 0.8082 -720.9564 193.6131)">
					<stop  offset="0" style="stop-color:#FFCDD6"/>
                    <stop  offset="0.3975" style="stop-color:#6D8DAF"/>
                    <stop  offset="1" style="stop-color:#253A59"/>
				</linearGradient>
                <path class="st54" d="M413.2,1026.7c0,0-3.2,5.2,4.2,16.9c7.4,11.8,7.3,17.1,7.3,17.1S421.7,1029,413.2,1026.7z"/>

                <linearGradient id="SVGID_43_" gradientUnits="userSpaceOnUse" x1="1123.6808" y1="1138.4852" x2="1123.6808" y2="1095.47" gradientTransform="matrix(-0.886 0.4636 0.4636 0.886 914.4877 -1044.1149)">
					<stop  offset="0" style="stop-color:#FFCDD6"/>
                    <stop  offset="0.3975" style="stop-color:#6D8DAF"/>
                    <stop  offset="1" style="stop-color:#253A59"/>
				</linearGradient>
                <path class="st55" d="M429,446.3c0,0,10.4,0.3,9.7,18.6c-0.7,18.2,4.7,22.4,4.7,22.4S417.3,458.1,429,446.3z"/>

                <linearGradient id="SVGID_44_" gradientUnits="userSpaceOnUse" x1="1258.4515" y1="638.9978" x2="1258.4515" y2="630.0694" gradientTransform="matrix(-0.9878 0.156 0.156 0.9878 1441.5571 -199.9507)">
					<stop  offset="0" style="stop-color:#FFCDD6"/>
                    <stop  offset="0.3975" style="stop-color:#6D8DAF"/>
                    <stop  offset="1" style="stop-color:#253A59"/>
				</linearGradient>
                <path class="st56" d="M298.1,618.5c0,0,5.4,6.3-0.7,9.1C297.4,627.7,290.9,621,298.1,618.5z"/>

                <linearGradient id="SVGID_45_" gradientUnits="userSpaceOnUse" x1="1480.8784" y1="1353.5236" x2="1480.8784" y2="1344.5951" gradientTransform="matrix(-0.8374 0.5467 0.5467 0.8374 828.9915 -1314.6564)">
					<stop  offset="0" style="stop-color:#FFCDD6"/>
                    <stop  offset="0.3975" style="stop-color:#6D8DAF"/>
                    <stop  offset="1" style="stop-color:#253A59"/>
				</linearGradient>
                <path class="st57" d="M325.1,620.1c0,0,7.5,3.6,3.1,8.6C328.2,628.7,319.5,625.3,325.1,620.1z"/>

                <linearGradient id="SVGID_46_" gradientUnits="userSpaceOnUse" x1="1678.7288" y1="1247.2003" x2="1678.7288" y2="1238.2719" gradientTransform="matrix(-0.8374 0.5467 0.5467 0.8374 828.9915 -1314.6564)">
					<stop  offset="0" style="stop-color:#FFCDD6"/>
                    <stop  offset="0.3975" style="stop-color:#6D8DAF"/>
                    <stop  offset="1" style="stop-color:#253A59"/>
				</linearGradient>
                <path class="st58" d="M101.3,639.2c0,0,7.5,3.6,3.1,8.6C104.4,647.8,95.7,644.5,101.3,639.2z"/>

                <linearGradient id="SVGID_47_" gradientUnits="userSpaceOnUse" x1="4398.6895" y1="1082.1675" x2="4398.6895" y2="1073.239" gradientTransform="matrix(1.1078 0.5423 0.5993 -1.2243 -5429.9106 -402.9797)">
					<stop  offset="0" style="stop-color:#FFCDD6"/>
                    <stop  offset="0.3975" style="stop-color:#6D8DAF"/>
                    <stop  offset="1" style="stop-color:#253A59"/>
				</linearGradient>
                <path class="st59" d="M84.8,667.7c0,0-0.6-11,7.7-9.8C92.5,657.9,93.9,670.1,84.8,667.7z"/>

                <linearGradient id="SVGID_48_" gradientUnits="userSpaceOnUse" x1="967.623" y1="724.6918" x2="967.623" y2="715.7634" gradientTransform="matrix(-0.9878 0.156 0.156 0.9878 1441.5571 -199.9507)">
					<stop  offset="0" style="stop-color:#FFCDD6"/>
                    <stop  offset="0.3975" style="stop-color:#6D8DAF"/>
                    <stop  offset="1" style="stop-color:#253A59"/>
				</linearGradient>
                <path class="st60" d="M598.7,657.8c0,0,5.4,6.3-0.7,9.1C598,666.9,591.5,660.3,598.7,657.8z"/>

                <linearGradient id="SVGID_49_" gradientUnits="userSpaceOnUse" x1="1279.7172" y1="-34.6002" x2="1279.7172" y2="-43.5286" gradientTransform="matrix(-0.9727 -0.2319 -0.2319 0.9727 1596.0823 946.0814)">
					<stop  offset="0" style="stop-color:#FFCDD6"/>
                    <stop  offset="0.3975" style="stop-color:#6D8DAF"/>
                    <stop  offset="1" style="stop-color:#253A59"/>
				</linearGradient>
                <path class="st61" d="M362.6,607.2c0,0,2.6,7.9-4.1,8.2C358.5,615.4,355,606.8,362.6,607.2z"/>

                <linearGradient id="SVGID_50_" gradientUnits="userSpaceOnUse" x1="1595.4762" y1="574.5792" x2="1595.4762" y2="565.6508" gradientTransform="matrix(-1.3131 0.1706 0.1857 1.4292 2369.3623 -458.8353)">
					<stop  offset="0" style="stop-color:#FFCDD6"/>
                    <stop  offset="0.3975" style="stop-color:#6D8DAF"/>
                    <stop  offset="1" style="stop-color:#253A59"/>
				</linearGradient>
                <path class="st62" d="M381.1,621.6c0,0,7,9.4-1.1,13.1C380,634.7,371.5,624.8,381.1,621.6z"/>

                <linearGradient id="SVGID_51_" gradientUnits="userSpaceOnUse" x1="1631.2828" y1="956.8398" x2="1631.2828" y2="947.9114" gradientTransform="matrix(-1.0688 0.7816 0.8508 1.1633 1453.6625 -1492.4739)">
					<stop  offset="0" style="stop-color:#FFCDD6"/>
                    <stop  offset="0.3975" style="stop-color:#6D8DAF"/>
                    <stop  offset="1" style="stop-color:#253A59"/>
				</linearGradient>
                <path class="st63" d="M518,884.3c0,0,10.7,4.8,5.4,12C523.3,896.3,511.1,891.8,518,884.3z"/>

                <linearGradient id="SVGID_52_" gradientUnits="userSpaceOnUse" x1="1388.7307" y1="752.142" x2="1388.7307" y2="743.2136" gradientTransform="matrix(-1.0496 -2.366882e-02 -1.890258e-02 0.8382 1992.9026 319.4382)">
					<stop  offset="0" style="stop-color:#FFCDD6"/>
                    <stop  offset="0.3975" style="stop-color:#6D8DAF"/>
                    <stop  offset="1" style="stop-color:#253A59"/>
				</linearGradient>
                <path class="st64" d="M522.6,909.6c0,0,4.4,6-2.4,7.4C520.2,917,514.7,910.5,522.6,909.6z"/>

                <linearGradient id="SVGID_53_" gradientUnits="userSpaceOnUse" x1="2550.0088" y1="2239.0686" x2="2550.0088" y2="2230.1401" gradientTransform="matrix(-0.1152 0.9933 0.9933 0.1152 -1527.4991 -2164.9297)">
					<stop  offset="0" style="stop-color:#FFCDD6"/>
                    <stop  offset="0.3975" style="stop-color:#6D8DAF"/>
                    <stop  offset="1" style="stop-color:#253A59"/>
				</linearGradient>
                <path class="st65" d="M394.3,623.7c0,0,7.5-3.5,8.6,3.1C402.9,626.8,394.8,631.3,394.3,623.7z"/>

                <linearGradient id="SVGID_54_" gradientUnits="userSpaceOnUse" x1="1373.3146" y1="645.752" x2="1373.3146" y2="636.8235" gradientTransform="matrix(-1.0603 0.3107 1.0313 3.5197 1216.3599 -2025.3021)">
					<stop  offset="0" style="stop-color:#FFCDD6"/>
                    <stop  offset="0.3975" style="stop-color:#6D8DAF"/>
                    <stop  offset="1" style="stop-color:#253A59"/>
				</linearGradient>
                <path class="st66" d="M418.4,642.4c0,0,11.9,23.6,7,32.1C425.4,674.4,411.8,649.5,418.4,642.4z"/>

                <linearGradient id="SVGID_55_" gradientUnits="userSpaceOnUse" x1="3785.1509" y1="50.7429" x2="3785.1509" y2="41.8145" gradientTransform="matrix(0.3602 -1.0445 -3.4673 -1.1955 -1119.3273 4441.3369)">
					<stop  offset="0" style="stop-color:#FFCDD6"/>
                    <stop  offset="0.3975" style="stop-color:#6D8DAF"/>
                    <stop  offset="1" style="stop-color:#253A59"/>
				</linearGradient>
                <path class="st67" d="M98.5,439.1c0,0-26.1-3.9-30.2-12.9C68.3,426.2,96.4,429.6,98.5,439.1z"/>

                <linearGradient id="SVGID_56_" gradientUnits="userSpaceOnUse" x1="3269.6953" y1="14.2881" x2="3269.6953" y2="5.3597" gradientTransform="matrix(-1.029433e-02 -1.1048 -3.6675 3.418575e-02 167.8557 4058.0242)">
					<stop  offset="0" style="stop-color:#FFCDD6"/>
                    <stop  offset="0.3975" style="stop-color:#6D8DAF"/>
                    <stop  offset="1" style="stop-color:#253A59"/>
				</linearGradient>
                <path class="st68" d="M114.6,447.2c0,0-25.9,5-32.8-2C81.8,445.2,109.5,439,114.6,447.2z"/>

                <linearGradient id="SVGID_57_" gradientUnits="userSpaceOnUse" x1="3382.4568" y1="-875.3734" x2="3382.4568" y2="-888.5687" gradientTransform="matrix(0.2132 -0.977 -0.977 -0.2132 -1128.5581 4047.7146)">
					<stop  offset="0" style="stop-color:#FFCDD6"/>
                    <stop  offset="0.3975" style="stop-color:#6D8DAF"/>
                    <stop  offset="1" style="stop-color:#253A59"/>
				</linearGradient>
                <path class="st69" d="M460.3,934.3c0,0-11.6,4-12.2-5.8C448.1,928.5,460.7,923.1,460.3,934.3z"/>
			</g>
                <g>

					<linearGradient id="SVGID_58_" gradientUnits="userSpaceOnUse" x1="1351.6503" y1="542.2535" x2="1354.6171" y2="638.8802" gradientTransform="matrix(-0.9825 0.1862 0.1862 0.9825 1432.9153 -296.2955)">
					<stop  offset="0" style="stop-color:#FFCDD6"/>
                        <stop  offset="0.3975" style="stop-color:#6D8DAF"/>
                        <stop  offset="1" style="stop-color:#253A59"/>
				</linearGradient>
                    <path class="st70" d="M178.1,546.6l-2.2,0c0,0,7.8-7.2,9.1-9.3c0,0-2-2,3.4-6.2c0,0,31.1-27.4,34.5-31.2c4-4.5,4.5-12,19.6-16.9
					c15.1-4.9,18.6-1.1,18.6-1.1s8.1-2.1,11.5-2.7c3.4-0.6,1.7,1.3,1.7,1.3s-6.9,2.6-11.6,9c0,0-5.7,12.7-6.9,14.4
					c-1.2,1.7,1,19.1-9.2,31c-2.2,2.5-4.6,5-7.2,7.4c0.6,2,1.7,4.5,3.8,6.5l9.3-7.5c0,0,2.1-3.9,4.3-1c0,0,0.5,1.3,0.6,2
					c0,0,0,0-1.1-0.5c-0.2,0.1-1.1-0.1-3.3,2.3l-8.5,7.3c0,0-3.1,3.9-5.5,1c-1.3-1.5-2.1-4.8-2.7-7.7c-5.2,3.9-11.5,7.1-19.2,8.4
					c0,1.2,0,3-0.5,3.5l11.6,17.3l3.6,2.2c0,0,1.5-1.8,7.2,3.9c0,0-0.6,0.5-1.2,0.2c-0.6-0.3-4.2-2.3-5.5-1.2s-2,2.8-2,2.8l-1.3-2.7
					c0,0-1.4-1.5-2-4c-0.6-2.5-11.6-17.4-11.6-17.4s-4.8-2.3-6.5-3.8l0,0c-4.8,0-10.2-0.5-16.1-1.9c-20.2,2.4-25.1,5.7-25.1,5.7
					l-8.6,8.5c-1.6,1.6-3.9,2.5-6.1,2.4l-4.4-0.2C148.5,568.6,154.3,561.2,178.1,546.6z"/>

                    <linearGradient id="SVGID_59_" gradientUnits="userSpaceOnUse" x1="973.8454" y1="416.4846" x2="973.8454" y2="540.1195" gradientTransform="matrix(-0.9878 0.156 0.156 0.9878 1441.5571 -199.9507)">
					<stop  offset="0" style="stop-color:#FFCDD6"/>
                        <stop  offset="0.3975" style="stop-color:#6D8DAF"/>
                        <stop  offset="1" style="stop-color:#253A59"/>
				</linearGradient>
                    <path class="st71" d="M617.2,367.8c0,0-3.8-2.3-11.2-1.7c0,0,1.3-9.8-1.5-9.7c0,0-38.6,6.7-50.6,14.7c0,0-17.5,1.4-22.1,10.2
					c0,0-1.7,1.1-4.1,0.6l-5.4-1.3c0,0-26.6-21.6-39.7-0.5c0,0-7,0.5-8.5,2.5c0,0,0.2,1.2,7.3,0.3c0,0,4,10.6,9.9,9.9
					c0,0,2.8,1.3,3.6,6.4c0.8,5.1,20.4,33.3,30.3,36.9c0,0,4.6,4.2,4.9,6.3l-0.2,1.9c0,0-9,3.9-9.6,4.6c0,0-9.9,2.3-10.3,7.6
					c0,0,0.5,1.7,1,1.7c0,0-0.2-1,0.3-1.6c0,0,3.9-3.5,6.4-3.4c0,0-4,7.5-1.9,9.4c0,0,1.3-6.6,3.4-8.1c0,0,9.1-2.9,11.2,3.4
					c0,0,1.6-6.1-9.4-5.3l1.4-1c0,0,9.1-2.9,11.7,2.3c0,0,0.9-6.2-10.6-3.7c0,0-0.5-1.4,4.9-3.4l11.7-5.2c0,0,8.1,5.9,11.7,17.3
					l4.2,27.6c0,0,3.6,0.3,2.9-13.2c0,0,2.1,10,4.5,11.1c0,0,5.1,3.2-3.1-23.1c0,0-3.7-19.5-3.3-24.9c0.3-5.3,0-24.9-8.4-33.5
					c0,0,10.7,12,19,12.9C567.8,416,632.5,383.9,617.2,367.8z"/>
			</g>
		</g>
	</g>
</g>
</svg>
