<?xml version="1.0" encoding="UTF-8"?>
<svg width="201px" height="200px" viewBox="0 0 201 200" version="1.1" xmlns="http://www.w3.org/2000/svg" xmlns:xlink="http://www.w3.org/1999/xlink">
	<title>蛋糕</title>
	<g id="页面-1" stroke="none" stroke-width="1" fill="none" fill-rule="evenodd">
		<g id="美食插画库" transform="translate(-562.000000, -112.000000)">
			<g id="编组-7" transform="translate(82.577278, 100.000000)">
				<g id="蛋糕" transform="translate(480.000000, 12.000000)">
					<g transform="translate(33.000000, 24.000000)">
						<path d="M132.990423,29.4720722 C132.760185,17.3230549 122.661434,7.69845192 110.515424,8.05146523 C95.4660101,8.48897204 76.1664908,9.20839731 64.2140781,10.2540386 C45.2221808,11.9157442 33.862043,14.0822232 26.4791155,26.6605441 C21.5459527,35.0655968 10.7370735,53.1414643 3.24121454,65.654706 C-1.51284387,73.5910796 -0.750761691,83.6594786 5.1419082,90.7911131 L47.4977631,142.053786 C51.5168101,146.917768 57.4431133,149.806407 63.7505943,149.975668 L112.450298,151.283266 C124.902015,151.617412 135.111784,141.487762 134.876077,129.033857 L132.990423,29.4720722 Z" id="Fill-1" fill="#FFECBB"></path>
						<path d="M132,30 C131.769762,17.8509827 122.661434,7.69845192 110.515424,8.05146523 C95.4660101,8.48897204 76.1664908,9.20839731 64.2140781,10.2540386 C45.2221808,11.9157442 33.862043,14.0822232 26.4791155,26.6605441 C21.5459527,35.0655968 10.7370735,53.1414643 3.24121454,65.654706 C-1.51284387,73.5910796 -0.750761691,83.6594786 5.1419082,90.7911131 L47.4977631,142.053786 C51.5168101,146.917768 57.4431133,149.806407 63.7505943,149.975668 L112.450298,151.283266 C124.902015,151.617412 135.111784,141.487762 134.876077,129.033857 L132,30 Z" id="Stroke-3" stroke="#151C23" stroke-width="1.18681319"></path>
						<path d="M103.726549,81.4855619 C103.726549,81.4855619 75.7050578,103.766143 56.0826038,98.2314086 C36.4598764,92.696674 2.82654011,81.7590037 15.6783027,94.6107663 C28.5300654,107.462529 88.5554533,103.735244 76.4531945,115.032764 C64.3509357,126.33001 23.334672,106.368762 33.1785753,117.853316 C43.0224786,129.33787 68.1791203,142.189632 85.1325093,133.439496 C102.085898,124.68936 118.765846,113.478248 120.95338,88.5950476 C123.140914,63.7118476 103.726549,81.4855619 103.726549,81.4855619" id="Fill-5" fill="#FFB229"></path>
						<path d="M132.93568,67.3255992 C132.93568,67.3255992 123.551158,122.091608 93.1991232,113.06803 C62.8470881,104.044452 25.9844046,110.656547 45.0733738,117.71654 C55.053998,121.408004 65.4447848,138.087951 54.2336727,135.900417 C46.1679611,134.326486 47.7785331,143.155921 56.147765,146.564646 C63.6346003,149.614068 73.619873,146.738281 81.5778485,147.931854 C108.922024,152.033481 122.992517,152.730484 130.691543,140.769321 C133.45057,136.482575 134.761177,131.422808 134.616253,126.326948 L132.93568,67.3255992 Z" id="Fill-7" fill="#FFA300"></path>
						<path d="M14.9980343,45.9963491 L50.5432754,83.5937705 C61.5832129,95.2708274 77.2175189,105.411688 93.2871441,105.411688 L133.941918,105.411688 L134.762243,127.287029 L90.3645986,124.779295 C75.3356927,124.107448 58.68391,122.861648 48.2838261,111.991517 L3.51019919,65.21575 L14.9980343,45.9963491 Z" id="Fill-9" fill="#97C1FF"></path>
						<path d="M14.9980343,45.9963491 L50.5432754,83.5937705 C61.5832129,95.2708274 77.2175189,105.411688 93.2871441,105.411688 L133.941918,105.411688 L134.762243,127.287029 L90.3645986,124.779295 C75.3356927,124.107448 58.68391,122.861648 48.2838261,111.991517 L3.51019919,65.21575 L14.9980343,45.9963491 Z" id="Stroke-11" stroke="#151C23" stroke-width="1.18681319"></path>
						<path d="M133.805142,106.368762 C133.805142,106.368762 111.65636,112.111039 101.265573,118.673641 C91.1536969,125.059873 71.1869797,124.962801 83.7653006,118.947083 C95.3775517,113.393207 134.078584,126.33001 134.078584,126.33001 L133.805142,106.368762 Z" id="Fill-13" fill="#123266"></path>
						<path d="M111.65636,106.642204 C111.65636,106.642204 90.3279027,112.657922 77.2026984,106.642204 C65.4775158,101.268253 55.0539159,84.2199795 56.4211247,94.3373246 C57.7883335,104.45467 76.9292566,115.665782 88.960694,116.212665 C100.992131,116.759549 66.8119115,119.220525 68.4525621,115.39234 C71.4453821,108.409184 90.6013445,125.509685 107.554734,118.673641 C125.604897,111.395442 128.920105,106.017389 128.920105,106.017389 L111.65636,106.642204 Z" id="Fill-15" fill="#194A91"></path>
						<path d="M29.8972742,91.8763487 C29.8972742,91.8763487 6.38128297,69.1806828 12.6704434,59.6102213 C18.9596038,50.0397597 57.0697286,97.1775641 44.9365709,94.6107663 C30.7175995,91.602907 48.7647555,108.009412 53.4132654,106.368762 C57.2225825,105.024249 61.2153791,111.208134 55.9127965,113.033631 C53.4053356,113.896614 50.6219719,113.126328 48.8076859,111.192821 L29.8972742,91.8763487 Z" id="Fill-17" fill="#0654B1"></path>
						<path d="M19.5757228,44.0003883 C20.133544,45.196696 21.0104717,46.1887427 22.3776805,46.0747175 C25.6589816,45.8012758 32.7684673,40.3324406 33.8622344,42.7934164 C34.9560014,45.2543922 27.5730739,51.8169944 24.5652146,57.0123878 C21.5573552,62.2077812 17.4557289,70.9579175 23.1980058,72.0516845 C28.9402827,73.1454516 33.0419091,54.8248538 40.1513948,56.7389461 C47.2608805,58.6530384 33.0990584,78.9101507 38.2373025,82.4424714 C41.995486,85.026496 48.7803964,78.5303401 53.2186295,76.9941443 C54.1026667,76.688163 55.0599863,77.1743424 55.369249,78.0570124 C55.6927306,78.9812456 56.5488767,80.0782939 58.7659425,80.3120866 C59.8099431,80.4225571 60.5331966,81.4069474 60.2734269,82.4244242 C59.8392014,84.1255054 59.8977179,86.5178473 62.5222119,88.437135 C63.4215619,89.0947625 63.8516858,90.2303661 63.5558218,91.3044453 C63.3895692,91.9082047 63.3526545,92.6125907 63.6559015,93.3260002 C63.932898,93.977065 63.9673516,94.7033264 63.7201603,95.3661492 C63.0072976,97.2780539 62.1019319,100.90936 65.3080366,101.309953 C69.6831047,101.856836 70.50343,95.8411175 69.6831047,94.200467 C68.8627794,92.5598164 70.7768717,81.8955878 74.3316146,82.9893549 C77.8863574,84.0831219 77.3394739,91.1926076 76.2457069,94.200467 C75.1519399,97.2083263 76.5191486,99.3958604 78.9801245,98.0286516 C81.4411003,96.6614428 84.1755179,88.7316318 86.9099355,87.9113065 C89.644353,87.0909812 89.644353,89.0050736 91.5584453,88.7316318 C93.4725377,88.45819 94.5663047,86.270656 96.480397,87.9113065 C98.3944893,89.5519571 97.3007223,93.1066999 94.8397464,97.2083263 C92.3787706,101.309953 85.8161684,111.153856 91.2850036,110.606972 C96.7538388,110.060089 100.582023,99.3958604 101.67579,95.5676758 C102.769557,91.7394911 103.863324,90.3722823 105.777417,90.6457241 C107.691509,90.9191659 110.152485,89.5519571 111.519694,87.9113065 C112.886902,86.270656 118.629179,89.5519571 115.894762,96.9348845 C113.160344,104.317812 104.957092,117.716458 104.68365,122.364968 C104.410208,127.013478 105.777417,130.294779 103.316441,131.93543 C100.855465,133.57608 99.2148146,134.396405 99.2148146,139.318357 C99.2148146,144.240309 104.68365,151.896678 112.066577,150.802911 C119.449505,149.709144 112.613461,129.201012 116.168204,121.544643 C119.722946,113.888274 123.53117,98.83175 133.79508,87.218952 L132.358871,11.3814661 C132.327499,9.72490882 130.959163,8.40743572 129.302605,8.43880756 C129.288477,8.43907512 129.27435,8.43944251 129.260227,8.43990969 C89.3584023,9.75980959 66.3473072,10.7524693 60.2269418,11.4178887 C51.0589865,12.4151308 31.3605157,11.1433532 19.5617773,38.0481081 C18.729694,39.9449736 18.7004357,42.1229372 19.5757228,44.0003883 Z" id="Fill-19" fill="#FF5F7A"></path>
						<path d="M19.5617773,38.0481081 C18.729694,39.9449736 18.7004357,42.1229372 19.5757228,44.0003883 C20.133544,45.196696 21.0104717,46.1887427 22.3776805,46.0747175 C25.6589816,45.8012758 32.7684673,40.3324406 33.8622344,42.7934164 C34.9560014,45.2543922 27.5730739,51.8169944 24.5652146,57.0123878 C21.5573552,62.2077812 17.4557289,70.9579175 23.1980058,72.0516845 C28.9402827,73.1454516 33.0419091,54.8248538 40.1513948,56.7389461 C47.2608805,58.6530384 33.0990584,78.9101507 38.2373025,82.4424714 C41.995486,85.026496 48.7803964,78.5303401 53.2186295,76.9941443 C54.1026667,76.688163 55.0599863,77.1743424 55.369249,78.0570124 C55.6927306,78.9812456 56.5488767,80.0782939 58.7659425,80.3120866 C59.8099431,80.4225571 60.5331966,81.4069474 60.2734269,82.4244242 C59.8392014,84.1255054 59.8977179,86.5178473 62.5222119,88.437135 C63.4215619,89.0947625 63.8516858,90.2303661 63.5558218,91.3044453 C63.3895692,91.9082047 63.3526545,92.6125907 63.6559015,93.3260002 C63.932898,93.977065 63.9673516,94.7033264 63.7201603,95.3661492 C63.0072976,97.2780539 62.1019319,100.90936 65.3080366,101.309953 C69.6831047,101.856836 70.50343,95.8411175 69.6831047,94.200467 C68.8627794,92.5598164 70.7768717,81.8955878 74.3316146,82.9893549 C77.8863574,84.0831219 77.3394739,91.1926076 76.2457069,94.200467 C75.1519399,97.2083263 76.5191486,99.3958604 78.9801245,98.0286516 C81.4411003,96.6614428 84.1755179,88.7316318 86.9099355,87.9113065 C89.644353,87.0909812 89.644353,89.0050736 91.5584453,88.7316318 C93.4725377,88.45819 94.5663047,86.270656 96.480397,87.9113065 C98.3944893,89.5519571 97.3007223,93.1066999 94.8397464,97.2083263 C92.3787706,101.309953 85.8161684,111.153856 91.2850036,110.606972 C96.7538388,110.060089 100.582023,99.3958604 101.67579,95.5676758 C102.769557,91.7394911 103.863324,90.3722823 105.777417,90.6457241 C107.691509,90.9191659 110.152485,89.5519571 111.519694,87.9113065 C112.886902,86.270656 118.629179,89.5519571 115.894762,96.9348845 C113.160344,104.317812 104.957092,117.716458 104.68365,122.364968 C104.410208,127.013478 105.777417,130.294779 103.316441,131.93543 C100.855465,133.57608 99.2148146,134.396405 99.2148146,139.318357 C99.2148146,144.240309 104.68365,151.896678 112.066577,150.802911 C119.449505,149.709144 112.613461,129.201012 116.168204,121.544643 C119.722946,113.888274 123.53117,98.83175 133.79508,87.218952 L132.378076,12.3955601 C132.336241,10.1868205 130.511795,8.43019238 128.303055,8.47202144 C128.284085,8.4723807 128.265117,8.47287492 128.246154,8.47350409 C88.9683426,9.77666512 66.2952719,10.7581267 60.2269418,11.4178887 C51.0589865,12.4151308 31.3605157,11.1433532 19.5617773,38.0481081 Z" id="Stroke-21" stroke="#151C23" stroke-width="2"></path>
						<path d="M119.312729,23.7893509 C119.312729,23.7893509 116.578312,55.5085949 96.6170632,49.766318 C76.6558148,44.024041 38.6474104,24.6096762 44.3896874,38.2817641 C50.1319643,51.953852 52.8663819,62.0711971 45.4834544,68.3603575 C38.5076817,74.3025204 45.6904498,76.5832981 53.4233827,76.1250097 C54.3902728,76.0675869 55.5551347,76.733691 55.9770553,77.6059703 C57.0522283,79.827958 58.3521704,79.5714696 58.8821006,79.5714696 C59.7467234,79.5714696 62.0433607,79.590884 61.3430764,84.4934213 C60.7961929,88.3216059 65.4447027,87.2278388 64.8978192,93.790441 C64.3509357,100.353043 65.7181445,100.353043 66.265028,100.353043 C67.0191804,100.353043 69.2728874,97.8920674 68.9994456,97.0717421 C66.9819923,91.0155541 69.5865251,81.5123592 73.9213973,82.0324454 C80.7574412,82.8527707 76.7826918,95.6848455 77.2026984,96.5248586 C77.7156751,97.5508121 77.7473943,98.8171209 83.389865,89.494671 C84.4568348,87.731792 86.4729208,86.7143152 88.5078744,87.0397109 C89.1485484,87.1422516 89.7810192,87.3645597 90.3279027,87.7747224 C92.5154368,89.4153729 94.1560874,85.0403048 96.0701797,86.1340718 C97.984272,87.2278388 99.8983643,91.8763487 96.3436214,98.1655092 C92.7888786,104.45467 87.0466016,109.923505 93.0623203,108.282854 C99.0433119,106.651774 97.984272,92.9701158 103.726549,89.9622564 C109.468826,86.9543971 114.664219,83.9465377 118.218962,88.3216059 C122.279299,93.318754 121.500263,98.1655092 124.234681,90.2356982 C126.969098,82.3058872 137.906769,28.9847443 119.312729,23.7893509" id="Fill-23" fill="#F6254A"></path>
						<path d="M125.875331,71.0947751 C125.875331,71.0947751 108.993584,65.8449668 110.836035,73.8291927 C113.29701,84.4934213 119.859613,89.9622564 116.031428,98.7123927 C112.203243,107.462529 105.367199,118.673641 105.367199,122.501826 C105.367199,126.33001 106.237565,131.554662 103.179665,132.892612 C98.8045973,134.806705 98.7365103,141.643022 102.085898,145.470933 C107.828175,152.033536 114.937661,152.033536 114.937661,145.197492 C114.937661,136.681148 114.390777,131.251962 114.390777,125.236243 C114.390777,122.600265 117.306487,116.348839 120.133054,109.376621 C123.380175,101.366965 127.581608,93.6416887 131.149203,89.5958445 C132.624968,87.9221075 132.973879,85.5366016 131.989489,83.5341876 L125.875331,71.0947751 Z" id="Fill-25" fill="#C61131"></path>
						<path d="M71.1869797,11.4844718 C71.1869797,11.4844718 70.3666544,24.6096762 89.7810192,25.1565597 C109.195384,25.7034432 116.578312,26.2503268 117.125195,44.8443663 C117.572546,60.055111 122.045779,81.4877495 128.448965,86.3883726 C130.3029,87.8072619 132.976067,86.4600144 132.935517,84.1253687 L131.671478,12.0933052 C131.642408,10.436706 130.275902,9.1173333 128.619303,9.14640377 C128.596151,9.14681005 128.573005,9.14748435 128.549869,9.14842654 L71.1869797,11.4844718 L71.1869797,11.4844718 Z" id="Fill-27" fill="#C61131"></path>
						<path d="M57.1255654,62.3352871 C57.1255654,64.8949754 53.1967542,68.3603028 50.6370659,68.3603028 C48.077651,68.3603028 43.6853561,64.8949754 43.6853561,62.3352871 C43.6853561,59.7758723 46.4553211,54.6882149 49.0150094,54.6882149 C51.5746977,54.6882149 57.1255654,59.7758723 57.1255654,62.3352871" id="Fill-29" fill="#F8959E"></path>
						<path d="M124.371402,75.1964015 C124.371402,80.2556209 120.270049,84.3567004 115.211103,84.3567004 C110.152157,84.3567004 106.050804,80.2556209 106.050804,75.1964015 C106.050804,70.1371821 110.152157,66.0361026 115.211103,66.0361026 C120.270049,66.0361026 124.371402,70.1371821 124.371402,75.1964015" id="Fill-31" fill="#3665C1"></path>
						<path d="M124.371402,75.1964015 C124.371402,80.2556209 120.270049,84.3567004 115.211103,84.3567004 C110.152157,84.3567004 106.050804,80.2556209 106.050804,75.1964015 C106.050804,70.1371821 110.152157,66.0361026 115.211103,66.0361026 C120.270049,66.0361026 124.371402,70.1371821 124.371402,75.1964015 Z" id="Stroke-33" stroke="#151C23" stroke-width="1.18681319"></path>
						<path d="M120.679938,77.9308191 C120.679938,77.3839355 121.773705,75.1964015 118.765846,71.3682169 C116.569561,68.5730952 109.799417,69.1317367 111.65636,67.5400323 C112.999232,66.3888425 117.453325,65.7030505 120.679938,68.3603575 C122.052342,69.4907658 123.140914,71.3682169 123.414355,73.8291927 C123.751783,76.8676775 120.679938,77.9308191 120.679938,77.9308191" id="Fill-35" fill="#194A91"></path>
						<path d="M122.047147,69.7275663 C119.816409,67.4971019 117.797041,69.2586137 118.902566,74.7862388 C119.859613,79.5714696 116.715032,79.9816323 114.527498,78.3409817 C112.339964,76.7003312 107.351293,73.4108268 106.734408,76.2901685 C106.30073,78.3141844 108.066343,81.2627069 110.836035,82.8527707 C113.30494,84.2702928 116.606476,84.544008 119.312729,83.1262125 C125.629234,79.8175672 124.781564,72.4619839 122.047147,69.7275663" id="Fill-37" fill="#123266"></path>
						<path d="M116.031428,73.953636 C116.031428,74.5062618 114.868754,75.8116728 114.316128,75.8116728 C113.763776,75.8116728 112.886848,74.5062618 112.886848,73.953636 C112.886848,73.4010102 114.621289,72.6670926 115.173915,72.6670926 C115.726267,72.6670926 116.031428,73.4010102 116.031428,73.953636" id="Fill-39" fill="#CFE5FF"></path>
						<path d="M110.599836,69.220742 C110.336785,69.6136778 110.119398,70.035325 109.946857,70.4692771 C109.768026,70.9002213 109.622555,71.3399156 109.495404,71.7807038 C109.438528,72.0046526 109.396418,72.2313358 109.368527,72.4610269 C109.329699,72.6868897 109.278018,72.9064635 109.189696,73.1197481 C109.09864,73.331392 109.011959,73.5476844 108.88727,73.7598752 C108.768596,73.9737067 108.643907,74.1902725 108.45031,74.4054712 L108.447849,74.4082056 C108.42406,74.4341826 108.383864,74.4363701 108.35734,74.4128541 C108.350504,74.4068384 108.345308,74.399182 108.341754,74.3915257 C108.109055,73.8771817 108.074874,73.3601034 108.127649,72.8583377 C108.166204,72.3491892 108.460701,71.9078542 108.680548,71.4615972 C108.908051,71.0147934 109.170009,70.5863102 109.475443,70.1922806 C109.790995,69.8056339 110.117484,69.4310187 110.525459,69.1406236 C110.550069,69.1231233 110.584249,69.1288656 110.602023,69.1537488 C110.615695,69.1726163 110.615422,69.1977729 110.603117,69.2160935 L110.599836,69.220742 Z" id="Fill-41" fill="#86B8EA"></path>
						<path d="M132.301213,20.0978872 C132.301213,28.403954 125.567709,35.1371839 117.261916,35.1371839 C108.955849,35.1371839 102.222619,28.403954 102.222619,20.0978872 C102.222619,11.7918203 108.955849,5.05859049 117.261916,5.05859049 C125.567709,5.05859049 132.301213,11.7918203 132.301213,20.0978872" id="Fill-43" fill="#3665C1"></path>
						<path d="M132.301213,20.0978872 C132.301213,28.403954 125.567709,35.1371839 117.261916,35.1371839 C108.955849,35.1371839 102.222619,28.403954 102.222619,20.0978872 C102.222619,11.7918203 108.955849,5.05859049 117.261916,5.05859049 C125.567709,5.05859049 132.301213,11.7918203 132.301213,20.0978872 Z" id="Stroke-45" stroke="#151C23" stroke-width="1.18681319"></path>
						<path d="M116.578312,27.3440938 C116.578312,27.3440938 119.859613,19.9611663 116.578312,14.7657729 C113.29701,9.57037951 108.921942,7.92972896 111.109476,7.38284544 C114.336636,6.57619225 116.838081,11.4844718 119.586171,11.4844718 C122.047147,11.4844718 118.671235,5.27187507 124.234681,7.6562872 C129.976958,10.117263 134.638319,20.5189875 129.162922,28.3068822 C123.687797,36.0942301 116.578312,27.3440938 116.578312,27.3440938" id="Fill-47" fill="#194A91"></path>
						<path d="M128.92098,11.7427102 C128.339096,10.9177364 127.447129,10.3385868 126.442778,10.2349524 C125.261236,10.1129973 123.944067,10.6128489 124.098015,13.5353944 C124.371456,18.7307878 126.012107,26.1137153 117.261971,25.5668317 C108.511834,25.0199482 103.231127,23.1061294 104.820371,27.3442032 C106.461021,31.7192713 114.471224,37.1118162 122.047201,33.9068054 C123.888832,33.1274964 125.328502,32.5395966 127.516037,30.3520625 C131.730321,26.1377781 133.372339,18.0531991 128.92098,11.7427102" id="Fill-49" fill="#123266"></path>
						<path d="M115.757986,18.2729916 C115.757986,19.2087093 114.732033,20.2346628 113.796315,20.2346628 C112.860597,20.2346628 111.65636,18.7627258 111.65636,17.8270081 C111.65636,16.8915638 112.414887,16.1330364 113.350332,16.1330364 C114.286049,16.1330364 115.757986,17.3372739 115.757986,18.2729916" id="Fill-51" fill="#E1F1FF"></path>
						<path d="M110.803604,14.7166354 C110.323714,13.9408812 111.543264,13.0650472 112.455466,13.0650472 C112.531209,13.0650472 112.611054,13.072977 112.693087,13.0885632 C114.041155,13.3425906 113.754861,15.3895756 112.386012,15.3050821 C111.686001,15.2618783 111.045053,15.1065634 110.803604,14.7166354" id="Fill-53" fill="#81B9EF"></path>
						<line x1="111.988674" y1="14.6779161" x2="112.88693" y2="14.3555282" id="Stroke-55" stroke="#408DC1" stroke-width="0.5" stroke-linecap="round"></line>
						<line x1="111.411083" y1="14.2349131" x2="112.066523" y2="14.0820591" id="Stroke-57" stroke="#408DC1" stroke-width="0.5" stroke-linecap="round"></line>
						<path d="M109.102715,11.1266459 C108.43579,11.8753295 107.849531,12.6934672 107.369914,13.5575432 L107.02237,14.2094283 C106.911352,14.4284552 106.818382,14.6559587 106.715842,14.8774465 C106.604824,15.0945593 106.534823,15.3297192 106.44322,15.5539414 C106.400837,15.6674198 106.354352,15.7795309 106.315523,15.8938295 L106.213529,16.2416475 C106.057941,16.6991155 106.002159,17.1814668 105.921493,17.6482319 C105.895516,17.8844855 105.873367,18.1199189 105.834812,18.3523444 C105.818132,18.4688306 105.787507,18.5836761 105.773561,18.7004357 C105.76153,18.8174688 105.745123,18.9342285 105.728443,19.0512615 C105.536761,19.9897136 105.506135,20.9355487 105.297226,21.9981434 L105.296405,22.0036122 C105.288476,22.0427144 105.250741,22.0681444 105.211912,22.0602146 C105.190857,22.0563864 105.17363,22.0432612 105.163513,22.025761 C104.626747,21.1007075 104.338265,20.0222532 104.365336,18.9446192 C104.36561,18.8098125 104.36643,18.6744588 104.371078,18.5393786 C104.377641,18.4045718 104.405259,18.2724994 104.426314,18.1393333 C104.475533,17.8746416 104.528854,17.6102235 104.60077,17.351821 C104.785616,16.8440397 104.961713,16.3409068 105.188122,15.8607431 L105.345898,15.4970656 C105.403048,15.3783918 105.467853,15.2629994 105.528557,15.1459663 C105.656528,14.9157284 105.763444,14.6753731 105.909735,14.4571665 C106.053566,14.2373194 106.187826,14.0133706 106.339039,13.8003594 C106.494354,13.5909031 106.64584,13.3792591 106.80389,13.1736309 C106.973424,12.976206 107.137215,12.7757732 107.309757,12.5835436 C107.489682,12.3970563 107.657848,12.2023658 107.845703,12.0251755 C108.208287,11.6595839 108.596847,11.3240709 109.014666,11.0219177 C109.045292,10.999769 109.087949,11.0068784 109.110098,11.0375039 C109.129512,11.0640278 109.126778,11.0995752 109.105996,11.1228177 L109.102715,11.1266459 Z" id="Fill-59" fill="#86B8EA"></path>
						<path d="M106.871129,19.2775619 C106.871129,29.8488203 98.3014644,38.418485 87.730206,38.418485 C77.1589477,38.418485 68.589283,29.8488203 68.589283,19.2775619 C68.589283,8.70630355 77.1589477,0.136638847 87.730206,0.136638847 C98.3014644,0.136638847 106.871129,8.70630355 106.871129,19.2775619" id="Fill-61" fill="#3665C1"></path>
						<path d="M106.871129,19.2775619 C106.871129,29.8488203 98.3014644,38.418485 87.730206,38.418485 C77.1589477,38.418485 68.589283,29.8488203 68.589283,19.2775619 C68.589283,8.70630355 77.1589477,0.136638847 87.730206,0.136638847 C98.3014644,0.136638847 106.871129,8.70630355 106.871129,19.2775619 Z" id="Stroke-63" stroke="#151C23" stroke-width="1.18681319"></path>
						<path d="M91.0798676,14.0821685 C91.0798676,15.6678573 87.7436047,19.4142828 86.1579159,19.4142828 C84.5722272,19.4142828 82.0562896,15.6678573 82.0562896,14.0821685 C82.0562896,12.4964798 87.033203,10.3907048 88.6188918,10.3907048 C90.2045805,10.3907048 91.0798676,12.4964798 91.0798676,14.0821685" id="Fill-65" fill="#CFE5FF"></path>
						<path d="M96.0701797,15.5860982 C96.0701797,15.5860982 94.4295291,10.3907048 91.148228,7.6562872 C87.8669269,4.92186962 88.2336123,0.489925598 93.6092038,2.18745203 C98.8045973,3.82810258 106.990623,8.47989377 106.187525,21.3283751 C105.914083,25.7034432 104.001084,26.5945899 102.906224,25.976885 C100.698728,24.7313578 98.4463886,16.8658056 96.0701797,15.5860982" id="Fill-67" fill="#194A91"></path>
						<path d="M69.3267007,20.6928418 C69.3146693,20.5730743 69.3221685,20.452213 69.4054519,20.3652585 C70.1125723,19.6272392 73.5491883,16.34211 77.2026437,18.0470193 C81.30427,19.9611116 82.3980371,25.9768303 85.9527799,23.7892962 C89.5075228,21.6017622 87.046547,30.6253402 91.9684986,30.3518984 C96.6178288,30.0937694 90.8747316,11.7578589 96.8904503,10.1172083 C102.906169,8.47655778 106.965685,18.8673446 105.892973,23.3791336 C105.409528,25.4129934 102.214361,34.6236056 92.2419404,37.1879424 C82.6714788,39.6489182 70.6400415,33.9066413 69.3267007,20.6928418" id="Fill-69" fill="#123266"></path>
						<path d="M82.8766148,9.36529819 C82.8766148,10.1580058 82.2337533,10.8008674 81.4410456,10.8008674 C80.6483379,10.8008674 80.0054764,10.1580058 80.0054764,9.36529819 C80.0054764,8.57259053 80.6483379,7.92972896 81.4410456,7.92972896 C82.2337533,7.92972896 82.8766148,8.57259053 82.8766148,9.36529819" id="Fill-71" fill="#81B9EF"></path>
						<path d="M75.0565634,9.07796559 C74.1246739,10.0210662 73.4350537,11.1804593 72.9450461,12.3887984 C72.8055908,12.6841155 72.7145347,13.0002142 72.6081659,13.3078361 C72.4935938,13.6121768 72.4235927,13.9318302 72.3464821,14.247382 L72.2256208,14.7185222 L72.1449555,15.1992328 L72.065384,15.6788496 C72.0358523,15.8379927 72.0123363,15.9979562 72.0055002,16.160654 C71.9819842,16.4849559 71.9598355,16.8084375 71.9439758,17.1305519 C71.9319444,17.4537601 71.9622964,17.7802495 71.968859,18.1026374 C71.9625699,18.747413 72.0372195,19.3916418 72.0199926,20.0413394 L72.0145238,20.2855229 L72.0292897,20.529433 L72.0500712,21.0194406 C72.0593683,21.3472973 72.0670246,21.6767946 72.0585479,22.0114873 C72.0979235,22.6726695 72.1233536,23.3426018 72.0735872,24.0456206 L72.0730403,24.0513628 C72.0705794,24.0899181 72.0366726,24.1191764 71.9978439,24.116442 C71.9732341,24.1145279 71.9521791,24.1000355 71.940968,24.0798008 C71.6101034,23.4697522 71.3418571,22.8290782 71.1107988,22.1750055 C71.0131801,21.8444144 70.931421,21.508081 70.851576,21.1706539 C70.7813015,20.8315861 70.6823156,20.4955262 70.6568855,20.1479817 C70.5915329,19.4561741 70.5209849,18.7597179 70.6158692,18.0618946 C70.6574324,17.7143501 70.6771202,17.3668056 70.7378242,17.0228159 C70.804544,16.6788261 70.8649747,16.3359302 70.924585,15.9935811 C70.9483744,15.8215862 70.9891172,15.6523258 71.0361492,15.4838857 L71.1679481,14.9785653 L71.3019346,14.4754325 L71.4763904,13.9835107 C71.5958845,13.6570213 71.7085425,13.3299849 71.8660449,13.0188082 C72.0150707,12.705444 72.1482368,12.3868843 72.3300756,12.0907469 C72.5023439,11.7905078 72.6718778,11.4908157 72.8761388,11.2116316 C72.9753981,11.0705357 73.0678215,10.925885 73.1720028,10.7891641 L73.4938437,10.3863844 C73.9332646,9.85891525 74.4120611,9.36836073 74.9737105,8.96913577 C75.0046094,8.94726043 75.0469929,8.95464335 75.0688682,8.98526883 C75.0882826,9.01261301 75.0847279,9.04952764 75.0617588,9.07249675 L75.0565634,9.07796559 Z" id="Fill-73" fill="#86B8EA"></path>
						<line x1="80.6207203" y1="9.43365863" x2="81.7144874" y2="8.88677511" id="Stroke-75" stroke="#408DC1" stroke-width="0.5" stroke-linecap="round"></line>
						<line x1="81.4410456" y1="9.98054214" x2="82.5348126" y2="9.43365863" id="Stroke-77" stroke="#408DC1" stroke-width="0.5" stroke-linecap="round"></line>
						<path d="M75.4253269,31.4457202 C75.4253269,37.4108521 69.3653107,42.2466696 61.8899599,42.2466696 C54.4146091,42.2466696 48.3545929,37.4108521 48.3545929,31.4457202 C48.3545929,25.4805882 54.4146091,20.6447707 61.8899599,20.6447707 C69.3653107,20.6447707 75.4253269,25.4805882 75.4253269,31.4457202" id="Fill-79" fill="#3665C1"></path>
						<path d="M75.4253269,31.4457202 C75.4253269,37.4108521 69.3653107,42.2466696 61.8899599,42.2466696 C54.4146091,42.2466696 48.3545929,37.4108521 48.3545929,31.4457202 C48.3545929,25.4805882 54.4146091,20.6447707 61.8899599,20.6447707 C69.3653107,20.6447707 75.4253269,25.4805882 75.4253269,31.4457202 Z" id="Stroke-81" stroke="#151C23" stroke-width="1.18681319"></path>
						<path d="M68.7260038,27.6175355 C68.7260038,27.6175355 65.4447027,29.2581861 60.5227511,28.7113026 C55.9026792,28.1980524 52.8663819,26.5237685 56.4211247,25.1565597 C59.8260215,23.8470471 58.3734989,23.0841446 58.0617753,22.1487004 C57.7883335,21.3283751 68.234629,18.9240017 73.101072,27.3440938 C77.967515,35.7641859 68.7260038,27.6175355 68.7260038,27.6175355" id="Fill-83" fill="#194A91"></path>
						<path d="M66.8119115,22.1487004 C66.8119115,22.1487004 67.8200913,30.0158932 62.7102852,31.7191619 C55.3273577,34.1801377 50.2118093,36.5243539 53.2593177,38.9462276 C57.24145,42.1099487 66.265028,43.4771575 72.5402429,37.2875299 C77.8477475,32.052214 73.3745137,23.5159092 66.8119115,22.1487004" id="Fill-85" fill="#123266"></path>
						<path d="M59.4289841,31.2967218 C59.4289841,31.8493475 58.2663097,33.1547585 57.7136839,33.1547585 C57.1613316,33.1547585 56.2844038,31.8493475 56.2844038,31.2967218 C56.2844038,30.744096 58.0188449,30.0101783 58.5714707,30.0101783 C59.1238231,30.0101783 59.4289841,30.744096 59.4289841,31.2967218" id="Fill-87" fill="#CFE5FF"></path>
						<path d="M53.3103146,26.1565909 C52.7924159,26.7171465 52.3590107,27.3523517 52.0379901,28.0288466 C51.8703703,28.3635394 51.73529,28.7105369 51.6152491,29.0589017 L51.4569263,29.5871912 C51.4126288,29.7652018 51.3820033,29.9464937 51.3439949,30.1245043 C51.3002442,30.3011477 51.2945019,30.4857208 51.2805564,30.6667393 C51.2696187,30.8483046 51.2485637,31.0271355 51.263603,31.2095212 C51.2671577,31.3908131 51.2655171,31.5699174 51.2537591,31.7484749 C51.2532122,31.9278527 51.2553998,32.1080508 51.2463762,32.2887958 C51.2070006,32.6519264 51.240087,33.0158774 51.2037193,33.3965084 C51.1919613,33.7741314 51.2059068,34.1561296 51.1413745,34.5744955 L51.1402808,34.5816049 C51.1353588,34.6127773 51.1061006,34.6343792 51.0746547,34.6294572 C51.0587951,34.6272697 51.0453965,34.6179727 51.0366463,34.6059413 C50.7990255,34.2728892 50.5895691,33.912493 50.4462856,33.5307683 C50.3196821,33.1452154 50.1824143,32.750092 50.1539763,32.3385622 C50.0123335,31.5152291 50.2671812,30.6856068 50.4952317,29.9117666 C50.7268368,29.1278091 51.1055537,28.3977196 51.5695843,27.7463813 C52.0437323,27.1016056 52.5895221,26.5167137 53.2427744,26.0707302 C53.2676576,26.0535034 53.3018379,26.0597925 53.3187913,26.0849492 C53.3332837,26.1062776 53.3308227,26.1347156 53.3138693,26.1527627 L53.3103146,26.1565909 Z" id="Fill-89" fill="#86B8EA"></path>
						<path d="M56.147683,29.6683487 C56.147683,30.1969117 55.910609,30.6253949 55.382046,30.6253949 C54.8534831,30.6253949 54.2335907,30.3883209 54.2335907,29.859758 C54.2335907,29.331195 54.8534831,28.7113026 55.382046,28.7113026 C55.910609,28.7113026 56.147683,29.1397858 56.147683,29.6683487" id="Fill-91" fill="#81B9EF"></path>
						<line x1="55.1906368" y1="29.2854209" x2="54.8078184" y2="29.6682394" id="Stroke-93" stroke="#408DC1" stroke-width="0.5" stroke-linecap="round"></line>
						<line x1="55.5734279" y1="29.6683487" x2="55.1906095" y2="30.0511672" id="Stroke-95" stroke="#408DC1" stroke-width="0.5" stroke-linecap="round"></line>
						<path d="M132.027771,31.582441 C132.027771,31.582441 120.269775,19.8244454 98.1209929,25.0198388 C75.9722104,30.2152323 76.519094,58.6531751 76.519094,58.6531751 C76.519094,58.6531751 104.957037,79.4347487 132.027771,57.5594081 L132.027771,31.582441 Z" id="Fill-97" fill="#EB3F50"></path>
						<path d="M132,33 C132,33 120.269775,19.8244454 98.1209929,25.0198388 C75.9722104,30.2152323 76.519094,58.6531751 76.519094,58.6531751 C76.519094,58.6531751 104.929266,78.8753407 132,57 L132,33 Z" id="Stroke-99" stroke="#151C23" stroke-width="2"></path>
						<path d="M124.816876,45.7839326 C124.816876,45.7839326 120.144027,33.139753 111.348076,33.139753 C104.117254,33.139753 98.4290227,33.6895 97.0546553,31.2156387 C92.6412869,23.2717955 118.769659,19.9458265 131.963586,35.0638673 L124.816876,45.7839326 Z" id="Fill-101" fill="#FF6C6C"></path>
						<path d="M118.543513,26.1407894 C115.590829,25.5503062 125.924553,41.3054715 122.435334,45.8682962 C118.946116,50.4311209 113.309685,48.8207122 107.941656,48.5523108 C102.573627,48.2839093 99.6212109,50.4311209 101.23162,55.2623471 C102.842028,60.0935733 99.6212109,58.751566 91.8375687,56.6043544 C84.0539266,54.4571427 77.1423207,55.3850066 82.3093171,59.6909711 C88.750952,65.0590001 111.565076,73.6478467 131.963586,57.275358 L131.963586,32.5824243 C131.963586,32.5824243 127.937564,28.0195996 118.543513,26.1407894" id="Fill-103" fill="#C01D2B"></path>
						<path d="M110.767674,41.6997861 C110.767674,43.2854749 107.431411,47.0319004 105.845723,47.0319004 C104.260034,47.0319004 101.744096,43.2854749 101.744096,41.6997861 C101.744096,40.1140973 106.72101,38.0083224 108.306698,38.0083224 C109.892387,38.0083224 110.767674,40.1140973 110.767674,41.6997861" id="Fill-105" fill="#FFB1BE"></path>
						<path d="M95.0057803,42.0899328 C94.2519014,40.8717498 96.1673609,39.4960643 97.5999222,39.4960643 C97.7194163,39.4960643 97.8443792,39.5086426 97.9734437,39.5329789 C100.090703,39.931657 99.641165,43.1467852 97.490819,43.0144394 C96.3915831,42.9466258 95.3847706,42.7024423 95.0057803,42.0899328" id="Fill-107" fill="#FF7B94"></path>
						<g id="编组" transform="translate(95.704615, 40.684032)">
							<line x1="0.0921225284" y1="0.605591462" x2="1.73277308" y2="0.0587079455" id="Fill-109" fill="#FF7B94"></line>
							<line x1="0.0921225284" y1="0.605591462" x2="1.73277308" y2="0.0587079455" id="Stroke-111" stroke="#D6365C" stroke-width="0.546883516" stroke-linecap="round"></line>
						</g>
						<g id="编组" transform="translate(97.071824, 41.504357)">
							<line x1="0.0921225284" y1="0.605591462" x2="1.45933132" y2="0.0587079455" id="Fill-112" fill="#FF7B94"></line>
							<line x1="0.0921225284" y1="0.605591462" x2="1.45933132" y2="0.0587079455" id="Stroke-114" stroke="#D6365C" stroke-width="0.546883516" stroke-linecap="round"></line>
						</g>
						<path d="M97.1787672,29.1260044 C95.6463996,29.6518329 94.2354402,30.4964944 92.9923739,31.5011195 C92.3672861,32.000971 91.7843082,32.5497686 91.2478155,33.1368481 C90.707768,33.7200993 90.2073696,34.3380777 89.7602923,34.991877 C89.3170433,35.6486841 88.9295763,36.3404917 88.5946101,37.0547216 C88.2604643,37.7692249 87.9219434,38.4777125 87.6033838,39.2023331 C87.2697848,39.9201178 86.9711864,40.6589574 86.6643848,41.4049065 C86.5137184,41.7787014 86.3737162,42.1587854 86.2156668,42.5375023 C86.0650004,42.9178598 85.9258186,43.304233 85.7467142,43.6873249 L85.6119074,43.6649026 C85.5875711,43.2451695 85.5922196,42.8262568 85.6050714,42.4057033 C85.641986,41.9903453 85.6676896,41.5689716 85.7357765,41.1552542 C85.8683958,40.3272725 86.0494142,39.4995643 86.3313327,38.7016613 C86.5957509,37.898016 86.9679051,37.1299181 87.4075995,36.4044771 C87.8527626,35.6814971 88.3621846,35.0017209 88.8830912,34.3383511 C89.4111072,33.6790831 89.9910772,33.0638391 90.6071415,32.491799 C91.2292215,31.9252276 91.8925912,31.4078758 92.5909614,30.9476733 C93.292613,30.4921194 94.0281713,30.0948085 94.7872456,29.7582017 C95.5490544,29.42597 96.3305509,29.1470594 97.1492355,28.9925648 L97.1787672,29.1260044 Z" id="Fill-115" fill="#FFDCE4"></path>
						<path d="M87.6916234,46.5135915 C86.4843781,43.9716769 75.836556,23.8537465 46.8878239,37.2469238 C46.5506702,37.403059 46.5804754,37.9009965 46.9375903,38.0024434 C48.2605015,38.3789727 50.340573,39.4981698 51.6662186,42.8122839 C53.7282429,47.9674814 65.3853385,69.2286718 87.6104112,46.9735206 C87.730999,46.8523859 87.7649058,46.6675392 87.6916234,46.5135915" id="Fill-117" fill="#41DC6C"></path>
						<path d="M87.6916234,46.5135915 C86.4843781,43.9716769 75.836556,23.8537465 46.8878239,37.2469238 C46.5506702,37.403059 46.5804754,37.9009965 46.9375903,38.0024434 C48.2605015,38.3789727 50.340573,39.4981698 51.6662186,42.8122839 C53.7282429,47.9674814 65.3853385,69.2286718 87.6104112,46.9735206 C87.730999,46.8523859 87.7649058,46.6675392 87.6916234,46.5135915 Z" id="Stroke-119" stroke="#151C23" stroke-width="0.820325275"></path>
						<path d="M79.1167907,38.2817641 C79.1167907,38.2817641 81.5777665,45.3912498 77.1160173,46.4852903 C74.007258,47.2476459 68.3347087,44.9225707 69.8197709,47.0319004 C71.3048331,49.1412301 61.3430764,45.6646916 59.4289841,43.2037158 C57.3538346,40.5357445 58.2933804,51.0170406 66.0257665,53.0880884 C73.7578791,55.1591363 79.3902324,53.8679443 82.2080497,51.30142 C85.1024307,48.665168 82.5512191,42.1028393 79.1167907,38.2817641" id="Fill-121" fill="#169E23"></path>
						<path d="M74.0734856,34.7291541 C74.0734856,34.7291541 81.5778212,40.1958017 81.5778212,44.8443116 C81.5778212,49.4928215 75.5621025,46.4849622 72.0073596,47.0318457 C68.4526168,47.5787292 79.6637289,49.7662633 78.5699618,51.1334721 C77.4761948,52.5006809 63.5306651,51.1334721 60.249364,45.3911951 C56.9680629,39.6489182 59.7024805,53.0475644 64.8978739,54.1413314 C70.0932673,55.2350984 52.0461113,36.6410589 47.3976014,37.7348259 C47.3976014,37.7348259 50.6980434,39.4637982 52.0461113,42.9302193 C53.9602036,47.852171 57.0047041,50.819014 59.155597,52.7741226 C63.667386,56.875749 68.916374,56.9703598 73.0371413,56.0392907 C76.4617259,55.2657239 79.622986,53.6053856 82.2863088,51.3177718 L87.3200981,46.7584039 C87.3200981,46.7584039 86.1251576,43.9408601 83.4919135,41.016127 C81.1564474,38.4228054 77.6003374,35.7562014 74.0734856,34.7291541" id="Fill-123" fill="#0B771A"></path>
						<path d="M72.8651464,36.4747516 C71.8096612,36.0077131 70.6926517,35.6869659 69.5649778,35.491455 C69.0027816,35.3845393 68.4345696,35.3186399 67.8682717,35.2686 L67.017321,35.2158258 C66.7334884,35.2106304 66.4493825,35.2160992 66.1663702,35.2158258 C65.883358,35.2111772 65.6011661,35.2467247 65.3195211,35.2686 C65.0381495,35.2986786 64.756778,35.3109835 64.4792346,35.3689531 C64.2005974,35.4137976 63.9227806,35.4539935 63.6435966,35.4835252 C63.5030475,35.4906347 63.3666001,35.5275494 63.2271448,35.5453231 L62.8093258,35.6038396 C62.2460357,35.6541529 61.6936834,35.7706391 61.1216432,35.8387261 C60.8337091,35.8660703 60.5558922,35.9355245 60.2674112,35.9784548 C59.9786567,36.0205648 59.6879881,36.064589 59.3841943,36.0850971 L59.3434515,35.9836502 C60.324834,35.2975848 61.4385622,34.8029287 62.6077992,34.5289401 C63.7740283,34.2057319 65.0020552,34.2787408 66.1874253,34.3410856 C67.3804516,34.4015162 68.5581653,34.6265588 69.6929486,34.9598843 C70.8236303,35.3074287 71.9253271,35.7473965 72.9203817,36.3804142 L72.8651464,36.4747516 Z" id="Fill-125" fill="#6CEFA1"></path>
						<path d="M62.9837269,38.9458721 C62.9837269,39.8629958 61.5569078,41.2895414 60.6400576,41.2895414 C59.722934,41.2895414 58.8821006,40.448708 58.8821006,39.5318578 C58.8821006,38.6150076 60.5044305,37.1879151 61.4212807,37.1879151 C62.3381309,37.1879151 62.9837269,38.0287485 62.9837269,38.9458721" id="Fill-127" fill="#B9FCD3"></path>
						<path d="M57.7883335,37.9693296 C57.7883335,38.5194944 56.9321874,39.3756405 56.3820226,39.3756405 C55.8318577,39.3756405 55.3273577,38.8711405 55.3273577,38.3207022 C55.3273577,37.7705374 56.3008104,36.9146647 56.8507017,36.9146647 C57.4008665,36.9146647 57.7883335,37.4191648 57.7883335,37.9693296" id="Fill-129" fill="#66DD91"></path>
						<line x1="56.3088495" y1="37.8563981" x2="55.9495471" y2="38.5938705" id="Stroke-131" stroke="#37B762" stroke-width="0.5" stroke-linecap="round"></line>
						<line x1="57.1660074" y1="37.969603" x2="56.6872109" y2="38.953173" id="Stroke-133" stroke="#37B762" stroke-width="0.5" stroke-linecap="round"></line>
						<path d="M81.3654663,49.8242603 C80.4218188,49.2221415 79.4087171,48.6525623 78.3953419,48.1220853 C77.3775917,47.5902411 76.3417943,47.0901161 75.2904108,46.6236245 C73.1865499,45.6939225 71.0252662,44.8831677 68.810388,44.2465953 C67.7043161,43.923934 66.5853924,43.6425624 65.4552576,43.4142386 C64.8916941,43.290096 64.322115,43.1998602 63.7541764,43.0978665 C63.1829566,43.0185684 62.613104,42.92177 62.0386028,42.8670816 C59.7449734,42.5982884 57.4198981,42.5772334 55.1134169,42.8121198 C57.4081401,42.4867241 59.7444265,42.4150824 62.0640329,42.5950071 C62.6453701,42.6272732 63.2223322,42.7019228 63.8017553,42.7593456 C64.3778971,42.8397374 64.9567733,42.9080979 65.5299072,43.0106385 C66.6797298,43.1963055 67.8213491,43.4363874 68.9523042,43.7183058 C71.2169489,44.2739395 73.437296,45.008404 75.6084235,45.8672846 C76.6934404,46.2985022 77.7650587,46.7649939 78.8221845,47.2659392 C79.8823182,47.7693455 80.9145608,48.2949005 81.9495379,48.8994802 C82.2104013,49.0520608 82.2984496,49.3870269 82.1458691,49.6478903 C81.9932886,49.9090272 81.6583224,49.996802 81.397459,49.8442215 C81.3919902,49.8412137 81.3865213,49.8376589 81.3810525,49.8343776 L81.3654663,49.8242603 Z" id="Fill-135" fill="#005623"></path>
						<path d="M73.5686574,45.0908467 C73.5511571,45.0388928 73.4863514,44.9161174 73.4319365,44.8231472 C73.3731465,44.7244348 73.3047861,44.6254488 73.2386132,44.5267364 L73.0160316,44.237435 L72.767473,43.9615323 C72.5979391,43.7802404 72.4122722,43.6090658 72.2241443,43.4411726 C72.0231646,43.2861311 71.8385914,43.1097612 71.6228458,42.9700324 C70.7904891,42.3731091 69.8591465,41.8833749 68.8785843,41.5076659 L68.5129927,41.3594605 C68.3904908,41.3121551 68.2636138,41.2752404 68.1391978,41.2325835 L67.3869596,40.9842984 C66.8786313,40.8399211 66.3645608,40.7086691 65.8491231,40.5812452 C65.3279431,40.4811656 64.80731,40.3676872 64.2823018,40.2777249 L62.6974334,40.054323 L64.2989818,40.1420978 C64.8319198,40.1869422 65.3634905,40.2558496 65.8977957,40.3121786 C66.4277259,40.3958517 66.9590232,40.4839 67.488133,40.5869875 L68.2761922,40.7742951 C68.4074442,40.8068347 68.5403369,40.8339054 68.6702217,40.8710935 L69.0587825,40.9914079 C70.1011424,41.2924673 71.1188927,41.7168489 72.0740247,42.2847874 C72.3187551,42.4163129 72.5399695,42.5910422 72.774856,42.7436227 C72.9996251,42.9117893 73.2233004,43.0854249 73.4352178,43.2757403 L73.7488555,43.5699637 L74.0436257,43.8912577 C74.1368694,44.0063767 74.230113,44.119855 74.3187081,44.2431773 C74.408397,44.3749762 74.4852342,44.4791575 74.5782044,44.6702933 L74.5806653,44.6749418 C74.7132846,44.9472898 74.6003531,45.2751465 74.3282786,45.4077657 C74.056204,45.5406584 73.7280739,45.4274535 73.5951812,45.155379 C73.5853373,45.1351443 73.5757669,45.1116283 73.5686574,45.0908467" id="Fill-137" fill="#005623"></path>
						<path d="M67.335033,44.355179 C67.1810853,44.5091267 67.0542083,44.6190503 66.9092841,44.7338958 C66.7701023,44.8498352 66.6235375,44.9510086 66.4799806,45.0560102 C66.1857573,45.2553493 65.886612,45.4426569 65.5751618,45.6039875 C64.9539021,45.9288363 64.3072124,46.1946217 63.6383738,46.3685307 C62.9703556,46.5377911 62.2944076,46.6668556 61.6135376,46.6879107 C61.2755636,46.7209971 60.9351286,46.6952936 60.5987953,46.6939264 C60.2621884,46.6808012 59.9274957,46.6329489 59.5949906,46.6042375 C59.930777,46.5875575 60.2646494,46.5897451 60.5957874,46.5574789 C60.9266519,46.5131814 61.2575164,46.493767 61.5807246,46.416383 C62.2326098,46.3072797 62.8593383,46.0939952 63.4606367,45.8514523 C64.0622086,45.6039875 64.6238579,45.2758574 65.1442176,44.9061642 C65.405081,44.7221379 65.6492645,44.51733 65.8838776,44.3073267 C65.9962621,44.19795 66.1130217,44.0918546 66.2166562,43.9778294 C66.3216578,43.8706402 66.4299407,43.7415757 66.5004887,43.6480586 L66.508692,43.6373944 C66.6910776,43.395125 67.0347939,43.3467258 67.2770633,43.5291115 C67.5190593,43.7114971 67.5674585,44.0552134 67.3853463,44.2974828 C67.370307,44.3171706 67.3519864,44.3382256 67.335033,44.355179" id="Fill-139" fill="#005623"></path>
						<path d="M80.4083108,49.6950317 C80.4083108,49.6950317 71.4859062,82.7407416 111.879543,77.3287823 C112.748268,77.2122962 113.061905,76.1086852 112.378848,75.5590673 C111.054569,74.4931913 109.410911,72.7333202 108.331363,70.0339031 C106.711767,65.9853244 98.6788687,38.6635708 80.4083108,49.6950317" id="Fill-141" fill="#41DC6C"></path>
						<path d="M80.4083108,49.6950317 C80.4083108,49.6950317 71.4859062,82.7407416 111.879543,77.3287823 C112.748268,77.2122962 113.061905,76.1086852 112.378848,75.5590673 C111.054569,74.4931913 109.410911,72.7333202 108.331363,70.0339031 C106.711767,65.9853244 98.6788687,38.6635708 80.4083108,49.6950317 Z" id="Stroke-143" stroke="#151C23" stroke-width="0.820325275"></path>
						<path d="M97.4373885,51.4069685 C97.4373885,51.4069685 100.71869,59.0633377 100.71869,62.6180806 C100.71869,66.4462652 97.984272,68.0869158 94.1560874,67.2665905 C92.4440685,66.8996317 91.148228,68.6337993 95.2498544,71.3682169 C99.3514808,74.1026345 108.101617,74.9229597 109.195384,75.4698432 C110.289151,76.0167268 103.453107,55.5085949 97.4373885,51.4069685" id="Fill-145" fill="#169E23"></path>
						<path d="M80.2105577,60.9774301 C80.2105577,60.9774301 90.2507922,72.8240208 92.5154368,67.5400323 C93.216268,65.905124 93.8323323,61.5921271 95.9438496,62.315654 C96.6815954,62.5683142 97.1516418,63.2970365 97.1595716,64.0771658 C97.1806267,66.0806736 97.4811391,70.4713279 100.171806,71.3682169 C101.630891,71.8546698 102.249417,70.8995377 102.616922,69.5159224 C103.277011,67.0311571 106.757104,66.8900612 107.5211,69.3447479 C107.532585,69.3808422 107.543796,69.4174834 107.554734,69.4541246 C108.30998,71.9714294 110.770135,74.9702651 111.929802,75.743285 C112.750127,76.2901685 112.091406,77.0235393 111.16143,77.1241659 C105.495717,77.738863 100.171806,77.6573773 95.2498544,76.5636103 C92.955678,76.0539148 92.0563281,75.7982468 90.5723597,75.0460085 C90.4104822,74.963976 90.2406748,74.8939749 90.0703206,74.8313567 C81.5506958,71.6999017 80.2105577,60.9774301 80.2105577,60.9774301" id="Fill-147" fill="#0B771A"></path>
						<path d="M83.2407299,52.6024832 C85.3347469,54.3399322 87.303801,56.1643356 89.2066822,58.0792482 C91.1021804,59.9944343 92.9126383,62.0001296 94.5497341,64.1466474 C95.3654109,65.2212735 96.1365166,66.3322674 96.831879,67.4911135 C97.5146631,68.6343735 98.2472136,69.7483752 99.0483979,70.8117902 C99.8569652,71.8672754 100.728971,72.8825647 101.734143,73.7564845 C102.237276,74.1912569 102.769667,74.5959507 103.349637,74.9240808 C103.639485,75.087599 103.939998,75.2333435 104.253088,75.3479156 C104.566179,75.4575657 104.892942,75.5517928 105.228729,75.5497156 C104.892942,75.5658486 104.55989,75.4857302 104.239416,75.3883849 C103.918943,75.2861177 103.60886,75.1524047 103.309167,74.9990039 C102.708963,74.6922022 102.152782,74.3061025 101.624766,73.88801 C100.570101,73.0463563 99.6442275,72.0567706 98.7806984,71.023981 C97.9250992,69.9832617 97.1364932,68.8886743 96.3973801,67.7626412 C95.6664703,66.6546552 94.8625515,65.5950684 94.014882,64.5715759 C92.3138009,62.5281456 90.4442796,60.6260847 88.4938195,58.8161737 C86.543086,57.012005 84.5004761,55.2775639 82.402084,53.6820313 L82.3900526,53.6730077 C82.0895401,53.4444104 82.0310235,53.0153803 82.2596209,52.7145943 C82.4882182,52.4140819 82.9172483,52.3558388 83.2180342,52.5844361 C83.2248703,52.5896315 83.2338938,52.596741 83.2407299,52.6024832" id="Fill-149" fill="#005623"></path>
						<path d="M90.4721159,59.9125111 C90.1822677,60.8337364 89.9378107,61.8186736 89.7316357,62.7904856 C89.5265543,63.7680399 89.363583,64.7554381 89.2438156,65.7502192 C89.1306107,66.7450003 89.0737348,67.7463441 89.0734613,68.7517894 C89.0895944,69.756141 89.1806505,70.7610394 89.3712394,71.7574612 C89.0704535,70.7900243 88.8631846,69.7886806 88.7324795,68.7744851 C88.6179074,67.7600161 88.5604846,66.7357033 88.5612963,65.7102967 C88.5686879,64.6857105 88.6209152,63.659757 88.7179871,62.6365379 C88.8186136,61.6089438 88.948225,60.6029516 89.1505719,59.5616854 C89.223034,59.190078 89.5826099,58.9478086 89.9539438,59.0197238 C90.3252777,59.0921859 90.568094,59.4514883 90.4956319,59.8230957 C90.49071,59.8485258 90.4844208,59.8731355 90.4770379,59.8971984 L90.4721159,59.9125111 Z" id="Fill-151" fill="#005623"></path>
						<path d="M94.5506365,63.0378684 C95.2913902,63.6594015 96.0868323,64.2667157 96.8844619,64.8458653 C97.6853728,65.4266556 98.506245,65.9820158 99.3517269,66.4966332 C100.195568,67.0131647 101.061285,67.5001644 101.966104,67.9023973 C102.869008,68.3035363 103.80582,68.6568231 104.799234,68.7976456 C103.795429,68.7711217 102.805023,68.5236569 101.843602,68.2215038 C100.878626,67.9185303 99.9450955,67.5253211 99.0287922,67.0992988 C98.1108482,66.6746438 97.2134123,66.2070584 96.332383,65.7099413 C95.4486192,65.2103632 94.5878246,64.6979333 93.7251158,64.1278072 C93.4098375,63.9191712 93.3231564,63.4942427 93.531519,63.1786909 C93.7404285,62.8628657 94.165357,62.7764581 94.4809088,62.9850941 C94.5027842,62.9993131 94.5232923,63.0148993 94.5429801,63.0313058 L94.5506365,63.0378684 Z" id="Fill-153" fill="#005623"></path>
						<path d="M97.4373885,58.0867952 C97.4373885,59.0039189 96.0105694,60.4304645 95.0937192,60.4304645 C94.1765955,60.4304645 93.3357621,59.5896311 93.3357621,58.6727809 C93.3357621,57.7559307 94.958092,56.3288381 95.8749423,56.3288381 C96.7917925,56.3288381 97.4373885,57.1696715 97.4373885,58.0867952" id="Fill-155" fill="#B9FCD3"></path>
						<path d="M93.0623203,56.2899274 C93.0623203,56.8400922 92.2061742,57.6962383 91.6560094,57.6962383 C91.1058446,57.6962383 90.6013445,57.1917383 90.6013445,56.6413 C90.6013445,56.0911352 91.5747972,55.2352625 92.1246885,55.2352625 C92.6748534,55.2352625 93.0623203,55.7397626 93.0623203,56.2899274" id="Fill-157" fill="#66DD91"></path>
						<line x1="91.5828364" y1="56.1769959" x2="91.2235339" y2="56.9144683" id="Stroke-159" stroke="#37B762" stroke-width="0.5" stroke-linecap="round"></line>
						<line x1="92.4399942" y1="56.2902008" x2="91.9611977" y2="57.2737708" id="Stroke-161" stroke="#37B762" stroke-width="0.5" stroke-linecap="round"></line>
						<path d="M84.9784249,50.6715743 C85.8548057,50.3305924 86.7910703,50.1908636 87.7325303,50.1326205 C88.6756309,50.0891433 89.6304895,50.1585975 90.5653869,50.3505536 C91.4882528,50.5578225 92.4630727,50.7330986 93.2798432,51.2512708 L93.5904731,51.4314689 C93.689459,51.4984621 93.7865308,51.5692835 93.8830558,51.6403784 C94.0752853,51.7833884 94.2656008,51.9277657 94.447713,52.0819868 C94.8078358,52.3953511 95.1304971,52.7565677 95.419525,53.1404799 L95.3536255,53.2282547 C94.8800244,53.0972761 94.4630257,52.9080544 94.0421989,52.7357861 C93.8261799,52.6594958 93.6186376,52.5722679 93.4130094,52.4847666 L93.1070281,52.3502332 L92.795031,52.2315595 C92.5899497,52.1478863 92.3867825,52.0620256 92.1885372,51.9652272 C91.9848231,51.8821009 91.7830231,51.7943261 91.5831371,51.6994418 L91.2837184,51.552877 L90.9752761,51.4298282 C90.7685541,51.3502567 90.5623791,51.2622085 90.3499148,51.19877 L89.7073267,51.0163843 C89.492128,50.9586881 89.2722808,50.9217735 89.0538009,50.8731008 C88.8361412,50.8173187 88.6138331,50.7938027 88.3923453,50.7568881 C88.1708574,50.717239 87.9474555,50.6989184 87.7232333,50.6792306 C86.8274381,50.5909089 85.9089472,50.6105967 85.013152,50.7752087 L84.9784249,50.6715743 Z" id="Fill-163" fill="#6CEFA1"></path>
						<path d="M84.3311336,48.8629484 C84.3311336,48.8629484 81.5734734,43.0025447 71.9209794,47.4839816 C63.2072109,51.5298259 59.5504742,69.623467 53.5951862,73.8642753 C52.9474027,74.3255715 53.1193975,75.3378529 53.8740968,75.5877787 C58.3610026,77.0733877 68.6618271,79.4154164 77.7813831,73.6835303 C89.8467273,66.0993497 92.2598508,49.5522951 84.3311336,48.8629484" id="Fill-165" fill="#41DC6C"></path>
						<path d="M84.3311336,48.8629484 C84.3311336,48.8629484 81.5734734,43.0025447 71.9209794,47.4839816 C63.2072109,51.5298259 59.5504742,69.623467 53.5951862,73.8642753 C52.9474027,74.3255715 53.1193975,75.3378529 53.8740968,75.5877787 C58.3610026,77.0733877 68.6618271,79.4154164 77.7813831,73.6835303 C89.8467273,66.0993497 92.2598508,49.5522951 84.3311336,48.8629484 Z" id="Stroke-167" stroke="#151C23" stroke-width="0.820325275"></path>
						<path d="M77.7495819,70.5478916 C77.7495819,70.5478916 70.3666544,73.5557509 65.9915863,72.1885421 C62.4417654,71.0791889 58.8290528,72.144518 60.5227511,73.5557509 C62.1634016,74.9229597 53.2478331,74.2106439 54.2335907,75.1964015 C54.5070324,75.4698432 68.7260038,79.5714696 76.6558148,73.8291927 C82.6395408,69.4959611 77.7495819,70.5478916 77.7495819,70.5478916" id="Fill-169" fill="#169E23"></path>
						<path d="M84.0387423,49.2194345 C84.0387423,49.2194345 86.4997181,60.1571048 79.6636742,66.1728235 C75.4368115,69.8927251 71.1869797,72.7354257 74.4682808,72.4619839 C78.5037342,72.125924 69.5373055,74.6869795 65.3126304,75.7476601 C65.1346198,75.7925045 65.1677062,76.053368 65.3511857,76.0525496 C68.5911971,76.0386021 77.2893794,75.3366771 82.9449753,68.6337993 C90.3279027,59.883663 90.054461,49.4928762 84.0387423,49.2194345" id="Fill-171" fill="#0B771A"></path>
						<path d="M58.3927765,73.2142222 C59.8056501,72.8196457 61.1706713,72.2858874 62.4834652,71.649315 C63.7959857,71.0091878 65.0357706,70.2331601 66.2328986,69.4043582 C68.6246937,67.7371838 70.7960947,65.7697703 72.7897585,63.6456747 C73.7891882,62.5849942 74.7372107,61.4759144 75.642303,60.3337482 C76.5523171,59.1954101 77.4505733,58.0494157 78.3422669,56.8949446 C80.1275681,54.5868227 81.834665,52.2141686 83.5220741,49.7999513 L83.618599,49.8519052 C83.0468323,51.2188406 82.3531106,52.5264391 81.6139975,53.8066934 C80.8762517,55.0885883 80.0709657,56.3308343 79.2224759,57.5438219 C77.5227619,59.9706175 75.5214417,62.1753784 73.4159402,64.2565436 C71.3109855,66.3382557 69.0296609,68.2559028 66.5366924,69.8593652 C65.2802275,70.6435962 63.9854808,71.3698575 62.6253815,71.9552963 C61.266376,72.5404617 59.8586978,73.0066799 58.4179332,73.320591 L58.3927765,73.2142222 Z" id="Fill-173" fill="#005623"></path>
						<path d="M78.4238346,58.3807998 C77.3694431,58.5599041 76.2882544,58.8040876 75.2305817,59.0761622 C74.1682605,59.3482367 73.1152363,59.661601 72.0726028,60.008872 C71.0286022,60.3528617 69.9974533,60.7395084 68.9824375,61.1674447 C67.9611326,61.58417 66.9726406,62.074451 65.989344,62.5805917 C66.9264289,61.9959733 67.8769125,61.4222925 68.8659513,60.9199799 C69.8492479,60.4061829 70.8546932,59.9312145 71.8787326,59.4975359 C72.9011314,59.0603025 73.9393897,58.6558822 74.9929608,58.2911109 C76.0498132,57.9246989 77.1036577,57.5916469 78.2100031,57.3080878 C78.5031327,57.2331647 78.8011842,57.4098081 78.8763807,57.7029377 C78.9515771,57.9957938 78.7749338,58.2941187 78.4818042,58.3690418 C78.4675852,58.37287 78.4530928,58.3758778 78.4388739,58.3783388 L78.4238346,58.3807998 Z" id="Fill-175" fill="#005623"></path>
						<path d="M81.3911151,54.874128 C81.457288,55.6126942 81.4583818,56.2979392 81.4343189,57.0045127 C81.4088889,57.7053439 81.3509192,58.4028939 81.2595897,59.0955218 C81.0758368,60.4802309 80.765207,61.8460725 80.3153953,63.1626946 C79.8639429,64.4779494 79.2730353,65.7434379 78.5339222,66.9126748 C77.8019186,68.0860134 76.908311,69.1497019 75.9151705,70.0933494 C76.8440521,69.0851696 77.6561742,67.9741757 78.297942,66.7745867 C78.9470927,65.5788259 79.4395613,64.3070483 79.7925746,63.0024577 C80.1436738,61.6967733 80.3550443,60.3580024 80.4430926,59.0154034 C80.4865698,58.3438304 80.4975075,57.6711637 80.4772728,57.0012314 C80.4573115,56.3375883 80.4061779,55.6501557 80.3082858,55.0278022 L80.3050045,55.007841 C80.2579725,54.7089692 80.4622335,54.4289648 80.7608319,54.3819328 C81.0594303,54.3349008 81.3397081,54.5388884 81.3867401,54.8377602 C81.3883807,54.8492448 81.3900214,54.86237 81.3911151,54.874128" id="Fill-177" fill="#005623"></path>
						<path d="M74.2768169,63.8942333 C74.3017001,64.1077913 74.3085361,64.278419 74.311544,64.4657266 C74.315919,64.6483857 74.3104502,64.829951 74.3017001,65.0101491 C74.2956843,65.1908941 74.2729887,65.3699985 74.2590431,65.5488294 L74.1830263,66.0814939 C74.0599775,66.7872471 73.8439585,67.4741328 73.5426257,68.1148068 C73.4050845,68.4407494 73.210394,68.7396212 73.0326569,69.0404072 C72.8232005,69.3239663 72.6326116,69.6170958 72.3867874,69.8664747 C71.9356085,70.3985924 71.3758732,70.8147707 70.8155911,71.1989564 C71.3222787,70.7409415 71.809005,70.2651528 72.1713153,69.6980346 C72.3733888,69.430882 72.5161254,69.1262679 72.6760888,68.8377868 C72.804333,68.5312586 72.947343,68.2345743 73.0334772,67.9154678 C73.2311756,67.2895596 73.3424664,66.6406823 73.367623,65.991805 L73.3711777,65.505899 C73.3616073,65.3442949 73.3613338,65.1826909 73.3446539,65.0227274 C73.320591,64.7090897 73.269184,64.3700219 73.2032845,64.1039631 L73.2000032,64.0897441 C73.1269943,63.7957943 73.3063721,63.4985631 73.6000485,63.4255541 C73.8942718,63.3528186 74.191503,63.531923 74.264512,63.8258729 C74.2699808,63.8474747 74.2740824,63.8726314 74.2768169,63.8942333" id="Fill-179" fill="#005623"></path>
						<path d="M74.75709,49.2720446 C73.6928546,49.7191219 72.6931516,50.3113968 71.7773951,50.9977356 C71.3133645,51.3329752 70.8758576,51.7010278 70.4506557,52.0789243 L69.8283023,52.6613552 C69.6297835,52.864249 69.4389212,53.0747992 69.2442307,53.2801539 C69.0468057,53.4827743 68.878639,53.7124654 68.7014488,53.932586 C68.5305477,54.157902 68.3462479,54.3709131 68.1977691,54.6126356 C68.0394463,54.8458814 67.8775688,55.0755725 67.7077614,55.2989744 C67.6164319,55.4061636 67.5494386,55.530853 67.4668592,55.6443314 L67.2229492,55.9883211 C66.8726703,56.432664 66.5781735,56.9141949 66.2352776,57.3771318 C66.0575404,57.6057291 65.9175382,57.8553814 65.7507388,58.0943695 C65.583119,58.3333576 65.4157726,58.5748067 65.2221758,58.8099666 L65.1204555,58.7697707 C65.2949114,57.585221 65.6993317,56.4356718 66.3028177,55.39714 C66.8677483,54.3274359 67.7635435,53.4841415 68.6224241,52.6646365 C69.4851329,51.838569 70.4569449,51.1363706 71.4782498,50.5397206 C72.5069377,49.9559225 73.5832045,49.4563444 74.7264645,49.1667696 L74.75709,49.2720446 Z" id="Fill-181" fill="#6CEFA1"></path>
						<path d="M69.2728874,64.6104319 C69.2728874,65.6495106 67.6557528,67.2666452 66.6166741,67.2666452 C65.577322,67.2666452 64.6243775,66.3137007 64.6243775,65.2743485 C64.6243775,64.2352699 66.4629999,62.6181353 67.5020785,62.6181353 C68.5411572,62.6181353 69.2728874,63.5710798 69.2728874,64.6104319" id="Fill-183" fill="#B9FCD3"></path>
						<path d="M63.2571687,66.6807142 C63.2571687,67.230879 62.4010225,68.0870251 61.8508577,68.0870251 C61.3006929,68.0870251 60.7961929,67.5825251 60.7961929,67.0320868 C60.7961929,66.481922 61.7696455,65.6260493 62.3195369,65.6260493 C62.8697017,65.6260493 63.2571687,66.1305494 63.2571687,66.6807142" id="Fill-185" fill="#66DD91"></path>
						<line x1="61.7776847" y1="66.5677827" x2="61.4183822" y2="67.3052552" id="Stroke-187" stroke="#37B762" stroke-width="0.5" stroke-linecap="round"></line>
						<line x1="62.6348426" y1="66.6809876" x2="62.1560461" y2="67.6645576" id="Stroke-189" stroke="#37B762" stroke-width="0.5" stroke-linecap="round"></line>
						<path d="M56.7052581,15.476366 C55.9675122,15.5980476 55.2275788,15.7733238 54.5007706,15.9644595 C53.7715014,16.1514937 53.0501621,16.3645048 52.3381197,16.6013054 C50.9137616,17.0716252 49.5192087,17.6133134 48.1760627,18.2496123 C46.8282683,18.8738799 45.5288731,19.5853753 44.294557,20.3808174 C43.0539517,21.1639546 41.8677614,22.0211945 40.7718068,22.9722249 C39.6731178,23.9216147 38.7062278,25.0028034 37.8076981,26.1137973 C37.3762071,26.6858374 36.9222937,27.2324475 36.5020137,27.8064018 C36.0541161,28.3587541 35.6477817,28.9411851 35.2042592,29.5031079 C34.3708087,30.6605868 33.5165766,31.8314645 32.747385,33.0876559 C32.3273784,33.699892 31.9708104,34.3490427 31.5584602,34.9883496 C31.1488444,35.6301174 30.7914561,36.3014169 30.3290661,36.9574037 L30.0124205,36.8718164 C30.00285,36.4742321 30.0173425,36.0788353 30.0367568,35.6815244 C30.0569915,35.2842135 30.0753121,34.8833479 30.1423053,34.4945137 C30.2642604,33.7130172 30.3916842,32.9208564 30.6224691,32.1593211 C31.0211471,30.6102736 31.6787746,29.1336881 32.4507007,27.7183535 C33.2488772,26.3155973 34.2619789,25.0358899 35.4186375,23.9128646 C36.5985387,22.8089802 37.8700429,21.8289649 39.1587739,20.9014505 C40.4554347,19.9810455 41.824831,19.1820487 43.2289544,18.476569 C44.6434687,17.7874958 46.0981788,17.203971 47.5783191,16.7218932 C49.0625609,16.2507531 50.5684047,15.8734034 52.0887409,15.6037899 C53.6096239,15.3330825 55.1392571,15.1632752 56.6839296,15.1490562 L56.7052581,15.476366 Z" id="Fill-191" fill="#FFF0F4"></path>
						<path d="M46.5123337,49.6736759 C46.5123337,51.1070576 44.3122213,53.0476738 42.8788396,53.0476738 C41.4454579,53.0476738 38.9858493,51.1070576 38.9858493,49.6736759 C38.9858493,48.2402942 40.5370844,45.3913045 41.9704661,45.3913045 C43.4038478,45.3913045 46.5123337,48.2402942 46.5123337,49.6736759" id="Fill-193" fill="#FFD7E7"></path>
						<line x1="45.7568962" y1="61.5243136" x2="52.3194984" y2="59.6102213" id="Stroke-195" stroke="#D52746" stroke-width="1.36720879" stroke-linecap="round"></line>
						<line x1="49.0381973" y1="64.2587312" x2="54.7804742" y2="62.6180806" id="Stroke-197" stroke="#D52746" stroke-width="1.36720879" stroke-linecap="round"></line>
						<path d="M26.8894148,27.070652 C26.8894148,27.070652 23.1979511,35.6840674 26.4792522,38.418485 C29.7605533,41.1529026 37.963806,38.1450432 37.963806,41.6997861 C37.963806,45.254529 31.4012038,53.1843399 36.0497137,54.0046652 C40.384039,54.7694818 28.7909288,60.7644189 26.5385891,68.4426635 C26.1393641,69.80413 24.6619583,70.6058612 23.334672,70.1035487 C22.0700038,69.6250257 21.1471379,68.2236366 22.5143467,64.5321729 C25.2487643,57.1492454 36.1864346,44.5709246 34.8192258,42.3833905 C33.3918598,40.0996049 29.1625362,42.338546 26.2058104,43.8873202 C23.334672,45.3912498 19.0963247,45.5279707 20.0533709,40.1958564 C21.0620975,34.5760814 26.8894148,27.070652 26.8894148,27.070652" id="Fill-199" fill="#FF2348"></path>
						<path d="M17.4212205,52.8866166 C16.2260066,53.7006527 15.2112642,54.7575051 14.4551978,55.9218201 C14.0718324,56.5015166 13.7557337,57.1151199 13.5120971,57.748411 C13.2580697,58.3765067 13.0715825,59.0248371 12.9567369,59.6835583 C12.8451727,60.3444671 12.8448992,61.0190479 12.8823608,61.6818707 L12.9149003,62.1795347 L12.9214629,62.4275464 C12.9272052,62.5103992 12.935135,62.5932521 12.9373226,62.6763784 C12.9452524,62.8423575 12.9471665,63.0086101 12.9441586,63.1754096 C12.9523619,63.342756 12.9545494,63.5111961 12.9548228,63.6804565 C12.9477134,64.3577718 12.9671277,65.0503997 12.9570104,65.7725594 C12.9605651,66.1321353 12.9632995,66.4980004 12.9416976,66.8775376 C12.9321272,67.2546137 12.9280255,67.6355181 12.8689621,68.0451339 L12.637357,68.128807 C12.3455946,67.8414198 12.1085206,67.5255945 11.8665246,67.2062146 C11.6505056,66.8772641 11.4492525,66.5371026 11.2676872,66.1865502 C10.9286194,65.4769689 10.6570917,64.7266447 10.5077925,63.94132 C10.3344305,63.1609172 10.3409931,62.3403185 10.4500963,61.5399544 C10.587911,60.7365826 10.8042034,59.9537188 11.0511213,59.1891756 C11.3073362,58.4262731 11.6453103,57.6939961 12.0513713,57.0103917 C12.4691903,56.3322562 12.9575573,55.7068949 13.4997923,55.1463392 C14.6003953,54.039447 15.885845,53.1608786 17.3211408,52.6618474 L17.4212205,52.8866166 Z" id="Fill-201" fill="#EEF6FF"></path>
						<path d="M85.1325093,138.088006 C85.1325093,141.637006 72.8218879,142.736516 69.2728874,142.736516 C65.7238868,142.736516 65.9915863,135.621288 65.9915863,132.072287 C65.9915863,128.523287 70.6458384,127.150336 74.194839,127.150336 C77.7438396,127.150336 85.1325093,134.539005 85.1325093,138.088006" id="Fill-203" fill="#EDE7A2"></path>
						<path d="M13.2173269,80.2091631 C13.2173269,81.9838002 7.0605123,82.533965 5.28560184,82.533965 C3.51069139,82.533965 3.64467785,78.9753939 3.64467785,77.2004835 C3.64467785,75.425573 5.9722141,74.7389608 7.74712455,74.7389608 C9.522035,74.7389608 13.2173269,78.4342527 13.2173269,80.2091631" id="Fill-205" fill="#EDE7A2"></path>
						<path d="M48.217872,92.7874567 C48.217872,94.5620937 42.0610574,95.1122585 40.2861469,95.1122585 C38.5112364,95.1122585 38.6452229,91.5536875 38.6452229,89.778777 C38.6452229,88.0038666 40.9727592,87.3172543 42.7476696,87.3172543 C44.5225801,87.3172543 48.217872,91.0125462 48.217872,92.7874567" id="Fill-207" fill="#D2E9FC"></path>
						<line x1="70.2348828" y1="135.393921" x2="76.2407576" y2="132.305396" id="Stroke-209" stroke="#E0CA2B" stroke-width="1.36720879" stroke-linecap="round"></line>
						<line x1="71.5971423" y1="139.045052" x2="79.6636742" y2="134.806705" id="Stroke-211" stroke="#E0CA2B" stroke-width="1.36720879" stroke-linecap="round"></line>
						<line x1="5.15079506" y1="78.3409817" x2="8.97897967" y2="77.5206564" id="Stroke-213" stroke="#E5CC13" stroke-width="1.09376703" stroke-linecap="round"></line>
						<line x1="6.51800385" y1="80.8019575" x2="10.893072" y2="79.7081905" id="Stroke-215" stroke="#E5CC13" stroke-width="1.09376703" stroke-linecap="round"></line>
					</g>
				</g>
			</g>
		</g>
	</g>
</svg>