<?xml version="1.0" encoding="iso-8859-1"?>
<!-- Generator: Adobe Illustrator 23.0.0, SVG Export Plug-In . SVG Version: 6.00 Build 0)  -->
<svg version="1.1" id="&#x56FE;&#x5C42;_1" xmlns="http://www.w3.org/2000/svg" xmlns:xlink="http://www.w3.org/1999/xlink" x="0px"
	 y="0px" viewBox="0 0 500 500" style="enable-background:new 0 0 500 500;" xml:space="preserve">
<g>

		<radialGradient id="SVGID_1_" cx="112.9234" cy="-271.8629" r="146.6265" gradientTransform="matrix(0.9942 0.1073 -0.1073 0.9942 110.5505 508.6321)" gradientUnits="userSpaceOnUse">
		<stop  offset="0" style="stop-color:#0061C1;stop-opacity:0"/>
			<stop  offset="0.8579" style="stop-color:#0061C1;stop-opacity:0"/>
			<stop  offset="1" style="stop-color:#0061C1;stop-opacity:0.6"/>
	</radialGradient>
	<circle style="opacity:0.8;fill:url(#SVGID_1_);" cx="251.983" cy="250.45" r="146.626"/>
	<circle style="fill:#102D77;" cx="251.983" cy="250.45" r="116.934"/>
	<path style="fill:#0061C1;" d="M363.772,216.051c-13.344-43.29-51.349-76.692-99.246-81.86
		c-28.822-3.109-56.325,4.535-78.513,19.711c8.136,11.653,17.159,25.433,27.494,30.82c20.113,10.483,50.963-4.354,53.26,5.746
		s28.122-0.969,30.509,5.447C299.026,200.618,335.637,216.698,363.772,216.051z"/>
	<path style="fill:#0061C1;" d="M196.282,253.062c-22.889-2.469-44.817-19.718-57.564-31.727
		c-1.373,5.369-2.382,10.901-2.994,16.572c-5.468,50.681,22.311,97.285,65.834,118.08c14.451-7.174,21.648-19.26,22.345-27.901
		c0.911-11.294-21.613-25.115-3.546-41.331S231.89,256.903,196.282,253.062z"/>
	<path style="fill:#0061C1;" d="M337.36,278.134c-62.638-10.144-95.808,40.465-77.571,45.511c18.237,5.046,28.632,0.01,44.434,4.794
		c6.476,1.961,11.883,8.564,17.216,16.081c19.439-14.361,34.407-34.676,41.994-58.607
		C356.846,282.633,348.331,279.911,337.36,278.134z"/>

	<radialGradient id="SVGID_2_" cx="112.9234" cy="-271.8629" r="116.9339" gradientTransform="matrix(0.9942 0.1073 -0.1073 0.9942 110.5505 508.6321)" gradientUnits="userSpaceOnUse">
		<stop  offset="0" style="stop-color:#0061C1;stop-opacity:0"/>
		<stop  offset="0.8022" style="stop-color:#FF7BAC;stop-opacity:0"/>
		<stop  offset="1" style="stop-color:#FF7BAC;stop-opacity:0.6"/>
	</radialGradient>
	<circle style="opacity:0.7;fill:url(#SVGID_2_);" cx="251.983" cy="250.45" r="116.934"/>
	<path style="fill:#1673C8;" d="M461.379,247.817c-11.063-7.095-27.026-14.072-47.447-20.736
		c-15.243-4.975-32.432-9.605-51.049-13.791c1.817,5.41,3.245,10.984,4.256,16.684c15.211,3.602,29.332,7.508,42.044,11.656
		c18.914,6.173,34.106,12.767,43.933,19.069c9.168,5.88,12.144,10.534,11.907,12.733c-0.237,2.199-4.138,6.111-14.349,9.901
		c-10.945,4.062-27.194,7.264-46.989,9.26c-42.111,4.247-97.48,3.115-155.905-3.189c-58.425-6.303-112.761-17.006-152.998-30.137
		c-18.914-6.173-34.106-12.767-43.933-19.069c-9.168-5.88-12.144-10.534-11.907-12.733c0.237-2.199,4.138-6.111,14.349-9.901
		c10.945-4.062,27.194-7.264,46.989-9.26c13.305-1.342,27.934-2.146,43.563-2.42c2.204-5.354,4.788-10.495,7.717-15.393
		c-19.081,0.119-36.863,0.976-52.816,2.585c-21.373,2.155-38.457,5.567-50.778,10.139c-15.07,5.592-23.226,13.199-24.241,22.608
		c-1.015,9.409,5.331,18.58,18.861,27.258c11.063,7.095,27.026,14.072,47.447,20.736c41.216,13.451,96.655,24.391,156.104,30.804
		c59.45,6.414,115.946,7.55,159.083,3.199c21.373-2.155,38.457-5.567,50.778-10.139c15.07-5.592,23.226-13.199,24.241-22.608
		C481.256,265.666,474.91,256.495,461.379,247.817z"/>
</g>
</svg>
