<?xml version="1.0" encoding="utf-8"?>
<!-- Generator: Adobe Illustrator 23.1.0, SVG Export Plug-In . SVG Version: 6.00 Build 0)  -->
<svg version="1.1" id="暂无内容" xmlns="http://www.w3.org/2000/svg" xmlns:xlink="http://www.w3.org/1999/xlink" x="0px"
	 y="0px" viewBox="0 0 800 800" style="enable-background:new 0 0 800 800;" xml:space="preserve">
<style type="text/css">
	.st0{fill:#F7A152;}
	.st1{fill:#FD9CAB;}
	.st2{fill:#FCFCFC;}
	.st3{fill:#FFFFFF;}
	.st4{fill:#333B44;}
	.st5{fill:#F7935C;}
	.st6{fill:#EF7062;}
	.st7{fill:#FFB07D;}
	.st8{fill:#FF7931;}
	.st9{fill:#F2B655;}
	.st10{fill:#F7F89B;}
	.st11{fill:none;stroke:#333B44;stroke-width:8;stroke-linecap:round;stroke-linejoin:round;stroke-miterlimit:10;}
	.st12{fill:#FFEED9;}
	.st13{fill:#F7E9CF;}
	.st14{fill:#FF5F57;}
	.st15{fill:#F39800;}
	.st16{fill:#E58339;}
	.st17{fill:#FFEAD9;}
	.st18{fill:#FFD6B8;}
	.st19{fill:#E7D6BB;}
	.st20{fill:#FF9C4A;}
	.st21{fill:#E8D7BB;}
	.st22{fill:#FE8804;}
	.st23{fill:#EF6054;}
	.st24{fill:#FEF388;}
	.st25{fill:#FBEE86;}
	.st26{fill:#FEB706;}
	.st27{fill:#FF7443;}
	.st28{fill:#E17547;}
	.st29{fill:#FED590;}
	.st30{fill:#FF8431;}
	.st31{fill:#FDD59A;}
	.st32{fill:#FDF2D6;}
	.st33{fill:#DD6C10;}
	.st34{fill:#FFD7B3;}
	.st35{fill:#FF7300;}
	.st36{fill:#EF2E1F;}
	.st37{fill:#FE9220;}
	.st38{fill:#FFBC13;}
	.st39{fill:#E8B792;}
	.st40{fill:#FAC2AB;}
	.st41{fill:#ECAFAF;}
	.st42{fill:#FFE0C2;}
	.st43{fill:#FF647E;}
	.st44{fill:#D8C29E;}
	.st45{fill:#F98E23;}
	.st46{fill:#FFBE88;}
	.st47{fill:#F5B400;}
</style>
<g>
	<g>
		<g>
			<path class="st13" d="M713.74,241.34C685.94,53.43,484.6,60.14,403.41,60.14s-282.53-6.71-310.33,181.2
				s134.89,317.34,155.17,348.02c0,0,13.74,18.62,28.87,39.04c-13.37-48.18-19.84-106.63-26.1-167.97
				c-7.46-73.02-9.13-131.75-8.23-177.07c12.14,24.59,32.4,39.32,45.77,33.01c3.69-1.74,6.44-4.94,8.3-9.13
				c0.14,0.4,0.3,0.82,0.43,1.22c21.09,63.28,51.77,119.84,110.25,119.84c58.48,0,88.2-54.65,99.71-114.09
				c0.15-0.78,0.35-1.58,0.52-2.37c1.54,1.93,3.36,3.5,5.53,4.52c13.64,6.45,34.47-8.99,46.52-34.48c1.43-3.02,2.65-6.04,3.7-9.03
				c6.31,59.62-1.17,128.17-4.5,177.5c-2.58,38.31-4.01,102.72-17.92,162.07c6.75-9.39,12.89-17.66,17.48-23.05
				C582.39,561.34,741.54,429.25,713.74,241.34z"/>
		</g>
	</g>
	<g>
		<g>
			<path class="st3" d="M563.51,272.84c-1.05,2.99-2.28,6.02-3.7,9.03c-12.05,25.49-32.87,40.93-46.52,34.48
				c-2.17-1.03-3.99-2.59-5.53-4.52c-0.16,0.79-0.36,1.58-0.52,2.37c-11.51,59.44-41.23,114.09-99.71,114.09
				s-89.16-56.56-110.25-119.84c-0.13-0.4-0.3-0.82-0.43-1.22c-1.86,4.19-4.62,7.39-8.3,9.13c-13.37,6.32-33.63-8.41-45.77-33.01
				c-0.9,45.32,0.77,104.05,8.23,177.07c15.73,153.96,32.56,290,157.34,290c144.92,0,144.92-214.75,150.67-300.08
				C562.34,401.01,569.82,332.46,563.51,272.84z"/>
		</g>
	</g>
	<g>
		<g>
			<path class="st14" d="M453.39,544.14l-28.23-53.52v-66.49c0-9.64-7.82-17.46-17.46-17.46s-17.46,7.82-17.46,17.46v68.6
				l-32.54,50.03c-5.26,8.09-2.97,18.9,5.11,24.15c8.09,5.26,18.9,2.97,24.15-5.11l20.03-30.79l15.51,29.41
				c3.13,5.93,9.19,9.32,15.46,9.32c2.75,0,5.54-0.65,8.13-2.02C454.62,563.23,457.88,552.67,453.39,544.14z"/>
		</g>
	</g>
	<g>
		<g>
			<path class="st15" d="M403.41,60.14c-70.6,0-231.98-5.04-291.2,117.13c22.36-23.36,51.51-42.12,81.53-28.93
				c16.69,10.77,40.63,39.98,62.16,74.72c12.26,2.63,26.42,16.15,35.54,35.46c8.79,18.6,10.44,37.37,5.42,48.69
				c0.14,0.41,0.29,0.83,0.43,1.23c21.09,63.28,51.77,119.84,110.25,119.84s88.2-54.65,99.71-114.09c0.15-0.79,0.33-1.59,0.5-2.39
				c-8.13-10.21-7.46-31.87,2.66-53.29c8.91-18.85,22.62-32.18,34.67-35.25c17.99-28.48,40.17-53.48,62.83-69.18
				c32.49-22.51,72.25,12.92,96.58,47.61C655.95,54.43,478.42,60.14,403.41,60.14z"/>
		</g>
	</g>
	<g>
		<g>
			
				<ellipse transform="matrix(0.9041 -0.4273 0.4273 0.9041 -89.873 139.8681)" class="st3" cx="266.73" cy="270.2" rx="27.32" ry="51.05"/>
		</g>
	</g>
	<g>
		<g>
			
				<ellipse transform="matrix(0.4273 -0.9041 0.9041 0.4273 62.181 638.5557)" class="st3" cx="535.1" cy="270.2" rx="51.05" ry="27.32"/>
		</g>
	</g>
	<path class="st4" d="M725.85,239.55c-4.63-31.32-13.85-57.5-26.37-79.44c-0.29-0.52-0.59-1.03-0.88-1.54
		c-1.79-3.06-3.63-6.05-5.54-8.95c-0.85-1.29-1.72-2.54-2.59-3.8c-0.9-1.29-1.81-2.55-2.74-3.81
		c-62.26-85.44-179.6-93.49-253.95-94.1c-1.12-0.01-2.22-0.02-3.33-0.02c-1.42-0.01-2.82-0.02-4.2-0.02
		c-5.18-0.02-10.1-0.01-14.67,0.01c-0.03,0-0.06,0-0.09,0l-8.09,0.01l-8.07-0.01c-0.12,0-0.24,0-0.36,0c-1.69,0-3.43-0.01-5.21-0.01
		c-0.8,0-1.57,0-2.38,0c-1.87,0-3.8,0-5.75,0c-0.91,0-1.82,0.01-2.74,0.01c-1.5,0.01-3.03,0.02-4.58,0.03
		c-1.7,0.01-3.42,0.03-5.17,0.05c-0.48,0.01-0.96,0.01-1.45,0.02c-54.31,0.74-130.49,6.29-191.28,42.6
		c-0.36,0.22-0.73,0.44-1.09,0.65c-2.37,1.43-4.71,2.91-7.03,4.44c-1.53,1-3.05,2.02-4.55,3.07c-1.01,0.71-2.02,1.41-3.02,2.14
		c-2.49,1.8-4.95,3.66-7.36,5.58c-0.33,0.26-0.66,0.53-0.98,0.8c-35.25,28.4-62.26,70.33-71.43,132.29
		C56.99,401.52,170.09,522.3,218.39,573.87c9,9.61,16.77,17.91,19.63,22.24c0.12,0.18,0.24,0.35,0.36,0.51
		c0,0,12.75,17.28,27.21,36.8c21.21,75.06,60.18,129.24,142.75,129.24c86.19,0,125.14-68.81,143.66-144.45
		c7.2-9.99,12.29-16.69,15.9-20.93c2.52-2.97,7.15-7.66,13.01-13.59C627.5,536.53,751.25,411.24,725.85,239.55z M383.19,72.36
		c0.47,0,0.95,0,1.42,0c0.59,0,1.15,0,1.73,0c3.05,0,6.04,0.01,8.89,0.01l8.17,0.01l8.17-0.01c0.09,0,0.18,0,0.27,0
		c1.5,0,3.04-0.01,4.6-0.01c0.56,0,1.13,0,1.7,0c62.71-0.08,171.66,1.93,235.49,67.51c-17.56-7.41-35.76-7.57-52.7,4.16
		c-22.33,15.47-44.89,39.88-63.85,69.02c-0.27,0.11-0.53,0.27-0.8,0.38c-1.24,0.52-2.47,1.13-3.7,1.79c-0.4,0.21-0.8,0.4-1.2,0.63
		c-1.89,1.07-3.76,2.24-5.62,3.62c-3.17,2.35-6.22,5.14-9.16,8.23c-0.22,0.24-0.45,0.47-0.67,0.71c-1.47,1.58-2.9,3.22-4.29,4.97
		c-0.05,0.07-0.11,0.13-0.16,0.2c-1.43,1.81-2.8,3.7-4.13,5.66c-0.27,0.4-0.52,0.81-0.79,1.21c-1.03,1.57-2.03,3.19-2.99,4.85
		c-0.31,0.53-0.61,1.05-0.91,1.59c-1.17,2.09-2.29,4.22-3.33,6.42c-1.17,2.47-2.19,4.96-3.15,7.46c-0.27,0.7-0.53,1.39-0.78,2.08
		c-0.8,2.23-1.54,4.46-2.17,6.68c-0.29,1.02-0.52,2.01-0.77,3.02c-0.32,1.29-0.61,2.57-0.87,3.85c-0.24,1.17-0.48,2.34-0.67,3.49
		c-0.3,1.87-0.53,3.73-0.7,5.56c-0.1,1.09-0.15,2.16-0.2,3.24c-0.06,1.3-0.08,2.58-0.07,3.86c0.01,0.82-0.01,1.65,0.03,2.46
		c0,0.07,0,0.14,0,0.2c0.1,2.05,0.32,4.02,0.63,5.93c0.1,0.62,0.25,1.2,0.37,1.8c0.3,1.5,0.64,2.97,1.06,4.37
		c0.19,0.63,0.4,1.24,0.61,1.85c0.51,1.46,1.1,2.85,1.75,4.18c0.13,0.27,0.22,0.59,0.36,0.85c-0.04,0.22-0.09,0.43-0.13,0.65
		c-0.13,0.65-0.27,1.31-0.41,1.97c-0.13,0.6-0.26,1.21-0.39,1.82c-0.15,0.67-0.3,1.35-0.46,2.04c-0.14,0.62-0.29,1.25-0.44,1.88
		c-0.16,0.69-0.33,1.38-0.5,2.08c-0.16,0.65-0.32,1.3-0.49,1.96c-0.18,0.7-0.36,1.4-0.54,2.1c-0.18,0.67-0.35,1.34-0.54,2.01
		c-0.2,0.72-0.4,1.44-0.6,2.16c-0.19,0.67-0.38,1.34-0.58,2.02c-0.21,0.73-0.43,1.47-0.66,2.2c-0.21,0.68-0.42,1.36-0.63,2.05
		c-0.23,0.73-0.46,1.46-0.7,2.2c-0.23,0.7-0.46,1.4-0.7,2.1c-0.25,0.73-0.5,1.46-0.75,2.19c-0.25,0.71-0.5,1.42-0.76,2.14
		c-0.26,0.72-0.53,1.44-0.8,2.16c-0.27,0.72-0.55,1.45-0.83,2.17c-0.28,0.71-0.56,1.43-0.85,2.14c-0.29,0.72-0.59,1.45-0.9,2.17
		c-0.3,0.71-0.6,1.41-0.9,2.12c-0.32,0.73-0.64,1.45-0.97,2.18c-0.31,0.7-0.63,1.39-0.96,2.08c-0.34,0.72-0.69,1.44-1.04,2.16
		c-0.34,0.69-0.68,1.38-1.02,2.06c-0.36,0.71-0.73,1.41-1.11,2.12c-0.36,0.68-0.72,1.36-1.09,2.03c-0.39,0.7-0.79,1.39-1.18,2.09
		c-0.38,0.66-0.76,1.32-1.15,1.97c-0.41,0.69-0.84,1.37-1.27,2.06c-0.4,0.64-0.8,1.28-1.21,1.91c-0.44,0.67-0.89,1.33-1.34,2
		c-0.43,0.62-0.85,1.25-1.29,1.86c-0.47,0.65-0.95,1.3-1.43,1.94c-0.45,0.6-0.89,1.19-1.35,1.78c-0.5,0.64-1.01,1.26-1.53,1.89
		c-0.47,0.57-0.93,1.14-1.41,1.69c-0.53,0.61-1.08,1.21-1.62,1.81c-0.49,0.54-0.98,1.08-1.48,1.61c-0.56,0.58-1.14,1.15-1.71,1.72
		c-0.52,0.51-1.03,1.03-1.56,1.52c-0.59,0.55-1.19,1.08-1.8,1.61c-0.54,0.48-1.08,0.96-1.63,1.43c-0.62,0.52-1.26,1.01-1.9,1.51
		c-0.57,0.44-1.13,0.89-1.7,1.32c-0.66,0.48-1.34,0.94-2.01,1.4c-0.59,0.4-1.16,0.81-1.76,1.2c-0.7,0.45-1.42,0.86-2.13,1.28
		c-0.43,0.25-0.85,0.51-1.29,0.76c-8.91,5.96-24.49,7.99-24.49,7.99c-0.7,0.09-1.4,0.16-2.11,0.23c-0.59,0.06-1.17,0.14-1.77,0.18
		c-1.75,0.12-3.53,0.19-5.35,0.19c-1.32,0-2.63-0.03-3.93-0.1c-0.47-0.02-0.92-0.07-1.38-0.11c-0.83-0.06-1.65-0.11-2.47-0.19
		c-0.04,0-0.08-0.01-0.12-0.02c-9.14-0.4-24.49-7.53-24.49-7.53c-0.18-0.1-0.37-0.18-0.55-0.28c-0.65-0.36-1.29-0.74-1.94-1.12
		c-0.47-0.28-0.94-0.54-1.41-0.83c-0.66-0.41-1.31-0.85-1.97-1.28c-0.44-0.29-0.89-0.57-1.32-0.88c-0.66-0.46-1.32-0.96-1.98-1.45
		c-0.42-0.31-0.84-0.61-1.26-0.93c-0.67-0.52-1.33-1.07-1.99-1.62c-0.39-0.33-0.79-0.64-1.18-0.97c-0.67-0.57-1.33-1.18-1.99-1.78
		c-0.38-0.35-0.76-0.68-1.14-1.04c-0.67-0.63-1.33-1.29-1.99-1.94c-0.36-0.36-0.73-0.71-1.09-1.08c-0.67-0.69-1.33-1.41-1.99-2.13
		c-0.34-0.37-0.69-0.74-1.03-1.12c-0.67-0.75-1.33-1.53-1.99-2.31c-0.33-0.39-0.66-0.76-0.98-1.16c-0.67-0.81-1.33-1.64-1.98-2.48
		c-0.32-0.4-0.64-0.8-0.95-1.21c-0.66-0.86-1.31-1.75-1.96-2.65c-0.31-0.42-0.62-0.84-0.92-1.27c-0.65-0.92-1.3-1.86-1.94-2.82
		c-0.3-0.44-0.6-0.88-0.9-1.33c-0.65-0.97-1.29-1.98-1.93-2.99c-0.29-0.46-0.58-0.91-0.87-1.38c-0.64-1.03-1.27-2.09-1.9-3.16
		c-0.29-0.48-0.57-0.95-0.85-1.44c-0.63-1.09-1.25-2.2-1.88-3.32c-0.28-0.5-0.56-1-0.84-1.52c-0.62-1.14-1.23-2.3-1.85-3.48
		c-0.28-0.53-0.56-1.05-0.83-1.59c-0.61-1.19-1.21-2.4-1.82-3.63c-0.28-0.56-0.55-1.12-0.83-1.69c-0.59-1.22-1.18-2.48-1.77-3.74
		c-0.28-0.61-0.57-1.21-0.85-1.82c-0.58-1.26-1.15-2.55-1.72-3.84c-0.11-0.25-0.22-0.5-0.33-0.74c-0.18-0.4-0.35-0.8-0.53-1.2
		c-0.55-1.28-1.11-2.59-1.66-3.9c-0.3-0.72-0.6-1.44-0.9-2.17c-0.53-1.28-1.05-2.59-1.57-3.9c-0.32-0.8-0.64-1.61-0.96-2.42
		c-0.49-1.27-0.99-2.56-1.48-3.86c-0.34-0.91-0.68-1.81-1.02-2.73c-0.46-1.23-0.91-2.49-1.37-3.75c-0.37-1.04-0.75-2.08-1.12-3.14
		c-0.41-1.17-0.82-2.36-1.23-3.55c-0.24-0.71-0.49-1.42-0.73-2.14c3.26-10.92,2.75-24.76-1.72-39.47c-0.02-0.08-0.04-0.15-0.07-0.23
		c-0.65-2.12-1.38-4.25-2.2-6.4c-0.13-0.33-0.24-0.67-0.37-1c-0.9-2.3-1.88-4.61-2.97-6.93c-0.04-0.08-0.08-0.15-0.12-0.22
		c-1-2.1-2.07-4.14-3.19-6.14c-0.39-0.7-0.79-1.38-1.19-2.07c-0.84-1.43-1.71-2.83-2.61-4.2c-0.42-0.64-0.82-1.29-1.24-1.91
		c-1.21-1.76-2.46-3.47-3.76-5.1c-0.49-0.62-0.99-1.19-1.49-1.79c-0.94-1.13-1.9-2.23-2.88-3.29c-0.53-0.57-1.06-1.14-1.59-1.69
		c-1.31-1.34-2.64-2.62-4-3.82c-0.15-0.14-0.3-0.29-0.46-0.42c-1.29-1.12-2.6-2.18-3.92-3.16c-0.26-0.2-0.53-0.34-0.8-0.53
		c-0.54-0.39-1.09-0.73-1.63-1.09c-1.16-0.77-2.31-1.5-3.48-2.15c-0.64-0.36-1.27-0.68-1.91-1c-1.05-0.53-2.1-1.01-3.15-1.44
		c-0.42-0.17-0.84-0.42-1.26-0.57c-22.54-35.69-46.1-63.43-63.47-74.63c-0.55-0.35-1.12-0.66-1.71-0.92
		c-10.1-4.44-23.14-7.18-38.54-4C222.89,75.96,322.93,72.45,383.19,72.36z M418.17,521.27c-2.02-3.84-5.93-6.32-10.27-6.52
		c-4.39-0.2-8.46,1.92-10.82,5.56L373.21,557c-1.24,1.91-3.16,3.23-5.39,3.7c-2.22,0.47-4.52,0.05-6.45-1.21
		c-1.91-1.24-3.23-3.16-3.7-5.39c-0.47-2.24-0.04-4.53,1.2-6.45l38.78-59.62c1.29-1.98,1.98-4.3,1.98-6.68v-37.01h17.12v34.5
		c0,1.99,0.49,3.95,1.42,5.71l33.64,63.78c1.07,2.02,1.28,4.34,0.61,6.52c-0.67,2.18-2.16,3.97-4.17,5.04
		c-4.16,2.18-9.45,0.47-11.58-3.57L418.17,521.27z M419.07,573.65h-27.81c0.88-1.05,1.72-2.13,2.48-3.3l12.5-19.21l8.76,16.61
		C416.14,569.9,417.54,571.84,419.07,573.65z M236.27,557.13c-49.76-53.14-153.32-163.73-131.09-314
		c3.32-22.44,9.29-41.92,17.31-58.85c24.08-24.59,46.09-33.06,65.42-25.11c12.46,8.43,30.52,29.48,48.19,55.83
		c-17.01,11.41-19.54,40.81-5.61,71.07c-0.92,53.33,1.86,112.37,8.32,175.6c3.93,38.51,7.92,77.33,14.09,113.73
		C248.72,570.43,243.11,564.45,236.27,557.13z M253.71,277.86c-0.2-0.41-0.42-0.8-0.61-1.22c-10.29-21.77-7.75-39.26-2.95-41.53
		c0.4-0.19,0.91-0.29,1.53-0.29c0.47,0,1.02,0.09,1.61,0.21c0.01,0,0.02,0.01,0.03,0.01c0.91,0.2,1.89,0.53,2.92,0.99
		c0.09,0.04,0.19,0.1,0.27,0.14c0.9,0.41,1.83,0.93,2.79,1.53c0.23,0.14,0.47,0.31,0.7,0.47c0.96,0.64,1.94,1.35,2.94,2.16
		c0.07,0.05,0.13,0.11,0.2,0.16c2.31,1.91,4.68,4.29,7.01,7.1c0.1,0.13,0.21,0.25,0.31,0.38c1.09,1.33,2.17,2.75,3.23,4.26
		c0.07,0.09,0.14,0.18,0.2,0.28c1.03,1.49,2.03,3.09,3.01,4.75c0.23,0.39,0.45,0.79,0.68,1.19c0.95,1.68,1.88,3.41,2.75,5.25
		c0.01,0.02,0.02,0.04,0.03,0.06l0,0c0.03,0.07,0.06,0.15,0.1,0.22c0.87,1.85,1.63,3.67,2.32,5.47c0.12,0.31,0.24,0.61,0.35,0.92
		c5.18,14.01,5.14,26.02,2.53,31.88c0,0,0,0.01,0,0.01c-0.2,0.45-0.52,1.08-0.91,1.66c-0.01,0.02-0.03,0.03-0.04,0.05
		c-0.39,0.56-0.86,1.07-1.39,1.32c-0.24,0.11-0.52,0.18-0.81,0.23c-1.75,0.27-4.71-0.5-8.36-2.79c-0.25-0.16-0.51-0.33-0.77-0.51
		c-0.31-0.21-0.62-0.42-0.94-0.65c-0.4-0.29-0.81-0.61-1.22-0.93c-0.33-0.25-0.65-0.52-0.98-0.79c-0.53-0.44-1.07-0.9-1.61-1.4
		c-0.09-0.08-0.18-0.17-0.27-0.25c-2.77-2.57-5.64-5.82-8.42-9.78c-0.02-0.03-0.04-0.06-0.06-0.08c-0.69-0.98-1.37-2.01-2.04-3.09
		c-0.03-0.04-0.06-0.09-0.08-0.13c-1.39-2.21-2.73-4.61-4.01-7.2C253.75,277.9,253.73,277.88,253.71,277.86z M254.87,318.9
		c0.84,0.69,1.67,1.4,2.53,2.03c6.76,5.01,13.76,7.96,20.48,8.82c0.03,0,0.06,0.02,0.1,0.02c0.02,0,0.04,0,0.06,0
		c1.3,0.16,2.59,0.27,3.86,0.27c0.15,0,0.3-0.02,0.45-0.02c0.22,0,0.43-0.03,0.65-0.03c1.14-0.04,2.26-0.15,3.37-0.33
		c0.34-0.05,0.68-0.1,1.01-0.16c1.28-0.25,2.54-0.57,3.77-1c0.05-0.02,0.11-0.02,0.17-0.04c0.62,1.67,1.25,3.36,1.9,5.04
		c0.18,0.46,0.36,0.93,0.55,1.4c0.49,1.27,0.98,2.54,1.49,3.81c0.26,0.66,0.54,1.32,0.8,1.98c0.44,1.09,0.88,2.18,1.34,3.28
		c0.29,0.71,0.6,1.42,0.9,2.12c0.44,1.05,0.89,2.09,1.34,3.14c0.32,0.74,0.65,1.47,0.98,2.21c0.45,1.02,0.91,2.04,1.38,3.06
		c0.34,0.74,0.68,1.48,1.02,2.21c0.48,1.02,0.96,2.04,1.45,3.05c0.35,0.73,0.7,1.46,1.06,2.19c0.5,1.02,1.01,2.03,1.53,3.05
		c0.36,0.72,0.72,1.43,1.09,2.14c0.54,1.04,1.1,2.08,1.65,3.12c0.36,0.67,0.71,1.34,1.08,2.01c0.63,1.14,1.27,2.27,1.92,3.4
		c0.31,0.54,0.61,1.09,0.93,1.63c1.94,3.33,3.97,6.61,6.08,9.8c0.34,0.51,0.69,1.01,1.03,1.51c0.73,1.08,1.46,2.15,2.21,3.21
		c0.42,0.6,0.86,1.18,1.29,1.78c0.69,0.95,1.38,1.89,2.08,2.82c0.47,0.62,0.96,1.23,1.44,1.85c0.69,0.88,1.38,1.76,2.09,2.62
		c0.5,0.62,1.01,1.22,1.53,1.83c0.71,0.84,1.42,1.67,2.15,2.48c0.53,0.6,1.06,1.19,1.6,1.78c0.74,0.8,1.49,1.59,2.24,2.38
		c0.54,0.57,1.09,1.13,1.64,1.68c0.79,0.79,1.59,1.55,2.39,2.32c0.54,0.52,1.08,1.04,1.64,1.54c0.86,0.79,1.75,1.55,2.63,2.31
		c0.52,0.45,1.03,0.9,1.56,1.34c0.54,0.45,1.1,0.88,1.65,1.31h-89.33C256.8,384.57,255.2,350.8,254.87,318.9z M267.22,496.82
		c-1.38-12.2-2.72-24.73-4.04-37.64c-0.51-4.98-0.98-9.91-1.44-14.84h113.39v33.38l-12.38,19.02h-94.89
		C267.65,496.75,267.44,496.8,267.22,496.82z M270.13,521.24h76.7l-8.5,13.06c-4.82,7.4-6.46,16.23-4.64,24.87
		c1.15,5.43,3.58,10.36,7.07,14.48h-62.94C274.96,557.19,272.45,539.68,270.13,521.24z M408.34,738.18
		c-49.14,0-79.98-22.71-100.65-63.15h198.2C486.03,712.23,455.6,738.18,408.34,738.18z M529.17,609.61
		c-0.06,0.27-0.07,0.54-0.12,0.82c-3.27,13.87-7.24,27.38-12.1,40.11H297.1c-5.72-15.66-10.49-33.17-14.57-52.4h249.14
		C530.88,601.98,530.06,605.81,529.17,609.61z M536.09,573.65h-66.62c8.42-9.99,10.47-24.49,4-36.74l-8.26-15.67h76.99
		C540.77,538.07,538.86,555.82,536.09,573.65z M546.8,449.51c-0.11,1.64-0.22,3.33-0.33,5.06c-0.32,5.2-0.64,10.81-0.97,16.76
		c-0.15,2.67-0.3,5.42-0.46,8.21c-0.12,2.03-0.23,4.08-0.36,6.17c-0.02,0.31-0.04,0.62-0.05,0.93c-0.2,3.29-0.41,6.67-0.63,10.1
		h-91.71l-11.05-20.94v-31.46h105.92C547.04,446.06,546.91,447.84,546.8,449.51z M552.03,375.94c-0.88,15.29-1.98,30.09-3.04,43.92
		h-82.81c0.52-0.42,1.05-0.84,1.56-1.27c0.67-0.56,1.32-1.15,1.98-1.73c0.59-0.52,1.19-1.03,1.77-1.57c0.66-0.61,1.3-1.25,1.95-1.88
		c0.57-0.55,1.14-1.09,1.69-1.65c0.66-0.67,1.31-1.38,1.95-2.07c0.76-0.81,1.52-1.63,2.26-2.47c0.89-1.01,1.77-2.02,2.64-3.07
		c0.55-0.67,1.09-1.37,1.63-2.06c0.56-0.7,1.12-1.39,1.67-2.12c0.55-0.72,1.08-1.47,1.61-2.22c0.52-0.72,1.05-1.44,1.57-2.18
		c0.54-0.77,1.06-1.57,1.58-2.36c0.49-0.74,0.99-1.47,1.47-2.23c0.52-0.82,1.04-1.66,1.55-2.5c0.47-0.77,0.94-1.53,1.4-2.31
		c0.5-0.86,0.99-1.73,1.49-2.61c0.45-0.8,0.9-1.6,1.34-2.41c0.48-0.89,0.95-1.8,1.42-2.71c0.43-0.83,0.86-1.66,1.28-2.51
		c0.46-0.93,0.91-1.87,1.36-2.82c0.41-0.87,0.82-1.74,1.22-2.62c0.44-0.96,0.86-1.92,1.29-2.9c0.4-0.91,0.79-1.83,1.18-2.76
		c0.41-0.98,0.81-1.97,1.21-2.96c0.38-0.95,0.75-1.91,1.12-2.88c0.38-1,0.76-2.01,1.13-3.03c0.37-1.01,0.72-2.03,1.08-3.05
		c0.35-1.02,0.71-2.03,1.05-3.06c0.35-1.06,0.69-2.14,1.04-3.22c0.32-1.02,0.65-2.04,0.96-3.07c0.34-1.14,0.67-2.3,1-3.46
		c0.29-1.01,0.58-2.02,0.86-3.04c0.34-1.24,0.66-2.5,0.98-3.76c0.25-0.97,0.5-1.93,0.74-2.91c0.05-0.19,0.1-0.38,0.15-0.57
		c0.07,0.01,0.15,0.01,0.22,0.01c0.77,0.09,1.55,0.12,2.34,0.15c0.3,0.01,0.6,0.05,0.9,0.05c0.04,0,0.07,0.01,0.11,0.01
		c1.03,0,2.08-0.06,3.13-0.16c0.27-0.03,0.55-0.08,0.82-0.12c0.82-0.1,1.64-0.22,2.47-0.39c0.39-0.08,0.79-0.18,1.19-0.28
		c0.72-0.17,1.43-0.35,2.16-0.57c0.43-0.13,0.86-0.27,1.29-0.42c0.7-0.24,1.4-0.49,2.09-0.77c0.44-0.17,0.87-0.35,1.31-0.54
		c0.71-0.31,1.41-0.65,2.12-1c0.42-0.21,0.84-0.41,1.26-0.64c0.76-0.41,1.52-0.85,2.27-1.31c0.36-0.22,0.72-0.42,1.08-0.64
		c1.11-0.71,2.22-1.46,3.32-2.27c1.46-1.08,2.89-2.27,4.3-3.51c0.45-0.39,0.88-0.82,1.33-1.23c0.96-0.89,1.91-1.8,2.84-2.76
		c0.23-0.23,0.46-0.43,0.69-0.67C554,333.83,553.22,355.29,552.03,375.94z M551.98,268.73c-0.01,0.02-0.02,0.03-0.02,0.05
		c-0.95,2.71-2.04,5.35-3.22,7.86c-4.29,9.09-10.1,17.09-16.23,22.47c-0.88,0.77-1.76,1.48-2.65,2.14
		c-5.35,3.96-9.54,4.87-11.34,4.03c-0.33-0.16-0.76-0.54-1.19-1.09c0,0-0.01-0.01-0.01-0.01c0,0,0,0,0,0
		c-2.55-3.2-3.95-11.56-1.79-22.64c0.08-0.4,0.15-0.8,0.24-1.2c0.13-0.59,0.27-1.19,0.42-1.79c0.18-0.73,0.37-1.47,0.58-2.2
		c0.11-0.41,0.23-0.83,0.35-1.24c0.28-0.93,0.58-1.87,0.9-2.81c0.1-0.3,0.2-0.6,0.3-0.9c0.35-1,0.74-2,1.14-2.99
		c0.11-0.29,0.21-0.57,0.33-0.85c0.4-0.96,0.83-1.91,1.27-2.87c0.14-0.31,0.27-0.62,0.41-0.93c0.87-1.85,1.8-3.58,2.75-5.25
		c0.27-0.48,0.54-0.96,0.82-1.44c0.9-1.53,1.83-3.01,2.77-4.38c0.29-0.43,0.6-0.83,0.9-1.24c0.75-1.05,1.51-2.06,2.28-3.01
		c0.33-0.41,0.66-0.82,0.99-1.22c2.17-2.57,4.35-4.76,6.47-6.53c0.17-0.14,0.33-0.27,0.5-0.4c0.9-0.73,1.78-1.38,2.65-1.96
		c0.27-0.18,0.53-0.36,0.79-0.52c0.87-0.55,1.72-1.03,2.54-1.43c0.14-0.07,0.29-0.15,0.42-0.21c0.96-0.44,1.89-0.79,2.75-1.01
		c0.08-0.02,0.16-0.06,0.24-0.09c0.67-0.16,1.28-0.24,1.81-0.24c0.62,0,1.14,0.1,1.54,0.29c1.79,0.85,3.75,4.67,4.08,11.31
		C556.1,253.03,554.74,260.86,551.98,268.73z M563.49,566.49c-0.63,0.64-1.26,1.27-1.86,1.88c3.28-23.26,5.2-45.98,6.57-66.54
		c0.14-2.07,0.27-4.1,0.4-6.12c0.07-1.05,0.13-2.1,0.2-3.14c0.43-7,0.81-13.66,1.15-19.86c0.11-1.93,0.21-3.83,0.32-5.68
		c0.32-5.66,0.63-10.97,0.96-15.85c0.56-8.35,1.25-17.26,1.96-26.59c1.07-13.91,2.21-28.87,3.14-44.37c0.07-1.15,0.13-2.3,0.2-3.46
		c0.25-4.39,0.48-8.82,0.69-13.28c1.37-29.54,1.58-60.35-1.27-89.27c3.21-10.01,4.74-19.99,4.29-29.01
		c-0.68-13.71-5.99-24.49-14.69-30.28c15.37-21.36,32.51-39.1,49.34-50.77c23.62-16.35,56.73,12.62,78.47,43.03
		c3.56,11.06,6.36,23,8.27,35.94C725.24,402.73,607.73,521.7,563.49,566.49z"/>
</g>
</svg>
